<svg width="160" height="160" viewBox="0 0 160 160" fill="none" xmlns="http://www.w3.org/2000/svg">
<circle cx="80" cy="63.024" r="45.3445" stroke="#008080" stroke-width="3.35885"/>
<circle cx="80.0004" cy="63.0238" r="36.9474" stroke="#008080" stroke-width="3.35885"/>
<path d="M73.8701 51.906L80.0002 37.1676L86.1303 51.906C86.5656 52.9527 87.5499 53.6678 88.6799 53.7584L104.591 55.034L92.4684 65.4185C91.6075 66.1559 91.2316 67.3131 91.4946 68.4157L95.1983 83.9425L81.5759 75.622C80.6085 75.0311 79.3919 75.0311 78.4245 75.622L64.8021 83.9425L68.5058 68.4157C68.7688 67.3131 68.3929 66.1559 67.532 65.4185L55.4092 55.034L71.3205 53.7584C72.4505 53.6678 73.4348 52.9527 73.8701 51.906ZM105.205 54.5087L105.204 54.5092L105.205 54.5087ZM54.7959 54.5087C54.796 54.5088 54.7962 54.509 54.7964 54.5091L54.7959 54.5087Z" stroke="#008080" stroke-width="3.35885"/>
<path d="M56.1489 129.706L43.4033 131.014L56.2701 102.115L77.9508 111.768L65.0911 140.651L57.6817 130.393L57.1138 129.607L56.1489 129.706Z" stroke="#008080" stroke-width="3.35885"/>
<path d="M103.671 129.706L116.417 131.014L103.55 102.115L81.8691 111.768L94.7288 140.651L102.138 130.393L102.706 129.607L103.671 129.706Z" stroke="#008080" stroke-width="3.35885"/>
<rect x="76.9775" y="108.033" width="5.71005" height="3.02297" fill="#008080"/>
</svg>
