<svg width="160" height="160" viewBox="0 0 160 160" fill="none" xmlns="http://www.w3.org/2000/svg">
<path d="M83.1953 123.171V63.1706C93.9809 62.2973 97.8762 60.902 102.22 57.317H125.634L130.756 51.4633V44.8779H134.415L138.805 49.9999V123.171L134.415 126.829H86.1221L83.1953 123.171Z" fill="#008080"/>
<path d="M91.2441 65.3657H129.293" stroke="white" stroke-width="2.92683"/>
<path d="M91.2441 75.6099H129.293" stroke="white" stroke-width="2.92683"/>
<path d="M91.2441 85.8535H129.293" stroke="white" stroke-width="2.92683"/>
<path d="M91.2441 96.0977H129.293" stroke="white" stroke-width="2.92683"/>
<path d="M91.2441 106.341H129.293" stroke="white" stroke-width="2.92683"/>
<path d="M91.2441 116.585H129.293" stroke="white" stroke-width="2.92683"/>
<circle cx="59.7806" cy="34.6342" r="14.6342" fill="#008080"/>
<path d="M101.488 49.9999H124.171V41.2194H116.854C116.854 41.2194 113.709 35.3657 110.268 35.3657C106.827 35.3657 103.683 41.2194 103.683 41.2194H101.488" stroke="#008080" stroke-width="2.92683"/>
<path d="M44.4146 62.4392V94.6343H75.1463V59.5123V58.0489C74.4308 55.6922 89.506 57.002 95.6341 53.6587C97.6565 52.5553 98.5609 50.8405 98.5609 48.5367C98.5609 46.2329 95.6341 43.4148 95.6341 43.4148L76.6097 25.1221" stroke="#008080" stroke-width="2.92683"/>
<path d="M78.0733 38.2925L83.2593 42.9599C84.1474 43.7591 83.7552 45.2282 82.587 45.4786L75.1465 47.073" stroke="#008080" stroke-width="2.92683"/>
<path d="M44.4146 47.0732L24.3032 60.2714C22.3071 61.5813 21.3066 63.9722 21.7748 66.3133L25.2236 83.5569C25.3266 84.0722 25.7003 84.4958 26.202 84.6521C31.4449 86.2852 33.7068 85.7737 35.4574 81.8729C35.5764 81.6077 35.6037 81.3113 35.5467 81.0263L32.9057 67.8212C32.7863 67.2243 33.0459 66.6178 33.5621 66.2951C35.1997 65.2716 38.9077 62.9541 42.176 60.9114C43.1507 60.3023 44.4146 61.0032 44.4146 62.1526V63.9025" stroke="#008080" stroke-width="2.92683"/>
<path d="M46.6099 94.6343V135.805C46.6099 136.151 46.7319 136.488 46.9609 136.748C50.2387 140.468 52.2862 140.558 55.7552 136.752C55.9942 136.49 56.1221 136.146 56.1221 135.791V94.6343" stroke="#008080" stroke-width="2.92683"/>
<path d="M62.7075 94.6343V136.175C62.7075 136.538 62.8413 136.889 63.0897 137.153C66.6161 140.903 68.8205 140.993 72.5527 137.157C72.8114 136.891 72.9514 136.532 72.9514 136.161V94.6343" stroke="#008080" stroke-width="2.92683"/>
<path d="M102.219 79.2683C101.901 75.6227 106.608 70.4878 110.268 70.4878C113.927 70.4878 116.853 72.756 117.585 76.3415C117.813 77.4614 117.813 78.1484 117.585 79.2683C116.853 82.8538 110.268 87.3171 110.268 87.3171V102.683" stroke="#008080" stroke-width="7.31708"/>
<path d="M102.558 79.2683C102.085 75.6396 106.609 70.4878 110.268 70.4878C113.927 70.4878 116.853 72.756 117.585 76.3415C117.814 77.4614 117.814 78.1484 117.585 79.2683C116.853 82.8538 110.268 87.3171 110.268 87.3171V101.22" stroke="white" stroke-width="4.39024"/>
<circle cx="110.268" cy="110.732" r="4.39024" fill="#008080"/>
<circle cx="110.268" cy="110.732" r="2.92683" fill="white"/>
</svg>
