<svg width="160" height="160" viewBox="0 0 160 160" fill="none" xmlns="http://www.w3.org/2000/svg">
<path d="M63.3376 55.2474C67.1703 55.0517 76.5274 50.0962 71.2208 49.3802C65.9142 48.6641 64.772 49.3532 61.0162 45.551C57.2604 41.7487 53.2369 39.9249 50.7141 43.1916C48.4371 46.1401 51.5455 49.1629 53.5599 52.2967C55.6802 55.5952 36.9027 55.2985 35.5965 72.0757C35.1416 77.9185 37.1331 81.9835 41.528 85.8603C45.8125 89.6398 49.8724 90.8545 55.5339 90.0871C61.3549 89.298 65.8873 87.3206 68.1535 81.9009C74.3723 67.0284 61.2504 57.651 62.3199 55.6458C62.4455 55.4104 62.7666 55.2766 63.3376 55.2474Z" fill="#008080"/>
<circle cx="12.4256" cy="12.4256" r="10.8769" transform="matrix(-1 0 0 1 118.808 24.1421)" stroke="#008080" stroke-width="3.0975"/>
<path d="M97.9975 51.0627C106.281 45.8867 112.494 52.0991 110.423 59.3465C103.39 70.4521 104.068 75.7757 110.423 87.3054L114.565 111.121C114.565 111.121 123.884 124.582 128.026 131.83C132.168 139.079 123.884 142.185 120.778 137.008L107.317 115.263C106.673 116.037 103.486 95.424 103.175 95.5891C102.863 95.7542 93.8556 110.086 93.8556 110.086V135.972C93.8556 139.079 86.6073 143.221 84.5364 135.972V109.05L94.8911 89.3763C87.9208 80.9262 93.4903 70.6591 90.7492 67.6315L81.43 73.8443C77.853 75.8382 76.6508 75.5658 75.2172 73.8443C75.2172 73.8443 63.827 63.4871 61.7561 59.3465C59.6852 55.2059 62.7916 51.0627 66.9334 55.2059C71.0753 59.349 76.03 65.7378 77.2881 66.596C78.5462 67.4542 97.9975 51.0627 97.9975 51.0627Z" stroke="#008080" stroke-width="3.0975"/>
<path d="M54.3973 74.3591L50.5696 73.0542C50.4361 73.8739 50.4036 74.5822 50.4723 75.1791C50.541 75.7761 50.6743 76.2833 50.8722 76.7007C51.0818 77.1124 51.3342 77.4415 51.6293 77.6879C51.9361 77.9286 52.2506 78.1038 52.5729 78.2137C52.7993 78.2909 53.036 78.3521 53.283 78.3975C53.5388 78.4457 53.8268 78.4564 54.147 78.4295C54.476 78.4056 54.8547 78.3354 55.2832 78.219C55.7205 78.1056 56.2294 77.9243 56.8102 77.6751C56.899 77.8706 56.9719 78.0704 57.0287 78.2745C57.0942 78.4815 57.1582 78.6929 57.2208 78.9087C56.4964 79.3227 55.8323 79.631 55.2286 79.8335C54.6366 80.0303 54.0844 80.1531 53.5719 80.202C53.0712 80.2451 52.6057 80.2274 52.1756 80.1489C51.7513 80.082 51.3475 79.9832 50.9643 79.8526C50.2676 79.6151 49.6313 79.2572 49.0555 78.779C48.4884 78.3038 48.0167 77.7201 47.6402 77.0279C47.2637 76.3358 47.0014 75.5513 46.8531 74.6744C46.7048 73.7976 46.7114 72.8375 46.8727 71.794L45.7884 71.4243L45.5262 70.8246C45.5644 70.7696 45.6203 70.6914 45.6937 70.5901C45.7758 70.4917 45.8551 70.3875 45.9315 70.2774C46.0166 70.1703 46.0959 70.0661 46.1693 69.9648C46.2514 69.8664 46.3175 69.7868 46.3673 69.7261L47.2687 70.0334L47.5894 69.0928C47.6458 68.9273 47.7109 68.7648 47.7847 68.6053L47.2491 68.4227L46.9869 67.823C47.0251 67.7679 47.081 67.6898 47.1544 67.5884C47.2365 67.49 47.3158 67.3858 47.3922 67.2758C47.4773 67.1687 47.5566 67.0645 47.63 66.9631C47.7122 66.8648 47.7782 66.7852 47.828 66.7244L48.5857 66.9827C49.1098 66.0726 49.6983 65.3303 50.3511 64.7557C51.0155 64.1754 51.7327 63.7539 52.5027 63.4915C53.2813 63.232 54.1055 63.1241 54.9752 63.1678C55.8479 63.2029 56.7589 63.3822 57.7081 63.7058C58.1436 63.8542 58.5585 64.0345 58.9527 64.2467C59.3557 64.4619 59.7237 64.6942 60.0566 64.9438C60.4012 65.1877 60.7036 65.4414 60.9636 65.705C61.2324 65.9717 61.4489 66.235 61.613 66.4951C61.6389 66.5331 61.6063 66.6143 61.5153 66.7388C61.4359 66.8576 61.32 66.9979 61.1676 67.1598C61.0152 67.3217 60.8438 67.4966 60.6534 67.6845C60.463 67.8723 60.2712 68.0499 60.078 68.2174C59.8935 68.3878 59.7209 68.5379 59.5599 68.6678C59.402 68.7889 59.2763 68.8725 59.1829 68.9184L58.2744 68.3754C58.1376 67.5219 57.8964 66.8321 57.5508 66.306C57.2052 65.7799 56.7276 65.4129 56.118 65.2051C55.8654 65.119 55.5878 65.0779 55.2852 65.0816C54.9913 65.0884 54.6749 65.1895 54.336 65.3851C54.0059 65.5836 53.6574 65.9071 53.2906 66.3556C52.9356 66.7984 52.5691 67.4171 52.1913 68.2118L56.9594 69.8373L57.2697 70.4243L56.3805 71.5356L51.4947 69.87C51.4356 70.0151 51.3807 70.1617 51.3303 70.3097L50.9918 71.3025L54.9762 72.6608L55.2864 73.2478L54.3973 74.3591Z" fill="#F1F3F3"/>
</svg>
