<svg width="199" height="200" viewBox="0 0 199 200" fill="none" xmlns="http://www.w3.org/2000/svg">
<rect width="198.75" height="198.75" transform="translate(0.25 0.726562)" fill="#F1F3F3"/>
<path d="M119.233 153.759C112.93 159.138 106.443 164.627 99.6246 170.559C92.8059 164.627 86.3189 159.101 80.0163 153.759C41.6472 121.082 16.3259 99.4936 16.3259 71.1266C16.3259 59.4114 20.2328 48.5066 27.3464 40.4754C34.4968 32.3337 44.4853 27.8392 55.3952 27.8392C70.5438 27.8392 80.348 37.1598 85.9135 45.0068C90.8893 52.0433 93.5062 59.1166 94.3908 61.8428C95.128 64.1269 97.2657 65.6742 99.6615 65.6742C102.057 65.6742 104.195 64.1269 104.932 61.8428C105.817 59.1166 108.434 52.0433 113.409 45.0068C118.901 37.1598 128.705 27.8392 143.854 27.8392C154.764 27.8392 164.752 32.3337 171.903 40.4754C179.016 48.5435 182.923 59.4114 182.923 71.1266C182.923 99.4936 157.602 121.082 119.233 153.759Z" fill="white"/>
<path fill-rule="evenodd" clip-rule="evenodd" d="M180.196 33.1442C170.908 22.6079 158.007 16.7871 143.854 16.7871C123.988 16.7871 111.382 28.6497 104.306 38.5966C102.463 41.1754 100.915 43.7542 99.6246 46.2225C98.3346 43.7911 96.7497 41.1754 94.9437 38.5966C87.867 28.6497 75.2616 16.7871 55.3952 16.7871C41.2418 16.7871 28.3416 22.6079 19.0534 33.1442C10.1706 43.2385 5.26855 56.722 5.26855 71.1266C5.26855 86.8206 11.387 101.409 24.5452 117.066C36.3029 131.066 53.2206 145.47 72.829 162.159C80.1268 168.385 87.6827 174.795 95.7177 181.832L95.9757 182.053C97.0077 182.974 98.3346 183.416 99.6246 183.416C100.915 183.416 102.242 182.974 103.274 182.053L103.532 181.832C111.567 174.795 119.122 168.385 126.42 162.159C146.029 145.47 162.946 131.066 174.704 117.066C187.862 101.409 193.981 86.8206 193.981 71.1266C193.981 56.722 189.079 43.2385 180.196 33.1442ZM99.6246 170.559C106.443 164.627 112.93 159.138 119.233 153.759C157.602 121.082 182.923 99.4936 182.923 71.1266C182.923 59.4114 179.016 48.5435 171.903 40.4754C164.752 32.3337 154.764 27.8392 143.854 27.8392C128.705 27.8392 118.901 37.1598 113.409 45.0068C108.434 52.0433 105.817 59.1166 104.932 61.8428C104.195 64.1269 102.057 65.6742 99.6615 65.6742C97.2657 65.6742 95.128 64.1269 94.3908 61.8428C93.5062 59.1166 90.8893 52.0433 85.9135 45.0068C80.348 37.1598 70.5438 27.8392 55.3952 27.8392C44.4853 27.8392 34.4968 32.3337 27.3464 40.4754C20.2328 48.5066 16.3259 59.4114 16.3259 71.1266C16.3259 99.4936 41.6472 121.082 80.0163 153.759C86.3189 159.101 92.8059 164.627 99.6246 170.559Z" fill="#008080"/>
<path d="M119.233 153.759C112.93 159.138 106.443 164.627 99.6246 170.559C92.8059 164.627 86.3189 159.101 80.0163 153.759C41.6472 121.082 16.3259 99.4936 16.3259 71.1266C16.3259 59.4114 20.2328 48.5066 27.3464 40.4754C34.4968 32.3337 44.4853 27.8392 55.3952 27.8392C70.5438 27.8392 80.348 37.1598 85.9135 45.0068C90.8893 52.0433 93.5062 59.1166 94.3908 61.8428C95.128 64.1269 97.2657 65.6742 99.6615 65.6742C102.057 65.6742 104.195 64.1269 104.932 61.8428C105.817 59.1166 108.434 52.0433 113.409 45.0068C118.901 37.1598 128.705 27.8392 143.854 27.8392C154.764 27.8392 164.752 32.3337 171.903 40.4754C179.016 48.5435 182.923 59.4114 182.923 71.1266C182.923 99.4936 157.602 121.082 119.233 153.759Z" fill="white"/>
<path fill-rule="evenodd" clip-rule="evenodd" d="M180.196 33.1442C170.908 22.6079 158.007 16.7871 143.854 16.7871C123.988 16.7871 111.382 28.6497 104.306 38.5966C102.463 41.1754 100.915 43.7542 99.6246 46.2225C98.3346 43.7911 96.7497 41.1754 94.9437 38.5966C87.867 28.6497 75.2616 16.7871 55.3952 16.7871C41.2418 16.7871 28.3416 22.6079 19.0534 33.1442C10.1706 43.2385 5.26855 56.722 5.26855 71.1266C5.26855 86.8206 11.387 101.409 24.5452 117.066C36.3029 131.066 53.2206 145.47 72.829 162.159C80.1268 168.385 87.6827 174.795 95.7177 181.832L95.9757 182.053C97.0077 182.974 98.3346 183.416 99.6246 183.416C100.915 183.416 102.242 182.974 103.274 182.053L103.532 181.832C111.567 174.795 119.122 168.385 126.42 162.159C146.029 145.47 162.946 131.066 174.704 117.066C187.862 101.409 193.981 86.8206 193.981 71.1266C193.981 56.722 189.079 43.2385 180.196 33.1442ZM99.6246 170.559C106.443 164.627 112.93 159.138 119.233 153.759C157.602 121.082 182.923 99.4936 182.923 71.1266C182.923 59.4114 179.016 48.5435 171.903 40.4754C164.752 32.3337 154.764 27.8392 143.854 27.8392C128.705 27.8392 118.901 37.1598 113.409 45.0068C108.434 52.0433 105.817 59.1166 104.932 61.8428C104.195 64.1269 102.057 65.6742 99.6615 65.6742C97.2657 65.6742 95.128 64.1269 94.3908 61.8428C93.5062 59.1166 90.8893 52.0433 85.9135 45.0068C80.348 37.1598 70.5438 27.8392 55.3952 27.8392C44.4853 27.8392 34.4968 32.3337 27.3464 40.4754C20.2328 48.5066 16.3259 59.4114 16.3259 71.1266C16.3259 99.4936 41.6472 121.082 80.0163 153.759C86.3189 159.101 92.8059 164.627 99.6246 170.559Z" fill="#008080"/>
<path d="M117.935 150.204C112.05 155.227 105.993 160.352 99.626 165.89C93.2592 160.352 87.202 155.192 81.317 150.204C45.4905 119.692 21.8471 99.5346 21.8471 73.0473C21.8471 62.1084 25.4951 51.9262 32.1373 44.4272C38.8139 36.825 48.1405 32.6283 58.3275 32.6283C72.4722 32.6283 81.6267 41.3313 86.8235 48.6583C91.4696 55.2285 93.9131 61.8332 94.739 64.3787C95.4273 66.5114 97.4234 67.9562 99.6604 67.9562C101.897 67.9562 103.894 66.5114 104.582 64.3787C105.408 61.8332 107.851 55.2285 112.497 48.6583C117.625 41.3313 126.78 32.6283 140.925 32.6283C151.112 32.6283 160.438 36.825 167.115 44.4272C173.757 51.9606 177.405 62.1084 177.405 73.0473C177.405 99.5346 153.762 119.692 117.935 150.204Z" fill="white"/>
<path fill-rule="evenodd" clip-rule="evenodd" d="M174.858 37.5818C166.186 27.7437 154.14 22.3086 140.925 22.3086C122.375 22.3086 110.605 33.3851 103.997 42.6729C102.276 45.0808 100.831 47.4887 99.626 49.7935C98.4215 47.5231 96.9416 45.0808 95.2553 42.6729C88.6475 33.3851 76.8774 22.3086 58.3275 22.3086C45.1119 22.3086 33.0665 27.7437 24.3938 37.5818C16.0997 47.0071 11.5225 59.5972 11.5225 73.0473C11.5225 87.7013 17.2354 101.323 29.5217 115.943C40.5003 129.015 56.297 142.465 74.606 158.047C81.4202 163.861 88.4754 169.846 95.978 176.417L96.2189 176.623C97.1825 177.483 98.4215 177.896 99.626 177.896C100.831 177.896 102.07 177.483 103.033 176.623L103.274 176.417C110.777 169.846 117.832 163.861 124.646 158.047C142.955 142.465 158.752 129.015 169.73 115.943C182.017 101.323 187.73 87.7013 187.73 73.0473C187.73 59.5972 183.152 47.0071 174.858 37.5818ZM99.626 165.89C105.993 160.352 112.05 155.227 117.935 150.204C153.762 119.692 177.405 99.5346 177.405 73.0473C177.405 62.1084 173.757 51.9606 167.115 44.4272C160.438 36.825 151.112 32.6283 140.925 32.6283C126.78 32.6283 117.625 41.3313 112.497 48.6583C107.851 55.2285 105.408 61.8332 104.582 64.3787C103.894 66.5114 101.897 67.9562 99.6604 67.9562C97.4234 67.9562 95.4273 66.5114 94.739 64.3787C93.9131 61.8332 91.4696 55.2285 86.8235 48.6583C81.6267 41.3313 72.4722 32.6283 58.3275 32.6283C48.1405 32.6283 38.8139 36.825 32.1373 44.4272C25.4951 51.9262 21.8471 62.1084 21.8471 73.0473C21.8471 99.5346 45.4905 119.692 81.317 150.204C87.202 155.192 93.2592 160.352 99.626 165.89Z" fill="white"/>
<path d="M117.935 150.204C112.05 155.227 105.993 160.352 99.626 165.89C93.2592 160.352 87.202 155.192 81.317 150.204C45.4905 119.692 21.8471 99.5346 21.8471 73.0473C21.8471 62.1084 25.4951 51.9262 32.1373 44.4272C38.8139 36.825 48.1405 32.6283 58.3275 32.6283C72.4722 32.6283 81.6267 41.3313 86.8235 48.6583C91.4696 55.2285 93.9131 61.8332 94.739 64.3787C95.4273 66.5114 97.4234 67.9562 99.6604 67.9562C101.897 67.9562 103.894 66.5114 104.582 64.3787C105.408 61.8332 107.851 55.2285 112.497 48.6583C117.625 41.3313 126.78 32.6283 140.925 32.6283C151.112 32.6283 160.438 36.825 167.115 44.4272C173.757 51.9606 177.405 62.1084 177.405 73.0473C177.405 99.5346 153.762 119.692 117.935 150.204Z" fill="white"/>
<path fill-rule="evenodd" clip-rule="evenodd" d="M174.858 37.5818C166.186 27.7437 154.14 22.3086 140.925 22.3086C122.375 22.3086 110.605 33.3851 103.997 42.6729C102.276 45.0808 100.831 47.4887 99.626 49.7935C98.4215 47.5231 96.9416 45.0808 95.2553 42.6729C88.6475 33.3851 76.8774 22.3086 58.3275 22.3086C45.1119 22.3086 33.0665 27.7437 24.3938 37.5818C16.0997 47.0071 11.5225 59.5972 11.5225 73.0473C11.5225 87.7013 17.2354 101.323 29.5217 115.943C40.5003 129.015 56.297 142.465 74.606 158.047C81.4202 163.861 88.4754 169.846 95.978 176.417L96.2189 176.623C97.1825 177.483 98.4215 177.896 99.626 177.896C100.831 177.896 102.07 177.483 103.033 176.623L103.274 176.417C110.777 169.846 117.832 163.861 124.646 158.047C142.955 142.465 158.752 129.015 169.73 115.943C182.017 101.323 187.73 87.7013 187.73 73.0473C187.73 59.5972 183.152 47.0071 174.858 37.5818ZM99.626 165.89C105.993 160.352 112.05 155.227 117.935 150.204C153.762 119.692 177.405 99.5346 177.405 73.0473C177.405 62.1084 173.757 51.9606 167.115 44.4272C160.438 36.825 151.112 32.6283 140.925 32.6283C126.78 32.6283 117.625 41.3313 112.497 48.6583C107.851 55.2285 105.408 61.8332 104.582 64.3787C103.894 66.5114 101.897 67.9562 99.6604 67.9562C97.4234 67.9562 95.4273 66.5114 94.739 64.3787C93.9131 61.8332 91.4696 55.2285 86.8235 48.6583C81.6267 41.3313 72.4722 32.6283 58.3275 32.6283C48.1405 32.6283 38.8139 36.825 32.1373 44.4272C25.4951 51.9262 21.8471 62.1084 21.8471 73.0473C21.8471 99.5346 45.4905 119.692 81.317 150.204C87.202 155.192 93.2592 160.352 99.626 165.89Z" fill="white"/>
<ellipse cx="61.3741" cy="73.5099" rx="5.75204" ry="5.79697" fill="#FFCB60"/>
<line y1="-4.22696" x2="39.4418" y2="-4.22696" transform="matrix(0.211462 -0.977386 0.976696 0.214627 55.9092 118.436)" stroke="#FFCB60" stroke-width="8.45392"/>
<line y1="-4.22696" x2="39.4418" y2="-4.22696" transform="matrix(0.211462 0.977386 0.976696 -0.214627 62.8115 79.0176)" stroke="#FFCB60" stroke-width="8.45392"/>
<path d="M44.2854 85.7921C42.563 86.9493 42.0948 89.2905 43.2397 91.0212C44.3845 92.7519 46.7089 93.2168 48.4313 92.0595L44.2854 85.7921ZM48.4313 92.0595L62.2363 82.7843L58.0904 76.5169L44.2854 85.7921L48.4313 92.0595Z" fill="#FFCB60"/>
<line y1="-3.7573" x2="16.6314" y2="-3.7573" transform="matrix(0.83005 0.557689 0.551713 -0.834034 62.8115 78.7285)" stroke="#FFCB60" stroke-width="7.5146"/>
<ellipse cx="5.75204" cy="5.79697" rx="5.75204" ry="5.79697" transform="matrix(-1 0 0 1 143.627 67.7129)" fill="#FFCB60"/>
<line y1="-4.22696" x2="39.4418" y2="-4.22696" transform="matrix(-0.211462 -0.977386 -0.976696 0.214627 143.34 118.436)" stroke="#FFCB60" stroke-width="8.45392"/>
<line y1="-4.22696" x2="39.4418" y2="-4.22696" transform="matrix(-0.211462 0.977386 -0.976696 -0.214627 136.438 79.0176)" stroke="#FFCB60" stroke-width="8.45392"/>
<path d="M154.964 85.7921C156.686 86.9493 157.154 89.2905 156.009 91.0212C154.865 92.7519 152.54 93.2168 150.818 92.0595L154.964 85.7921ZM150.818 92.0595L137.013 82.7843L141.159 76.5169L154.964 85.7921L150.818 92.0595Z" fill="#FFCB60"/>
<line y1="-3.7573" x2="16.6314" y2="-3.7573" transform="matrix(-0.83005 0.557689 -0.551713 -0.834034 136.438 78.7285)" stroke="#FFCB60" stroke-width="7.5146"/>
<ellipse cx="5.75204" cy="5.79697" rx="5.75204" ry="5.79697" transform="matrix(-1 0 0 1 92.4346 67.7129)" fill="#FFCB60"/>
<line y1="-4.22696" x2="39.4418" y2="-4.22696" transform="matrix(-0.211462 -0.977386 -0.976696 0.214627 92.1475 118.436)" stroke="#FFCB60" stroke-width="8.45392"/>
<line y1="-4.22696" x2="39.4418" y2="-4.22696" transform="matrix(-0.211462 0.977386 -0.976696 -0.214627 85.2441 79.0176)" stroke="#FFCB60" stroke-width="8.45392"/>
<line y1="-3.7573" x2="16.6314" y2="-3.7573" transform="matrix(-0.83005 -0.557689 -0.551713 0.834034 99.625 92.0605)" stroke="#FFCB60" stroke-width="7.5146"/>
<path d="M89.3903 84.995C91.1128 83.8378 91.581 81.4966 90.4361 79.7659C89.2913 78.0352 86.9669 77.5704 85.2444 78.7276L89.3903 84.995ZM85.2444 78.7276L71.4395 88.0028L75.5854 94.2702L89.3903 84.995L85.2444 78.7276Z" fill="#FFCB60"/>
<ellipse cx="112.567" cy="73.5099" rx="5.75204" ry="5.79697" fill="#FFCB60"/>
<line y1="-4.22696" x2="39.4418" y2="-4.22696" transform="matrix(0.211462 -0.977386 0.976696 0.214627 107.103 118.436)" stroke="#FFCB60" stroke-width="8.45392"/>
<line y1="-4.22696" x2="39.4418" y2="-4.22696" transform="matrix(0.211462 0.977386 0.976696 -0.214627 114.006 79.0176)" stroke="#FFCB60" stroke-width="8.45392"/>
<line y1="-3.7573" x2="16.6314" y2="-3.7573" transform="matrix(0.83005 -0.557689 0.551713 0.834034 99.625 92.0605)" stroke="#FFCB60" stroke-width="7.5146"/>
<line y1="-3.7573" x2="16.6314" y2="-3.7573" transform="matrix(0.83005 0.557689 0.551713 -0.834034 114.006 78.7285)" stroke="#FFCB60" stroke-width="7.5146"/>
<path d="M116.019 142.233C110.893 146.607 105.618 151.071 100.072 155.895C94.5269 151.071 89.2514 146.577 84.1257 142.233C52.922 115.658 32.3293 98.1012 32.3293 75.0316C32.3293 65.5042 35.5067 56.6358 41.2918 50.1045C47.1069 43.4832 55.23 39.828 64.1026 39.828C76.4222 39.828 84.3955 47.408 88.9217 53.7896C92.9682 59.512 95.0965 65.2645 95.8159 67.4815C96.4154 69.3391 98.1539 70.5974 100.102 70.5974C102.051 70.5974 103.789 69.3391 104.389 67.4815C105.108 65.2645 107.236 59.512 111.283 53.7896C115.749 47.408 123.722 39.828 136.042 39.828C144.914 39.828 153.038 43.4832 158.853 50.1045C164.638 56.6658 167.815 65.5042 167.815 75.0316C167.815 98.1012 147.223 115.658 116.019 142.233Z" fill="#FFCB60"/>
<path fill-rule="evenodd" clip-rule="evenodd" d="M165.597 44.1423C158.043 35.5736 147.552 30.8398 136.042 30.8398C119.886 30.8398 109.634 40.4871 103.879 48.5765C102.38 50.6737 101.121 52.7709 100.072 54.7783C99.0231 52.8009 97.7342 50.6737 96.2655 48.5765C90.5103 40.4871 80.259 30.8398 64.1026 30.8398C52.5923 30.8398 42.1011 35.5736 34.5475 44.1423C27.3236 52.3515 23.3369 63.317 23.3369 75.0316C23.3369 87.7948 28.3127 99.6591 39.0137 112.392C48.5757 123.777 62.3341 135.492 78.2806 149.064C84.2156 154.127 90.3605 159.34 96.8949 165.063L97.1048 165.243C97.9441 165.992 99.0231 166.351 100.072 166.351C101.121 166.351 102.2 165.992 103.04 165.243L103.25 165.063C109.784 159.34 115.929 154.127 121.864 149.064C137.81 135.492 151.569 123.777 161.131 112.392C171.832 99.6591 176.808 87.7948 176.808 75.0316C176.808 63.317 172.821 52.3515 165.597 44.1423ZM100.072 155.895C105.618 151.071 110.893 146.607 116.019 142.233C147.223 115.658 167.815 98.1012 167.815 75.0316C167.815 65.5042 164.638 56.6658 158.853 50.1045C153.038 43.4832 144.914 39.828 136.042 39.828C123.722 39.828 115.749 47.408 111.283 53.7896C107.236 59.512 105.108 65.2645 104.389 67.4815C103.789 69.3391 102.051 70.5974 100.102 70.5974C98.1539 70.5974 96.4154 69.3391 95.8159 67.4815C95.0965 65.2645 92.9682 59.512 88.9217 53.7896C84.3955 47.408 76.4222 39.828 64.1026 39.828C55.23 39.828 47.1069 43.4832 41.2918 50.1045C35.5067 56.6358 32.3293 65.5042 32.3293 75.0316C32.3293 98.1012 52.922 115.658 84.1257 142.233C89.2514 146.577 94.5269 151.071 100.072 155.895Z" fill="#FFCB60"/>
<ellipse cx="61.4395" cy="69.7618" rx="5.75204" ry="5.79697" fill="#008080"/>
<line y1="-4.22696" x2="39.4418" y2="-4.22696" transform="matrix(0.211462 -0.977386 0.976696 0.214627 55.9746 114.688)" stroke="#008080" stroke-width="8.45392"/>
<line y1="-4.22696" x2="39.4418" y2="-4.22696" transform="matrix(0.211462 0.977386 0.976696 -0.214627 62.877 75.2695)" stroke="#008080" stroke-width="8.45392"/>
<path d="M44.3509 82.044C42.6284 83.2013 42.1602 85.5424 43.3051 87.2731C44.4499 89.0038 46.7743 89.4687 48.4968 88.3114L44.3509 82.044ZM48.4968 88.3114L62.3017 79.0363L58.1558 72.7689L44.3509 82.044L48.4968 88.3114Z" fill="#008080"/>
<line y1="-3.7573" x2="16.6314" y2="-3.7573" transform="matrix(0.83005 0.557689 0.551713 -0.834034 62.877 74.9785)" stroke="#008080" stroke-width="7.5146"/>
<ellipse cx="5.75204" cy="5.79697" rx="5.75204" ry="5.79697" transform="matrix(-1 0 0 1 143.692 63.9648)" fill="#008080"/>
<line y1="-4.22696" x2="39.4418" y2="-4.22696" transform="matrix(-0.211462 -0.977386 -0.976696 0.214627 143.405 114.688)" stroke="#008080" stroke-width="8.45392"/>
<line y1="-4.22696" x2="39.4418" y2="-4.22696" transform="matrix(-0.211462 0.977386 -0.976696 -0.214627 136.504 75.2695)" stroke="#008080" stroke-width="8.45392"/>
<path d="M155.029 82.044C156.751 83.2013 157.22 85.5424 156.075 87.2731C154.93 89.0038 152.606 89.4687 150.883 88.3114L155.029 82.044ZM150.883 88.3114L137.078 79.0363L141.224 72.7689L155.029 82.044L150.883 88.3114Z" fill="#008080"/>
<line y1="-3.7573" x2="16.6314" y2="-3.7573" transform="matrix(-0.83005 0.557689 -0.551713 -0.834034 136.504 74.9785)" stroke="#008080" stroke-width="7.5146"/>
<ellipse cx="5.75204" cy="5.79697" rx="5.75204" ry="5.79697" transform="matrix(-1 0 0 1 92.5 63.9648)" fill="#008080"/>
<line y1="-4.22696" x2="39.4418" y2="-4.22696" transform="matrix(-0.211462 -0.977386 -0.976696 0.214627 92.2129 114.688)" stroke="#008080" stroke-width="8.45392"/>
<line y1="-4.22696" x2="39.4418" y2="-4.22696" transform="matrix(-0.211462 0.977386 -0.976696 -0.214627 85.3105 75.2695)" stroke="#008080" stroke-width="8.45392"/>
<line y1="-3.7573" x2="16.6314" y2="-3.7573" transform="matrix(-0.83005 -0.557689 -0.551713 0.834034 99.6904 88.3125)" stroke="#008080" stroke-width="7.5146"/>
<path d="M89.4567 81.247C91.1792 80.0897 91.6474 77.7486 90.5025 76.0179C89.3577 74.2872 87.0333 73.8223 85.3108 74.9796L89.4567 81.247ZM85.3108 74.9796L71.5059 84.2547L75.6518 90.5222L89.4567 81.247L85.3108 74.9796Z" fill="#008080"/>
<ellipse cx="112.633" cy="69.7618" rx="5.75204" ry="5.79697" fill="#008080"/>
<line y1="-4.22696" x2="39.4418" y2="-4.22696" transform="matrix(0.211462 -0.977386 0.976696 0.214627 107.168 114.688)" stroke="#008080" stroke-width="8.45392"/>
<line y1="-4.22696" x2="39.4418" y2="-4.22696" transform="matrix(0.211462 0.977386 0.976696 -0.214627 114.071 75.2695)" stroke="#008080" stroke-width="8.45392"/>
<line y1="-3.7573" x2="16.6314" y2="-3.7573" transform="matrix(0.83005 -0.557689 0.551713 0.834034 99.6904 88.3125)" stroke="#008080" stroke-width="7.5146"/>
<line y1="-3.7573" x2="16.6314" y2="-3.7573" transform="matrix(0.83005 0.557689 0.551713 -0.834034 114.071 74.9785)" stroke="#008080" stroke-width="7.5146"/>
</svg>
