<svg width="200" height="199" viewBox="0 0 200 199" fill="none" xmlns="http://www.w3.org/2000/svg">
<rect x="2.32375" y="1.69875" width="195.352" height="195.352" rx="19.0012" fill="white" stroke="#008080" stroke-width="3.3975"/>
<path d="M60.5344 88.558C60.2945 87.651 59.3648 87.1101 58.4578 87.35C57.5508 87.5899 57.01 88.5196 57.2498 89.4266L60.5344 88.558ZM120.729 88.7494L122.246 89.5141L122.246 89.5141L120.729 88.7494ZM134.561 69.8019L135.916 70.8263L135.916 70.8263L134.561 69.8019ZM135.252 84.4467L136.906 84.8368L136.906 84.8368L135.252 84.4467ZM125.814 91.0113L126.013 89.3242L126.013 89.3242L125.814 91.0113ZM122.349 88.0196L121.021 89.0782L121.021 89.0782L122.349 88.0196ZM136.735 81.614L135.493 80.4548L135.493 80.4548L136.735 81.614ZM114.431 47.434L113.751 45.8773L113.751 45.8773L114.431 47.434ZM108.227 46.2715L107.025 47.4723L107.025 47.4723L108.227 46.2715ZM85.5131 46.9729C84.8452 47.6318 84.8379 48.7073 85.4968 49.3752C86.1557 50.0431 87.2312 50.0504 87.8991 49.3915L85.5131 46.9729ZM57.7169 78.0576C58.654 78.1029 59.4505 77.38 59.4958 76.4429C59.5411 75.5058 58.8182 74.7094 57.8811 74.6641L57.7169 78.0576ZM83.166 98.335C83.2949 97.4057 82.6461 96.5479 81.7168 96.419C80.7875 96.2901 79.9296 96.939 79.8007 97.8683L83.166 98.335ZM86.5846 107.94L87.2638 106.383L87.2638 106.383L86.5846 107.94ZM92.9004 106.604L94.5874 106.805L94.6004 106.695L94.5991 106.585L92.9004 106.604ZM83.4614 120.346L84.5355 121.662L84.5355 121.662L83.4614 120.346ZM82.876 120.757L81.9852 119.31L81.9851 119.31L82.876 120.757ZM83.1838 135.026L84.1489 133.628L84.1489 133.628L83.1838 135.026ZM57.1917 135.026L58.5445 133.998L57.1917 135.026ZM47.7938 51.2535L46.5957 50.0492L46.5957 50.0492L47.7938 51.2535ZM48.3315 50.6462L46.9787 49.6187L46.9787 49.6188L48.3315 50.6462ZM83.1838 29.9636L83.5055 31.6316L83.5055 31.6316L83.1838 29.9636ZM71.3078 49.6967L69.8125 48.8906L69.8125 48.8906L71.3078 49.6967ZM66.7799 52.6226L66.6123 50.9321L66.6123 50.9321L66.7799 52.6226ZM64.0801 62.8161C64.9846 62.5669 65.5159 61.6317 65.2668 60.7272C65.0176 59.8227 64.0824 59.2914 63.1779 59.5406L64.0801 62.8161ZM147.557 77.4538L145.874 77.2216L145.874 77.2216L147.557 77.4538ZM147.535 86.5212L149.229 86.3965L149.229 86.3964L147.535 86.5212ZM147.617 87.0898L145.958 87.4519L145.958 87.4519L147.617 87.0898ZM154.286 112.536L155.045 114.056L155.045 114.056L154.286 112.536ZM153.17 112.919L152.805 111.26L152.805 111.26L153.17 112.919ZM150.593 121.3L149.118 122.142L149.167 122.229L149.226 122.309L150.593 121.3ZM151.443 127.616L152.17 129.151L152.17 129.151L151.443 127.616ZM149.3 129.956L147.67 130.435L147.67 130.435L149.3 129.956ZM150.53 131.719L152.07 131.003L152.07 131.003L150.53 131.719ZM149.802 135.574L148.437 134.563L148.437 134.563L149.802 135.574ZM148.82 136.523L149.87 137.859L149.87 137.859L148.82 136.523ZM147.435 140.369H149.134V140.263L149.121 140.158L147.435 140.369ZM147.373 145.972L145.696 145.705L145.696 145.705L147.373 145.972ZM133.832 156.402L134.312 154.772L134.312 154.772L133.832 156.402ZM57.2498 89.4266C59.2297 96.9129 61.5992 101.977 65.673 104.291C69.7937 106.632 75.0364 105.821 81.6856 103.468L80.5524 100.265C73.9203 102.612 70.0322 102.86 67.3511 101.337C64.6232 99.7876 62.5199 96.0652 60.5344 88.558L57.2498 89.4266ZM90.23 85.5915C90.23 90.4736 91.8283 93.9938 94.3591 96.2483C96.8557 98.4723 100.063 99.2885 102.986 99.1767C105.874 99.0663 108.735 98.0382 110.546 96.2435C111.469 95.3287 112.162 94.1665 112.35 92.8017C112.539 91.4218 112.186 90.0175 111.337 88.6862L108.472 90.5129C108.959 91.2769 109.047 91.8804 108.984 92.3399C108.918 92.8146 108.666 93.3233 108.155 93.83C107.097 94.8782 105.13 95.6948 102.856 95.7817C100.617 95.8673 98.3279 95.2336 96.619 93.7114C94.9443 92.2196 93.6275 89.6973 93.6275 85.5915H90.23ZM119.213 87.9847C118.604 89.1922 117.993 89.8601 117.474 90.2216C116.978 90.5675 116.492 90.6855 115.993 90.6688C114.885 90.6315 113.575 89.918 112.307 88.8679C111.094 87.8638 110.178 86.7729 109.858 86.3917C109.823 86.3501 109.775 86.2939 109.738 86.2518C109.738 86.2516 109.667 86.1691 109.577 86.0884C109.552 86.0661 109.482 86.0044 109.383 85.9388C109.33 85.905 109.193 85.8293 109.106 85.7899C108.964 85.7366 108.559 85.6584 108.298 85.6604C107.898 85.7435 107.193 86.2013 106.939 86.5597C106.823 86.8362 106.743 87.3042 106.747 87.4803C106.767 87.756 106.854 87.9607 106.864 87.9858C106.91 88.1006 106.96 88.1873 106.967 88.2002C106.984 88.2313 107 88.2573 107.01 88.2728C107.029 88.3046 107.05 88.3361 107.066 88.3603C107.099 88.4105 107.144 88.4779 107.194 88.554C107.402 88.8646 107.813 89.4797 108.472 90.5129L111.337 88.6862C110.66 87.6243 110.233 86.9869 110.019 86.6665C109.965 86.5848 109.93 86.5333 109.909 86.5C109.897 86.4824 109.896 86.481 109.901 86.4883C109.903 86.4916 109.913 86.5074 109.926 86.5305C109.928 86.5353 109.975 86.6159 110.019 86.7267C110.029 86.7498 110.114 86.9529 110.135 87.2276C110.139 87.4032 110.059 87.8707 109.943 88.1469C109.69 88.5051 108.984 88.9627 108.584 89.0458C108.324 89.0478 107.92 88.9697 107.777 88.9167C107.692 88.8774 107.555 88.802 107.503 88.7687C107.405 88.704 107.337 88.6437 107.314 88.6233C107.26 88.5749 107.223 88.5346 107.217 88.5282C107.204 88.5149 107.196 88.5057 107.195 88.5045C107.193 88.5019 107.196 88.5056 107.209 88.5216C107.222 88.5361 107.237 88.5546 107.258 88.5792C107.595 88.9799 108.675 90.2726 110.14 91.4851C111.549 92.6516 113.6 93.9877 115.879 94.0643C117.073 94.1045 118.288 93.7956 119.416 93.0094C120.522 92.2389 121.462 91.0697 122.246 89.5141L119.213 87.9847ZM133.206 68.7776C133.11 68.9037 132.918 69.159 132.803 69.428C132.782 69.4754 132.665 69.7385 132.658 70.0908C132.655 70.2776 132.677 70.6845 132.959 71.0939C133.287 71.5707 133.774 71.7777 134.177 71.8222C134.519 71.8599 134.785 71.7847 134.902 71.7464C135.038 71.7019 135.141 71.6491 135.202 71.6159C135.323 71.5495 135.414 71.4812 135.461 71.4447C135.749 71.2207 136.098 70.818 136.398 70.4358L133.724 68.3395C133.429 68.7165 133.302 68.8198 133.376 68.7625C133.396 68.7469 133.464 68.6941 133.567 68.6378C133.618 68.6096 133.714 68.5605 133.843 68.5183C133.952 68.4823 134.213 68.408 134.55 68.4451C134.949 68.4891 135.432 68.6942 135.758 69.1676C136.037 69.5736 136.059 69.9758 136.055 70.1563C136.049 70.4962 135.936 70.741 135.926 70.7642C135.853 70.9362 135.785 70.999 135.916 70.8263L133.206 68.7776ZM136.398 70.4358C136.959 69.7205 137.706 68.6116 138.273 67.3096C138.834 66.0249 139.284 64.4043 139.06 62.7319C138.824 60.9705 137.863 59.3412 135.966 58.1336C134.14 56.9714 131.503 56.2291 127.884 55.9619L127.634 59.3502C130.977 59.597 132.982 60.2615 134.141 60.9996C135.229 61.6923 135.595 62.4567 135.693 63.1831C135.802 63.9985 135.592 64.9597 135.159 65.9516C134.734 66.9261 134.157 67.7884 133.724 68.3395L136.398 70.4358ZM133.599 84.0566C132.946 86.8244 131.643 88.1093 130.356 88.7456C128.982 89.4247 127.377 89.4848 126.013 89.3242L125.616 92.6983C127.299 92.8967 129.656 92.8811 131.861 91.7914C134.152 90.6591 136.045 88.4822 136.906 84.8368L133.599 84.0566ZM123.678 86.961C123.325 86.5175 122.422 85.675 121.128 86.0766C120.595 86.2418 120.203 86.5753 119.929 86.8862C119.65 87.202 119.416 87.5802 119.213 87.9847L122.246 89.5141C122.372 89.2648 122.454 89.1597 122.476 89.1348C122.502 89.105 122.396 89.2403 122.135 89.3215C121.824 89.4179 121.507 89.3724 121.273 89.2586C121.172 89.21 121.106 89.1584 121.071 89.1275C121.052 89.1115 121.039 89.0986 121.032 89.0906C121.028 89.0865 121.025 89.0833 121.024 89.0813C121.023 89.0803 121.022 89.0795 121.022 89.079C121.021 89.0785 121.021 89.0782 121.021 89.0782L123.678 86.961ZM135.916 70.8263C135.903 70.8433 135.887 70.8606 135.868 70.876C135.849 70.8913 135.833 70.9013 135.821 70.9072L134.302 67.8681C133.883 68.0776 133.505 68.3807 133.205 68.7776L135.916 70.8263ZM135.821 70.9072C135.772 70.9315 136.058 70.8104 136.674 71.1294C137.225 71.4144 137.802 71.9503 138.166 72.7071C138.821 74.0671 138.997 76.7009 135.493 80.4548L137.977 82.7732C142.087 78.37 142.685 74.2621 141.228 71.2339C140.536 69.7967 139.424 68.7269 138.235 68.1119C137.112 67.5308 135.608 67.2153 134.302 67.8681L135.821 70.9072ZM126.013 89.3242C125.754 89.2936 125.482 89.163 125.087 88.7487C124.607 88.2443 124.324 87.7715 123.678 86.961L121.021 89.0782C121.386 89.5364 122.03 90.4646 122.627 91.0914C123.309 91.8083 124.264 92.5391 125.616 92.6983L126.013 89.3242ZM136.906 84.8368C137.093 84.0443 137.464 83.3217 137.977 82.7732L135.493 80.4548C134.535 81.4812 133.907 82.7522 133.599 84.0566L136.906 84.8368ZM129.559 61.2804C129.003 57.7236 128.352 54.7697 127.547 52.3958C126.746 50.0357 125.754 48.1299 124.445 46.7787C123.087 45.3775 121.447 44.6352 119.556 44.5466C117.736 44.4613 115.793 44.9853 113.751 45.8773L115.111 48.9907C116.924 48.1989 118.315 47.8896 119.397 47.9404C120.408 47.9877 121.237 48.3506 122.004 49.1426C122.82 49.9845 123.607 51.3599 124.329 53.4875C125.047 55.6013 125.661 58.3418 126.202 61.8048L129.559 61.2804ZM109.428 45.0707C105.991 41.631 102.285 39.661 98.1046 39.9483C94.0015 40.2304 89.8795 42.6653 85.5131 46.9729L87.8991 49.3915C92.0392 45.3072 95.4305 43.5377 98.3376 43.3378C101.168 43.1432 103.969 44.4138 107.025 47.4723L109.428 45.0707ZM113.751 45.8773C112.28 46.5199 110.553 46.1967 109.428 45.0707L107.025 47.4723C109.148 49.597 112.371 50.1876 115.111 48.9907L113.751 45.8773ZM57.8811 74.6641C54.5116 74.501 51.9667 75.6149 50.4661 77.7139C49.0222 79.7335 48.7841 82.3377 49.2492 84.7307C50.1554 89.3935 54.0747 94.5777 59.8638 94.5777L59.8638 91.1802C56.3006 91.1802 53.3108 87.821 52.5843 84.0826C52.233 82.2749 52.4977 80.714 53.2299 79.6898C53.9053 78.745 55.2098 77.9363 57.7169 78.0576L57.8811 74.6641ZM79.8007 97.8683C79.3895 100.833 79.4374 103.246 80.4991 105.228C81.5748 107.236 83.4994 108.447 85.9055 109.497L87.2638 106.383C85.0365 105.411 84.0105 104.588 83.4939 103.624C82.9634 102.633 82.7773 101.138 83.166 98.335L79.8007 97.8683ZM85.9055 109.497C86.5227 109.766 86.7688 110.146 86.8797 110.654C87.013 111.264 86.9408 112.094 86.6821 113.053C86.4306 113.985 86.0446 114.888 85.7096 115.575C85.5442 115.914 85.396 116.19 85.2909 116.379C85.2384 116.473 85.197 116.544 85.17 116.59C85.1565 116.614 85.1465 116.63 85.1407 116.64C85.1377 116.645 85.1358 116.648 85.1349 116.65C85.1345 116.65 85.1343 116.651 85.1344 116.65C85.1344 116.65 85.1346 116.65 85.1348 116.65C85.1348 116.65 85.135 116.649 85.1351 116.649C85.1353 116.649 85.1355 116.649 86.5846 117.535C88.0338 118.421 88.034 118.421 88.0343 118.421C88.0344 118.42 88.0347 118.42 88.0349 118.42C88.0354 118.419 88.036 118.418 88.0366 118.417C88.0378 118.415 88.0393 118.412 88.0411 118.409C88.0446 118.404 88.0492 118.396 88.0549 118.386C88.0663 118.367 88.0818 118.341 88.1011 118.308C88.1397 118.243 88.1933 118.15 88.2585 118.033C88.3887 117.799 88.5663 117.468 88.7628 117.065C89.1517 116.268 89.6346 115.152 89.9622 113.938C90.2827 112.75 90.5 111.307 90.199 109.929C89.8755 108.448 88.9632 107.124 87.2638 106.383L85.9055 109.497ZM95.1796 95.6121C93.7027 96.9106 92.6246 98.246 91.9746 100.075C91.3477 101.84 91.1704 103.927 91.2018 106.624L94.5991 106.585C94.5689 103.993 94.7555 102.397 95.1761 101.213C95.5737 100.094 96.2267 99.2154 97.423 98.1636L95.1796 95.6121ZM91.2135 106.404C90.9351 108.75 90.3606 110.515 89.1162 112.343C87.8307 114.231 85.7796 116.261 82.3872 119.03L84.5355 121.662C87.9889 118.844 90.3537 116.562 91.9245 114.255C93.5363 111.888 94.2585 109.575 94.5874 106.805L91.2135 106.404ZM81.9851 119.31C78.0832 121.714 76.4645 125.004 76.8691 128.386C77.2547 131.609 79.4341 134.501 82.2187 136.424L84.1489 133.628C81.9054 132.079 80.4795 129.962 80.2426 127.982C80.0246 126.16 80.7661 124.051 83.7669 122.203L81.9851 119.31ZM82.2187 136.424C82.3595 136.521 82.5865 136.785 82.6951 137.425C82.8023 138.056 82.7604 138.903 82.5066 139.86C81.9961 141.787 80.7251 143.81 78.851 145.006C77.0549 146.152 74.5485 146.643 71.2303 145.299C67.8338 143.923 63.561 140.603 58.5445 133.998L55.8389 136.053C61.0413 142.903 65.7645 146.751 69.9547 148.448C74.223 150.177 77.8939 149.647 80.6788 147.87C83.3857 146.142 85.0994 143.339 85.7908 140.731C86.1379 139.421 86.2513 138.073 86.0446 136.856C85.8394 135.648 85.2834 134.411 84.1489 133.628L82.2187 136.424ZM58.5445 133.998C48.6617 120.985 43.4867 103.267 42.2399 87.3207C41.6175 79.3606 41.98 71.9101 43.1902 65.7815C44.4114 59.5967 46.4508 54.9858 48.9919 52.4578L46.5957 50.0492C43.3436 53.2846 41.1272 58.6906 39.8571 65.1233C38.5758 71.6121 38.2112 79.3798 38.8527 87.5855C40.1338 103.971 45.451 122.375 55.8389 136.053L58.5445 133.998ZM49.6844 51.6736C54.5318 45.2909 59.1922 41.0425 64.4809 38.0152C69.7836 34.9798 75.8175 33.1143 83.5055 31.6316L82.8621 28.2956C74.9933 29.8132 68.5518 31.7702 62.7931 35.0666C57.0202 38.371 52.0329 42.9638 46.9787 49.6187L49.6844 51.6736ZM83.5055 31.6316C96.391 29.1465 111.024 32.8807 122.917 39.0251C128.845 42.0877 134.021 45.7138 137.893 49.3787C141.806 53.0818 144.226 56.6713 144.933 59.6298L148.237 58.8402C147.304 54.9363 144.327 50.7902 140.228 46.9112C136.09 42.9941 130.641 39.1918 124.476 36.0066C112.183 29.6553 96.7543 25.6163 82.8621 28.2956L83.5055 31.6316ZM48.9919 52.4578C49.2253 52.2256 49.4608 51.9679 49.6844 51.6736L46.9787 49.6188C46.8729 49.7581 46.7484 49.8974 46.5957 50.0492L48.9919 52.4578ZM82.3872 119.03C82.2796 119.118 82.1433 119.213 81.9852 119.31L83.7669 122.203C84.01 122.053 84.2781 121.872 84.5355 121.662L82.3872 119.03ZM88.2006 45.5728C83.7519 43.3262 80.1354 42.1518 77.0502 42.67C73.7805 43.2192 71.6116 45.5532 69.8125 48.8906L72.8031 50.5027C74.4137 47.5152 75.8838 46.311 77.613 46.0206C79.5266 45.6991 82.2687 46.3834 86.669 48.6055L88.2006 45.5728ZM66.6123 50.9321C63.6478 51.226 61.4673 52.2299 60.1622 54.3711C58.9722 56.3235 58.7128 58.9444 58.6512 61.8713L62.048 61.9428C62.1103 58.9826 62.4014 57.2254 63.0633 56.1393C63.6101 55.2422 64.5828 54.5474 66.9474 54.3131L66.6123 50.9321ZM69.8125 48.8906C69.1997 50.0273 68.0005 50.7945 66.6123 50.9321L66.9474 54.3131C69.3547 54.0745 71.606 52.7234 72.8031 50.5027L69.8125 48.8906ZM63.1779 59.5406C58.6646 60.7838 55.187 62.2884 53.4524 65.1609C51.6892 68.0807 52.0507 71.8437 53.5018 76.6123L56.7521 75.6232C55.3276 70.942 55.416 68.4815 56.3607 66.9172C57.3341 65.3054 59.5453 64.0652 64.0801 62.8161L63.1779 59.5406ZM144.456 57.9667C145.235 60.9286 145.712 64.9003 145.93 68.6119C146.148 72.3397 146.094 75.6276 145.874 77.2216L149.239 77.6859C149.505 75.7576 149.543 72.2051 149.321 68.4135C149.098 64.6057 148.604 60.379 147.742 57.1025L144.456 57.9667ZM145.874 77.2216C145.423 80.4873 145.754 85.4652 145.841 86.646L149.229 86.3964C149.137 85.1554 148.846 80.5369 149.239 77.6859L145.874 77.2216ZM145.958 87.4519C146.606 90.4224 147.443 92.7036 148.742 94.7618C150.033 96.806 151.722 98.5348 153.926 100.468L156.166 97.9131C154.054 96.0616 152.649 94.5852 151.615 92.9477C150.59 91.3242 149.871 89.4474 149.277 86.7277L145.958 87.4519ZM153.926 100.468C154.022 100.552 154.119 100.636 154.217 100.721L156.443 98.1544C156.35 98.0733 156.257 97.9928 156.166 97.913L153.926 100.468ZM153.816 100.362C155.41 102.035 156.521 103.399 157.216 104.54C157.913 105.686 158.097 106.46 158.067 106.997C158.039 107.481 157.824 108.021 157.128 108.696C156.402 109.401 155.243 110.159 153.527 111.016L155.045 114.056C156.875 113.142 158.397 112.199 159.493 111.135C160.62 110.042 161.37 108.747 161.459 107.19C161.544 105.688 160.995 104.216 160.118 102.774C159.238 101.326 157.933 99.7579 156.276 98.0189L153.816 100.362ZM152.805 111.26C151.416 111.565 150.201 111.96 149.248 112.538C148.252 113.142 147.477 113.991 147.159 115.16C146.859 116.267 147.038 117.415 147.396 118.504C147.758 119.602 148.361 120.815 149.118 122.142L152.069 120.458C151.35 119.2 150.879 118.218 150.624 117.442C150.365 116.656 150.384 116.248 150.438 116.051C150.474 115.917 150.567 115.712 151.01 115.443C151.495 115.149 152.288 114.852 153.535 114.578L152.805 111.26ZM149.226 122.309C149.622 122.845 150.189 123.486 150.564 123.941C151.002 124.472 151.298 124.887 151.454 125.227C151.602 125.546 151.525 125.577 151.556 125.501C151.57 125.465 151.489 125.715 150.717 126.081L152.17 129.151C153.311 128.611 154.262 127.865 154.703 126.782C155.16 125.659 154.903 124.592 154.54 123.805C154.187 123.038 153.644 122.336 153.188 121.782C152.669 121.152 152.29 120.739 151.96 120.292L149.226 122.309ZM150.717 126.081C149.607 126.606 148.754 127.19 148.212 127.891C147.608 128.672 147.417 129.576 147.67 130.435L150.929 129.477C150.961 129.585 150.97 129.713 150.944 129.836C150.919 129.954 150.877 129.999 150.9 129.969C150.969 129.879 151.271 129.577 152.17 129.151L150.717 126.081ZM148.989 132.435C149.183 132.853 149.183 133.078 149.145 133.263C149.094 133.514 148.927 133.901 148.437 134.563L151.167 136.585C151.766 135.775 152.277 134.912 152.475 133.941C152.686 132.905 152.505 131.938 152.07 131.003L148.989 132.435ZM147.77 135.187C146.921 135.855 146.257 136.619 145.915 137.637C145.589 138.607 145.627 139.607 145.75 140.581L149.121 140.158C149.017 139.332 149.058 138.951 149.136 138.719C149.198 138.534 149.34 138.275 149.87 137.859L147.77 135.187ZM145.736 140.369V145.208H149.134V140.369H145.736ZM145.696 145.705C145.539 146.691 145.415 147.66 145.296 148.557C145.176 149.466 145.062 150.301 144.92 151.074C144.63 152.656 144.262 153.759 143.71 154.499C143.228 155.146 142.509 155.644 141.132 155.796C139.669 155.957 137.509 155.715 134.312 154.772L133.351 158.031C136.723 159.025 139.387 159.406 141.504 159.173C143.708 158.93 145.325 158.016 146.434 156.53C147.473 155.136 147.951 153.385 148.262 151.686C148.421 150.82 148.545 149.909 148.665 149.002C148.786 148.084 148.903 147.169 149.051 146.238L145.696 145.705ZM134.312 154.772C130.389 153.615 126.418 154.567 122.944 156.82C119.482 159.065 116.432 162.642 114.171 166.967C109.651 175.615 108.116 187.588 113.087 198.868L116.196 197.498C111.693 187.281 113.077 176.394 117.182 168.541C119.234 164.615 121.924 161.531 124.792 159.671C127.648 157.819 130.598 157.219 133.351 158.031L134.312 154.772ZM145.736 145.208C145.736 145.367 145.723 145.534 145.696 145.705L149.051 146.238C149.104 145.905 149.134 145.56 149.134 145.208H145.736ZM148.437 134.563C148.307 134.737 148.109 134.921 147.77 135.187L149.87 137.859C150.249 137.56 150.752 137.144 151.167 136.585L148.437 134.563ZM147.67 130.435C147.891 131.189 148.378 131.724 148.611 131.984C148.76 132.151 148.837 132.233 148.912 132.328C148.979 132.41 148.992 132.44 148.989 132.435L152.07 131.003C151.787 130.394 151.313 129.909 151.143 129.719C150.887 129.433 150.91 129.411 150.929 129.477L147.67 130.435ZM153.527 111.016C153.328 111.116 153.087 111.198 152.805 111.26L153.535 114.578C154.021 114.471 154.54 114.308 155.045 114.056L153.527 111.016ZM145.841 86.6459C145.861 86.9187 145.9 87.1878 145.958 87.4519L149.277 86.7277C149.253 86.6169 149.237 86.5063 149.229 86.3965L145.841 86.6459Z" fill="#008080"/>
<path d="M81.2576 61.8384C83.3571 61.3901 86.6215 61.9978 90.8731 64.8428L90.9465 64.8921L90.9466 64.892L91.8179 65.4751L92.6891 64.892L92.6892 64.8921L92.7625 64.8429L92.7626 64.8428C97.0142 61.9978 100.279 61.3901 102.378 61.8384C104.337 62.2568 105.594 63.6563 105.91 65.8432C106.559 70.3268 103.046 78.2459 91.8178 84.5785C80.5901 78.2459 77.0762 70.3268 77.7252 65.8432C78.0418 63.6563 79.2982 62.2568 81.2576 61.8384Z" fill="#FFCB60" stroke="#008080" stroke-width="3.3975"/>
</svg>
