<svg width="120" height="120" viewBox="0 0 120 120" fill="none" xmlns="http://www.w3.org/2000/svg">
<g clip-path="url(#clip0_318_138)">
<path d="M90.0773 51.3762C89.8363 56.6241 87.6709 61.0556 84.5407 65.7471C81.6253 68.8395 80.2225 71.5812 79.2056 74.3536C78.8401 75.35 78.5168 76.3743 78.1998 77.3789C78.0873 77.7351 77.9757 78.0888 77.8632 78.438C77.5423 79.4343 77.1991 80.4455 76.7785 81.5049H42.0671C41.7344 80.429 41.4728 79.4874 41.2337 78.6173C41.2112 78.5353 41.1888 78.4537 41.1665 78.3723C40.8609 77.2586 40.5723 76.2066 40.209 75.1721C39.3996 72.8669 38.2475 70.7205 35.7728 67.5429C32.5746 63.1063 30.65 57.8797 30.2073 52.4281C29.7637 46.9646 30.8254 41.484 33.2772 36.5815C35.7289 31.6789 39.477 27.5418 44.1144 24.6194C48.7518 21.6969 54.1013 20.1009 59.5819 20.0046C65.0625 19.9083 70.4647 21.3155 75.2019 24.0732C79.9391 26.8309 83.8303 30.8338 86.4527 35.6472C89.0752 40.4606 90.3288 45.9005 90.0773 51.3762Z" fill="#FFCB60" stroke="#008080" stroke-width="4"/>
<path d="M86.295 51.5525C86.0841 56.2 84.1894 60.1231 81.452 64.2751C78.8994 67.0152 77.6717 69.444 76.7821 71.8982C76.4623 72.7805 76.1795 73.6874 75.902 74.5769C75.8036 74.8923 75.7059 75.2056 75.6075 75.5147C75.3283 76.3918 75.0299 77.2817 74.6649 78.2137H44.3536C44.0649 77.268 43.8375 76.4395 43.6295 75.6735C43.6098 75.6009 43.5902 75.5286 43.5707 75.4566C43.3033 74.4704 43.0508 73.539 42.7329 72.623C42.0246 70.5817 41.0161 68.6804 38.8499 65.8657C36.0531 61.9396 34.3688 57.3124 33.9813 52.4841C33.593 47.6452 34.5224 42.792 36.6673 38.4519C38.8121 34.112 42.0895 30.4526 46.1412 27.8689C50.1926 25.2853 54.8642 23.8754 59.6488 23.7904C64.4334 23.7053 69.1508 24.9483 73.2891 27.386C77.4275 29.8239 80.8297 33.3643 83.1237 37.6249C85.4177 41.8858 86.515 46.7028 86.295 51.5525Z" stroke="white" stroke-width="3.57255"/>
<line x1="41.6089" y1="84" x2="41.6089" y2="104" stroke="#008080" stroke-width="3"/>
<line x1="77.6089" y1="82" x2="77.6089" y2="103" stroke="#008080" stroke-width="3"/>
<path d="M39.0713 84.5005L79.0713 83.5005" stroke="#008080" stroke-width="4" stroke-linecap="round"/>
<path d="M39.0713 90.5005L79.0713 89.5005" stroke="#008080" stroke-width="4" stroke-linecap="round"/>
<path d="M39.0713 96.5005L79.0713 95.5005" stroke="#008080" stroke-width="4" stroke-linecap="round"/>
<path d="M39.0713 102.5L59.0713 102L79.0713 101.5" stroke="#008080" stroke-width="4" stroke-linecap="round"/>
<path d="M52.1089 108L59.0714 108.001L66.6089 108.001" stroke="#008080" stroke-width="4" stroke-linecap="round"/>
<path d="M40.6089 103L56.1089 111H60.1089H63.1089L78.6089 102" stroke="#008080" stroke-width="3"/>
<line x1="48.1089" y1="106.5" x2="69.1089" y2="106.5" stroke="#008080"/>
<circle cx="53.1089" cy="42" r="5" fill="#008080"/>
<circle cx="69.1089" cy="42" r="5" fill="#008080"/>
<path d="M45.1089 54C49.1089 70 71.1089 71 75.1089 54" stroke="#008080" stroke-width="4" stroke-linecap="round"/>
<path d="M16.1826 18.3125L22.6458 22.6562L29.1089 26.9999M7.10889 44.8125L22.6089 45.4999M11.6089 70.9999L26.6089 67.4999" stroke="#FFCB60" stroke-width="4"/>
<path d="M104.7 18.3125L98.2368 22.6562L91.7737 26.9999M113.774 44.8125L98.2737 45.4999M109.274 70.9999L94.2737 67.4999" stroke="#FFCB60" stroke-width="4"/>
<path d="M78.5 10.4999C78.5 10.5386 78.4797 10.6491 78.2741 10.8294C78.0711 11.0075 77.7425 11.2025 77.2723 11.402C76.3358 11.7994 74.9502 12.1686 73.2002 12.4827C69.7086 13.1094 64.8645 13.4999 59.5 13.4999C54.1355 13.4999 49.2914 13.1094 45.7997 12.4827C44.0498 12.1686 42.6642 11.7994 41.7277 11.402C41.2575 11.2025 40.9289 11.0075 40.7259 10.8294C40.5203 10.6491 40.5 10.5386 40.5 10.4999C40.5 10.4612 40.5203 10.3508 40.7259 10.1705C40.9289 9.99239 41.2575 9.7974 41.7277 9.59785C42.6642 9.20047 44.0498 8.83129 45.7997 8.5172C49.2914 7.89049 54.1355 7.49994 59.5 7.49994C64.8645 7.49994 69.7086 7.89049 73.2002 8.5172C74.9502 8.83129 76.3358 9.20047 77.2723 9.59785C77.7425 9.7974 78.0711 9.99239 78.2741 10.1705C78.4797 10.3508 78.5 10.4612 78.5 10.4999Z" stroke="#FFCB60"/>
<path d="M77.4992 9.99994C77.494 10.0172 77.4645 10.0883 77.3085 10.2087C77.1126 10.3599 76.7924 10.5274 76.332 10.6992C75.4168 11.0409 74.0637 11.3579 72.357 11.6274C68.9516 12.1651 64.2289 12.4999 59 12.4999C53.7711 12.4999 49.0484 12.1651 45.643 11.6274C43.9363 11.3579 42.5832 11.0409 41.668 10.6992C41.2076 10.5274 40.8874 10.3599 40.6915 10.2087C40.5355 10.0883 40.506 10.0172 40.5008 9.99994C40.506 9.98266 40.5355 9.91155 40.6915 9.79119C40.8874 9.64001 41.2076 9.47251 41.668 9.30063C42.5832 8.95896 43.9363 8.64197 45.643 8.3725C49.0484 7.8348 53.7711 7.49994 59 7.49994C64.2289 7.49994 68.9516 7.8348 72.357 8.3725C74.0637 8.64197 75.4168 8.95896 76.332 9.30063C76.7924 9.47251 77.1126 9.64001 77.3085 9.79119C77.4645 9.91155 77.494 9.98266 77.4992 9.99994Z" stroke="#FFCB60"/>
<path d="M78.4992 9.99994C78.494 10.0172 78.4645 10.0883 78.3085 10.2087C78.1126 10.3599 77.7924 10.5274 77.332 10.6992C76.4168 11.0409 75.0637 11.3579 73.357 11.6274C69.9516 12.1651 65.2289 12.4999 60 12.4999C54.7711 12.4999 50.0484 12.1651 46.643 11.6274C44.9363 11.3579 43.5832 11.0409 42.668 10.6992C42.2076 10.5274 41.8874 10.3599 41.6915 10.2087C41.5355 10.0883 41.506 10.0172 41.5008 9.99994C41.506 9.98266 41.5355 9.91155 41.6915 9.79119C41.8874 9.64001 42.2076 9.47251 42.668 9.30063C43.5832 8.95896 44.9363 8.64197 46.643 8.3725C50.0484 7.8348 54.7711 7.49994 60 7.49994C65.2289 7.49994 69.9516 7.8348 73.357 8.3725C75.0637 8.64197 76.4168 8.95896 77.332 9.30063C77.7924 9.47251 78.1126 9.64001 78.3085 9.79119C78.4645 9.91155 78.494 9.98266 78.4992 9.99994Z" stroke="#FFCB60"/>
<path d="M75.5 10.4999C75.5 10.5651 75.4702 10.6816 75.3 10.8528C75.1284 11.0255 74.8492 11.2161 74.4452 11.4127C73.6394 11.8049 72.4412 12.1719 70.92 12.4851C67.8857 13.1098 63.6711 13.4999 59 13.4999C54.3289 13.4999 50.1143 13.1098 47.08 12.4851C45.5588 12.1719 44.3606 11.8049 43.5548 11.4127C43.1508 11.2161 42.8716 11.0255 42.7 10.8528C42.5298 10.6816 42.5 10.5651 42.5 10.4999C42.5 10.4348 42.5298 10.3183 42.7 10.147C42.8716 9.97437 43.1508 9.78378 43.5548 9.58715C44.3606 9.19493 45.5588 8.82799 47.08 8.51479C50.1143 7.89009 54.3289 7.49994 59 7.49994C63.6711 7.49994 67.8857 7.89009 70.92 8.51479C72.4412 8.82799 73.6394 9.19493 74.4452 9.58715C74.8492 9.78378 75.1284 9.97437 75.3 10.147C75.4702 10.3183 75.5 10.4348 75.5 10.4999Z" stroke="#FFCB60"/>
<path d="M76.5 10.4999C76.5 10.5651 76.4702 10.6816 76.3 10.8528C76.1284 11.0255 75.8492 11.2161 75.4452 11.4127C74.6394 11.8049 73.4412 12.1719 71.92 12.4851C68.8857 13.1098 64.6711 13.4999 60 13.4999C55.3289 13.4999 51.1143 13.1098 48.08 12.4851C46.5588 12.1719 45.3606 11.8049 44.5548 11.4127C44.1508 11.2161 43.8716 11.0255 43.7 10.8528C43.5298 10.6816 43.5 10.5651 43.5 10.4999C43.5 10.4348 43.5298 10.3183 43.7 10.147C43.8716 9.97437 44.1508 9.78378 44.5548 9.58715C45.3606 9.19493 46.5588 8.82799 48.08 8.51479C51.1143 7.89009 55.3289 7.49994 60 7.49994C64.6711 7.49994 68.8857 7.89009 71.92 8.51479C73.4412 8.82799 74.6394 9.19493 75.4452 9.58715C75.8492 9.78378 76.1284 9.97437 76.3 10.147C76.4702 10.3183 76.5 10.4348 76.5 10.4999Z" stroke="#FFCB60"/>
<path d="M78.5 10.4999C78.5 10.5386 78.4797 10.6491 78.2741 10.8294C78.0711 11.0075 77.7425 11.2025 77.2723 11.402C76.3358 11.7994 74.9502 12.1686 73.2002 12.4827C69.7086 13.1094 64.8645 13.4999 59.5 13.4999C54.1355 13.4999 49.2914 13.1094 45.7997 12.4827C44.0498 12.1686 42.6642 11.7994 41.7277 11.402C41.2575 11.2025 40.9289 11.0075 40.7259 10.8294C40.5203 10.6491 40.5 10.5386 40.5 10.4999C40.5 10.4612 40.5203 10.3508 40.7259 10.1705C40.9289 9.99239 41.2575 9.7974 41.7277 9.59785C42.6642 9.20047 44.0498 8.83129 45.7997 8.5172C49.2914 7.89049 54.1355 7.49994 59.5 7.49994C64.8645 7.49994 69.7086 7.89049 73.2002 8.5172C74.9502 8.83129 76.3358 9.20047 77.2723 9.59785C77.7425 9.7974 78.0711 9.99239 78.2741 10.1705C78.4797 10.3508 78.5 10.4612 78.5 10.4999Z" stroke="#FFCB60"/>
<path d="M77.4992 9.99994C77.494 10.0172 77.4645 10.0883 77.3085 10.2087C77.1126 10.3599 76.7924 10.5274 76.332 10.6992C75.4168 11.0409 74.0637 11.3579 72.357 11.6274C68.9516 12.1651 64.2289 12.4999 59 12.4999C53.7711 12.4999 49.0484 12.1651 45.643 11.6274C43.9363 11.3579 42.5832 11.0409 41.668 10.6992C41.2076 10.5274 40.8874 10.3599 40.6915 10.2087C40.5355 10.0883 40.506 10.0172 40.5008 9.99994C40.506 9.98266 40.5355 9.91155 40.6915 9.79119C40.8874 9.64001 41.2076 9.47251 41.668 9.30063C42.5832 8.95896 43.9363 8.64197 45.643 8.3725C49.0484 7.8348 53.7711 7.49994 59 7.49994C64.2289 7.49994 68.9516 7.8348 72.357 8.3725C74.0637 8.64197 75.4168 8.95896 76.332 9.30063C76.7924 9.47251 77.1126 9.64001 77.3085 9.79119C77.4645 9.91155 77.494 9.98266 77.4992 9.99994Z" stroke="#FFCB60"/>
<path d="M78.4992 9.99994C78.494 10.0172 78.4645 10.0883 78.3085 10.2087C78.1126 10.3599 77.7924 10.5274 77.332 10.6992C76.4168 11.0409 75.0637 11.3579 73.357 11.6274C69.9516 12.1651 65.2289 12.4999 60 12.4999C54.7711 12.4999 50.0484 12.1651 46.643 11.6274C44.9363 11.3579 43.5832 11.0409 42.668 10.6992C42.2076 10.5274 41.8874 10.3599 41.6915 10.2087C41.5355 10.0883 41.506 10.0172 41.5008 9.99994C41.506 9.98266 41.5355 9.91155 41.6915 9.79119C41.8874 9.64001 42.2076 9.47251 42.668 9.30063C43.5832 8.95896 44.9363 8.64197 46.643 8.3725C50.0484 7.8348 54.7711 7.49994 60 7.49994C65.2289 7.49994 69.9516 7.8348 73.357 8.3725C75.0637 8.64197 76.4168 8.95896 77.332 9.30063C77.7924 9.47251 78.1126 9.64001 78.3085 9.79119C78.4645 9.91155 78.494 9.98266 78.4992 9.99994Z" stroke="#FFCB60"/>
<path d="M75.5 10.4999C75.5 10.5651 75.4702 10.6816 75.3 10.8528C75.1284 11.0255 74.8492 11.2161 74.4452 11.4127C73.6394 11.8049 72.4412 12.1719 70.92 12.4851C67.8857 13.1098 63.6711 13.4999 59 13.4999C54.3289 13.4999 50.1143 13.1098 47.08 12.4851C45.5588 12.1719 44.3606 11.8049 43.5548 11.4127C43.1508 11.2161 42.8716 11.0255 42.7 10.8528C42.5298 10.6816 42.5 10.5651 42.5 10.4999C42.5 10.4348 42.5298 10.3183 42.7 10.147C42.8716 9.97437 43.1508 9.78378 43.5548 9.58715C44.3606 9.19493 45.5588 8.82799 47.08 8.51479C50.1143 7.89009 54.3289 7.49994 59 7.49994C63.6711 7.49994 67.8857 7.89009 70.92 8.51479C72.4412 8.82799 73.6394 9.19493 74.4452 9.58715C74.8492 9.78378 75.1284 9.97437 75.3 10.147C75.4702 10.3183 75.5 10.4348 75.5 10.4999Z" stroke="#FFCB60"/>
<path d="M76.5 10.4999C76.5 10.5651 76.4702 10.6816 76.3 10.8528C76.1284 11.0255 75.8492 11.2161 75.4452 11.4127C74.6394 11.8049 73.4412 12.1719 71.92 12.4851C68.8857 13.1098 64.6711 13.4999 60 13.4999C55.3289 13.4999 51.1143 13.1098 48.08 12.4851C46.5588 12.1719 45.3606 11.8049 44.5548 11.4127C44.1508 11.2161 43.8716 11.0255 43.7 10.8528C43.5298 10.6816 43.5 10.5651 43.5 10.4999C43.5 10.4348 43.5298 10.3183 43.7 10.147C43.8716 9.97437 44.1508 9.78378 44.5548 9.58715C45.3606 9.19493 46.5588 8.82799 48.08 8.51479C51.1143 7.89009 55.3289 7.49994 60 7.49994C64.6711 7.49994 68.8857 7.89009 71.92 8.51479C73.4412 8.82799 74.6394 9.19493 75.4452 9.58715C75.8492 9.78378 76.1284 9.97437 76.3 10.147C76.4702 10.3183 76.5 10.4348 76.5 10.4999Z" stroke="#FFCB60"/>
<path d="M78.5 9.49994C78.5 9.53863 78.4797 9.6491 78.2741 9.82942C78.0711 10.0075 77.7425 10.2025 77.2723 10.402C76.3358 10.7994 74.9502 11.1686 73.2002 11.4827C69.7086 12.1094 64.8645 12.4999 59.5 12.4999C54.1355 12.4999 49.2914 12.1094 45.7997 11.4827C44.0498 11.1686 42.6642 10.7994 41.7277 10.402C41.2575 10.2025 40.9289 10.0075 40.7259 9.82942C40.5203 9.6491 40.5 9.53863 40.5 9.49994C40.5 9.46125 40.5203 9.35078 40.7259 9.17046C40.9289 8.99239 41.2575 8.7974 41.7277 8.59785C42.6642 8.20047 44.0498 7.83129 45.7997 7.5172C49.2914 6.89049 54.1355 6.49994 59.5 6.49994C64.8645 6.49994 69.7086 6.89049 73.2002 7.5172C74.9502 7.83129 76.3358 8.20047 77.2723 8.59785C77.7425 8.7974 78.0711 8.99239 78.2741 9.17046C78.4797 9.35078 78.5 9.46125 78.5 9.49994Z" stroke="#FFCB60"/>
<path d="M77.4992 8.99994C77.494 9.01722 77.4645 9.08833 77.3085 9.20869C77.1126 9.35987 76.7924 9.52737 76.332 9.69925C75.4168 10.0409 74.0637 10.3579 72.357 10.6274C68.9516 11.1651 64.2289 11.4999 59 11.4999C53.7711 11.4999 49.0484 11.1651 45.643 10.6274C43.9363 10.3579 42.5832 10.0409 41.668 9.69925C41.2076 9.52737 40.8874 9.35987 40.6915 9.20869C40.5355 9.08833 40.506 9.01722 40.5008 8.99994C40.506 8.98266 40.5355 8.91155 40.6915 8.79119C40.8874 8.64001 41.2076 8.47251 41.668 8.30063C42.5832 7.95896 43.9363 7.64197 45.643 7.3725C49.0484 6.8348 53.7711 6.49994 59 6.49994C64.2289 6.49994 68.9516 6.8348 72.357 7.3725C74.0637 7.64197 75.4168 7.95896 76.332 8.30063C76.7924 8.47251 77.1126 8.64001 77.3085 8.79119C77.4645 8.91155 77.494 8.98266 77.4992 8.99994Z" stroke="#FFCB60"/>
<path d="M78.4992 8.99994C78.494 9.01722 78.4645 9.08833 78.3085 9.20869C78.1126 9.35987 77.7924 9.52737 77.332 9.69925C76.4168 10.0409 75.0637 10.3579 73.357 10.6274C69.9516 11.1651 65.2289 11.4999 60 11.4999C54.7711 11.4999 50.0484 11.1651 46.643 10.6274C44.9363 10.3579 43.5832 10.0409 42.668 9.69925C42.2076 9.52737 41.8874 9.35987 41.6915 9.20869C41.5355 9.08833 41.506 9.01722 41.5008 8.99994C41.506 8.98266 41.5355 8.91155 41.6915 8.79119C41.8874 8.64001 42.2076 8.47251 42.668 8.30063C43.5832 7.95896 44.9363 7.64197 46.643 7.3725C50.0484 6.8348 54.7711 6.49994 60 6.49994C65.2289 6.49994 69.9516 6.8348 73.357 7.3725C75.0637 7.64197 76.4168 7.95896 77.332 8.30063C77.7924 8.47251 78.1126 8.64001 78.3085 8.79119C78.4645 8.91155 78.494 8.98266 78.4992 8.99994Z" stroke="#FFCB60"/>
<path d="M75.5 9.49994C75.5 9.56508 75.4702 9.6816 75.3 9.85284C75.1284 10.0255 74.8492 10.2161 74.4452 10.4127C73.6394 10.8049 72.4412 11.1719 70.92 11.4851C67.8857 12.1098 63.6711 12.4999 59 12.4999C54.3289 12.4999 50.1143 12.1098 47.08 11.4851C45.5588 11.1719 44.3606 10.8049 43.5548 10.4127C43.1508 10.2161 42.8716 10.0255 42.7 9.85284C42.5298 9.6816 42.5 9.56508 42.5 9.49994C42.5 9.4348 42.5298 9.31827 42.7 9.14704C42.8716 8.97437 43.1508 8.78378 43.5548 8.58715C44.3606 8.19493 45.5588 7.82799 47.08 7.51479C50.1143 6.89009 54.3289 6.49994 59 6.49994C63.6711 6.49994 67.8857 6.89009 70.92 7.51479C72.4412 7.82799 73.6394 8.19493 74.4452 8.58715C74.8492 8.78378 75.1284 8.97437 75.3 9.14704C75.4702 9.31827 75.5 9.4348 75.5 9.49994Z" stroke="#FFCB60"/>
<path d="M76.5 9.49994C76.5 9.56508 76.4702 9.6816 76.3 9.85284C76.1284 10.0255 75.8492 10.2161 75.4452 10.4127C74.6394 10.8049 73.4412 11.1719 71.92 11.4851C68.8857 12.1098 64.6711 12.4999 60 12.4999C55.3289 12.4999 51.1143 12.1098 48.08 11.4851C46.5588 11.1719 45.3606 10.8049 44.5548 10.4127C44.1508 10.2161 43.8716 10.0255 43.7 9.85284C43.5298 9.6816 43.5 9.56508 43.5 9.49994C43.5 9.4348 43.5298 9.31827 43.7 9.14704C43.8716 8.97437 44.1508 8.78378 44.5548 8.58715C45.3606 8.19493 46.5588 7.82799 48.08 7.51479C51.1143 6.89009 55.3289 6.49994 60 6.49994C64.6711 6.49994 68.8857 6.89009 71.92 7.51479C73.4412 7.82799 74.6394 8.19493 75.4452 8.58715C75.8492 8.78378 76.1284 8.97437 76.3 9.14704C76.4702 9.31827 76.5 9.4348 76.5 9.49994Z" stroke="#FFCB60"/>
</g>
<defs>
<clipPath id="clip0_318_138">
<rect width="120" height="120" fill="white"/>
</clipPath>
</defs>
</svg>
