<svg width="160" height="160" viewBox="0 0 160 160" fill="none" xmlns="http://www.w3.org/2000/svg">
<rect width="160" height="160" fill="#F1F3F3"/>
<path d="M81.1979 98.0543H70.5433C70.907 100.212 71.4282 102.006 72.107 103.436C72.7858 104.866 73.5494 106.018 74.3979 106.891C75.2706 107.739 76.1797 108.345 77.1252 108.709C78.0949 109.048 79.0282 109.218 79.9252 109.218C80.5555 109.218 81.1979 109.169 81.8524 109.072C82.5312 108.975 83.2585 108.757 84.0343 108.418C84.8343 108.079 85.7191 107.582 86.6888 106.927C87.6827 106.272 88.7979 105.388 90.0343 104.272C90.4221 104.685 90.7737 105.121 91.0888 105.582C91.4282 106.042 91.7676 106.515 92.107 107C90.6524 108.648 89.2585 109.982 87.9252 111C86.6161 111.994 85.3433 112.769 84.107 113.327C82.8949 113.86 81.7191 114.212 80.5797 114.382C79.4646 114.575 78.3736 114.672 77.307 114.672C75.3676 114.672 73.4767 114.321 71.6343 113.618C69.8161 112.915 68.1433 111.86 66.6161 110.454C65.0888 109.048 63.7676 107.315 62.6524 105.254C61.5373 103.194 60.7373 100.794 60.2524 98.0543H57.2343L56.0706 96.7815C56.1191 96.6118 56.1918 96.3694 56.2888 96.0543C56.41 95.7391 56.5191 95.4118 56.6161 95.0724C56.7373 94.7331 56.8464 94.4058 56.9433 94.0906C57.0646 93.7755 57.1615 93.5209 57.2343 93.327H59.7433V90.7088C59.7433 90.2482 59.7676 89.7876 59.8161 89.327H58.3252L57.1615 88.0543C57.21 87.8846 57.2827 87.6421 57.3797 87.327C57.5009 87.0118 57.61 86.6846 57.707 86.3452C57.8282 86.0058 57.9373 85.6785 58.0343 85.3634C58.1555 85.0482 58.2524 84.7937 58.3252 84.5997H60.4343C60.9676 81.8846 61.8039 79.5331 62.9433 77.5452C64.107 75.5331 65.5373 73.8724 67.2343 72.5634C68.9555 71.2543 70.9191 70.2846 73.1252 69.6543C75.3312 68.9997 77.7555 68.6724 80.3979 68.6724C81.61 68.6724 82.7979 68.7694 83.9615 68.9634C85.1494 69.1573 86.2646 69.424 87.307 69.7634C88.3737 70.0785 89.3433 70.4543 90.2161 70.8906C91.113 71.327 91.8767 71.7997 92.507 72.3088C92.604 72.3815 92.5918 72.6118 92.4706 72.9997C92.3737 73.3634 92.204 73.8118 91.9615 74.3452C91.7191 74.8785 91.4403 75.4603 91.1252 76.0906C90.81 76.7209 90.4827 77.327 90.1433 77.9088C89.8282 78.4906 89.5252 79.0118 89.2343 79.4724C88.9433 79.9088 88.7009 80.224 88.507 80.4179L85.7797 79.8361C84.713 77.824 83.5252 76.3088 82.2161 75.2906C80.907 74.2724 79.404 73.7634 77.707 73.7634C77.004 73.7634 76.2767 73.8967 75.5252 74.1634C74.7979 74.43 74.0949 74.9512 73.4161 75.727C72.7615 76.5027 72.1676 77.6058 71.6343 79.0361C71.1252 80.4421 70.7373 82.2967 70.4706 84.5997H83.7433L85.0161 85.7997L83.7433 89.327H70.1433C70.1191 89.7391 70.107 90.1512 70.107 90.5634V93.327H81.1979L82.4706 94.527L81.1979 98.0543Z" fill="#FFCB60"/>
<path d="M89.0565 44.0806C81.1975 50.7867 128.787 64.332 119.311 107.644C116.011 122.728 107.893 131.466 93.8565 137.899C80.1724 144.171 69.0073 144.144 55.3111 137.899C41.2288 131.477 31.3018 123.04 29.7112 107.644C24.8336 60.4368 75.6446 48.9175 62.1475 44.0806C52.6291 40.6695 32.799 21.0472 46.7293 23.2806C60.6597 25.5139 63.016 28.1213 75.3838 21.3896C87.7516 14.658 99.2889 13.1204 103.166 23.2806C106.665 32.451 96.5231 37.7094 89.0565 44.0806ZM89.0565 44.0806C78.7204 46.2972 61.42 46.5533 61.8564 45.0988M89.0565 44.0806C98.8334 41.3579 104.71 41.0988 115.675 42.7715M89.0565 44.0806C99.516 47.6879 104.644 50.7665 112.765 57.7533" stroke="#FFCB60" stroke-width="4.512"/>
<path d="M120.436 145.6C135.78 145.6 148.218 133.162 148.218 117.818C148.218 102.475 135.78 90.0365 120.436 90.0365C105.093 90.0365 92.6544 102.475 92.6544 117.818C92.6544 133.162 105.093 145.6 120.436 145.6Z" fill="#FFCB60" stroke="#F1F3F3" stroke-width="3.2"/>
<path d="M111.413 118.302C111.413 118.302 119.523 128.034 119.523 126.142C119.523 124.249 129.524 109.382 129.524 109.382" stroke="#F1F3F3" stroke-width="5.40631" stroke-linecap="round"/>
</svg>
