<svg width="160" height="160" viewBox="0 0 160 160" fill="none" xmlns="http://www.w3.org/2000/svg">
<path d="M77.4131 126.315C76.4901 125.576 75.1434 125.726 74.405 126.649C73.6666 127.572 73.8163 128.919 74.7392 129.657L77.4131 126.315ZM86.7769 135.12L85.982 137.107L86.0036 137.115L86.0254 137.124L86.7769 135.12ZM98.1909 127.986L98.2426 125.846L95.2944 125.775L96.1409 128.6L98.1909 127.986ZM110.318 117.285L110.824 115.206L107.305 114.349L108.253 117.845L110.318 117.285ZM83.21 133.693L81.873 135.364L82.1207 135.562L82.4151 135.68L83.21 133.693ZM86.0254 137.124C87.5677 137.702 89.3378 138.2 91.0981 138.444C92.8301 138.685 94.7162 138.703 96.398 138.174C98.1602 137.62 99.7361 136.438 100.491 134.392C101.202 132.465 101.059 130.101 100.241 127.372L96.1409 128.6C96.8319 130.907 96.73 132.22 96.4755 132.91C96.265 133.48 95.8687 133.853 95.1136 134.091C94.278 134.354 93.1014 134.401 91.6867 134.205C90.3002 134.012 88.8396 133.608 87.5283 133.116L86.0254 137.124ZM98.1393 130.125C100.356 130.179 102.545 130.246 104.46 130.125C106.35 130.006 108.268 129.693 109.842 128.801C111.551 127.831 112.685 126.277 113.086 124.129C113.46 122.117 113.181 119.662 112.384 116.725L108.253 117.845C108.983 120.537 109.08 122.261 108.878 123.345C108.701 124.293 108.306 124.751 107.731 125.077C107.02 125.48 105.897 125.745 104.19 125.853C102.507 125.959 100.541 125.902 98.2426 125.846L98.1393 130.125ZM109.813 119.365C113.894 120.358 117.163 120.909 119.683 120.918C122.137 120.926 124.441 120.42 125.866 118.646C127.265 116.904 127.276 114.597 126.907 112.431C126.524 110.189 125.619 107.481 124.446 104.397L120.446 105.919C121.611 108.981 122.38 111.354 122.687 113.152C123.008 115.028 122.725 115.721 122.529 115.966C122.358 116.179 121.763 116.645 119.697 116.638C117.697 116.631 114.825 116.179 110.824 115.206L109.813 119.365ZM74.7392 129.657L81.873 135.364L84.5469 132.022L77.4131 126.315L74.7392 129.657ZM82.4151 135.68L85.982 137.107L87.5717 133.133L84.0048 131.706L82.4151 135.68Z" fill="#008080"/>
<path d="M85.2868 114.922C84.3756 114.169 83.0266 114.298 82.2739 115.209C81.5211 116.12 81.6496 117.469 82.5608 118.222L85.2868 114.922ZM82.5608 118.222L98.9685 131.776L101.695 128.476L85.2868 114.922L82.5608 118.222Z" fill="#008080"/>
<path d="M95.2737 102.081C94.3624 101.328 93.0135 101.457 92.2607 102.368C91.5079 103.279 91.6364 104.628 92.5476 105.381L95.2737 102.081ZM92.5476 105.381L108.955 118.935L111.681 115.635L95.2737 102.081L92.5476 105.381Z" fill="#008080"/>
<path d="M106.688 89.2399C105.776 88.4872 104.428 88.6156 103.675 89.5269C102.922 90.4381 103.05 91.7871 103.962 92.5399L106.688 89.2399ZM103.962 92.5399L120.369 106.094L123.095 102.794L106.688 89.2399L103.962 92.5399Z" fill="#008080"/>
<path d="M96.7649 60.9283L81.7839 62.355C64.5525 70.084 56.6119 64.8284 76.0769 51.6544C82.7835 47.1152 96.7649 50.2276 96.7649 50.2276L104.612 48.0874L133.147 71.6289C133.526 79.949 131.832 82.8594 127.245 86.6099C117.638 76.0429 110.467 69.4224 96.7649 60.9283Z" fill="#008080" stroke="#008080" stroke-width="4.28028"/>
<path d="M120.306 103.731C132.172 103.425 132.064 97.6138 127.44 86.6101" stroke="#008080" stroke-width="4.28028"/>
<path d="M51.8213 48.0874L40.4073 34.5332L38.9805 36.6733L16.1523 73.769L18.2925 75.1958L32.5601 83.043L35.4136 77.8644M51.8213 48.0874C65.3835 45.8489 74.3715 41.5321 87.4903 44.5205C92.3494 45.6274 95.3752 47.164 98.9044 50.2275C101.542 48.8597 102.708 48.4967 104.611 48.0874M51.8213 48.0874L35.4136 77.8644M38.2671 95.8838C38.2671 95.8838 34.3317 82.7396 35.4136 77.8644M104.611 48.0874L115.312 34.5332L143.847 59.5015L133.147 71.6289L104.611 48.0874Z" stroke="#008080" stroke-width="4.28028"/>
<rect x="44.6392" y="85.0138" width="11.8993" height="26.4114" rx="5.94963" transform="rotate(45 44.6392 85.0138)" fill="#008080" stroke="#008080" stroke-width="1.42676"/>
<rect x="54.626" y="93.5748" width="11.8993" height="30.113" rx="5.94963" transform="rotate(45 54.626 93.5748)" fill="#008080" stroke="#008080" stroke-width="1.42676"/>
<rect x="64.6133" y="102.135" width="11.8993" height="31.4586" rx="5.94963" transform="rotate(45 64.6133 102.135)" fill="#008080" stroke="#008080" stroke-width="1.42676"/>
<rect x="74.6006" y="110.695" width="11.8993" height="26.4114" rx="5.94963" transform="rotate(45 74.6006 110.695)" fill="#008080" stroke="#008080" stroke-width="1.42676"/>
</svg>
