<svg width="160" height="160" viewBox="0 0 160 160" fill="none" xmlns="http://www.w3.org/2000/svg">
<path d="M43.8675 35.8996L61.5725 50.8969M65.5376 17.5L70.6389 39.2996M91.8666 28.0331L84.1053 44.897M37.0047 79.2988C39.538 112.098 39.1117 117.455 53.5378 129.964C73.4243 147.834 84.76 146.49 105.27 126.631C105.27 126.631 121.756 115.303 123.171 105.259C123.664 101.763 120.808 97.8608 118.638 97.9626C114.576 98.1534 110.611 103.561 111.003 99.9996C111.408 96.3223 120.21 94.6008 116.51 86.9544C114.335 82.461 110.333 84.7265 105.27 85.2987C104.016 85.4404 111.003 78.06 107.16 74.4601C107.16 74.4601 105.112 69.6015 97.8384 73.5268C80.9523 82.6398 117.59 52.3771 119.971 43.6607C122.353 34.9443 117.571 35.3942 111.003 39.2996C104.435 43.205 65.5376 85.2987 65.5376 85.2987C59.1725 90.3264 53.5377 84.232 53.5378 75.0322C53.5378 65.8324 34.4715 46.4994 37.0047 79.2988Z" stroke="#FFCB60" stroke-width="4.26658" stroke-linecap="round"/>
</svg>
