<svg width="160" height="160" viewBox="0 0 160 160" fill="none" xmlns="http://www.w3.org/2000/svg">
<circle cx="79" cy="35.4839" r="13.9355" stroke="#FFCB60" stroke-width="3.09677"/>
<path d="M79 52.5161H94.6805C95.053 52.5161 95.413 52.6504 95.6945 52.8944L117.588 71.869C118.117 72.3271 118.273 73.0825 117.969 73.7123L108.297 93.7456C107.934 94.4986 107.038 94.827 106.274 94.4874L102.132 92.6466C101.335 92.2924 100.988 91.3503 101.364 90.5636L108.656 75.3183C108.97 74.6617 108.784 73.8749 108.209 73.428L97.7571 65.2985C96.74 64.5074 95.2581 65.2322 95.2581 66.5207V140" stroke="#FFCB60" stroke-width="3.09677"/>
<path d="M79.7744 52.5161H64.094C63.7214 52.5161 63.3614 52.6504 63.0799 52.8944L41.186 71.869C40.6576 72.3271 40.5017 73.0825 40.8057 73.7123L50.477 93.7456C50.8405 94.4986 51.7362 94.827 52.5003 94.4874L56.6421 92.6466C57.439 92.2924 57.7863 91.3503 57.41 90.5636L50.1188 75.3183C49.8048 74.6617 49.9905 73.8749 50.5651 73.428L61.0173 65.2985C62.0344 64.5074 63.5164 65.2322 63.5164 66.5207V140" stroke="#FFCB60" stroke-width="3.09677"/>
<path d="M63.5161 95.8711H94.4838" stroke="#FFCB60" stroke-width="1.54839"/>
<path d="M79 95.8711V112.903" stroke="#FFCB60" stroke-width="1.54839" stroke-dasharray="3.1 3.1"/>
<path d="M79 112.129V138.451" stroke="#FFCB60" stroke-width="1.54839"/>
<path d="M37.1934 92.7744L43.3869 98.968" stroke="#FFCB60" stroke-width="3.09677"/>
<path d="M122.355 92.7744L116.161 98.968" stroke="#FFCB60" stroke-width="3.09677"/>
<path d="M37.1934 111.355L43.3869 105.161" stroke="#FFCB60" stroke-width="3.09677"/>
<path d="M122.355 111.355L116.161 105.161" stroke="#FFCB60" stroke-width="3.09677"/>
<path d="M31 102.064H40.2903" stroke="#FFCB60" stroke-width="3.09677"/>
<path d="M128.548 102.064H119.258" stroke="#FFCB60" stroke-width="3.09677"/>
<path d="M63.5162 95.8711C63.5162 95.8711 54.4184 99.6459 49.5809 102.065C44.7434 104.483 53.6371 103.806 53.4519 105.936C53.263 108.108 49.5625 106.987 48.8067 109.032C48.1692 110.757 47.9937 112.748 49.5809 113.678C50.6246 114.288 51.4851 113.879 52.6777 113.678C56.0769 113.104 56.8987 110.341 59.6454 108.258C60.8499 107.345 61.4445 106.711 62.7422 105.936C64.9596 104.611 66.9863 105.308 68.9357 103.613C70.7752 102.014 71.6956 100.608 72.0325 98.1937C72.1578 97.2954 72.0325 95.8711 72.0325 95.8711" stroke="#FFCB60" stroke-width="1.54839"/>
<path d="M95.4198 95.8711C95.4198 95.8711 104.518 99.6459 109.355 102.065C114.193 104.483 105.299 103.806 105.484 105.936C105.673 108.108 109.374 106.987 110.129 109.032C110.767 110.757 110.942 112.748 109.355 113.678C108.311 114.288 107.451 113.879 106.258 113.678C102.859 113.104 102.037 110.341 99.2906 108.258C98.0861 107.345 97.4915 106.711 96.1939 105.936C93.9764 104.611 91.9497 105.308 90.0003 103.613C88.1608 102.014 87.2404 100.608 86.9035 98.1937C86.7782 97.2954 86.9035 95.8711 86.9035 95.8711" stroke="#FFCB60" stroke-width="1.54839"/>
</svg>
