<svg width="160" height="160" viewBox="0 0 160 160" fill="none" xmlns="http://www.w3.org/2000/svg">
<path d="M32.4707 110.353H40.9413" stroke="#FFCB60" stroke-width="2.82353"/>
<path d="M24 125.177H38.1177" stroke="#FFCB60" stroke-width="2.82353"/>
<path d="M110.118 32V48.9412L101.647 54.5882" stroke="#FFCB60" stroke-width="4.2353"/>
<circle cx="78.3531" cy="83.5293" r="8.47059" stroke="#FFCB60" stroke-width="2.82353"/>
<path d="M57.9116 92H75.5295H79.395C79.6375 92 79.8758 92.0624 80.0872 92.1813L90.3873 97.9751C90.8059 98.2106 91.3155 98.2171 91.74 97.9924L100.987 93.0971C101.927 92.5993 103.059 93.2809 103.059 94.3448V103.001C103.059 103.6 102.682 104.133 102.117 104.332L91.6524 108.026C91.2747 108.159 90.8581 108.126 90.5065 107.934L84.5025 104.659C83.8303 104.292 82.9883 104.528 82.6047 105.191L76.262 116.147C75.8617 116.838 76.1144 117.724 76.8194 118.1L85.5933 122.779C85.9287 122.958 86.1778 123.265 86.2842 123.629L90.5319 138.193C90.7954 139.096 90.1178 140 89.1766 140H84.3118C83.7041 140 83.1646 139.611 82.9725 139.035L79.9925 130.095C79.8495 129.666 79.5096 129.331 79.0783 129.195L67.6192 125.576C66.9077 125.352 66.1443 125.719 65.8764 126.416L63.1717 133.448C62.962 133.993 62.4382 134.353 61.8541 134.353H46.5559C45.5572 134.353 44.8742 133.344 45.2451 132.417L47.0148 127.993C47.1895 127.556 47.57 127.235 48.0298 127.137L56.4274 125.337C56.8947 125.237 57.2796 124.907 57.4502 124.461L65.6205 103.092C65.9739 102.168 65.2914 101.176 64.3018 101.176H60.3446C59.7212 101.176 59.1716 101.585 58.9924 102.183L57.5509 106.988C57.3395 107.692 56.6223 108.117 55.9029 107.962L49.3758 106.564C48.3879 106.352 47.9356 105.201 48.515 104.374L56.7551 92.6022C57.0193 92.2248 57.451 92 57.9116 92Z" stroke="#FFCB60" stroke-width="2.82353"/>
<path d="M36.7061 81.4116H57.8825" stroke="#FFCB60" stroke-width="2.82353"/>
<path d="M24.7061 96.2354H41.6472" stroke="#FFCB60" stroke-width="2.82353"/>
<path d="M136.235 46.8235L140.811 31.1772L124.973 35.0378L136.235 46.8235ZM128.678 28.16L129.692 27.1777L129.692 27.1777L128.678 28.16ZM110.264 20.0135L110.219 21.4246L110.264 20.0135ZM91.3696 26.9747L90.42 25.93L90.42 25.93L91.3696 26.9747ZM82.6425 45.1208L81.2336 45.0312L81.2336 45.0312L82.6425 45.1208ZM89.0001 64.2264L87.9258 65.1424L87.9258 65.1424L89.0001 64.2264ZM106.86 73.5254L106.726 74.9308L106.726 74.9308L106.86 73.5254ZM126.158 67.7777L125.276 66.6749L125.276 66.6749L126.158 67.7777ZM134.48 33.8302C133.227 31.4123 131.62 29.168 129.692 27.1777L127.664 29.1423C129.399 30.9336 130.845 32.9534 131.973 35.1294L134.48 33.8302ZM129.692 27.1777C124.589 21.9107 117.638 18.8353 110.309 18.6025L110.219 21.4246C116.815 21.6342 123.072 24.402 127.664 29.1423L129.692 27.1777ZM110.309 18.6025C102.979 18.3696 95.8465 20.9975 90.42 25.93L92.3192 28.0193C97.203 23.5801 103.622 21.215 110.219 21.4246L110.309 18.6025ZM90.42 25.93C84.9936 30.8625 81.6991 37.7127 81.2336 45.0312L84.0514 45.2104C84.4704 38.6238 87.4354 32.4586 92.3192 28.0193L90.42 25.93ZM81.2336 45.0312C80.768 52.3496 83.1681 59.562 87.9258 65.1424L90.0744 63.3105C85.7925 58.2882 83.6324 51.797 84.0514 45.2104L81.2336 45.0312ZM87.9258 65.1424C92.6835 70.7227 99.4257 74.2331 106.726 74.9308L106.994 72.12C100.424 71.4921 94.3564 68.3328 90.0744 63.3105L87.9258 65.1424ZM106.726 74.9308C114.026 75.6285 121.311 73.4587 127.039 68.8806L125.276 66.6749C120.121 70.7952 113.564 72.748 106.994 72.12L106.726 74.9308ZM127.039 68.8806C132.768 64.3024 136.491 57.6752 137.42 50.4011L134.619 50.0433C133.783 56.59 130.432 62.5546 125.276 66.6749L127.039 68.8806Z" fill="#FFCB60"/>
</svg>
