<svg width="91" height="91" viewBox="0 0 91 91" fill="none" xmlns="http://www.w3.org/2000/svg">
<g id="restos du coeur 1">
<g id="Group">
<path id="Vector" d="M65.333 28.7658C65.9324 27.9951 66.7031 27.4813 67.5595 27.1388C67.5595 27.0531 67.4738 26.9675 67.4738 26.8819C67.2169 26.9675 67.0457 26.9675 66.8744 26.7962C66.4462 26.5393 66.275 26.1112 66.275 25.5974C66.1893 25.0836 66.1893 24.5698 66.1893 24.056L65.0761 22.7715C64.9905 24.1416 64.9905 25.5117 64.9905 26.8819C64.9048 27.31 64.7336 27.7382 64.3054 27.9951C63.9629 28.0807 63.706 27.9094 63.5347 27.7382C63.0209 27.1388 62.8497 26.3681 62.5071 25.683L62.3359 25.8543C62.079 26.9675 62.3359 28.3376 61.2226 29.0227C60.6232 29.0227 60.2807 29.879 59.5956 29.6221C58.8249 29.1939 58.6537 28.252 58.0542 27.6525C56.5128 27.5669 57.0266 29.2796 56.5985 30.1359C56.3416 30.7353 56.0847 31.3348 55.4852 31.5917C54.2008 31.7629 53.3444 30.4784 52.4025 29.7077C52.2312 29.7077 52.0599 29.879 52.0599 30.0503C51.8887 31.2491 51.8887 32.7049 50.6898 33.3043C50.4329 33.3043 50.0904 33.3043 49.8335 33.133C49.4053 32.7049 49.4053 32.1054 49.2341 31.5917H49.1484C48.8059 32.5336 48.4634 33.8181 47.3501 34.2463C46.7507 34.5032 45.8088 34.5032 45.2093 34.4175C44.8668 34.8457 44.6955 35.5308 44.0105 35.5308C43.4967 35.6164 43.0685 35.1026 42.8116 34.6744C42.4691 34.1606 42.3835 33.6468 41.9553 33.133C41.6984 33.133 41.5271 33.2187 41.3559 33.3043C41.0133 33.7325 41.2702 34.2463 41.099 34.7601C40.9277 35.6164 40.9277 36.644 39.9857 36.9865C39.5576 37.0721 39.215 36.9009 38.8725 36.7296C38.4444 36.3871 38.53 35.7877 38.53 35.1882C38.7013 32.7049 39.2151 30.3928 39.472 27.9094C39.472 27.8238 39.3007 27.7382 39.215 27.8238C38.7869 28.252 38.2731 28.6801 37.6737 28.937L37.5024 29.1939C37.3311 32.0198 37.5024 34.7601 36.9886 37.4147C36.7317 37.9285 36.3892 38.6135 35.7041 38.5279C35.2759 38.5279 34.9334 38.1854 34.7622 37.7572C34.334 36.8152 34.6765 35.702 34.6765 34.5888C34.7622 33.133 34.9334 31.7629 34.8478 30.3072L34.6765 30.2215L33.4777 30.3072C32.707 30.9922 32.1932 31.9342 32.1932 32.9618C32.4501 33.5612 33.3064 33.3899 33.4777 34.075C33.7346 36.1302 33.0495 37.9285 31.9363 39.5555C31.6794 39.898 31.3369 40.4118 30.9087 40.3262C30.4805 40.3262 30.138 39.898 29.7954 39.6411C29.2817 39.7268 29.0248 40.4118 28.511 40.6687C28.511 41.1825 27.9115 41.0112 27.6546 41.3538C27.1408 41.7819 26.2845 42.1245 25.5995 41.8676C24.7431 42.0388 24.2293 41.1825 23.6299 40.7544L21.4891 38.7848C21.3178 38.7848 21.4035 39.0417 21.3178 39.1273L21.2322 43.0664C21.1466 43.4946 20.8897 43.9228 20.5471 44.1797C20.2046 44.3509 19.7764 44.2653 19.5195 44.094C19.5195 44.1797 19.6052 44.1797 19.6052 44.2653C19.9477 45.036 20.5471 45.721 20.9753 46.4917C21.0609 46.4917 21.1466 46.4061 21.3178 46.4061C22.1741 46.4917 22.6879 47.5193 22.9448 48.2044C23.0305 48.3757 23.0305 48.5469 23.1161 48.7182C23.8868 49.3176 24.9144 50.2596 25.6851 50.7734L26.1133 51.1159C26.3702 49.3176 26.8839 47.6906 27.569 46.2348C28.3397 44.6078 29.9667 42.8952 31.8506 42.8952C33.4776 42.8095 34.9334 43.409 36.0466 44.6078C36.3892 44.5222 36.3035 44.094 36.4748 43.8371C36.9886 41.9532 37.9306 39.8124 39.9001 38.9561C41.6128 38.1854 43.7536 38.6992 45.1237 39.9837C45.5519 39.9837 45.2093 39.3842 45.3806 39.213C45.7231 38.0997 46.7507 37.329 47.5214 36.4727C48.8059 35.1882 50.0904 33.9037 51.5461 32.9618C52.1456 32.7049 53.0019 32.5336 53.6013 32.9618L54.2008 33.7325C53.2588 35.6164 51.2893 36.9009 49.7479 38.271C49.5766 39.0417 49.9191 39.6411 50.0048 40.4118C50.0904 40.4975 50.176 40.5831 50.3473 40.4975C51.2892 39.8124 52.1456 38.9561 53.1732 38.6992C53.687 38.6135 54.0295 39.0417 54.2864 39.3842C54.4577 39.9837 54.7146 40.6687 54.372 41.2681C53.6013 42.5526 52.1456 43.6659 51.118 44.8647C51.2036 46.0636 51.3749 47.1768 51.6318 48.3757C51.6318 48.4613 51.8031 48.4613 51.8031 48.4613C52.9163 47.0912 54.0295 44.6935 56.1703 45.2072C56.4272 45.2072 56.2559 44.8647 56.2559 44.7791C55.1427 41.2681 54.9714 37.329 54.5433 33.5612L54.372 33.6468C54.7146 33.133 55.314 32.5336 55.999 32.448C56.5985 32.3623 57.0266 32.7049 57.5404 33.0474C58.9962 34.5888 57.9686 36.8152 58.1399 38.6992C58.3111 41.0112 58.6537 43.1521 59.1675 45.2929C59.51 46.2348 59.6813 47.605 60.8801 47.7762C61.3083 47.7762 61.5652 47.4337 61.7364 47.0912C62.1646 44.8647 61.9077 42.2101 61.6508 39.898C61.3083 37.329 60.2807 35.017 60.0238 32.3623C60.0238 31.6773 60.2807 30.9066 60.9657 30.5641C61.5652 30.3928 62.3359 30.2215 62.8497 30.7353C63.7916 31.5917 64.0485 32.7049 64.3054 33.8181C64.8192 36.1302 65.1617 38.4423 65.2474 40.84C65.4186 40.5831 65.5899 40.1549 65.7612 39.9837C65.6755 37.1578 65.4186 34.3319 64.5623 31.7629C64.391 30.4784 64.8192 29.4508 65.333 28.7658Z" fill="white"/>
<path id="Vector_2" d="M41.2701 28.6802C41.0989 29.194 41.1845 29.7078 41.1845 30.3072C41.2701 30.5641 41.4414 30.5641 41.6127 30.4785C41.9552 30.3072 42.0408 30.0503 41.9552 29.7078C41.8696 29.2796 41.8695 28.6802 41.2701 28.6802Z" fill="white"/>
<path id="Vector_3" d="M29.11 34.7603L27.9111 36.216C27.483 36.4729 27.6542 36.9011 27.7398 37.3292C27.9111 37.5005 27.7398 37.843 27.9967 37.7574C28.4249 37.3292 28.7674 36.8154 29.2812 36.5585C29.6238 36.3873 29.9663 36.6442 30.2232 36.7298L30.3945 36.6442C30.6514 36.216 30.6513 35.6166 30.5657 35.1884C30.0519 35.2741 29.5381 35.1028 29.11 34.7603Z" fill="white"/>
<path id="Vector_4" d="M21.7457 31.7628C22.6021 31.5916 23.3727 31.7628 23.8865 32.4479C23.8865 32.7048 24.2291 32.876 24.2291 33.1329C24.8285 34.5887 24.0578 35.9588 23.6297 37.3289C23.9722 37.9284 24.6572 38.3565 25.171 38.8703L25.3423 38.6991C25.3423 36.6439 25.0854 34.76 24.9141 32.7904C25.5136 31.5059 26.8837 30.3927 27.9113 29.3651C28.1682 29.1082 28.5963 29.0226 28.9389 29.1082C29.1958 29.2795 29.4527 29.4507 29.5383 29.7076C30.1377 31.4203 27.9113 31.9341 27.2262 33.2186C27.1406 33.5611 27.1406 33.9036 27.3975 34.1605C27.9113 33.818 28.5107 33.3898 29.1101 33.7324C29.2814 33.3042 29.367 32.7904 29.4527 32.4479C29.8808 31.0778 30.4802 29.4507 31.936 28.68C32.1929 28.5944 32.6211 28.5944 32.878 28.68C33.563 27.3099 35.1044 27.053 36.3033 26.4536C37.3308 26.1967 38.6153 25.2547 39.6429 26.1967C39.8998 25.8542 40.1567 25.1691 40.8418 25.1691L41.1843 25.2547C42.2119 26.1967 42.3832 27.5668 43.1539 28.68C43.2395 28.68 43.3251 28.5944 43.3251 28.5088C43.3251 27.2243 43.3251 25.9398 43.4964 24.7409C43.582 24.484 43.7533 24.1415 44.0958 23.9702C44.4384 23.799 44.7809 23.799 45.1234 23.9702C46.5791 25.2547 45.4659 27.3099 45.4659 28.9369C45.3803 29.8789 45.4659 30.8209 45.7228 31.5916C45.8941 31.8485 46.0654 31.8485 46.3223 31.6772C46.9217 30.564 46.8361 29.1082 46.7504 27.7381C46.5792 26.4536 46.3223 25.0835 46.4935 23.799C46.5792 23.4565 46.8361 23.1139 47.1786 23.0283C47.4355 22.9427 47.778 22.9427 48.1205 23.0283C48.8912 23.8846 48.8056 25.2547 49.0625 26.368C49.0625 27.1387 49.1481 27.995 49.2338 28.7657L49.3194 28.5944C49.5763 26.6249 49.405 24.5697 49.405 22.5145C49.405 21.5725 50.5182 21.6582 51.1177 21.3156C51.8884 21.1444 52.916 21.0587 53.601 21.7438C54.3717 22.4289 54.6286 23.3708 54.543 24.3128C54.3717 25.3404 53.601 26.1111 53.0872 26.9674C53.2585 27.5668 53.6866 27.995 54.2004 28.4232C54.2861 28.5088 54.3717 28.68 54.543 28.5944L54.6286 28.1663L55.7418 20.288C55.9131 19.9455 55.8275 19.603 56.2556 19.3461C56.5982 19.3461 56.9407 19.5174 57.1119 19.8599C58.1395 21.4013 58.739 23.1996 59.6809 24.8266C59.6809 24.9122 59.7666 24.8266 59.7666 24.8266L59.9378 24.5697L60.2804 18.7467C60.2804 19.0036 60.2804 19.2605 60.1947 19.5174C58.5677 19.1748 56.5982 18.7467 54.7999 19.1748C51.1177 20.0311 47.8636 21.8294 44.4383 23.2852C43.2395 23.7134 42.2975 22.7714 41.3556 22.3432C37.759 20.288 34.1625 17.6334 29.6239 18.661C25.5136 19.4317 21.917 22.5145 19.4336 26.1111C17.9779 28.5944 17.1216 31.4203 17.1216 34.5031C17.5497 34.6743 17.8066 35.2738 18.0635 35.7019C18.0635 35.8732 18.1492 36.0445 18.0635 36.2157C17.721 36.2157 17.4641 36.387 17.2072 36.6439C17.3785 37.4146 17.5497 38.4422 17.721 39.1272C17.721 39.1272 17.721 39.1272 17.8066 39.2129C18.3204 39.641 18.3204 40.3261 18.2348 41.0111C18.4061 41.5249 18.7486 42.1244 18.9199 42.7238C18.9199 42.5525 18.9199 42.2956 18.9199 42.1244C19.1768 39.3841 19.2624 36.387 19.0055 33.5611C19.4336 32.3623 20.8038 32.191 21.7457 31.7628Z" fill="white"/>
<path id="Vector_5" d="M56.8551 23.2852C56.6838 23.6277 56.7695 24.0558 56.7695 24.3984C56.8551 24.6553 56.8551 25.0834 57.2833 24.9978C57.6258 24.9978 57.7971 24.5696 57.7971 24.2271C57.6258 23.9702 57.2833 23.3708 56.8551 23.2852Z" fill="white"/>
<path id="Vector_6" d="M51.5459 23.6277C51.3746 24.3984 51.8028 24.9122 51.8885 25.5973C52.1454 25.7685 52.1454 25.426 52.3166 25.3404C52.4879 24.7409 52.5735 24.0559 52.0597 23.5421C51.8884 23.4565 51.7172 23.4565 51.5459 23.6277Z" fill="white"/>
<path id="Vector_7" d="M42.7257 54.8838C43.0683 55.0551 43.582 55.0551 43.9246 54.7982L44.524 54.1131C45.8085 51.6298 45.6372 48.3758 44.7809 45.7211C44.2671 44.5223 43.6677 42.724 42.1263 42.5527C41.7838 42.6384 41.4412 42.724 41.27 43.0665C40.1567 44.9504 40.1568 47.5194 40.328 49.8315C40.6706 51.6298 41.0131 53.7706 42.7257 54.8838Z" fill="white"/>
<path id="Vector_8" d="M21.4033 34.9312L21.5746 36.6438C21.6602 36.8151 21.5746 37.072 21.8315 37.072C22.3453 36.3869 22.4309 35.1881 21.9171 34.503C21.6602 34.4174 21.5746 34.7599 21.4033 34.9312Z" fill="white"/>
<path id="Vector_9" d="M57.1974 49.5745C56.9405 49.7457 56.9405 50.0026 56.8549 50.2595C55.3135 52.5716 53.3439 54.6268 51.2031 56.4251C51.2031 56.4251 51.2888 56.4251 51.2888 56.3394C53.7721 54.8837 56.3411 52.8285 58.6532 50.9446C58.0537 50.6021 57.6256 50.0883 57.1974 49.5745Z" fill="white"/>
<path id="Vector_10" d="M49.5766 56.8531C48.8059 56.5105 48.7202 55.6542 48.2921 55.0548C47.7783 55.5686 47.7783 56.4249 47.2645 57.0243C46.2369 58.6514 44.5242 59.5933 42.726 59.2508C38.0162 57.8807 36.9886 52.7427 36.3892 48.5467C36.0466 48.3755 35.7897 48.8036 35.4472 48.8892C34.1627 49.3174 33.3064 48.2042 32.3644 47.6904C31.765 47.5191 31.3368 48.1186 31.0799 48.5467C30.3092 50.1737 30.3093 52.2289 30.3949 54.1128C30.5662 55.8255 30.9943 57.4525 31.9363 58.8226C32.2788 59.2508 32.8782 59.3364 33.392 59.2508C34.5052 58.3088 34.334 56.5105 35.8754 56.0824C36.4748 55.9967 36.9886 56.0824 37.4167 56.5105C38.2731 57.2812 38.1874 58.5657 37.8449 59.5933L41.099 61.8198H41.6984C44.7811 60.4496 47.5214 58.5657 50.5185 56.9387C50.2616 56.8531 49.9191 56.9387 49.5766 56.8531Z" fill="white"/>
</g>
<g id="Group_2">
<g id="Clip path group">
<mask id="mask0_699_2940" style="mask-type:luminance" maskUnits="userSpaceOnUse" x="2" y="1" width="88" height="88">
<g id="SVGID_1_">
<path id="Vector_11" d="M89.3957 1.53418H2.05029V88.8796H89.3957V1.53418Z" fill="white"/>
</g>
</mask>
<g mask="url(#mask0_699_2940)">
<path id="Vector_12" d="M79.6337 2.04776C78.0924 0.848897 76.1228 1.87649 74.6671 2.64719C70.4711 5.64433 68.844 10.6967 67.6452 15.1496C68.0733 14.8927 68.5015 14.7214 69.0153 14.6358C69.3579 14.7214 69.786 14.807 70.0429 15.0639C70.728 14.3789 71.413 13.6938 72.355 13.5225C72.9544 13.5225 73.3826 13.6938 73.5539 14.2076C73.6395 14.5501 73.7251 14.807 73.3826 15.0639C72.7831 15.0639 72.355 15.4921 71.9268 15.8346L71.7556 17.6329C71.9269 17.9754 72.4406 17.6329 72.6975 17.8042C73.0401 17.9755 73.297 18.0611 73.4682 18.4036C73.6395 19.6025 73.2113 20.2875 72.8688 21.4008C72.0981 22.9422 71.3274 24.9117 69.5291 25.4255C69.1866 25.5111 68.9297 25.1686 68.7584 24.9973C68.6728 25.3399 68.4159 25.6824 68.3303 26.0249C68.159 26.3675 67.9877 26.5387 67.5596 26.5387C67.6452 26.71 67.6452 27.0525 67.7308 27.2238C69.2722 26.6244 71.2418 26.7956 72.6119 27.652C72.9544 25.1686 73.8107 22.5996 74.4958 20.2875C75.6946 16.5197 77.0648 12.7519 78.6918 9.15528C79.3769 7.61389 79.9763 6.15813 80.5757 4.53111C80.6614 3.67478 80.4044 2.64718 79.6337 2.04776Z" fill="#E5007D"/>
</g>
</g>
</g>
<g id="Group_3">
<path id="Vector_13" d="M71.3272 44.0084C71.3272 44.2653 70.899 44.351 71.0703 44.6079C70.5565 46.2349 70.4709 48.0332 68.6726 48.7183C68.2444 48.8039 67.9019 48.8039 67.5594 48.547C66.5318 47.8619 66.7031 46.8343 66.4462 45.8067L66.2749 39.3843C66.018 39.5555 65.5042 40.5831 65.4186 40.84C65.4186 42.8096 65.4186 44.0941 65.1617 46.0636C64.7335 48.2045 64.391 50.8591 61.9076 51.5441C60.7088 51.8867 59.8524 51.3729 58.9105 50.6878C56.5128 52.6574 53.8582 54.7982 51.2892 56.3396C48.0352 58.0522 45.038 60.1074 41.784 61.6488H41.1846L37.6736 59.2511C37.3311 60.6212 36.3891 61.9057 35.2759 62.762L40.1569 65.7592C40.6707 65.9304 41.1845 66.273 41.784 66.0161C44.1817 65.2454 46.2369 63.6184 48.4633 62.3339L59.1674 56.2539L63.449 53.7706L64.3054 53.4281C64.8192 54.5413 65.1617 55.6545 65.9324 56.5965C66.1893 57.0246 66.4462 57.4528 66.8743 57.2815C67.3025 57.2815 67.0456 57.7097 67.3025 57.881C67.3881 57.881 68.1588 57.881 68.2444 57.7097C68.0732 57.4528 67.9875 57.1959 68.0732 56.939C68.2444 56.6821 68.2445 56.6821 68.587 56.7677C69.3577 57.1959 69.272 58.1379 69.7858 58.7373C70.4709 58.3948 69.7002 56.939 69.7002 56.0827C70.2996 55.5689 70.6422 55.312 71.4129 55.2263C72.0123 55.1407 72.6973 55.6545 73.2111 55.312C74.41 52.3148 73.0399 49.2321 72.2692 46.4062C72.1836 45.6355 71.5841 44.8648 71.3272 44.0084Z" fill="#E5007D"/>
<path id="Vector_14" d="M68.0732 17.7192C68.0732 19.6887 68.2445 22.0865 68.4158 24.056C68.5871 23.9704 69.1865 23.5422 69.3577 23.4566C70.1284 22.8571 70.471 21.7439 70.8135 20.8876C71.3273 19.86 70.0428 20.2882 69.7003 19.7744C68.844 18.918 69.3578 17.6335 69.4434 16.606C69.1865 16.9485 68.4158 17.3767 68.0732 17.7192Z" fill="#E5007D"/>
</g>
<g id="Group_4">
<g id="Clip path group_2">
<mask id="mask1_699_2940" style="mask-type:luminance" maskUnits="userSpaceOnUse" x="2" y="1" width="88" height="88">
<g id="SVGID_2_">
<path id="Vector_15" d="M89.3957 1.53418H2.05029V88.8796H89.3957V1.53418Z" fill="white"/>
</g>
</mask>
<g mask="url(#mask1_699_2940)">
<path id="Vector_16" d="M69.6145 33.4752C70.2995 32.8757 70.8989 31.8482 70.4708 30.9062C70.2995 30.5637 69.7857 30.1355 69.4432 30.1355C68.9294 30.1355 68.33 30.5637 68.1587 30.9918L69.2719 33.5608H69.6145V33.4752Z" fill="#E5007D"/>
</g>
</g>
<g id="Clip path group_3">
<mask id="mask2_699_2940" style="mask-type:luminance" maskUnits="userSpaceOnUse" x="2" y="1" width="88" height="88">
<g id="SVGID_2__2">
<path id="Vector_17" d="M89.3957 1.53418H2.05029V88.8796H89.3957V1.53418Z" fill="white"/>
</g>
</mask>
<g mask="url(#mask2_699_2940)">
<path id="Vector_18" d="M44.524 23.1994C47.9493 21.8292 51.2034 19.9453 54.8856 19.089C56.6839 18.6608 58.5678 19.089 60.2804 19.4315C60.3661 18.8321 60.1948 18.3183 60.7942 17.9758C62.1644 17.6332 62.25 19.6884 63.0207 20.2022C63.192 19.3459 62.8494 18.147 63.4489 17.462C63.7914 17.0338 64.3908 17.3763 64.819 17.2907L66.9598 15.6637C64.9046 14.4648 62.4213 13.5229 60.0235 13.0947C54.5431 12.1527 50.0902 15.1499 45.466 17.0338L44.8666 17.1194C40.8418 15.0642 37.1596 12.324 32.5354 11.8102C29.5383 11.6389 26.3699 11.9815 23.6297 13.0091C19.9475 14.2079 17.0359 17.2907 14.0388 20.1166L13.9531 20.0309C13.7819 17.0338 14.4669 14.2935 15.5802 11.8102C16.1796 10.2688 17.1216 8.81305 17.6354 7.27165C17.6354 6.84349 17.3785 6.50096 17.0359 6.32969C16.4365 6.07279 16.0083 6.50096 15.5802 6.92912C14.1244 9.15558 12.9256 11.4677 12.1549 13.8654C11.5554 15.578 11.2986 17.5476 10.7848 19.3459C10.6135 19.6884 10.271 19.9453 9.92843 19.774C9.24337 19.3459 9.15774 18.5752 9.0721 17.8901C9.15774 13.4372 11.1273 9.66937 13.0968 5.98716L13.1825 5.21647C13.0968 4.87393 12.8399 4.70267 12.583 4.5314C12.1549 4.27451 11.8123 4.70267 11.4698 4.95957C9.75715 7.27165 8.38702 9.66937 7.44506 12.324C6.76 14.1223 6.41748 16.0918 5.98932 18.0614C5.81806 18.4039 5.47552 18.5752 5.13299 18.4896C4.3623 18.147 4.3623 17.2051 4.27667 16.4344C4.53357 12.0671 6.58874 8.47051 8.47266 4.7883L8.72955 3.93197C8.72955 3.58944 8.38704 3.33255 8.13014 3.16128C7.44508 2.99001 6.93129 3.50381 6.50312 4.01761C3.93414 8.21362 1.70768 12.6665 1.96457 17.9758C2.22147 23.1137 6.07494 26.7103 7.5307 31.3345C7.95886 33.304 7.2738 35.3592 7.10254 37.3288L7.5307 37.7569C7.87323 37.9282 7.87323 38.442 7.95886 38.7845C8.04449 41.011 7.35944 43.7512 7.61634 45.9777L8.38703 45.2926C8.98645 44.7788 9.75715 43.9225 10.6135 44.0081C10.7847 42.0386 10.3566 39.9834 10.7848 38.0995C11.1273 36.815 11.6411 35.6161 13.0112 35.2736C13.2681 35.188 13.3537 35.3592 13.4393 35.5305C13.6106 35.873 13.525 36.1299 13.3537 36.4725C12.7543 37.1575 12.1549 38.1851 12.3261 39.2127C12.4118 39.4696 12.9256 39.384 13.1825 39.4696C13.4394 39.6409 13.1825 39.7265 13.3537 39.9834C13.2681 40.7541 12.583 41.2679 12.2405 41.9529C12.2405 42.3811 12.2405 43.3231 12.4118 43.7512C12.8399 43.58 13.3537 43.0662 13.7819 42.8949C14.3813 42.5524 14.3813 43.4087 14.9808 43.3231C15.4945 42.7236 16.1796 41.5248 16.4365 40.8397L16.094 40.5828C15.8371 40.6685 15.5802 40.5828 15.3233 40.5828C14.8951 40.5828 14.6382 40.5828 14.3813 40.2403C14.0388 38.442 14.8095 37.3288 15.5802 35.873C16.0083 35.2736 16.4365 34.4173 17.2072 34.5885C17.2072 31.5057 17.9779 28.6799 19.5193 26.1109C22.0026 22.5143 25.5992 19.3459 29.7096 18.6608C34.2481 17.7189 37.8447 20.2878 41.4412 22.343C42.3832 22.6856 43.3252 23.6275 44.524 23.1994Z" fill="#E5007D"/>
</g>
</g>
</g>
<g id="Group_5">
<path id="Vector_19" d="M66.2746 24.3128C66.189 22.5145 66.2746 20.5449 66.189 18.8323C65.8464 18.8323 65.247 18.9179 64.9901 19.0035C65.0758 20.2024 64.9045 21.4869 64.8188 22.6857L66.2746 24.3128Z" fill="#E5007D"/>
<path id="Vector_20" d="M26.5415 51.2014L25.8564 50.6876C25.0001 50.0882 23.8869 49.0606 23.1162 48.4612C23.5444 50.8589 23.8869 53.5992 23.5444 56.1681L26.7984 57.9664L27.3122 58.2233L27.0553 57.1101C26.199 55.1405 26.3703 53.4279 26.5415 51.2014Z" fill="#E5007D"/>
<path id="Vector_21" d="M21.232 46.7486L21.1464 46.4917C20.7182 45.721 20.1188 45.1216 19.7763 44.2652C19.605 43.9227 19.3481 43.8371 19.1769 43.4945C19.0056 42.4669 18.3205 41.3537 18.0636 40.583C17.8924 42.4669 17.0361 44.1796 15.8372 45.5497C15.4947 45.721 15.409 45.6353 14.9809 45.5497C14.5527 45.4641 14.1245 44.9503 13.6964 45.2072C13.097 45.8922 12.5832 47.0911 11.4699 46.9198C10.9561 46.6629 10.6992 46.2348 10.3567 45.8066C9.58603 46.7486 8.30153 46.9198 7.27394 47.6049C6.93141 47.7762 6.9314 48.975 6.58887 48.7181C6.76013 50.0883 7.01704 51.4584 7.53083 52.6572C7.61646 52.0578 7.78774 51.8009 8.21591 51.3727C8.64407 51.2871 8.98659 50.8589 9.41476 50.7733C11.8981 50.4308 14.0389 52.1434 15.6659 53.9417C15.6659 52.6572 16.0085 51.0302 16.1797 49.8314C16.351 49.0607 16.2654 48.29 17.2073 47.9474C17.7211 47.7762 17.8067 47.9474 18.1493 48.1187C18.5774 48.4612 18.7487 48.975 18.8343 49.4032L18.92 55.1406L19.2625 56.682C19.4338 56.8532 19.8619 57.2814 20.1188 57.1958C20.2901 57.1101 20.6326 56.8532 20.7182 56.682L20.9751 54.6268C21.0608 52.486 20.6326 50.4308 20.2045 48.4612C20.2901 47.8618 20.547 47.1767 21.232 46.7486Z" fill="#E5007D"/>
<path id="Vector_22" d="M17.0359 57.7952C16.6077 59.2509 14.6381 61.7343 15.2376 62.3337C16.0083 62.8475 17.2071 62.8475 18.0635 62.505C18.8342 62.2481 19.3479 61.3917 19.6048 60.7923C19.2623 60.1929 17.5497 58.6515 17.0359 57.7952Z" fill="#E5007D"/>
<path id="Vector_23" d="M16.2651 38.528L17.8065 39.1274C17.6352 38.3567 17.464 36.9866 17.2071 36.3015C16.8646 36.8153 16.2651 37.8429 16.2651 38.528Z" fill="#E5007D"/>
</g>
<g id="Group_6">
<g id="Clip path group_4">
<mask id="mask3_699_2940" style="mask-type:luminance" maskUnits="userSpaceOnUse" x="2" y="1" width="88" height="88">
<g id="SVGID_3_">
<path id="Vector_24" d="M89.3957 1.53418H2.05029V88.8796H89.3957V1.53418Z" fill="white"/>
</g>
</mask>
<g mask="url(#mask3_699_2940)">
<path id="Vector_25" d="M11.5555 53.6844C11.2986 53.6844 10.5279 53.5132 10.271 53.8557C10.6135 55.7396 10.8704 57.8804 10.6992 59.9356C10.6992 60.1069 11.0417 60.2781 11.1273 60.2781C12.4118 59.5931 13.4394 57.966 13.3538 56.4247C13.2681 55.3971 12.5831 54.1982 11.5555 53.6844Z" fill="#E5007D"/>
</g>
</g>
<g id="Clip path group_5">
<mask id="mask4_699_2940" style="mask-type:luminance" maskUnits="userSpaceOnUse" x="2" y="1" width="88" height="88">
<g id="SVGID_3__2">
<path id="Vector_26" d="M89.3957 1.53418H2.05029V88.8796H89.3957V1.53418Z" fill="white"/>
</g>
</mask>
<g mask="url(#mask4_699_2940)">
<path id="Vector_27" d="M89.0533 40.4116C87.9401 38.6133 85.5424 39.1271 83.7441 39.384C80.1475 40.3259 77.236 38.3564 74.1532 37.4144C73.3826 37.1575 72.5262 37.1575 71.8412 36.815C73.3825 34.5029 75.1809 31.8483 73.8964 28.9368C73.2969 27.8236 72.0981 27.1385 70.9848 26.8816C68.844 26.4534 66.7888 27.1385 65.3331 28.7655C64.8193 29.4506 64.3055 30.4782 64.8193 31.4201C66.3607 36.0443 65.9325 41.2679 66.1894 46.0633C66.4463 47.0909 66.5319 48.461 67.7308 48.8892C68.4159 49.2317 69.0153 48.7179 69.5291 48.2898C71.413 46.1489 71.3274 43.3231 71.1561 40.4972L71.2417 40.4116C73.1256 40.8397 74.7527 42.0386 76.551 42.8093C79.8906 44.1794 84.2579 45.5495 87.7688 43.6656C88.3682 43.4087 88.8821 42.8949 89.139 42.2955C89.5671 41.696 89.3102 41.011 89.0533 40.4116ZM69.4435 33.3897L69.3578 33.304L68.3302 30.992C68.5015 30.4782 69.0153 30.2213 69.4435 30.2213C69.786 30.2213 70.0428 30.4782 70.2141 30.8207C70.7279 31.7627 70.2141 32.8759 69.4435 33.3897Z" fill="black"/>
</g>
</g>
</g>
<g id="Group_7">
<path id="Vector_28" d="M75.9511 60.1929C74.8379 60.0216 73.6391 59.7647 72.8684 58.8228C73.3822 58.4802 73.3822 57.9665 73.5534 57.4527C73.4678 56.8532 73.6391 55.9969 73.1253 55.4831C72.6971 55.0549 72.0977 55.0549 71.4982 55.0549C70.8132 55.2262 70.0425 55.5687 69.6144 56.1682C69.7856 56.9389 69.7856 57.7095 69.9569 58.4802L69.8712 58.5659C69.5287 57.9664 69.443 57.2814 68.9292 56.7676C68.758 56.682 68.5868 56.5963 68.3299 56.682C67.3023 57.367 68.4155 58.2233 68.5867 58.994C68.758 59.936 69.0149 61.1349 68.2442 61.8199C68.0729 61.9056 67.9017 61.9056 67.7304 61.7343C67.4735 60.9636 67.5591 60.1073 67.5591 59.2509C67.4735 58.6515 67.6448 57.8808 67.3023 57.367C66.8741 57.1101 66.5315 57.4527 66.189 57.6239C66.0178 58.309 66.1034 59.0797 65.9321 59.8504C66.189 61.0492 65.7608 62.5906 66.7884 63.3613C67.2166 63.4469 67.7304 63.4469 68.0729 63.2757C68.9292 63.0188 69.7 62.0768 69.8712 61.2205C69.8712 61.1349 69.9569 61.1349 70.0425 61.2205C69.9569 61.6487 69.9569 62.1625 70.385 62.3337C70.6419 62.4194 70.9844 62.505 71.2413 62.4194C71.6695 61.9056 71.7551 61.2205 71.6695 60.5354C71.6695 60.4498 71.7551 60.2785 71.9264 60.2785C73.1253 61.4774 74.7523 62.4194 76.465 61.8199C76.8931 61.6487 77.0644 61.1349 76.9787 60.6211C76.8075 60.2785 76.2937 60.1073 75.9511 60.1929ZM71.8408 58.1377C71.7552 58.1377 71.6695 58.0521 71.6695 57.9664C71.7551 57.4527 71.4126 57.1101 71.4982 56.5963C71.6695 56.5107 71.9264 56.4251 72.0977 56.5107C72.4402 57.0245 72.1833 57.7095 71.8408 58.1377Z" fill="black"/>
<path id="Vector_29" d="M27.826 41.3537C28.0829 41.0112 28.5967 41.1824 28.6824 40.6686C29.1962 40.4117 29.3674 39.7267 29.9669 39.6411C30.395 39.898 30.6519 40.3261 31.0801 40.3261C31.5082 40.3261 31.8508 39.8123 32.1077 39.5554C33.2209 38.014 33.906 36.1301 33.6491 34.0749C33.4778 33.4755 32.5358 33.6468 32.3646 32.9617C32.3646 31.9341 32.8784 31.0778 33.6491 30.3071L34.8479 30.2215L35.0192 30.3071C35.0192 31.7628 34.9335 33.2186 34.8479 34.5887C34.9335 35.6163 34.591 36.7295 34.9336 37.7571C35.1048 38.0997 35.533 38.5278 35.8755 38.5278C36.5606 38.6135 36.9031 37.9284 37.16 37.4146C37.6738 34.76 37.5025 31.9341 37.6738 29.1939L37.8451 28.937C38.3589 28.6801 38.8727 28.3375 39.3865 27.8237C39.4721 27.7381 39.6434 27.8237 39.6434 27.9094C39.3865 30.3071 38.8727 32.7048 38.7014 35.1882C38.6158 35.702 38.6158 36.3014 39.0439 36.7295C39.3865 36.9008 39.729 37.0721 40.1572 36.9864C41.0991 36.6439 41.0991 35.6163 41.2704 34.76C41.4416 34.3318 41.1848 33.7324 41.5273 33.3042C41.6985 33.2186 41.8698 33.133 42.1267 33.133C42.4692 33.6468 42.6405 34.1606 42.983 34.6744C43.2399 35.0169 43.5825 35.6163 44.1819 35.5307C44.7813 35.5307 45.0382 34.8456 45.3808 34.4175C45.9802 34.5887 46.9221 34.5887 47.5216 34.2462C48.6348 33.818 48.9773 32.6192 49.3199 31.5916H49.4055C49.5767 32.1054 49.4911 32.7048 50.0049 33.133C50.2618 33.3042 50.6043 33.3899 50.8612 33.3042C52.0601 32.7048 52.0601 31.2491 52.2314 30.0502C52.2314 29.8789 52.4026 29.7077 52.5739 29.7077C53.6015 30.4784 54.3722 31.7628 55.6567 31.5916C56.2561 31.249 56.5986 30.6496 56.7699 30.1358C57.2837 29.2795 56.6843 27.5668 58.2257 27.6525C58.8251 28.2519 58.9963 29.1939 59.767 29.622C60.4521 29.8789 60.709 29.0226 61.3941 29.0226C62.5073 28.3375 62.2504 26.9674 62.5073 25.8542L62.6786 25.6829C63.1067 26.368 63.1924 27.1387 63.7062 27.7381C63.8774 27.995 64.2199 28.1663 64.4768 27.995C64.905 27.7381 65.0763 27.3099 65.1619 26.8818C65.1619 24.3128 65.3332 21.6582 65.4188 19.1748C65.6757 19.0036 66.0182 19.0036 66.2751 19.0036C66.3608 21.23 66.1895 23.3708 66.4464 25.5973C66.4464 26.0254 66.6177 26.5392 67.0459 26.7961C67.3027 26.9674 67.7309 26.8818 67.9878 26.7961C68.5872 26.4536 68.5872 25.8542 68.8441 25.3404C69.101 25.5117 69.4436 25.9398 69.8717 25.7686C71.8413 24.9979 72.6119 22.7714 73.3826 21.0588C73.6395 20.1168 74.239 18.661 73.297 17.8903C72.9545 17.5478 72.4407 17.8903 72.0982 17.6334C72.1838 17.1196 72.1838 16.5202 72.2694 16.0064C72.612 15.7495 73.0401 15.3214 73.5539 15.3214C74.239 15.3214 73.9821 14.3794 73.8965 14.0369C73.6396 13.6087 73.2114 13.4374 72.7832 13.3518C71.8412 13.5231 70.9849 14.0369 70.3855 14.8932H70.2999C70.043 14.6363 69.7004 14.465 69.2723 14.3794C67.6453 14.8932 66.2751 15.9208 64.9906 17.2053C64.5625 17.2053 64.22 17.034 63.8774 17.2053C63.0211 17.7191 63.3636 18.9179 63.278 19.7743L62.8498 19.9455C62.336 19.3461 62.336 18.4898 61.5653 17.8903C61.3084 17.8047 61.1372 17.6334 60.7946 17.7191C60.5378 17.7191 60.3665 18.0616 60.2808 18.3185L59.9383 24.4841L59.767 24.741H59.6814C58.8251 23.1139 58.14 21.4013 57.1124 19.7743C56.9412 19.4317 56.5986 19.2605 56.2561 19.2605C55.9136 19.4317 55.9136 19.8599 55.7423 20.2024L54.6291 28.0806L54.5434 28.5088C54.3722 28.6801 54.2865 28.4232 54.2009 28.3375C53.6871 27.9094 53.3446 27.4812 53.0877 26.8818C53.6015 26.0254 54.3722 25.2548 54.5434 24.2272C54.7147 23.2852 54.3722 22.2576 53.6015 21.6582C52.9164 21.0588 51.8888 21.1444 51.1181 21.23C50.5187 21.4869 49.4911 21.4869 49.4055 22.4289C49.4055 24.4841 49.5768 26.5392 49.3199 28.5088L49.2342 28.6801C49.1486 27.9094 49.063 27.053 49.063 26.2824C48.8061 25.1691 48.8917 23.799 48.121 22.9427C47.8641 22.7714 47.5216 22.857 47.179 22.9427C46.8365 23.0283 46.5796 23.4565 46.494 23.7134C46.3227 24.9979 46.5796 26.368 46.7509 27.6525C46.8365 29.0226 46.9221 30.4784 46.3227 31.5916C46.0658 31.6772 45.8945 31.6772 45.7233 31.5059C45.4664 30.7353 45.4664 29.7077 45.4664 28.8513C45.3808 27.2243 46.494 25.1691 45.1238 23.8846C44.7813 23.7134 44.4388 23.799 44.0963 23.8846C43.7537 24.0559 43.6681 24.3984 43.4968 24.6553C43.3256 25.8542 43.2399 27.1387 43.3256 28.4232C43.4112 28.5088 43.2399 28.5944 43.1543 28.5944C42.298 27.5668 42.2124 26.1967 41.1848 25.1691L40.8422 25.0835C40.2428 24.9979 39.9859 25.7686 39.6434 26.1111C38.6158 25.2548 37.3313 26.1111 36.3037 26.368C35.1048 26.9674 33.5634 27.2243 32.8784 28.5944C32.6215 28.5088 32.1077 28.5088 31.9364 28.5944C30.4806 29.3651 29.8812 30.9065 29.4531 32.3623C29.2818 32.7904 29.2818 33.3042 29.1105 33.6468C28.5111 33.3042 27.9117 33.7324 27.3979 34.0749C27.141 33.818 27.141 33.3899 27.2266 33.133C27.9117 31.8485 30.0525 31.3347 29.5387 29.622C29.4531 29.3651 29.1962 29.1939 28.9393 29.0226C28.5967 28.937 28.1686 29.0226 27.9117 29.2795C26.8841 30.3071 25.514 31.4203 24.9145 32.7048C25.0858 34.6744 25.3427 36.5583 25.3427 38.6135L25.1714 38.7847C24.6576 38.2709 24.0582 37.8428 23.63 37.2433C23.9726 35.9588 24.7433 34.5887 24.2295 33.0473C24.2295 32.7904 23.8869 32.6192 23.8869 32.3623C23.3731 31.6772 22.5168 31.5059 21.7461 31.6772C20.8042 32.1054 19.434 32.2766 19.0915 33.5611C19.3484 36.387 19.3484 39.2985 19.0059 42.1244C19.0915 42.7238 18.9202 43.4089 19.3484 43.8371C19.6909 44.1796 20.2904 44.3509 20.7185 44.094C21.061 43.8371 21.318 43.4089 21.4036 42.9807L21.4892 39.0416C21.4892 38.956 21.4892 38.6991 21.6605 38.6991L23.8013 40.6686C24.4007 41.0968 24.9145 41.9531 25.7709 41.7819C26.4559 42.1244 27.3123 41.7819 27.826 41.3537ZM69.3579 16.8628C69.2723 17.8047 68.7585 19.0892 69.6148 19.8599C69.9574 20.1168 70.2999 20.2881 70.7281 20.3737C70.8137 21.1444 70.3855 21.8294 70.043 22.4289L69.3579 23.2852C69.101 23.4565 68.7585 23.5421 68.5872 23.7134C68.3303 21.7438 68.3303 19.6886 68.2447 17.6334C68.5872 17.3765 68.9297 17.034 69.3579 16.8628ZM56.8555 23.2852C57.2837 23.3708 57.5406 23.9703 57.7975 24.3128C57.7975 24.6553 57.6262 25.0835 57.2837 25.0835C56.9412 25.1691 56.8555 24.741 56.7699 24.4841C56.8555 24.0559 56.6843 23.6277 56.8555 23.2852ZM51.5463 23.6277C51.7176 23.4565 51.8888 23.4565 52.0601 23.5421C52.5739 24.0559 52.4883 24.741 52.317 25.3404C52.1457 25.5117 52.1457 25.7686 51.8888 25.5973C51.8032 24.9979 51.375 24.3984 51.5463 23.6277ZM41.2704 28.6801C41.7842 28.6801 41.8698 29.2795 42.0411 29.7077C42.0411 30.0502 42.0411 30.3927 41.6985 30.4784C41.5273 30.4784 41.356 30.4784 41.2704 30.3071C41.1847 29.7077 41.0991 29.1082 41.2704 28.6801ZM27.9117 36.2157L29.1105 34.76C29.5387 35.1025 30.0525 35.2738 30.6519 35.1882C30.7375 35.6163 30.7376 36.2157 30.4807 36.6439L30.3094 36.7295C30.0525 36.6439 29.71 36.387 29.3674 36.5583C28.8536 36.8152 28.5111 37.329 28.0829 37.7571C27.7404 37.8428 27.9117 37.4146 27.826 37.329C27.6548 36.9008 27.5692 36.4726 27.9117 36.2157ZM21.8318 37.0721C21.5749 37.0721 21.6605 36.8152 21.5748 36.6439L21.4036 34.9313C21.4892 34.76 21.6605 34.4175 21.9174 34.5031C22.4312 35.1882 22.3456 36.387 21.8318 37.0721Z" fill="black"/>
<path id="Vector_30" d="M64.3051 63.1043C64.0482 62.9331 64.2194 62.7618 64.1338 62.5049C64.3051 62.0767 64.7332 62.0767 65.0758 61.8198C65.7608 61.5629 65.5896 60.7922 65.8465 60.2785C65.3327 59.8503 64.8189 60.3641 64.3907 60.5354L64.3051 60.4497C64.562 59.7647 65.247 59.5078 65.7608 58.994C65.8465 58.6514 65.8465 58.3945 65.7608 58.052C65.7608 57.7951 65.4183 57.7095 65.247 57.7095C64.3051 58.1376 63.4487 58.7371 62.7637 59.5934C62.4212 59.4221 62.0786 59.1652 61.6505 59.3365C60.7941 59.5078 60.4516 60.5353 60.0235 61.1348C59.424 60.621 58.4821 60.4497 57.7114 60.7922C56.3413 61.7342 55.9987 63.2756 55.9131 64.817C55.9987 66.444 56.2556 68.2423 57.8826 69.013C58.8246 69.2699 59.7666 69.0986 60.4516 68.4135C60.7942 67.9854 60.9654 67.5572 60.9654 66.9578C60.9654 66.6153 60.7941 66.2727 60.5372 66.0158C60.2803 66.0158 60.1091 65.9302 59.9378 66.1015C59.3384 66.2727 59.9378 67.0434 59.5953 67.386C59.3384 67.6429 58.9959 67.4716 58.739 67.4716C58.3108 67.386 58.1395 66.8722 57.9683 66.5296C57.7114 65.1595 57.7114 63.5325 58.3964 62.4193C58.6533 62.248 58.9102 62.0767 59.1671 62.248C59.1671 62.6762 59.5953 63.0187 59.9378 63.2756C60.0235 63.9607 60.1091 64.6457 60.366 65.2451C60.6229 65.5877 60.9654 66.0158 61.4792 65.8446C62.3355 66.0158 62.8493 64.9882 63.1918 64.3888C63.3631 64.3032 63.5344 64.6457 63.62 64.7314C64.6476 65.2451 65.3327 64.0463 66.1033 63.4469C66.2746 63.19 66.189 62.9331 66.0177 62.7618C65.5896 61.9055 64.9045 63.1043 64.3051 63.1043ZM61.7361 63.875C61.5648 63.9607 61.3936 63.875 61.308 63.7038C61.2223 62.5905 61.1367 61.2204 61.993 60.4497C62.6781 60.5354 62.4212 61.3917 62.5924 61.9055C62.5068 62.6762 62.3355 63.3612 61.7361 63.875Z" fill="black"/>
<path id="Vector_31" d="M56.7695 50.2596C56.9408 50.0884 56.8552 49.7458 57.1121 49.5746C58.3109 50.9447 59.681 52.0579 61.565 51.8867C62.7638 51.7154 63.877 50.7734 64.3908 49.5746C64.7334 48.7182 65.0759 47.7763 65.2472 46.8343C65.9322 42.3814 65.4184 37.7572 64.5621 33.4756C64.3052 32.3624 64.0483 31.2492 63.1063 30.3928C62.5925 29.879 61.8219 30.0503 61.2224 30.2216C60.5374 30.5641 60.2805 31.3348 60.2805 32.0198C60.4517 34.6745 61.565 36.9866 61.9075 39.5555C62.25 41.8676 62.4213 44.5222 61.9931 46.7487C61.8219 47.0912 61.4793 47.4337 61.1368 47.4337C59.9379 47.2625 59.8523 45.8924 59.4241 44.9504C58.9104 42.8096 58.5678 40.5831 58.3965 38.3567C58.2253 36.4728 59.2529 34.2463 57.7971 32.7049C57.369 32.3624 56.9408 32.0198 56.2557 32.1055C55.5707 32.1911 54.9713 32.7905 54.6287 33.3043L54.8 33.2187C55.2282 36.9866 55.3994 40.9257 56.5126 44.4366C56.5126 44.6079 56.6839 44.8648 56.427 44.8648C54.2862 44.2653 53.173 46.7487 52.0597 48.1188C51.9741 48.1188 51.8885 48.1188 51.8885 48.0332C51.6316 46.92 51.3747 45.8067 51.3747 44.5222C52.4023 43.3234 53.858 42.2958 54.6287 40.9257C54.9713 40.3262 54.7143 39.6412 54.5431 39.0417C54.2006 38.6992 53.9437 38.271 53.4299 38.3567C52.3166 38.6136 51.4603 39.4699 50.604 40.155C50.5184 40.2406 50.3471 40.155 50.2615 40.0693C50.1758 39.3843 49.8333 38.6992 50.0046 37.9285C51.546 36.5584 53.5155 35.2739 54.4575 33.39L53.858 32.6193C53.2586 32.1911 52.4023 32.3624 51.8029 32.6193C50.3471 33.5612 49.0626 34.8457 47.7781 36.1302C47.0074 36.9866 45.8942 37.7572 45.6373 38.8705C45.466 39.1274 45.8086 39.6412 45.3804 39.6412C44.0103 38.4423 41.8695 37.8429 40.1568 38.6136C38.1873 39.3843 37.1597 41.6107 36.7315 43.4946C36.5603 43.7515 36.6459 44.1797 36.3034 44.2653C35.1901 43.0665 33.7344 42.4671 32.1074 42.5527C30.1378 42.5527 28.5964 44.351 27.8257 45.8924C25.8562 49.5746 25.5137 55.312 27.5688 59.0798C28.5108 61.2206 30.566 63.3614 33.0493 63.3614C35.1902 63.3614 36.9028 61.5632 37.7591 59.6792C38.1873 58.6516 38.5298 56.939 37.5022 56.0827C37.1597 55.6545 36.5603 55.5689 35.9608 55.6545C34.3338 56.0827 34.5907 57.881 33.4775 58.8229C32.9637 58.9085 32.3643 58.9085 32.0217 58.3947C31.0798 57.0246 30.566 55.3976 30.4804 53.6849C30.4804 51.801 30.3947 49.7458 31.1654 48.1188C31.4223 47.6906 31.7648 47.0912 32.4499 47.2625C33.3919 47.7763 34.2482 48.8895 35.5327 48.4613C35.8752 48.4613 36.1321 48.0332 36.4746 48.1188C37.0741 52.3148 38.1017 57.4528 42.8114 58.8229C44.6954 59.2511 46.408 58.2235 47.35 56.5965C47.7781 55.997 47.8638 55.1407 48.3776 54.6269C48.8057 55.2263 48.8914 56.0827 49.662 56.4252C50.1758 56.5965 50.6896 56.4252 51.1178 56.1683C53.173 54.7982 55.1425 52.5717 56.7695 50.2596ZM44.5241 54.1131L43.9247 54.7982C43.6678 55.0551 43.0683 55.0551 42.7258 54.8838C41.0132 53.7706 40.6706 51.7154 40.2425 49.7458C39.9856 47.4338 40.0712 44.9504 41.1844 42.9808C41.4413 42.7239 41.7839 42.5527 42.0408 42.4671C43.5821 42.6383 44.1815 44.4366 44.6953 45.6355C45.6373 48.3757 45.8086 51.6298 44.5241 54.1131Z" fill="black"/>
<path id="Vector_32" d="M53.6013 63.1042C53.4301 63.1042 53.2588 63.2755 53.2588 63.4468C53.5157 64.6456 53.9439 66.1014 53.6013 67.3859C53.4301 67.6428 53.3444 68.1566 52.8306 68.1566C52.6594 68.071 52.4881 67.8997 52.4025 67.7284C52.1456 66.7865 52.4025 65.7589 52.4881 64.7313C52.4881 64.3031 52.5737 63.7893 52.1456 63.5324C51.8887 63.4468 51.6318 63.618 51.5461 63.7893C51.2036 64.7313 51.2892 65.8445 51.2036 66.9577C51.3749 67.8997 51.4605 69.0985 52.4881 69.3554C52.9163 69.6123 53.5157 69.3554 53.9439 69.1842C54.4577 69.0129 54.6289 68.4135 55.0571 68.0709C55.3996 66.6152 55.8278 64.6456 54.7146 63.3611C54.372 63.1899 54.0295 63.1042 53.6013 63.1042Z" fill="black"/>
<path id="Vector_33" d="M49.2341 64.8169C48.4634 64.6456 47.7783 64.8169 47.2645 65.3307C47.0076 67.0434 47.1789 68.8416 47.0933 70.6399L47.1789 70.9825C47.4358 71.2394 47.6927 71.4963 48.1208 71.4963C49.1484 71.5819 49.8335 70.8968 50.5186 70.2118L50.7755 69.6123C51.0323 68.8416 51.3749 67.7284 50.9467 66.8721C50.7755 65.8445 50.0048 65.1594 49.2341 64.8169ZM49.491 68.3278C49.4053 69.0129 49.0628 69.7836 48.4634 70.1261C48.2065 69.8692 48.3777 69.4411 48.3777 69.0985V66.3583C48.6346 66.2727 48.8915 66.187 49.1484 66.2727C49.7479 66.7008 49.491 67.6428 49.491 68.3278Z" fill="black"/>
<path id="Vector_34" d="M44.0102 66.7867C43.2395 67.5574 42.6401 68.4137 42.6401 69.4413C42.5545 70.2976 43.4964 70.6401 44.0102 71.0683C44.0959 71.4965 43.839 71.9246 43.5821 72.2672C43.4964 72.3528 43.2395 72.3528 43.2395 72.1815C43.0683 71.5821 42.3832 71.6677 42.0407 71.4108L41.9551 68.6706C41.6982 68.3281 41.7838 67.4717 41.0131 67.7286C40.7562 67.7286 40.4993 67.8999 40.4136 68.1568C40.2424 69.1844 40.4136 70.2976 40.4136 71.3252C40.328 71.839 40.5849 72.4384 40.2424 72.781L40.1568 72.6953L39.3004 69.7838C38.9579 69.27 38.5297 68.4993 37.7591 68.6706C37.4165 68.8418 37.2452 69.1844 37.074 69.5269C36.7314 71.1539 36.9027 72.9522 36.5602 74.5792C36.3033 74.9218 36.132 75.3499 35.7038 75.5212C35.4469 75.0074 35.6182 74.3223 35.5326 73.7229C35.3613 72.6097 35.8751 71.4108 35.3613 70.5545C35.1901 70.2976 34.8475 70.212 34.5906 70.2976C34.3337 70.3832 34.1625 70.5545 34.0768 70.7258C33.9056 72.3528 33.9056 73.8942 33.9056 75.6068C33.3918 75.8637 32.9636 76.2063 32.4498 76.4632C32.1073 76.2919 32.3642 76.035 32.3642 75.7781C32.7923 75.4356 33.3918 75.1787 33.563 74.5792C33.6487 74.2367 33.563 73.8085 33.2205 73.7229C32.7923 73.466 32.5354 74.1511 32.1073 73.8942C32.5354 73.1235 33.9912 73.0379 33.563 71.839C33.4774 71.4108 32.9636 71.2396 32.6211 71.2396L30.9084 72.4384C30.6515 73.8085 30.9084 75.2643 30.9084 76.7201C30.7372 77.0626 30.3946 76.8057 30.1377 76.8057C29.5383 76.5488 30.309 76.2063 30.309 75.8637C30.5659 75.093 30.3946 74.0654 29.8808 73.466C29.367 73.0379 28.7676 73.2091 28.2538 73.3804C27.8256 73.6373 27.2262 73.8085 27.3118 74.4936C27.4831 76.2063 26.9693 77.8333 26.7124 79.5459C26.9693 79.8885 27.2262 80.4023 27.74 80.3166C28.3394 79.8028 28.2538 79.0321 28.5107 78.3471C28.682 78.0902 28.4251 77.5764 28.7676 77.4051L29.4527 78.0046C30.3946 78.604 31.5935 78.4327 32.6211 78.1758L34.0768 76.8913C34.505 76.5488 34.7619 77.1482 35.1901 77.1482C35.8751 76.977 36.5602 76.6344 36.9027 75.9494H37.5021C38.2728 75.5212 37.759 74.5792 38.1016 73.9798C38.4441 73.9798 38.701 73.6373 38.9579 73.8085C39.1292 74.2367 39.2148 74.9218 39.8142 74.9218C40.0711 74.9218 40.4137 74.7505 40.5849 74.4936L41.27 74.6649C41.5269 74.5792 41.7838 74.4936 41.8694 74.3223C42.0407 73.9798 41.8694 73.5517 42.1263 73.2948C42.4688 73.5517 42.7257 73.8942 43.1539 73.8085C43.9246 73.8085 44.6953 73.3804 45.1234 72.6097C45.3803 71.9246 45.6372 70.897 45.1234 70.212C45.0378 69.6125 44.1815 69.7838 44.1815 69.1844C44.2671 68.8418 44.3528 68.4137 44.6953 68.3281C44.9522 68.5849 45.0378 68.9275 45.3804 68.9275C45.8085 68.9275 45.7229 68.4137 45.8942 68.2424C45.8942 67.643 45.5516 67.3005 45.2091 66.8723C44.8666 66.7867 44.4384 66.6154 44.0102 66.7867ZM28.9389 75.9494C28.5963 75.7781 28.9389 75.3499 28.7676 75.093C28.8532 75.0074 28.9389 74.9218 29.0245 75.0074C29.1958 75.1787 29.1958 75.6925 28.9389 75.9494ZM38.3585 72.5241C38.1872 72.6097 38.1872 72.4384 38.1872 72.3528C38.2728 72.0103 38.1872 71.6677 38.3585 71.4108C38.5297 71.6677 38.7866 72.2672 38.3585 72.5241Z" fill="black"/>
<path id="Vector_35" d="M24.9998 78.5184C24.5717 78.1759 24.1435 78.5184 23.7153 78.5184C23.3728 78.0902 23.9722 77.8333 23.8866 77.4052C24.1435 76.6345 24.7429 77.3195 25.2567 77.2339C25.3424 77.1483 25.3424 77.0626 25.428 77.0626C25.428 76.5488 25.1711 76.035 24.7429 75.6925C24.486 75.4356 24.0579 75.5212 23.7153 75.6069C22.7734 76.2919 22.0883 77.5764 22.3452 78.7753C22.6021 79.2034 23.0303 79.546 23.3728 79.6316C23.5441 79.8029 23.8866 79.6316 24.0579 79.8029C24.0579 80.1454 23.801 80.4879 23.5441 80.6592C22.7734 79.4603 21.9171 81.0874 21.1464 81.2586C20.8895 81.2586 20.8895 81.6868 20.6326 81.4299C20.3757 80.3167 21.9171 80.6592 22.0883 79.7173C22.0883 79.3747 21.9171 79.1178 21.5745 78.8609C21.232 78.7753 20.8038 79.2035 20.547 78.8609C20.8895 78.1759 22.2596 78.0046 22.0027 76.977C21.9171 76.6345 21.5745 76.5488 21.3176 76.4632C20.4613 76.7201 19.7762 77.2339 19.0056 77.7477C19.0912 78.9466 19.1768 80.231 19.1768 81.5155L18.0636 82.4575C17.978 82.4575 17.8067 82.6288 17.8067 82.4575C17.8923 81.0017 17.7211 79.546 17.6355 78.1759C17.5498 77.919 17.2073 77.919 16.9504 77.8333C16.5222 77.8333 16.2653 78.0046 16.1797 78.4328L16.5222 83.3995C16.6078 83.6564 16.8648 83.9133 17.1217 83.9989C17.5498 84.1702 17.978 83.9133 18.4061 83.742C18.7487 83.2282 19.4337 83.3138 19.4337 82.6288C19.605 82.5431 19.7762 82.8857 19.9475 82.9713C20.9751 83.3995 21.6602 82.4575 22.4309 81.9437L22.6021 81.6012C22.7734 81.6012 23.0303 81.6868 23.1159 81.7724C23.801 81.9437 24.5717 81.7724 25.0855 81.2586C25.6849 80.7448 25.9418 80.0598 25.9418 79.2891C25.5993 79.0322 25.3424 78.7753 24.9998 78.5184Z" fill="black"/>
<path id="Vector_36" d="M17.0364 58.2235C17.6359 59.2511 18.5778 60.45 19.7767 60.7069C20.9755 60.7925 22.26 60.3644 22.9451 59.3368L23.5445 57.7954C24.2296 54.7126 24.0583 51.116 23.1163 48.2045C22.8595 47.5195 22.3457 46.4919 21.4893 46.4062C21.1468 46.4062 20.8043 46.5775 20.4617 46.8344C19.691 47.6907 20.0336 48.8896 20.2905 49.9172C20.8899 51.9724 21.0611 54.5413 20.7186 56.7678C20.633 56.9391 20.4617 57.2816 20.2048 57.2816C19.9479 57.196 19.8623 56.9391 19.691 56.7678C18.9203 54.7982 19.5198 52.4005 19.2629 50.2597C19.2629 49.3178 18.9204 48.3758 18.064 47.9476C17.5502 47.7764 16.9508 47.9476 16.6083 48.3758C15.6663 49.9172 15.8376 51.8867 15.6663 53.7707C15.0669 53.1712 14.4675 52.4005 13.7824 51.8867C12.3266 50.9448 10.2715 50.0885 8.64443 51.2017C8.5588 51.2017 8.38751 51.2017 8.30188 51.2873C7.18865 53.1712 8.21625 55.4833 8.38752 57.4529L8.30188 62.3339L8.64443 63.3615C8.90133 63.7897 9.32949 64.1322 9.84328 64.2178C11.8985 64.646 13.7824 63.7897 15.2381 62.2483C16.1801 61.0494 16.6939 59.7649 16.9508 58.3092C16.8652 58.3092 16.9508 58.2235 17.0364 58.2235ZM13.0973 57.7954C12.8404 58.7373 11.9841 59.6793 11.1278 60.1075C10.9565 60.1075 10.8709 60.0218 10.7852 59.9362C10.8709 57.881 10.7852 55.8258 10.4427 53.9419C11.1278 53.8563 11.8128 54.1132 12.241 54.7126C13.0973 55.3977 13.4398 56.6822 13.0973 57.7954Z" fill="black"/>
<path id="Vector_37" d="M10.528 46.0637C10.7849 46.4918 11.0418 47.0056 11.47 47.1769C11.8981 47.2625 12.2407 47.0912 12.5832 46.8343C13.1826 46.4062 13.3539 45.5499 14.0389 45.293C14.6384 45.6355 15.4091 46.1493 16.0085 45.7211C16.9504 44.5223 17.8068 43.2378 18.1493 41.782C18.3206 40.9257 18.4918 39.8125 17.8068 39.1274C17.3786 38.6136 16.1798 38.7849 16.5223 37.8429C16.7792 37.1578 17.293 36.3015 18.0637 36.2159C18.1493 36.0446 18.0637 35.8734 18.0637 35.7021C17.7212 35.1883 17.4642 34.332 16.6079 34.5032C16.1798 34.5032 15.8372 34.9314 15.4947 35.2739C14.8096 36.4728 14.0389 37.7573 13.8677 39.1274C13.8677 39.6412 13.7821 40.2406 14.1246 40.6688C14.5527 41.1826 15.2378 41.0113 15.7516 40.9257V41.097C15.4947 41.782 15.4091 42.6383 14.8953 43.0665C14.5527 43.0665 14.2958 42.8096 14.1246 42.5527C13.4395 42.2102 12.9257 42.9809 12.4119 43.3234C12.155 42.9809 12.4119 42.4671 12.3263 42.0389C12.5832 41.1826 13.782 40.4975 13.4395 39.5556C13.3539 38.7849 12.6688 39.4699 12.4119 39.0418C12.3263 38.0998 12.7545 37.2435 13.5251 36.6441C13.6108 36.1303 13.7821 35.4452 13.3539 35.1027C12.3263 34.7601 11.6412 35.7021 11.0418 36.3872C9.50042 38.3567 10.1855 41.3539 10.0998 43.8372L10.0142 44.0085C9.07225 43.9228 8.64409 44.7792 7.95903 45.2073C7.6165 43.3234 8.04468 41.4395 8.13031 39.6412C8.21594 38.8705 8.30157 38.0142 7.61651 37.5004C7.27398 37.3291 6.93144 37.3291 6.58891 37.5004C6.16075 37.7573 5.98949 38.2711 5.90386 38.6992C5.64696 40.8401 5.64697 43.1521 5.64697 45.293C5.73261 46.6631 5.64696 48.3757 7.10271 48.9752C7.6165 49.0608 8.04467 48.8895 8.3872 48.547C9.24352 47.7763 9.84295 46.8343 10.528 46.0637Z" fill="black"/>
</g>
<g id="Group_8">
<g id="Clip path group_6">
<mask id="mask5_699_2940" style="mask-type:luminance" maskUnits="userSpaceOnUse" x="2" y="1" width="88" height="88">
<g id="SVGID_4_">
<path id="Vector_38" d="M89.3957 1.53418H2.05029V88.8796H89.3957V1.53418Z" fill="white"/>
</g>
</mask>
<g mask="url(#mask5_699_2940)">
<path id="Vector_39" d="M23.4585 88.3658C23.4585 88.3658 51.2891 69.9548 79.2053 65.4163" stroke="#E5007D" stroke-width="0.6903"/>
</g>
</g>
</g>
<g id="Group_9">
<path id="Vector_40" d="M24.3149 88.2805C24.3149 88.6231 23.9724 88.9656 23.6299 88.9656C23.2874 88.9656 22.9448 88.7087 22.9448 88.2805C22.9448 87.938 23.2874 87.5955 23.6299 87.5955C23.9724 87.5955 24.3149 87.938 24.3149 88.2805Z" fill="#E5007D"/>
<path id="Vector_41" d="M79.6333 65.502C79.6333 65.8445 79.2908 66.187 78.9482 66.187C78.6057 66.187 78.2632 65.9301 78.2632 65.502C78.2632 65.1594 78.6057 64.8169 78.9482 64.8169C79.2908 64.8169 79.6333 65.1594 79.6333 65.502Z" fill="#E5007D"/>
</g>
</g>
</svg>
