<svg xmlns="http://www.w3.org/2000/svg" width="64" height="64"><defs><filter x="0" y="0" width="1" height="1" id="a" style="color-interpolation-filters:sRGB"><feColorMatrix result="fbSourceGraphic" values="1" type="saturate"/><feColorMatrix values="-1 0 0 0 1 0 -1 0 0 1 0 0 -1 0 1 0 0 0 1 0" in="fbSourceGraphic"/></filter></defs><g style="display:inline"><g style="display:inline"><g><g style="fill:#725794;fill-opacity:1"><path d="M129.912 180.351a55 55 0 0 1-55 55 55 55 0 0 1-55-55 55 55 0 0 1 55-55 55 55 0 0 1 55 55zM180.103 317.442a42.5 42.5 0 0 1-42.5 42.5 42.5 42.5 0 0 1-42.5-42.5 42.5 42.5 0 0 1 42.5-42.5 42.5 42.5 0 0 1 42.5 42.5zM220.825 434.265a31 31 0 0 1-31 31 31 31 0 0 1-31-31 31 31 0 0 1 31-31 31 31 0 0 1 31 31z" style="fill:#725794;fill-opacity:1" transform="matrix(.0849 0 0 .0849 7.764 3.285)"/></g><g style="fill:#dd6418;fill-opacity:1"><path d="M541.925 412.859a26 26 0 0 1-26 26 26 26 0 0 1-26-26 26 26 0 0 1 26-26 26 26 0 0 1 26 26zM520.709 484.311a21 21 0 0 1-21 21 21 21 0 0 1-21-21 21 21 0 0 1 21-21 21 21 0 0 1 21 21z" style="fill:#dd6418;fill-opacity:1" transform="matrix(.0849 0 0 .0849 7.764 3.285)"/></g><path style="fill:#dd6418;fill-opacity:1" d="M486.17 156.255c-5.941 1.711-24.89-.889-24.89-.889 5.222 3.397 8.671 12.95 8.51 19.403-18.6-2.401-26.312-8.558-43.318-17.64 0 .36 12.019 13.991 23.162 22.366 21.202 15.934 40.149 35.328 52.097 53.326 5.873 8.846 7.171 9.926 7.69 6.395 1.548-10.543-2.554-48.238-20.079-72.93-2.494-3.514-2.857-7.35-3.171-10.031z" transform="matrix(.0849 0 0 .0849 7.764 3.285)"/><path d="M10.816 4.223c-.49-.02-.754.414-.375.74C26.8 12.723 24.366 20.062 26.482 28.5c.573 2.282 4.362 20.024 24.357 21.742.785.067 1.005-.818.21-1.03-16.317-4.34-20.247-32.879-8.846-33.915 1.587-.145 2.068.519 3.27.918 1.2.4 3.09.526 3.656.413 1.074-1.967-.831-4.218-2.429-5.874 1.735-1.113 7.315-2.349 7.973-2.628.415-.177.21-.83-.15-.894-2.554.152-8.629.651-11.352 1.69-4.79-2.894-11.031-.636-14.202 4.303-3.23-4.688-7.81-6.114-18.153-9.002ZM37.67 8.656c2.43 0 2.363 1.015-.806 2.097C33.055 11.987 29.905 15.073 29 18c-.372-.54 1.418-8.439 8.67-9.344z"/></g><g style="font-style:normal;font-weight:400;font-size:157.0249176px;line-height:125%;font-family:Sans;letter-spacing:0;word-spacing:0;fill:#dd6418;fill-opacity:1;stroke:none" aria-label="Framasoft"><path style="font-style:normal;font-variant:normal;font-weight:700;font-stretch:normal;font-size:84.70580292px;font-family:'DejaVu Sans';-inkscape-font-specification:'DejaVu Sans Bold';fill:#725794;fill-opacity:.94117647" d="M-48.044 1488.874H-5.07v12.036h-27.05v11.498h25.437v12.036H-32.12v26.18h-15.924zM38.15 1516.916q-1.943-.91-3.887-1.323-1.903-.455-3.847-.455-5.707 0-8.81 3.68-3.06 3.64-3.06 10.465v21.342H3.74V1504.3h14.807v7.61q2.854-4.55 6.535-6.617 3.722-2.11 8.892-2.11.745 0 1.614.083.868.041 2.522.249zM66.276 1529.78q-4.633 0-6.99 1.57-2.316 1.573-2.316 4.633 0 2.813 1.861 4.426 1.903 1.571 5.253 1.571 4.177 0 7.031-2.978 2.854-3.019 2.854-7.527v-1.696zm22.624-5.584v26.429H73.969v-6.866q-2.978 4.219-6.7 6.163-3.723 1.902-9.058 1.902-7.197 0-11.705-4.177-4.467-4.219-4.467-10.92 0-8.147 5.583-11.952 5.625-3.806 17.62-3.806h8.727v-1.158q0-3.515-2.771-5.128-2.771-1.655-8.645-1.655-4.756 0-8.85.952-4.095.95-7.611 2.853v-11.29q4.756-1.159 9.554-1.738 4.798-.62 9.596-.62 12.532 0 18.074 4.963 5.584 4.922 5.584 16.048zM145.605 1511.994q2.812-4.301 6.659-6.535 3.888-2.275 8.52-2.275 7.983 0 12.16 4.922 4.177 4.922 4.177 14.311v28.208h-14.89v-24.155q.042-.537.042-1.116.041-.58.041-1.655 0-4.922-1.447-7.114-1.448-2.233-4.674-2.233-4.219 0-6.535 3.474-2.275 3.474-2.357 10.05v22.749h-14.89v-24.155q0-7.693-1.324-9.885-1.323-2.233-4.715-2.233-4.26 0-6.576 3.515-2.316 3.475-2.316 9.968v22.79h-14.89V1504.3h14.89v6.783q2.73-3.929 6.245-5.914 3.557-1.985 7.817-1.985 4.798 0 8.48 2.316 3.68 2.316 5.583 6.493zM211.698 1529.78q-4.632 0-6.99 1.57-2.316 1.573-2.316 4.633 0 2.813 1.862 4.426 1.902 1.571 5.252 1.571 4.178 0 7.032-2.978 2.853-3.019 2.853-7.527v-1.696zm22.625-5.584v26.429H219.39v-6.866q-2.977 4.219-6.7 6.163-3.722 1.902-9.058 1.902-7.196 0-11.705-4.177-4.467-4.219-4.467-10.92 0-8.147 5.584-11.952 5.625-3.806 17.62-3.806h8.726v-1.158q0-3.515-2.77-5.128-2.772-1.655-8.645-1.655-4.756 0-8.851.952-4.095.95-7.61 2.853v-11.29q4.756-1.159 9.554-1.738 4.798-.62 9.595-.62 12.533 0 18.075 4.963 5.584 4.922 5.584 16.048z" transform="matrix(.12651 0 0 .12651 8.267 -136.252)"/><path style="font-weight:700;font-size:84.70580292px;-inkscape-font-specification:'DejaVu Sans Bold';fill:#dd6418;fill-opacity:1" d="M284.286 1505.749v11.25q-4.757-1.985-9.182-2.978-4.426-.993-8.355-.993-4.219 0-6.287 1.076-2.026 1.034-2.026 3.226 0 1.778 1.53 2.73 1.572.95 5.584 1.406l2.605.372q11.374 1.448 15.304 4.756 3.929 3.31 3.929 10.382 0 7.403-5.46 11.126-5.46 3.722-16.296 3.722-4.59 0-9.513-.744-4.88-.703-10.05-2.151v-11.25q4.425 2.15 9.058 3.226 4.673 1.076 9.471 1.076 4.343 0 6.535-1.2t2.192-3.557q0-1.985-1.53-2.936-1.489-.993-5.997-1.53l-2.606-.332q-9.885-1.24-13.856-4.59-3.97-3.35-3.97-10.175 0-7.362 5.046-10.92 5.046-3.556 15.468-3.556 4.095 0 8.603.62 4.509.62 9.803 1.944zM320.559 1513.773q-4.922 0-7.528 3.557-2.564 3.515-2.564 10.174 0 6.66 2.564 10.216 2.606 3.516 7.528 3.516 4.839 0 7.403-3.516 2.564-3.557 2.564-10.216 0-6.659-2.564-10.174-2.564-3.557-7.403-3.557zm0-10.588q11.953 0 18.653 6.452 6.742 6.452 6.742 17.867 0 11.416-6.742 17.868-6.7 6.452-18.653 6.452-11.995 0-18.778-6.452-6.742-6.452-6.742-17.868 0-11.415 6.742-17.867 6.783-6.452 18.778-6.452zM387.19 1486.268v9.72H379q-3.143 0-4.383 1.158-1.241 1.117-1.241 3.93v3.225h12.656v10.589h-12.656v35.735h-14.807v-35.735h-7.362V1504.3h7.362v-3.226q0-7.569 4.219-11.167 4.218-3.64 13.07-3.64zM409.731 1491.149v13.152h15.262v10.588h-15.262v19.647q0 3.226 1.283 4.384 1.282 1.116 5.087 1.116h7.61v10.589h-12.697q-8.769 0-12.45-3.64-3.64-3.681-3.64-12.45v-19.646h-7.362v-10.588h7.362v-13.152z" transform="matrix(.12651 0 0 .12651 8.267 -136.252)"/></g></g></g></svg>