<svg width="188" height="61" viewBox="0 0 188 61" fill="none" xmlns="http://www.w3.org/2000/svg">
<g id="snc 1" clip-path="url(#clip0_699_3007)">
<path id="Vector" fill-rule="evenodd" clip-rule="evenodd" d="M32.8192 19.3285C32.8448 19.504 32.8379 19.7905 32.9326 20.0425C33.1009 20.5271 33.2771 20.5822 33.778 20.4474C34.3316 20.2939 34.8868 20.1673 35.4565 20.0238C35.7052 20.4334 35.6965 20.8255 35.4933 21.1862C34.8966 22.2535 32.8714 23.373 31.5374 22.0604C30.8556 21.3927 30.5888 20.5132 30.7228 19.5518C30.8991 18.2855 30.9093 18.2827 29.6067 18.4457C29.3587 18.4745 29.1099 18.5582 28.8579 18.5899C28.5816 18.6214 28.2981 18.6429 28.0206 18.6286C27.5956 18.6079 27.2134 18.4651 27.0994 17.9977C26.9827 17.5137 27.139 17.0619 27.5217 16.7716C27.8597 16.5148 28.2565 16.3143 28.6542 16.1728C29.84 15.7601 31.0715 15.7008 32.3076 15.756C34.2887 15.8432 36.261 16 38.0884 16.8829C38.32 16.9905 38.5468 17.1081 38.7681 17.2354C39.1066 17.4265 39.421 17.6458 39.2675 18.1103C39.1477 18.4651 38.5335 18.8102 38.1621 18.7499C37.4005 18.6312 36.6402 18.4979 35.8781 18.3825C35.5377 18.3331 35.1944 18.3051 34.8505 18.2988C34.6862 18.296 34.4979 18.317 34.3577 18.3973C33.8663 18.6723 33.3977 18.9724 32.8192 19.3285Z" fill="#00ACDD"/>
<path id="Vector_2" d="M43.1118 45.3332C42.4388 46.3864 41.8972 47.3477 41.2454 48.2393C40.3927 49.4125 39.4702 50.2907 38.5457 51.4137C37.2539 52.9832 34.6844 54.1958 32.7033 54.9501C30.6184 55.7386 28.4309 56.2065 26.2073 56.1052C23.4057 55.9813 20.8809 55.101 18.7156 53.2902C16.4525 51.4043 14.6324 49.1927 12.8558 46.9363C11.4533 45.1489 10.4349 43.1473 9.49377 41.1133C9.14862 40.3666 9.19288 39.7852 9.06067 38.9345C8.98494 38.4687 8.50296 37.923 8.32873 37.461C8.218 37.1627 8.15115 36.8442 8.10412 36.5272C8.02099 35.976 8.03376 35.407 7.89489 34.8652C7.59382 33.6572 7.1098 32.4759 6.90075 31.2545C6.5408 29.1254 6.80891 26.9821 7.17294 24.8738C7.50198 22.982 7.61326 21.1867 7.98136 19.3023C8.43779 16.9513 9.21214 14.6966 10.1272 12.4691C10.9317 10.5156 12.2986 8.91601 13.6473 7.32176C15.4962 5.14703 18.1423 4.19381 20.9251 3.59444C22.1157 3.33706 23.3632 3.18671 24.586 3.19153C26.557 3.20356 28.5199 3.53408 30.3608 4.18103C31.9234 4.73078 33.5304 4.81262 34.9497 5.6366C36.1047 6.30818 37.2577 6.78831 38.3472 7.57673C38.7192 7.85151 39.7208 8.02667 40.1794 8.09018C41.4585 8.2672 41.3733 8.49106 40.8192 7.38953C40.5966 6.95643 40.3016 6.46909 39.8885 6.21764C37.4001 4.68449 34.9665 3.03136 31.9538 2.45477C31.7527 2.41459 31.5562 2.32349 31.3787 2.22017C31.0006 1.99427 30.6613 1.70671 30.2684 1.51433C29.9011 1.33324 29.3246 1.00809 29.1182 1.14085C28.5229 1.51433 28.4298 0.756643 28.0281 0.836448C27.9007 0.862 27.695 0.768123 27.6212 0.828486C27.2664 1.12752 27.0025 0.946434 26.6874 0.756643C26.4594 0.621845 26.1739 0.566296 25.9191 0.463716C24.9987 0.105798 24.0547 0.298737 23.1102 0.336325C21.5275 0.392614 19.9327 0.469086 18.4195 0.886072C15.4517 1.70653 12.7761 3.11098 10.3742 4.94187C8.58295 6.31077 7.18831 8.00149 5.90403 9.79886C3.97871 12.5026 2.75997 15.4724 1.90322 18.5996C1.12887 21.4374 0.84391 24.3215 0.743367 27.2369C0.652823 29.694 0.942416 32.1174 1.27034 34.5515C1.85897 38.869 3.31638 42.8979 5.47889 46.7326C6.90094 49.2621 8.64591 51.5756 10.6316 53.729C11.8838 55.0805 13.3507 56.2002 14.8905 57.2673C18.1708 59.5294 21.8439 60.4317 25.8266 60.221C29.4526 60.0293 32.6565 58.6799 35.4848 56.5834C36.2188 56.0391 37.2405 56.062 37.8425 55.3806C38.2139 54.9557 39.0801 53.7631 39.3697 53.2822C39.7002 52.7399 40.0328 52.1968 40.3203 51.6344C40.7355 50.8447 41.09 50.2803 41.5078 49.4919C41.9294 48.6968 42.453 47.9453 42.8243 47.1341C43.0648 46.611 43.3083 46.0392 43.1118 45.3332Z" fill="#ED7D20"/>
<path id="Vector_3" d="M26.6308 37.1704C26.2555 35.8604 25.0882 32.3536 24.5807 31.0812C23.2384 27.6897 23.3727 27.197 22.6928 23.6801C22.3093 21.6714 21.9688 19.6483 21.7871 17.6184C21.6792 16.4089 21.9132 15.17 22.0071 13.9461C22.0112 13.8803 22.134 13.82 22.2571 13.7054C22.3765 13.8507 22.4784 13.9727 22.6083 14.129C22.7552 13.9044 22.8759 13.6931 23.0072 13.4887C23.8017 12.2283 24.9962 11.4514 26.6628 11.2255C28.0425 11.0403 29.4155 10.8755 30.8218 10.9975C31.6094 11.0646 32.2738 11.3416 33.0408 11.7887C32.7399 12.0474 32.5253 12.3652 32.2242 12.4496C31.5363 12.6399 30.8105 12.7392 30.0957 12.8257C28.9635 12.9597 27.8197 13.0623 26.6801 13.1723C26.1792 13.2178 25.8863 13.4739 25.6356 13.8313C24.809 15.0152 24.7934 16.2928 25.0671 17.578C25.413 19.2017 25.8422 20.8093 26.239 22.4222C26.7819 24.6238 27.2465 26.84 27.8921 29.0175C28.8213 32.1242 30.042 34.3137 31.5915 37.2458L29.9141 38.1166H27.8532L26.6308 37.1704Z" fill="#009D9A"/>
<path id="Vector_4" d="M27.8538 32.2944C27.7627 32.1537 27.6299 32.0289 27.4757 31.8534L27.8538 32.2944ZM27.4757 31.8534C26.3232 32.7262 27.0372 33.5904 27.237 34.4303C26.631 34.4275 26.1114 34.9102 25.5448 34.453M24.0219 29.5203C23.81 30.3985 24.0406 31.1703 24.646 31.8882C24.7466 30.9992 24.632 30.2082 24.0219 29.5203ZM27.1137 31.2881C27.2431 30.9938 27.3966 30.7403 27.4488 30.4689C27.469 30.3502 27.2787 30.2 27.1894 30.0639C27.0413 30.1558 26.7906 30.231 26.7689 30.3448C26.7062 30.6802 26.6423 31.0542 27.1137 31.2881ZM25.5598 31.3156C25.6442 31.2814 25.724 31.2453 25.8105 31.2084C25.5598 30.6044 25.3104 30.0004 25.0584 29.397C24.9801 29.4205 24.8975 29.4438 24.8192 29.4666C25.2567 30.0299 24.8866 30.8222 25.5598 31.3156ZM26.2073 29.9347C26.993 29.3251 26.4814 28.9478 26.2682 28.4343C25.7937 28.9693 26.1638 29.3729 26.2073 29.9347ZM26.0975 27.9692C26.1712 27.9209 26.2603 27.8779 26.2503 27.8605C26.2175 27.792 26.1638 27.7318 26.1149 27.6702C26.072 27.7009 25.9888 27.7385 25.9942 27.76C26.0116 27.8296 26.0612 27.8933 26.0975 27.9692Z" fill="#183F88"/>
<path id="Vector_5" fill-rule="evenodd" clip-rule="evenodd" d="M25.545 34.4533C26.1116 34.9104 26.6312 34.4277 27.2372 34.4305C27.0374 33.5906 26.3234 32.7257 27.4759 31.8536M27.4759 31.8536C27.6299 32.0293 27.7625 32.1539 27.8538 32.2946L27.4759 31.8536ZM27.4181 32.9335C27.4575 34.1616 27.477 34.2259 28.0763 34.6947C28.258 34.025 27.5844 33.5395 27.4181 32.9335ZM24.0219 29.5205C24.632 30.2084 24.7466 30.9994 24.646 31.8884C24.0406 31.1705 23.81 30.3988 24.0219 29.5205ZM27.1137 31.2883C26.6425 31.0544 26.7061 30.6802 26.7691 30.3451C26.7906 30.2312 27.0413 30.156 27.1896 30.0642C27.2787 30.2003 27.4692 30.3504 27.449 30.4691C27.3966 30.7406 27.2431 30.9941 27.1137 31.2883ZM25.5598 31.3159C24.8867 30.8224 25.2567 30.0301 24.819 29.467C24.8975 29.4443 24.9799 29.4207 25.0582 29.3974C25.3104 30.0009 25.5596 30.6049 25.8103 31.2089C25.7239 31.2455 25.6442 31.2816 25.5598 31.3159ZM26.2073 29.9349C26.1638 29.3732 25.7937 28.9695 26.2682 28.4346C26.4815 28.948 26.993 29.3254 26.2073 29.9349Z" fill="#183F88"/>
<g id="Group">
<path id="Vector_6" fill-rule="evenodd" clip-rule="evenodd" d="M18.8507 57.1541C19.0034 57.1702 19.151 57.1822 19.2979 57.21L19.2877 57.3794C19.1442 57.3903 18.9947 57.3874 18.8472 57.3874C18.8507 57.3098 18.8507 57.2292 18.8507 57.1541Z" fill="#FFD75F"/>
<path id="Vector_7" d="M11.9756 7.85395C11.8503 7.75693 11.7564 7.65027 11.7214 7.66231C11.6129 7.71527 11.5177 7.80914 11.4185 7.88284C11.4747 7.94653 11.5533 8.07059 11.5934 8.05708C11.7108 8.03041 11.8129 7.94857 11.9756 7.85395Z" fill="#FFD75F"/>
<path id="Vector_8" fill-rule="evenodd" clip-rule="evenodd" d="M10.4561 51.1439C10.7342 51.0024 11.0043 50.8663 11.3717 50.6812C11.8664 51.3898 12.3417 52.036 12.7621 52.7159C12.8385 52.8372 12.6762 53.0838 12.5804 53.4406C11.7827 52.5737 11.1217 51.8571 10.4655 51.1352C10.4714 51.1326 10.4561 51.1439 10.4561 51.1439Z" fill="#FFD75F"/>
<path id="Vector_9" fill-rule="evenodd" clip-rule="evenodd" d="M10.1445 49.8412C10.3047 49.8977 10.6147 49.9599 10.6111 50.0062C10.5963 50.3828 10.5221 50.7583 10.4604 51.1418C10.4565 51.1438 10.4719 51.1323 10.4658 51.1349C10.3658 50.6957 10.2693 50.2554 10.1701 49.8128L10.1445 49.8412ZM11.9754 7.85395C11.8125 7.94857 11.7106 8.03041 11.5932 8.05708C11.5531 8.07041 11.4746 7.94635 11.4183 7.88284C11.5175 7.80914 11.6127 7.71527 11.7212 7.66231C11.7562 7.65027 11.8501 7.75693 11.9754 7.85395Z" fill="#FFD75F"/>
<path id="Vector_10" d="M11.2445 49.8413C11.0856 49.5464 10.8421 49.2668 10.7953 48.9544C10.6056 47.7651 9.77427 46.9908 8.98455 46.0811C8.96715 46.2525 8.92826 46.331 8.95159 46.3814C9.46171 47.4226 9.97054 48.4671 10.4968 49.4993C10.6484 49.7923 10.9152 49.9404 11.2732 49.813C11.367 50.2555 11.4596 50.6959 11.5528 51.1417C12.1869 51.857 12.827 52.5736 13.6014 53.4405C13.6966 53.0839 13.8488 52.8371 13.7751 52.7158C13.3696 52.0361 12.9089 51.3897 12.4302 50.6818C12.1389 50.8348 11.8464 50.9855 11.5526 51.1338C11.6122 50.7584 11.6835 50.3827 11.6966 50.0061C11.7003 49.96 11.4033 49.8978 11.2445 49.8413Z" fill="#FFD75F"/>
<path id="Vector_11" d="M21.8564 58.2763L21.8832 58.2493C21.6621 58.535 21.4227 58.6061 21.0827 58.3948C20.4491 57.9986 19.8279 57.5616 19.1447 57.2692C18.3209 56.918 17.7095 56.3481 17.104 55.7489C16.3065 54.962 15.4954 54.1891 14.6711 53.4305C14.5491 53.3184 14.1812 53.2468 14.1342 53.3084C14.0073 53.4693 13.9444 53.7169 13.9497 53.9241C13.9605 54.0622 14.126 54.2037 14.2419 54.3196C14.6791 54.7521 15.1155 55.1839 15.5686 55.5961C16.1137 56.0977 16.6418 56.6286 17.2453 57.0617C17.915 57.5457 18.8006 57.7199 19.3435 58.4111C19.4402 58.5285 19.6366 58.578 19.7894 58.6557C21.1576 59.3195 22.5881 59.7787 24.1053 59.9952C24.8682 60.1037 25.2174 59.9395 25.6459 59.3206C25.7933 59.1047 26.0756 58.9177 26.3391 58.8392C27.2429 58.5644 28.1572 58.3398 29.0736 58.1004C29.0677 58.0308 29.0621 57.9664 29.059 57.8955C28.4711 57.7427 28.0291 57.2359 27.2898 57.4101C26.2969 57.6533 25.2846 57.4992 24.3153 57.2814C22.347 56.8376 20.4632 56.2229 18.9052 54.8682C17.8515 53.9519 16.7412 53.0981 15.8484 52.0167C15.3181 51.3638 14.7524 50.7363 14.2354 50.0699C13.025 48.4908 11.8276 46.9017 10.6435 45.3027C10.4872 45.0937 10.4491 44.8026 10.3406 44.5573C10.02 43.8213 9.69823 43.0851 9.35364 42.3585C9.22421 42.0789 9.02127 41.8517 8.68928 42.0045C8.84482 42.7264 8.98498 43.3982 9.13385 44.0686C9.15922 44.1592 9.24384 44.2308 9.28939 44.3168C9.83173 45.2659 10.4567 46.1871 10.8768 47.1812C11.2167 47.983 11.6974 48.6366 12.3001 49.2347C12.4483 49.381 12.6051 49.5102 12.7391 49.6637C14.1303 51.2357 15.481 52.84 16.9103 54.3776C17.952 55.4963 19.1487 56.4617 20.4949 57.2394C20.9904 57.5288 21.4053 57.929 21.8564 58.2763ZM5.76371 30.6025C5.83345 30.5972 5.90298 30.5895 5.97221 30.5796C6.08349 29.4869 6.16663 28.3895 6.30402 27.3015C6.41382 26.4421 7.01189 25.525 7.18224 24.6721C7.50739 23.0773 7.42018 21.5468 7.75143 19.9505C7.77291 19.8305 7.78495 19.6361 7.71199 19.5839C7.12077 19.1293 7.45925 18.5581 7.57997 18.0969C7.91123 16.8439 8.34302 15.611 8.75446 14.3769C8.88314 13.9888 8.85629 13.557 9.28606 13.2582C9.54547 13.0791 9.65546 12.1359 9.58306 11.7793C9.39327 12.1359 9.26532 12.4388 9.08553 12.7097C8.42857 13.6704 8.07991 14.735 7.76162 15.8377C7.47795 16.8059 7.38018 17.8591 6.6949 18.721C6.44548 19.0375 6.26125 19.5369 6.32216 19.9096C6.43067 20.6123 6.27921 21.1792 5.92258 21.7753C5.7402 22.0749 5.70131 22.4665 5.64632 22.8279C5.52967 23.6202 5.43783 24.4201 5.34877 25.2152C5.28711 25.7689 5.24415 26.3221 5.19989 26.8778C5.24285 26.8878 5.28711 26.8965 5.32858 26.9087C5.44863 26.7391 5.56573 26.5674 5.67984 26.3938C5.66724 27.8701 5.50504 29.2442 5.76371 30.6025ZM7.55442 42.1787C7.31449 41.6131 7.07403 41.0477 6.83303 40.4826C6.61409 39.9623 6.39825 39.4407 6.18551 38.9178C6.15848 40.0608 6.46159 41.104 6.91079 42.113C6.9295 42.1681 7.14947 42.1398 7.55442 42.1787ZM7.69514 41.1129C8.05991 41.0633 8.26766 41.0351 8.48356 41.007C8.251 40.2595 8.04028 39.5877 7.79161 38.7847C7.16761 39.6555 8.21008 40.3163 7.69514 41.1129ZM5.13953 35.2336C5.23748 35.2249 5.33395 35.2195 5.4319 35.2134L5.29655 34.0162C5.22137 34.0249 5.14972 34.031 5.07861 34.0369C5.09731 34.4358 5.11879 34.8327 5.13953 35.2336ZM7.4511 36.4879C7.32982 36.4444 7.20835 36.4035 7.08781 36.36C6.99134 36.5947 6.9008 36.8253 6.80359 37.0612C6.9269 37.0995 7.14077 37.1858 7.15076 37.1691C7.26871 36.9491 7.35333 36.7192 7.4511 36.4879ZM5.99369 32.0947C6.05275 31.9392 6.12237 31.8279 6.12237 31.7166C6.12237 31.6568 5.99776 31.5993 5.92943 31.5383C5.86241 31.657 5.77871 31.7729 5.74298 31.9011C5.73224 31.9305 5.87037 32.0022 5.99369 32.0947ZM8.53707 45.3464C8.53448 45.3966 8.53448 45.4462 8.52837 45.4992C8.68391 45.5012 8.83741 45.5094 8.99035 45.5159C8.99313 45.4711 8.99572 45.422 8.9998 45.3737C8.84481 45.3644 8.69261 45.357 8.53707 45.3464Z" fill="#FFD75F"/>
<path id="Vector_12" fill-rule="evenodd" clip-rule="evenodd" d="M21.8564 58.2763C21.4053 57.929 20.9904 57.5288 20.4949 57.2392C19.1487 56.4615 17.952 55.4961 16.9103 54.3774C15.481 52.84 14.1303 51.2355 12.7391 49.6635C12.6051 49.51 12.4483 49.3806 12.3001 49.2345C11.6974 48.6366 11.2167 47.9828 10.8768 47.181C10.4565 46.1869 9.83173 45.2657 9.28939 44.3166C9.24384 44.2307 9.15922 44.159 9.13385 44.0685C8.98498 43.398 8.84482 42.7262 8.68928 42.0043C9.02127 41.8515 9.2244 42.0787 9.35364 42.3583C9.69823 43.0849 10.02 43.8211 10.3406 44.5571C10.4491 44.8024 10.4872 45.0935 10.6435 45.3026C11.8277 46.9015 13.025 48.4906 14.2354 50.0697C14.7524 50.7361 15.3181 51.3637 15.8484 52.0165C16.7412 53.0979 17.8515 53.9517 18.9052 54.868C20.4632 56.2227 22.347 56.8374 24.3153 57.2813C25.2846 57.4992 26.2969 57.6533 27.2898 57.41C28.0293 57.2357 28.4711 57.7425 29.059 57.8953C29.0623 57.9664 29.0677 58.0306 29.0736 58.1002C28.1572 58.3396 27.2429 58.5643 26.3391 58.839C26.0756 58.9175 25.7935 59.1046 25.6459 59.3205C25.2174 59.9393 24.8682 60.1035 24.1053 59.995C22.5883 59.7785 21.1577 59.3193 19.7894 58.6555C19.6364 58.5778 19.4402 58.5281 19.3435 58.4109C18.8006 57.7197 17.915 57.5455 17.2453 57.0615C16.6418 56.6284 16.1137 56.0975 15.5686 55.5959C15.1155 55.1837 14.6791 54.7519 14.2419 54.3194C14.126 54.2035 13.9603 54.062 13.9497 53.9239C13.9444 53.7167 14.0073 53.4691 14.1342 53.3082C14.181 53.2466 14.5491 53.3182 14.6711 53.4303C15.4954 54.1889 16.3065 54.9619 17.104 55.7487C17.7095 56.3479 18.3209 56.9176 19.1447 57.269C19.8279 57.5614 20.4491 57.9984 21.0827 58.3946C21.4225 58.6059 21.6619 58.5348 21.8832 58.2491C22.0454 58.5643 22.2667 58.7305 22.6863 58.5596C22.4531 58.1799 22.1567 58.2152 21.8564 58.2763ZM24.4286 58.814C24.4212 58.7679 24.4038 58.7176 24.3938 58.6746H23.3178V58.814H24.4286ZM5.76371 30.6025C5.50504 29.2444 5.66724 27.8701 5.68002 26.3938C5.5658 26.5674 5.4487 26.739 5.32877 26.9087C5.28711 26.8967 5.24304 26.888 5.20008 26.8778C5.24433 26.3221 5.28729 25.7689 5.34895 25.2152C5.43801 24.4201 5.52985 23.6202 5.64651 22.8279C5.70131 22.4665 5.74038 22.0751 5.92277 21.7753C6.27939 21.1792 6.43085 20.6123 6.32235 19.9096C6.26125 19.5369 6.44567 19.0375 6.69508 18.721C7.38037 17.8589 7.47813 16.8057 7.7618 15.8377C8.08028 14.7349 8.42876 13.6704 9.08571 12.7097C9.26532 12.4388 9.39345 12.1359 9.58324 11.7793C9.65564 12.1359 9.54565 13.0791 9.28624 13.2582C8.85648 13.5572 8.88333 13.9888 8.75464 14.3769C8.34303 15.6112 7.91123 16.844 7.58016 18.0968C7.45943 18.5581 7.12095 19.1293 7.71218 19.5839C7.78532 19.6361 7.77328 19.8305 7.75162 19.9505C7.42036 21.5466 7.50757 23.0772 7.18243 24.6721C7.01208 25.5248 6.41419 26.4421 6.3042 27.3015C6.16663 28.3895 6.08367 29.4869 5.97239 30.5796C5.90388 30.5892 5.83611 30.5972 5.76371 30.6025ZM11.2703 49.8131C10.9157 49.9405 10.6489 49.7924 10.4972 49.4994C9.97097 48.467 9.46215 47.4225 8.95202 46.3815C8.92869 46.3313 8.96739 46.2528 8.98498 46.0832C9.7747 46.9909 10.6059 47.7652 10.7957 48.9545C10.8425 49.2669 11.086 49.5465 11.2449 49.8414L11.2703 49.8131ZM7.55442 42.1787C7.14947 42.1398 6.9295 42.1679 6.91079 42.1131C6.46159 41.1042 6.15867 40.061 6.18551 38.918C6.39825 39.4409 6.61409 39.9625 6.83303 40.4828C7.04763 40.9855 7.26075 41.4871 7.55442 42.1787ZM7.69514 41.1129C8.20989 40.3163 7.16743 39.6555 7.79161 38.7847C8.04028 39.5877 8.25081 40.2595 8.48356 41.007C8.26766 41.0351 8.05991 41.0633 7.69514 41.1129ZM5.13953 35.2336C5.11879 34.8327 5.09731 34.4358 5.07861 34.0369C5.15137 34.0312 5.22402 34.0243 5.29655 34.0162C5.34154 34.413 5.38709 34.8146 5.4319 35.2134C5.33395 35.2194 5.23748 35.2249 5.13953 35.2336ZM7.4511 36.4879C7.35333 36.7194 7.26871 36.9491 7.15076 37.1691C7.14077 37.1858 6.9269 37.0995 6.80359 37.0612C6.9008 36.8253 6.99134 36.5946 7.08781 36.36C7.20835 36.4033 7.32982 36.4444 7.4511 36.4879ZM5.99369 32.0947C5.87037 32.0022 5.73224 31.9305 5.74298 31.9011C5.77853 31.7729 5.86241 31.657 5.92943 31.5383C5.99776 31.5993 6.12237 31.657 6.12237 31.7166C6.12237 31.8279 6.05275 31.9392 5.99369 32.0947ZM8.53707 45.3464C8.69261 45.3572 8.84481 45.3646 8.9998 45.3738C8.99572 45.4222 8.99313 45.4711 8.99035 45.5161C8.83741 45.5094 8.68409 45.5014 8.52837 45.4994C8.53448 45.4462 8.53448 45.3966 8.53707 45.3464Z" fill="#FFD75F"/>
</g>
<path id="Vector_13" fill-rule="evenodd" clip-rule="evenodd" d="M26.0972 27.9692C26.0609 27.8935 26.0113 27.8298 25.9939 27.76C25.9885 27.7385 26.0717 27.7009 26.1146 27.6702C26.1637 27.7318 26.2172 27.792 26.25 27.8605C26.26 27.8779 26.1707 27.9207 26.0972 27.9692ZM27.4178 32.9332C27.5841 33.5393 28.2577 34.0247 28.076 34.6945C27.4767 34.2258 27.4572 34.1614 27.4178 32.9332Z" fill="#183F88"/>
<path id="Vector_14" d="M28.3182 41.302C28.2558 41.7512 28.0897 42.1206 27.4675 42.0838C26.73 42.0415 25.9805 42.1326 25.268 41.7257C25.156 41.6586 24.9897 41.5722 24.8878 41.5977C23.9761 41.8088 20.785 40.393 19.8774 40.3475C19.325 40.3193 18.7745 40.3166 18.2314 40.3012C18.4579 40.63 18.6883 40.956 18.9227 41.2792C19.0345 41.4374 19.1332 41.6673 19.2872 41.727C19.9035 41.9628 22.3128 43.4243 22.5067 43.9171C22.7003 44.4085 23.1731 44.4848 23.5732 44.8536C24.1424 45.3752 24.9127 45.6526 25.6246 45.9598C26.7984 46.4653 27.7625 47.2 28.7372 47.9495C28.8711 48.0575 29.0112 48.1575 29.1568 48.2491C29.7011 48.6018 30.2483 48.9483 30.763 49.2755C30.9641 49.0785 31.1668 48.8831 31.3711 48.6894C31.518 48.5413 31.7526 48.428 31.8116 48.2489C32.0122 47.657 31.8533 47.7301 32.0121 47.1226C32.0899 46.8335 32.1958 46.6104 32.3534 46.371C32.932 45.4989 32.905 44.382 32.8293 43.3692L31.2004 40.0051L28.3182 41.302Z" fill="#009D9A"/>
<path id="Vector_15" d="M55.5566 16.3929C55.379 16.3929 55.2174 16.4679 55.1081 16.6008C54.9142 16.8528 54.9552 17.2217 55.2007 17.4187C56.036 18.0836 57.3647 18.8802 58.9562 18.8927C59.9577 18.8927 60.9078 18.6011 61.6351 18.0703C62.412 17.5125 62.8579 16.7154 62.8579 15.8807C62.8579 15.4543 62.7392 15.0373 62.5266 14.7075C62.2337 14.2302 61.7806 13.8536 61.0927 13.5169C60.5604 13.2649 59.9094 13.0664 59.0474 12.8961C58.1731 12.7405 57.4747 12.4911 57.0455 12.1969C56.827 12.0421 56.6727 11.8905 56.5822 11.7457C56.487 11.5909 56.4463 11.4313 56.4463 11.2146C56.4463 10.9271 56.5609 10.4993 57.1019 10.0951C57.5778 9.74314 58.2409 9.54131 58.9241 9.54131C59.8962 9.54131 60.6537 9.99441 61.477 10.5421C61.7378 10.7171 62.1085 10.634 62.2707 10.3745C62.313 10.3158 62.343 10.2491 62.3589 10.1785C62.3748 10.1079 62.3763 10.0349 62.3633 9.96367C62.3498 9.88587 62.3207 9.8116 62.2779 9.74527C62.235 9.67894 62.1793 9.62192 62.1139 9.5776C61.3442 9.07563 60.3039 8.40164 58.9241 8.40164C57.9909 8.40164 57.1019 8.6705 56.4174 9.16192C55.7047 9.69074 55.2905 10.4403 55.2905 11.2146C55.2905 11.6229 55.4005 12.0138 55.6082 12.3476C55.8938 12.8022 56.3415 13.1749 56.9355 13.4551C57.441 13.6951 58.0483 13.88 58.8408 14.0315C59.7914 14.2026 60.5556 14.4661 61.0181 14.7723C61.2574 14.9338 61.4218 15.1001 61.5397 15.2952C61.6551 15.4822 61.7047 15.6593 61.7047 15.8805C61.7047 16.2062 61.5786 16.6882 60.9692 17.1369C60.4523 17.5177 59.719 17.736 58.9547 17.736C57.7956 17.736 56.6096 17.0832 55.9286 16.524C55.8235 16.4384 55.692 16.3921 55.5566 16.3929ZM70.1396 8.40164C68.7855 8.40164 67.4849 8.96749 66.5785 9.95441C65.6385 10.9526 65.1265 12.2651 65.1265 13.6556C65.1265 15.056 65.6387 16.366 66.5745 17.3481C67.5008 18.3402 68.8014 18.9089 70.1396 18.9089C71.4268 18.9089 72.7259 18.3263 73.6149 17.3507C74.5696 16.3499 75.0879 15.0393 75.0879 13.6556C75.0879 12.2826 74.5642 10.9687 73.6162 9.957C73.1787 9.46785 72.6429 9.0765 72.0438 8.80849C71.4447 8.54048 70.7959 8.40184 70.1396 8.40164ZM70.1396 17.5874C69.1542 17.5874 68.2304 17.1757 67.5384 16.429C66.848 15.7291 66.4537 14.7162 66.4537 13.6556C66.4537 12.5983 66.848 11.5794 67.5384 10.8582C68.2209 10.1253 69.146 9.72185 70.1396 9.72185C71.0915 9.72185 71.9973 10.1253 72.6817 10.8608C73.3734 11.6022 73.7702 12.6219 73.7702 13.6556C73.7702 14.6948 73.3734 15.7063 72.6817 16.4318C71.9858 17.177 71.0808 17.5874 70.1396 17.5874ZM78.8661 8.70068C78.5195 8.70068 78.2393 8.9836 78.2393 9.33226V18.2758C78.2393 18.6306 78.5141 18.9087 78.8661 18.9087H83.8277C84.1641 18.9087 84.4565 18.613 84.4565 18.2758C84.4565 17.9332 84.1643 17.6316 83.8277 17.6316H79.5136V9.33226C79.5136 8.99027 79.2181 8.70068 78.8661 8.70068ZM87.7548 8.70068C87.3915 8.70068 87.1192 8.97157 87.1192 9.33226V18.2758C87.1192 18.6372 87.3913 18.9087 87.7548 18.9087C88.1088 18.9087 88.3957 18.6257 88.3957 18.2758V9.33226C88.3957 8.9836 88.1087 8.70068 87.7548 8.70068ZM92.6029 8.70068C92.2448 8.70068 91.9728 8.97157 91.9728 9.33226V18.2758C91.9728 18.6306 92.2504 18.9087 92.6029 18.9087H94.3942C97.1985 18.9087 99.4824 16.6112 99.4824 13.7882C99.4824 10.9826 97.1983 8.70049 94.3942 8.70049L92.6029 8.70068ZM93.4545 17.6316H93.2506V9.97848H94.3942C96.4939 9.97848 98.202 11.6881 98.202 13.7884C98.202 15.929 96.526 17.617 94.3942 17.6316H93.4545ZM103.439 16.409H107.738L108.538 18.5074C108.623 18.7528 108.851 18.9089 109.115 18.9089C109.199 18.9089 109.28 18.8968 109.328 18.8766C109.664 18.75 109.829 18.3839 109.712 18.0406L106.194 9.11785C106.095 8.87251 105.862 8.7129 105.611 8.7129H105.552C105.302 8.7129 105.066 8.87917 104.967 9.11988L101.447 18.0488C101.331 18.3834 101.501 18.7507 101.829 18.8753C101.901 18.8981 101.966 18.9089 102.046 18.9089C102.176 18.9086 102.303 18.8699 102.41 18.7976C102.518 18.7253 102.602 18.6226 102.651 18.5026L103.439 16.409ZM107.276 15.1445H103.891L105.58 10.7856L107.276 15.1445ZM112.952 8.70068C112.575 8.70068 112.304 8.97157 112.304 9.33226V18.2758C112.304 18.6306 112.581 18.9087 112.936 18.9087C113.293 18.9087 113.581 18.6257 113.581 18.2758V14.7838H115.572C115.742 14.8153 116.179 14.9455 116.537 15.1814C116.785 15.351 116.962 15.5226 117.053 15.6928C117.175 15.8818 117.244 16.1192 117.265 16.4295C117.265 17.2133 117.356 17.7488 117.559 18.1773C117.662 18.3589 117.811 18.5206 117.975 18.6239C118.153 18.7385 118.353 18.7552 118.457 18.7552C118.588 18.7552 118.685 18.7337 118.744 18.7204C119.08 18.605 119.254 18.253 119.14 17.9192C119.11 17.8277 119.058 17.7448 118.989 17.6776C118.92 17.6103 118.836 17.5605 118.743 17.5324L118.63 17.4976L118.606 17.3802C118.55 17.118 118.526 16.8002 118.539 16.4344C118.539 15.7424 118.288 15.2289 118.075 14.9192C117.946 14.7234 117.784 14.5564 117.588 14.409L117.382 14.2554L117.579 14.0904C118.3 13.4925 118.695 12.6637 118.695 11.7573C118.695 10.0727 117.327 8.70031 115.647 8.70031H112.952V8.70068ZM115.647 13.5101H113.581V9.97848H115.647C116.625 9.97848 117.42 10.7763 117.42 11.7577C117.42 12.7237 116.625 13.5101 115.647 13.5101ZM122.724 8.70068C122.366 8.70068 122.096 8.97157 122.096 9.33226V18.2758C122.096 18.6372 122.366 18.9087 122.724 18.9087C123.082 18.9087 123.372 18.6257 123.372 18.2758V9.33226C123.372 8.9836 123.082 8.70068 122.724 8.70068ZM126.759 8.70068C126.4 8.70068 126.13 8.97157 126.13 9.33226C126.13 9.68889 126.412 9.97848 126.759 9.97848H129.358V18.276C129.358 18.4436 129.425 18.6043 129.543 18.7229C129.662 18.8415 129.822 18.9084 129.99 18.9089C130.35 18.9089 130.622 18.6374 130.622 18.276V9.97848H133.233C133.579 9.97848 133.868 9.68278 133.868 9.33226C133.868 8.97749 133.589 8.70068 133.233 8.70068H126.759ZM137.447 18.9089H142.193C142.528 18.9089 142.821 18.6132 142.821 18.276C142.821 17.9334 142.528 17.6318 142.193 17.6318H137.88V14.4385H141.617C141.963 14.4385 142.245 14.1463 142.245 13.7882C142.245 13.4536 141.952 13.1588 141.617 13.1588H137.88V9.97848H142.193C142.528 9.97848 142.821 9.67685 142.821 9.33226C142.821 8.99027 142.534 8.70068 142.193 8.70068H137.278C136.875 8.70068 136.605 8.97157 136.605 9.33226V18.2758C136.605 18.6022 136.839 18.8618 137.149 18.9033L137.447 18.9089ZM141.759 4.6958C141.595 4.6958 141.563 4.73876 141.424 4.9654L141.377 5.04113L140.346 6.59575C140.294 6.67148 140.258 6.76869 140.258 6.81683C140.258 6.87998 140.37 6.93015 140.51 6.93015C140.875 6.93015 141.12 6.8759 141.445 6.57612L142.622 5.39831C142.755 5.27703 142.82 5.17445 142.82 5.08464C142.783 4.97077 142.219 4.6958 141.759 4.6958ZM145.659 16.3929C145.483 16.3929 145.318 16.4686 145.209 16.6008C145.025 16.8487 145.064 17.2261 145.298 17.4192C146.135 18.0836 147.465 18.88 149.056 18.8927C150.063 18.8927 151.018 18.6011 151.743 18.0703C152.516 17.5118 152.961 16.7141 152.961 15.8807C152.961 15.4563 152.844 15.0395 152.631 14.706C152.339 14.2302 151.883 13.8536 151.196 13.5169C150.675 13.2683 150.006 13.0651 149.154 12.8961C148.276 12.7405 147.577 12.4904 147.152 12.1969C146.943 12.0542 146.785 11.9019 146.688 11.7457C146.592 11.5909 146.548 11.4313 146.548 11.2146C146.548 10.9263 146.663 10.4973 147.207 10.0937C147.682 9.74295 148.345 9.54131 149.026 9.54131C149.999 9.54131 150.758 9.99441 151.577 10.5421C151.838 10.7145 152.211 10.634 152.368 10.3764C152.459 10.2497 152.486 10.1083 152.464 9.96478C152.45 9.88651 152.421 9.81177 152.378 9.74497C152.335 9.67817 152.279 9.62069 152.214 9.57594C151.433 9.06915 150.402 8.40145 149.026 8.40145C148.096 8.40145 147.207 8.67031 146.525 9.16173C145.805 9.68944 145.392 10.4382 145.392 11.2144C145.392 11.6174 145.504 12.0095 145.711 12.3482C145.995 12.8007 146.44 13.1729 147.035 13.4551C147.53 13.6904 148.156 13.88 148.938 14.0315C149.891 14.2026 150.654 14.4646 151.126 14.7716C151.363 14.9338 151.53 15.1056 151.641 15.2973C151.756 15.4863 151.807 15.6633 151.807 15.8805C151.807 16.207 151.678 16.6897 151.073 17.1369C150.556 17.5177 149.818 17.736 149.053 17.736C147.909 17.736 146.748 17.1098 146.032 16.524C145.926 16.4387 145.795 16.3924 145.659 16.3929ZM56.7459 27.4073L62.2972 34.6106C62.3243 34.6488 62.3374 34.6608 62.3496 34.6743C62.489 34.8365 62.6674 34.9223 62.8377 34.9223C63.1821 34.9223 63.4671 34.6332 63.4671 34.2934V25.4871C63.4671 25.1586 63.1721 24.869 62.8377 24.869C62.4998 24.869 62.2222 25.1466 62.2222 25.4871V32.3285L56.6292 25.0775C56.4315 24.8067 56.0339 24.7476 55.7456 24.9394C55.5895 25.0568 55.4916 25.264 55.5023 25.461L55.5044 34.2934C55.5044 34.6462 55.7827 34.9223 56.138 34.9223C56.4665 34.9223 56.7461 34.6332 56.7461 34.2934V27.4073H56.7459ZM71.2954 24.4134C69.94 24.4134 68.6433 24.9826 67.7343 25.9734C66.7957 26.9662 66.2808 28.2781 66.2808 29.6705C66.2808 31.0785 66.7957 32.3924 67.7303 33.3658C68.6566 34.3566 69.9566 34.9224 71.2954 34.9224C72.5859 34.9224 73.8845 34.342 74.7694 33.3686C75.7226 32.3711 76.2436 31.0598 76.2436 29.6707C76.2436 28.3005 75.7228 26.9877 74.772 25.9754C73.8984 24.9959 72.6 24.4134 71.2954 24.4134ZM71.2954 33.603C70.3146 33.603 69.3888 33.1919 68.6909 32.4472C68.0004 31.7447 67.6029 30.7309 67.6029 29.6703C67.6029 28.6125 67.9984 27.5933 68.6936 26.8762C69.3887 26.1307 70.2892 25.7351 71.2954 25.7351C72.2486 25.7351 73.1498 26.14 73.8382 26.8788C74.5294 27.6169 74.9242 28.6345 74.9242 29.6703C74.9242 30.7094 74.5279 31.7225 73.8367 32.4477C73.1403 33.1921 72.2373 33.603 71.2954 33.603Z" fill="#183F88"/>
<g id="Group_2">
<path id="Vector_16" d="M79.6033 24.718C79.2447 24.718 78.9658 24.9935 78.9658 25.3476V30.7441C78.9658 33.0483 80.8395 34.9227 83.147 34.9227C85.4504 34.9227 87.3235 33.0483 87.3235 30.7441V25.3476C87.3235 24.9935 87.0487 24.718 86.6934 24.718C86.3342 24.718 86.0472 24.9935 86.0472 25.3476V30.7441C86.0472 32.3471 84.7473 33.651 83.147 33.651C81.5475 33.651 80.2442 32.3471 80.2442 30.7441V25.3476C80.2442 24.9997 79.9574 24.718 79.6033 24.718Z" fill="#183F88"/>
</g>
<g id="Group_3">
<path id="Vector_17" d="M94.5706 34.9105L94.6141 34.9192C94.6289 34.9225 94.6724 34.9225 94.6885 34.9225C94.7274 34.9225 94.7609 34.9225 94.7904 34.9145L94.8487 34.9066C94.8655 34.9005 94.8829 34.8945 94.9029 34.8899L94.9177 34.8784L94.9626 34.873C95.005 34.8436 95.0288 34.8234 95.0585 34.8101C95.0718 34.7994 95.0827 34.7894 95.0981 34.7799C95.1444 34.7175 95.1738 34.6894 95.1925 34.6686L95.2577 34.5594L99.0072 25.6955C99.0689 25.5453 99.065 25.3696 98.9993 25.2128C98.9341 25.0613 98.8169 24.9446 98.6667 24.8876C98.3321 24.7369 97.9683 24.9098 97.8394 25.2155L94.6885 32.6798L91.5496 25.2155C91.4169 24.9065 91.0469 24.7489 90.7451 24.8832C90.5761 24.9482 90.4535 25.0681 90.3872 25.2237C90.3567 25.2978 90.3411 25.3772 90.3413 25.4574C90.3415 25.5376 90.3576 25.6169 90.3885 25.6908L94.0956 34.5199C94.1071 34.534 94.1143 34.5468 94.1251 34.5607H94.1586L94.2069 34.6968L94.2639 34.7645C94.2793 34.7732 94.2902 34.7832 94.3028 34.7927L94.3263 34.8021C94.3565 34.8195 94.3893 34.8423 94.4187 34.8638L94.4215 34.8651H94.5622L94.5706 34.9105Z" fill="#183F88"/>
</g>
<g id="Group_4">
<path id="Vector_18" d="M102.711 34.9223H107.459C107.793 34.9223 108.089 34.6288 108.089 34.2935C108.089 33.9448 107.801 33.6506 107.459 33.6506H103.144V30.4534H106.881C107.227 30.4534 107.514 30.1631 107.514 29.8057C107.514 29.4685 107.217 29.1741 106.881 29.1741H103.144V25.9938H107.459C107.801 25.9938 108.089 25.6981 108.089 25.3468C108.089 25.0056 107.801 24.7173 107.459 24.7173H102.5C102.146 24.7173 101.868 24.9928 101.868 25.3468V34.2931C101.869 34.4461 101.925 34.5936 102.026 34.7084C102.127 34.8231 102.266 34.8971 102.418 34.9168L102.711 34.9223Z" fill="#183F88"/>
</g>
<g id="Group_5">
<path id="Vector_19" d="M111.823 24.718C111.74 24.7177 111.658 24.7337 111.581 24.7652C111.505 24.7966 111.435 24.8429 111.376 24.9014C111.317 24.9599 111.271 25.0295 111.239 25.106C111.207 25.1826 111.191 25.2647 111.191 25.3476V34.2939C111.191 34.6466 111.468 34.9227 111.823 34.9227H116.785C117.116 34.9227 117.409 34.6292 117.409 34.2939C117.409 33.9513 117.116 33.651 116.785 33.651H112.468V25.3476C112.468 25.0061 112.173 24.718 111.823 24.718Z" fill="#183F88"/>
</g>
<g id="Group_6">
<path id="Vector_20" d="M120.359 24.718C120.005 24.718 119.724 24.9997 119.724 25.3476V34.2939C119.724 34.6411 120.005 34.9227 120.359 34.9227H125.313C125.651 34.9227 125.944 34.6292 125.944 34.2939C125.944 33.9452 125.656 33.651 125.313 33.651H121.004V25.3476C121.004 25.0061 120.709 24.718 120.359 24.718Z" fill="#183F88"/>
</g>
<g id="Group_7">
<path id="Vector_21" d="M129.103 34.9223H133.852C134.184 34.9223 134.478 34.6288 134.478 34.2935C134.478 33.9448 134.191 33.6506 133.852 33.6506H129.536V30.4534H133.271C133.618 30.4534 133.9 30.1631 133.9 29.8057C133.9 29.4685 133.607 29.1741 133.271 29.1741H129.536V25.9938H133.852C134.191 25.9938 134.478 25.6981 134.478 25.3468C134.478 25.0056 134.191 24.7173 133.852 24.7173H128.892C128.528 24.7173 128.259 24.9869 128.259 25.3468V34.2931C128.259 34.6116 128.482 34.867 128.787 34.9145L129.103 34.9223Z" fill="#183F88"/>
</g>
<g id="Group_8">
<path id="Vector_22" d="M137.316 32.4078C137.139 32.4078 136.977 32.4842 136.87 32.6157C136.677 32.8677 136.717 33.2392 136.961 33.4389C137.8 34.1007 139.131 34.8943 140.715 34.9064C141.726 34.9064 142.677 34.6142 143.398 34.0857C144.173 33.5262 144.618 32.7288 144.618 31.8977C144.618 31.4768 144.499 31.0578 144.283 30.7178C143.989 30.2453 143.521 29.859 142.85 29.5326C142.319 29.2806 141.651 29.0767 140.809 28.9112C139.952 28.7645 139.235 28.5097 138.812 28.2146C138.592 28.0644 138.432 27.9089 138.342 27.7633C138.244 27.6017 138.207 27.4482 138.207 27.2297C138.207 26.9407 138.32 26.5104 138.865 26.111C139.341 25.7582 140.003 25.5545 140.681 25.5545C141.653 25.5545 142.411 26.0091 143.238 26.5581C143.497 26.7338 143.863 26.6513 144.031 26.3898C144.207 26.1358 144.133 25.7717 143.873 25.5914L143.83 25.564C143.077 25.0785 142.046 24.4136 140.681 24.4136C139.752 24.4136 138.86 24.6871 138.178 25.1805C137.462 25.7129 137.051 26.4611 137.051 27.2299C137.051 27.6369 137.16 28.0283 137.369 28.3648C137.654 28.8178 138.095 29.1906 138.69 29.4696C139.197 29.7083 139.822 29.896 140.596 30.0468C141.538 30.2151 142.301 30.4771 142.778 30.7861C143.014 30.9424 143.175 31.1066 143.298 31.3064C143.415 31.5108 143.463 31.6806 143.463 31.8977C143.463 32.2248 143.336 32.7076 142.726 33.1527C142.214 33.5336 141.48 33.7533 140.713 33.7533C139.569 33.7546 138.405 33.1258 137.691 32.54C137.585 32.4541 137.452 32.4074 137.316 32.4078Z" fill="#183F88"/>
</g>
<g id="Group_9">
<path id="Vector_23" d="M53.9216 56.5227C53.9365 56.528 53.9513 56.5336 53.9666 56.536C54.0431 56.5588 54.1214 56.581 54.1925 56.6245C54.2977 56.679 54.381 56.7601 54.4494 56.8243C54.4747 56.8499 54.5082 56.8826 54.5279 56.8969C55.4094 56.8776 55.864 55.5695 55.9899 54.7946C56.1253 53.9673 56.2654 53.022 56.4063 52.0614C56.9172 48.6188 57.2772 46.3208 57.611 45.7744C57.951 45.2078 58.8929 45.2078 59.6496 45.2078C60.2592 45.2078 60.4829 45.382 60.6291 45.5703H60.9223C61.1006 45.5703 61.5222 45.1259 61.5222 44.8819C61.5222 44.6553 61.3357 43.8561 60.7399 43.8561C60.6882 43.8615 60.4329 43.9326 60.2673 43.9796C59.9146 44.0788 59.7765 44.115 59.6933 44.115C59.5882 44.115 59.525 44.1009 59.4782 44.0914C59.4597 44.0859 59.4405 44.083 59.4211 44.0827C59.3754 44.0848 59.2186 44.1357 59.1101 44.1698C58.8923 44.239 58.7509 44.2812 58.6516 44.2812C58.4477 44.2812 58.1246 44.1646 58.1246 43.8494C58.1246 43.179 58.6999 41.8052 59.2643 40.5497C59.6744 39.6688 60.3462 39.0508 61.3157 38.6571L61.4298 38.6108L61.5224 38.6886C61.6551 38.8001 61.7375 38.9299 61.7972 39.0272C62.253 38.8845 62.4782 38.3214 62.4782 38.0124C62.4782 37.6108 62.1228 37.0027 61.59 37.0027C59.7457 37.0027 58.679 38.8282 58.1133 40.3606C57.7319 41.3796 57.618 41.9884 57.4925 42.6333C57.4101 43.0743 57.3229 43.5302 57.1472 44.1201C57.0546 44.4607 55.7514 44.5553 55.7394 44.5553C55.6629 44.5553 55.5222 44.5386 55.3787 44.5225C55.2674 44.5084 55.1548 44.4929 55.0971 44.4929C54.8015 44.4929 54.1216 44.5519 54.1216 45.0948C54.1216 45.5218 54.426 45.7377 55.0239 45.7377C55.0902 45.7377 55.3163 45.7096 55.4966 45.6855C55.7481 45.6533 55.9044 45.6338 55.9806 45.6338C56.1134 45.6338 56.2769 45.6714 56.4908 45.751L56.622 45.8007V46.1673C56.622 46.8718 55.6977 50.6106 54.8945 53.7884L54.7323 54.4389L54.6627 54.4822C54.3188 54.7042 54.1298 54.8249 53.9139 55.0118C53.7402 55.2256 53.5913 55.5858 53.5913 55.845C53.6046 55.9429 53.8218 56.3418 53.9042 56.4919L53.9216 56.5227Z" fill="#183F88"/>
</g>
<g id="Group_10">
<path id="Vector_24" d="M66.0594 43.5684C65.0466 43.5684 64.1034 44.5458 62.3904 46.3217C62.0617 46.6634 61.7314 47.0034 61.3994 47.342C61.1608 47.5779 59.8804 49.8137 59.8804 50.2312C59.8804 50.9854 60.8164 51.1496 61.1776 51.1496C62.0136 51.1496 63.3544 49.9576 64.9592 47.7936L65.1871 47.4812L65.3117 47.8486C65.4747 48.328 65.5699 48.5805 66.1028 49.558C66.2764 49.8811 67.1111 50.4362 67.3028 50.4375H67.8305C68.1743 50.3986 70.3424 49.4447 70.3424 48.8801C70.3424 48.7757 70.2485 48.4491 70.1076 48.4491C70.0821 48.4491 70.0399 48.4578 69.9991 48.4818C69.8958 48.534 69.8047 48.5939 69.7075 48.6575C69.3777 48.8755 68.9654 49.1449 68.291 49.1449C67.3237 49.1449 66.7223 48.4531 66.7223 47.3375C66.7223 47.1761 66.8321 46.7396 67.0125 46.0423C67.1339 45.5737 67.2982 44.9334 67.2982 44.8047C67.2983 44.1509 66.6071 43.5684 66.0594 43.5684ZM61.7348 49.5369L61.7857 49.1347C61.964 48.0902 63.9543 45.634 64.8144 45.634H65.0196V45.9116C65.0196 46.3078 64.6655 46.8676 63.7573 47.908C62.8704 48.9251 62.5312 49.108 62.1001 49.3386L61.7348 49.5369Z" fill="#183F88"/>
</g>
<g id="Group_11">
<path id="Vector_25" d="M73.4599 43.2468C72.6595 43.2468 71.3174 44.6902 71.0774 45.5965C71.0158 45.8285 70.8736 46.0417 70.7469 46.2302C70.6686 46.3474 70.5847 46.4688 70.5645 46.5453C70.3011 47.4121 70.0229 48.6221 70.0229 49.4159C70.0229 50.1393 70.3923 50.9853 71.4261 50.9853C72.2882 50.9853 73.8838 50.5207 75.0631 49.7451C75.8011 49.2531 75.9526 48.9609 75.9526 48.6706C75.9505 48.6233 75.9447 48.5762 75.9352 48.5299C74.3637 49.3994 73.0754 49.8269 72.0321 49.8269C71.5105 49.8269 71.1954 49.4622 71.1954 48.8535C71.1954 46.7445 72.5349 45.7415 73.5136 45.0096C73.9856 44.657 74.3931 44.3513 74.3931 44.0791C74.3931 43.5103 73.836 43.2468 73.4599 43.2468Z" fill="#183F88"/>
</g>
<g id="Group_12">
<path id="Vector_26" d="M78.4274 45.0535C78.1848 45.8734 77.5814 45.9645 77.1396 46.031C76.6543 46.1039 76.3921 46.1436 76.3921 46.8381C76.3921 47.0942 76.4967 47.2497 76.6121 47.4168C76.7098 47.5623 76.8146 47.7143 76.8146 47.9148C76.8146 48.1602 76.7489 48.35 76.6858 48.5336C76.6202 48.7288 76.5571 48.913 76.5571 49.1847C76.5571 49.8194 76.9257 51.2105 78.0191 51.2118C78.3931 51.175 80.8623 49.6894 80.8623 49.0506C80.8475 48.9347 80.6108 48.5942 80.5008 48.5679C80.3338 48.5685 80.0309 48.7953 79.74 49.0143C79.3258 49.3261 78.8538 49.6794 78.3865 49.6794C78.0728 49.6794 77.8206 49.3563 77.8206 48.958C77.8206 48.6551 78.1565 47.8613 78.4489 47.8158C79.2941 47.6669 81.7927 45.6283 81.7927 44.5188C81.7927 43.8015 81.1263 43.4771 80.5082 43.4771C80.2851 43.5102 79.1516 44.4166 78.4274 45.0535Z" fill="#183F88"/>
</g>
<g id="Group_13">
<path id="Vector_27" d="M93.0687 43.5684C92.0557 43.5684 91.1125 44.5449 89.4008 46.3195C89.0717 46.6618 88.741 47.0026 88.4087 47.3418C88.2136 47.5342 86.8936 49.7887 86.8936 50.2311C86.8936 50.9852 87.8268 51.1495 88.188 51.1495C89.02 51.1495 90.36 49.9574 91.965 47.7934L92.1935 47.4823L92.3201 47.8471C92.4864 48.3298 92.569 48.5711 93.107 49.558C93.2854 49.8818 94.1201 50.4375 94.3106 50.4375H94.8407C95.184 50.3973 97.3502 49.4426 97.3502 48.8801C97.3502 48.7757 97.2541 48.4491 97.1153 48.4491C97.086 48.4491 97.0456 48.4591 97.0103 48.4792C96.9021 48.5355 96.8071 48.5979 96.7053 48.6637C96.3768 48.8783 95.9658 49.1451 95.2986 49.1451C94.3306 49.1451 93.7299 48.4533 93.7299 47.3377C93.7299 47.1762 93.8399 46.7398 94.0195 46.0425C94.1416 45.5739 94.3078 44.9336 94.3078 44.8049C94.3082 44.1509 93.6151 43.5684 93.0687 43.5684ZM88.74 49.5369L88.7896 49.1347C88.9698 48.0902 90.9636 45.634 91.8257 45.634H92.0261V45.9116C92.0261 46.3045 91.6748 46.8648 90.7646 47.908C89.8723 48.9251 89.5351 49.108 89.1066 49.3386L88.74 49.5369Z" fill="#183F88"/>
</g>
<g id="Group_14">
<path id="Vector_28" d="M101.788 47.753H101.913L101.938 47.9253C101.96 48.0635 101.997 48.1968 102.03 48.3162C102.072 48.4682 102.106 48.601 102.106 48.7151C102.106 49.3533 102.399 51.8486 103.224 51.8486C103.451 51.8486 104.297 51.7151 104.297 51.065C104.297 50.8102 104.198 50.7056 104.033 50.5313C103.933 50.4282 103.824 50.3101 103.718 50.1447C103.623 49.9656 103.582 49.8181 103.582 49.6553C103.582 49.5459 103.6 49.4415 103.616 49.3368C103.627 49.2719 103.634 49.2048 103.639 49.1371C103.623 49.1096 103.607 49.0808 103.59 49.0534L103.508 48.9449L103.519 48.8812C103.519 48.2677 103.519 47.6322 103.495 47.1362C103.478 47.0229 103.478 46.8901 103.478 46.7481V46.5329C103.478 45.634 103.37 45.2055 102.752 45.2055C102.482 45.2055 102.025 45.3618 101.965 45.4757C101.414 46.3472 100.391 47.2488 98.746 48.3255L98.5918 48.426L98.3718 48.1525V47.9294C98.3718 47.7974 98.477 47.5152 98.7882 46.7427C99.0328 46.1341 99.3989 45.2144 99.3989 45.0026C99.3989 44.6372 99.0282 44.3269 98.7243 44.3269C98.6056 44.3269 98.1674 44.4395 98.054 44.6045C97.9683 44.7815 96.8809 47.9176 96.8809 49.2504C96.8809 49.8925 97.389 50.3941 98.0359 50.3941C98.8249 50.3941 100.821 48.456 101.45 47.7198L101.595 47.5474L101.788 47.753Z" fill="#183F88"/>
</g>
<g id="Group_15">
<path id="Vector_29" d="M115.351 40.433C112.411 40.445 110.007 42.8034 109.995 45.6875C110.007 48.5837 112.408 50.9408 115.351 50.9408C116.602 50.9408 117.772 50.5473 118.732 49.8011C119.009 49.5833 119.059 49.1643 118.842 48.8679C118.638 48.6231 118.176 48.5542 117.915 48.7459C117.195 49.3237 116.329 49.62 115.351 49.62C114.292 49.62 113.275 49.2117 112.486 48.4698C111.74 47.7417 111.315 46.7281 111.315 45.6877C111.315 44.6506 111.715 43.6885 112.478 42.9069C113.281 42.1587 114.299 41.7512 115.351 41.7512C116.329 41.7512 117.218 42.0561 117.923 42.6335C118.173 42.8251 118.631 42.7683 118.848 42.4966C119.056 42.2111 119.006 41.798 118.725 41.5654C117.776 40.8257 116.609 40.433 115.351 40.433ZM123.594 46.4678H128.767V50.3092C128.767 50.6691 129.038 50.9408 129.399 50.9408C129.763 50.9408 130.046 50.6638 130.046 50.3092V41.3655C130.046 41.0107 129.763 40.732 129.399 40.732C129.038 40.732 128.767 41.0042 128.767 41.3655V45.2076H123.594V41.3655C123.594 41.0107 123.311 40.732 122.946 40.732C122.586 40.732 122.318 41.0042 122.318 41.3655V50.3092C122.318 50.6638 122.594 50.9408 122.946 50.9408C123.311 50.9408 123.594 50.6638 123.594 50.3092V46.4678ZM138.445 40.433C137.094 40.433 135.793 40.9996 134.883 41.9871C133.95 42.9819 133.437 44.2944 133.437 45.6875C133.437 47.0912 133.95 48.4028 134.883 49.3813C135.812 50.3727 137.11 50.9406 138.445 50.9406C139.732 50.9406 141.034 50.3601 141.919 49.3839C142.877 48.377 143.4 47.065 143.4 45.6873C143.4 44.3197 142.877 43.0064 141.923 41.988C141.048 41.0135 139.752 40.433 138.445 40.433ZM138.445 49.6198C137.46 49.6198 136.536 49.2089 135.84 48.46C135.153 47.7562 134.756 46.7439 134.756 45.6873C134.756 44.6362 135.152 43.6178 135.84 42.8931C136.528 42.157 137.453 41.7508 138.445 41.7508C139.395 41.7508 140.301 42.1563 140.991 42.8938C141.679 43.6346 142.075 44.6523 142.075 45.6873C142.075 46.7278 141.679 47.7401 140.991 48.4635C140.294 49.2089 139.389 49.6198 138.445 49.6198ZM138.371 37.805L139.293 38.6027C139.662 38.9097 139.908 38.9648 140.282 38.9648C140.37 38.9648 140.517 38.9367 140.517 38.8643C140.517 38.8395 140.489 38.7758 140.373 38.6177L139.379 37.3667C139.21 37.1508 139.027 37.0088 138.657 37.0088H138.113C137.758 37.0088 137.587 37.1362 137.392 37.3708L136.391 38.6238C136.282 38.776 136.257 38.8397 136.255 38.8652C136.255 38.9623 136.441 38.9652 136.461 38.9652C136.833 38.9652 137.089 38.9089 137.451 38.6019L138.371 37.805ZM154.235 43.3008V50.3092C154.235 50.6638 154.509 50.9408 154.861 50.9408C155.206 50.9408 155.511 50.6458 155.511 50.3092V41.3655C155.511 41.0296 155.214 40.7454 154.851 40.732C154.637 40.732 154.454 40.8265 154.33 40.9983L151.149 45.412L147.966 40.9983C147.842 40.8131 147.627 40.732 147.465 40.732H147.415C147.075 40.732 146.789 41.0216 146.789 41.3655V50.3092C146.789 50.6525 147.075 50.9408 147.415 50.9408C147.773 50.9408 148.066 50.6571 148.066 50.3092V43.2956L150.598 46.8426C150.72 47.0096 150.917 47.1068 151.132 47.1068C151.373 47.1068 151.552 47.0137 151.681 46.8394L154.235 43.3008ZM160.482 48.4374H164.786L165.576 50.5403C165.664 50.7815 165.898 50.9406 166.16 50.9406C166.248 50.9406 166.327 50.9298 166.371 50.9124C166.709 50.7838 166.877 50.4149 166.757 50.0698L163.237 41.1529C163.138 40.9076 162.914 40.748 162.662 40.748L162.616 40.7493C162.486 40.7499 162.359 40.7887 162.251 40.861C162.144 40.9332 162.059 41.0357 162.009 41.1555L158.491 50.079C158.381 50.4142 158.546 50.7836 158.877 50.911C158.938 50.9297 159.007 50.9404 159.092 50.9404C159.355 50.9404 159.588 50.7815 159.694 50.5342L160.482 48.4374ZM164.32 47.1798H160.934L162.625 42.8188L164.32 47.1798ZM174.167 40.433C171.195 40.433 168.776 42.7968 168.776 45.7029C168.776 48.5909 171.195 50.9408 174.167 50.9408C175.372 50.9408 176.521 50.5466 177.483 49.8011C177.587 49.7302 177.652 49.6522 177.695 49.5598V49.5384L177.723 49.4713C177.733 49.4337 177.741 49.4023 177.75 49.3708C177.762 49.3239 177.77 49.2925 177.77 49.2515V45.8968C177.77 45.5375 177.471 45.2546 177.093 45.2546H174.074C173.706 45.2546 173.413 45.5375 173.413 45.8968C173.413 46.2508 173.72 46.5604 174.074 46.5604H176.45V48.9564L176.347 49.014C175.658 49.411 174.903 49.62 174.167 49.62C173.049 49.62 172.028 49.2051 171.291 48.4515C170.523 47.708 170.098 46.7318 170.098 45.7029C170.098 44.6504 170.523 43.6617 171.297 42.9168C172.028 42.1667 173.049 41.751 174.167 41.751C175.065 41.751 175.958 42.0567 176.684 42.6124C176.967 42.8403 177.414 42.7807 177.63 42.5126C177.684 42.4413 177.723 42.3601 177.745 42.2735C177.768 42.187 177.773 42.0969 177.761 42.0084C177.749 41.9223 177.72 41.8395 177.675 41.7647C177.631 41.6899 177.572 41.6246 177.503 41.5725C176.574 40.8372 175.391 40.433 174.167 40.433ZM182.091 50.9406H186.837C187.171 50.9406 187.463 50.6456 187.463 50.309C187.463 49.9639 187.171 49.662 186.837 49.662H182.524V46.4678H186.26C186.603 46.4678 186.89 46.1728 186.89 45.8229C186.89 45.4877 186.597 45.1935 186.26 45.1935H182.524V42.0097H186.837C187.176 42.0097 187.463 41.7152 187.463 41.3655C187.463 41.0216 187.176 40.732 186.837 40.732H181.922C181.518 40.732 181.252 41.0042 181.252 41.3655V50.3092C181.252 50.6364 181.484 50.8978 181.799 50.9367L182.091 50.9406Z" fill="#183F88"/>
</g>
</g>
<defs>
<clipPath id="clip0_699_3007">
<rect width="186.736" height="60" fill="white" transform="translate(0.726562 0.25)"/>
</clipPath>
</defs>
</svg>
