<svg width="156" height="79" viewBox="0 0 156 79" fill="none" xmlns="http://www.w3.org/2000/svg">
<path d="M149.16 20.65L149.1 20.45L149.04 20.25L148.79 20.58C147.88 21.78 146.72 25.71 146.67 27.28L146.69 27.57L146.75 27.94L147.03 27.77C148.65 26.73 149.51 25.22 149.56 23.3C149.58 22.45 149.45 21.56 149.16 20.64V20.65ZM152.18 26.74L152.3 26.54L152.42 26.34L151.97 26.42C150.3 26.69 145.59 29.35 144.87 30.43L144.69 30.7L145.01 30.76C148.9 31.44 150.97 28.79 152.19 26.74H152.18ZM127.48 30.43L127.73 30.41L127.67 30.17C127.4 29.11 123.81 26.04 122.55 25.18L122.17 24.98L122.2 25.19L122.23 25.4C122.6 27.73 123.54 30.78 127.47 30.44L127.48 30.43ZM146.39 25.39L146.42 25.18L146.45 24.97L146.07 25.17C144.81 26.03 141.21 29.1 140.95 30.16L140.89 30.4L141.14 30.42C145.07 30.76 146.01 27.71 146.38 25.38L146.39 25.39ZM137.3 67.01C137.34 64.68 135.94 63.64 133.69 63.64C131.74 63.64 130.18 64.43 129.88 66.52H131.18C131.34 65.14 132.4 64.76 133.68 64.76C135.12 64.76 135.97 65.29 136.09 66.95V67.88C134.61 67.96 132.84 67.76 131.48 68.35C130.26 68.86 129.43 69.91 129.43 71.29C129.43 73.28 130.93 74.43 132.82 74.43C134.2 74.43 135.56 73.62 136 72.77L136.06 72.63H136.1L136.14 74.13H137.4C137.36 73.44 137.28 72.63 137.3 71.84V67.01ZM133.04 73.32C131.8 73.32 130.75 72.67 130.75 71.29C130.75 68.73 134.36 69.06 136.09 69C136.21 71.13 135.7 73.32 133.05 73.32H133.04ZM143.91 63.64C142.59 63.64 141.43 64.23 140.72 65.49L140.68 65.45L140.62 63.95H139.36C139.4 64.64 139.46 65.45 139.46 66.24V74.13H140.68V68.27C140.68 66.44 141.59 64.76 143.6 64.76C145.26 64.76 146.28 65.79 146.28 67.56V74.13H147.5V67.76C147.5 66.58 147.24 63.64 143.91 63.64ZM151.62 71.88V65.06H153.93V63.95H151.62V61.25L150.4 61.78V63.95H148.37V65.06H150.4V71.41C150.4 72.79 150.26 74.43 152.83 74.43C153.24 74.43 153.68 74.35 154.07 74.25V73.2C153.74 73.3 153.38 73.32 153.02 73.32C152.09 73.32 151.6 72.81 151.62 71.88ZM0.03 47.88V48.72H154.09V47.88H0.03ZM149.32 26.45L149.17 26.86L149.59 26.72C152.64 25.74 154.62 22.37 155.04 20.29L155.09 20.04L155.14 19.79L154.71 20.06C152.82 21.26 149.88 24.89 149.31 26.44L149.32 26.45ZM153.37 15.44L153.52 15.26L153.66 15.08C154.91 13.56 154.96 11.51 154.77 10.07C154.64 9.05 154.39 8.28 154.26 7.92L154.16 7.65L154.06 7.39L153.85 7.91C153.25 9.44 152.97 12.87 153.18 14.51L153.37 15.44ZM125.5 61.77V63.94H123.45V65.05H125.5V74.12H126.72V65.05H129.03V63.94H126.72V62.64C126.66 61.18 126.7 60.35 128.36 60.35C128.6 60.35 128.87 60.39 129.11 60.43V59.46C128.74 59.38 128.34 59.24 127.95 59.24C126.21 59.24 125.49 60.03 125.49 61.78L125.5 61.77ZM152.11 12.49L152.44 12.77L152.47 12.3C152.59 10.23 151.56 8.53 149.32 7.1L149.08 6.95L148.84 6.8L149 7.34C149.42 8.82 150.91 11.45 152.12 12.49H152.11ZM150.08 15.66L149.95 16.1C149.83 16.49 149.77 17.07 149.75 17.77C149.7 19.75 150.03 22.25 150.43 23.02L150.6 23.33L150.8 23.03C151.39 22.15 151.71 21.21 151.73 20.23C151.76 18.9 151.28 17.45 150.33 16.04L150.2 15.85L150.07 15.66H150.08ZM116.46 26.73C117.68 28.78 119.76 31.42 123.64 30.75L123.96 30.69L123.78 30.42C123.06 29.34 118.35 26.69 116.68 26.41L116.23 26.33L116.35 26.53L116.47 26.73H116.46ZM152.39 18.35L152.53 17.95C152.67 17.52 152.76 17.12 152.79 16.73C152.95 14.25 151.07 12.25 150.49 11.7L150.32 11.54L150.15 11.38L150.13 11.85C150.07 13.4 151.26 16.74 152.16 18.01L152.4 18.35H152.39ZM152.37 21.06L152.71 20.84C155.65 18.92 155.72 15.29 155.62 13.82L155.6 13.55L155.58 13.28L155.24 13.7C154.04 15.17 152.43 19.28 152.38 20.65L152.36 21.06H152.37ZM152.53 9.34L152.8 9.59L152.89 9.16L152.92 9.01C153.22 6.82 151.27 4.83 150.42 4.08L150.19 3.88L149.96 3.68L150.06 4.28C150.43 6.41 151.32 8.26 152.51 9.35L152.53 9.34ZM113.93 20.06L113.5 19.79L113.55 20.04L113.6 20.29C114.03 22.37 116 25.75 119.05 26.72L119.47 26.86L119.32 26.45C118.75 24.89 115.81 21.26 113.92 20.07L113.93 20.06ZM121.62 27.76L121.89 27.93L121.95 27.56L121.97 27.27C121.92 25.71 120.76 21.78 119.85 20.57L119.6 20.24L119.54 20.44L119.48 20.64C119.2 21.55 119.06 22.45 119.08 23.3C119.14 25.22 119.99 26.72 121.61 27.77L121.62 27.76ZM139.24 32.85C141.03 33.45 144.12 33.16 146.59 32.15L147.17 31.91L146.56 31.75C141.15 30.28 136.93 30.99 134.32 32.08C131.71 30.99 127.49 30.29 122.08 31.75L121.47 31.91L122.05 32.15C124.52 33.16 127.61 33.46 129.41 32.85C130.08 32.62 130.49 32.25 130.99 31.76C131.83 31.85 132.66 32.11 133.46 32.47C132.74 32.87 130.48 34.22 128.96 36.21L128.85 36.35L128.97 36.48C129.09 36.62 129.39 36.85 129.59 36.91L129.72 36.95L129.81 36.84C130.9 35.48 132.5 33.93 134.32 32.89C136.14 33.93 137.74 35.48 138.83 36.84L138.92 36.95L139.05 36.91C139.24 36.84 139.54 36.61 139.67 36.48L139.79 36.35L139.68 36.21C138.15 34.21 135.89 32.86 135.17 32.47C135.97 32.11 136.79 31.85 137.64 31.76C138.14 32.25 138.55 32.62 139.23 32.85H139.24ZM116.91 20.22C116.94 21.2 117.25 22.15 117.84 23.02L118.04 23.31L118.21 23C118.62 22.23 118.95 19.73 118.9 17.75C118.88 17.05 118.81 16.47 118.69 16.08L118.57 15.64L118.44 15.83L118.31 16.02C117.36 17.43 116.88 18.87 116.91 20.21V20.22ZM118.34 11.55L118.17 11.71C117.59 12.26 115.71 14.26 115.87 16.74C115.9 17.12 115.98 17.53 116.13 17.96L116.26 18.36L116.5 18.02C117.4 16.75 118.59 13.42 118.53 11.86L118.51 11.39L118.34 11.55ZM94.32 63.64C91.3 63.64 89.78 66.28 89.78 69.04C89.78 71.8 91.2 74.44 94.24 74.44C96.7 74.44 98.22 73.33 98.85 70.89H97.57C97.27 72.29 96.07 73.33 94.63 73.33C92.14 73.33 91.14 71.5 91.1 69.33H98.97C98.97 66.15 97.73 63.65 94.32 63.65V63.64ZM94.34 64.76C96.45 64.76 97.5 66.24 97.65 68.21H91.14C91.3 66.43 92.36 64.76 94.35 64.76H94.34ZM4.85 63.64C3.49 63.64 2.07 64.29 1.36 65.49L1.32 65.45L1.26 63.95H0C0.04 64.64 0.12 65.45 0.1 66.24V78.03H1.32V72.55H1.36C2.19 73.77 3.43 74.44 4.91 74.44C7.87 74.44 9.03 71.56 9.03 69C9.03 66.44 7.87 63.65 4.85 63.65V63.64ZM4.79 73.32C2.13 73.32 1.32 71.11 1.32 68.8C1.32 66.73 2.23 64.76 4.61 64.76C6.99 64.76 7.72 66.91 7.72 68.86C7.72 70.81 7.13 73.32 4.8 73.32H4.79ZM88.09 63.95H86.87V69.81C86.87 71.64 85.96 73.32 83.95 73.32C82.29 73.32 81.27 72.29 81.27 70.52V63.95H80.05V70.32C80.05 71.5 80.31 74.44 83.64 74.44C84.96 74.44 86.12 73.85 86.83 72.59L86.87 72.63L86.93 74.13H88.19C88.15 73.44 88.09 72.63 88.09 71.84V63.95ZM7.36 33.44C10.44 33.44 13.25 32.3 14.92 29.53H15.01V32.78H19.1V10.73H14.93V22.06C14.93 22.59 14.88 25.18 14.09 27.24C13.21 29.52 10.89 30.4 9.17 30.4C5.17 30.4 4.29 27.59 4.29 23.77V10.73H0.11V25.49C0.11 29.93 2.75 33.44 7.36 33.44ZM27.51 20.79C27.51 16.49 28.65 15.52 29.27 14.91C31.03 13.15 33.31 13.29 33.31 13.29C36.82 13.29 38.36 15.26 38.36 18.91V32.79H42.53V17.55C42.53 10.48 35.72 10.08 34.18 10.08C31.98 10.08 28.91 11.22 27.5 13.99H27.41V10.74H23.32V32.79H27.49V20.8L27.51 20.79ZM46.42 32.76H50.59V10.71H46.42V32.76ZM14.86 63.64C11.61 63.64 10.11 66.36 10.11 69.04C10.11 71.72 11.61 74.44 14.86 74.44C18.11 74.44 19.61 71.72 19.61 69.04C19.61 66.36 18.11 63.64 14.86 63.64ZM14.86 73.32C12.4 73.32 11.43 70.93 11.43 69.04C11.43 67.15 12.4 64.76 14.86 64.76C17.32 64.76 18.29 67.15 18.29 69.04C18.29 70.93 17.32 73.32 14.86 73.32ZM54.53 63.64C53.21 63.64 52.05 64.23 51.34 65.49H51.3V59.48H50.08V74.13H51.3V68.27C51.3 66.44 52.21 64.76 54.22 64.76C55.88 64.76 56.9 65.79 56.9 67.56V74.13H58.12V67.76C58.12 66.58 57.86 63.64 54.53 63.64ZM29.22 63.94H28V69.8C28 71.63 27.09 73.31 25.08 73.31C23.42 73.31 22.4 72.28 22.4 70.51V63.94H21.18V70.31C21.18 71.49 21.44 74.43 24.77 74.43C26.09 74.43 27.24 73.84 27.96 72.58L28 72.62L28.06 74.12H29.32C29.28 73.43 29.22 72.62 29.22 71.83V63.94ZM76.73 65.44V65.5H76.69V65.44C75.98 64.28 74.56 63.63 73.2 63.63C70.18 63.63 69.02 66.35 69.02 68.99C69.02 71.63 70.18 74.43 73.14 74.43C74.62 74.43 75.86 73.76 76.69 72.54H76.73V78H77.95V66.23C77.95 65.44 78.01 64.63 78.05 63.94H76.79L76.73 65.44ZM73.26 73.31C70.93 73.31 70.34 70.73 70.34 68.85C70.34 66.97 71.13 64.75 73.44 64.75C75.75 64.75 76.73 66.72 76.73 68.79C76.73 71.1 75.92 73.31 73.26 73.31ZM44.47 64.75C46.15 64.75 47.15 65.5 47.25 67.06H48.57C48.47 64.89 46.76 63.63 44.67 63.63C41.65 63.63 40.13 66.27 40.13 69.03C40.13 71.79 41.55 74.43 44.59 74.43C46.9 74.43 48.24 73.27 48.57 70.94H47.25C47.15 72.34 46.05 73.31 44.47 73.31C42.6 73.31 41.45 71.34 41.45 69.01C41.45 66.68 42.61 64.75 44.47 64.75ZM35.01 63.63C34 63.67 33.08 64.4 32.72 65.44H32.68L32.62 63.94H31.36C31.4 64.63 31.48 65.44 31.46 66.23V74.12H32.68V67.99C32.72 66.04 33.67 64.74 35.48 64.74C35.72 64.74 35.99 64.8 36.23 64.82V63.64C35.83 63.62 35.42 63.6 35.01 63.62V63.63ZM115.93 20.85L116.28 21.08L116.26 20.67C116.21 19.29 114.6 15.19 113.4 13.72L113.06 13.3L113.04 13.57L113.02 13.84C112.92 15.31 112.99 18.93 115.93 20.85ZM116.18 12.31L116.2 12.78L116.53 12.5C117.76 11.48 119.29 8.89 119.75 7.41L119.91 6.87L119.67 7.02L119.43 7.17C117.16 8.56 116.1 10.24 116.18 12.31ZM115.74 9.17L115.84 9.6L116.11 9.35C117.3 8.26 118.2 6.41 118.56 4.28L118.66 3.68L118.43 3.88L118.2 4.08C117.35 4.84 115.4 6.83 115.7 9.01L115.73 9.16L115.74 9.17ZM108.19 63.64C105.17 63.64 103.65 66.28 103.65 69.04C103.65 71.8 105.07 74.44 108.11 74.44C110.57 74.44 112.09 73.33 112.71 70.89H111.43C111.13 72.29 109.93 73.33 108.49 73.33C106 73.33 105 71.5 104.96 69.33H112.83C112.83 66.15 111.59 63.65 108.18 63.65L108.19 63.64ZM108.21 64.76C110.32 64.76 111.37 66.24 111.52 68.21H105.01C105.17 66.43 106.23 64.76 108.22 64.76H108.21ZM134.29 29.09C142.3 29.09 148.82 22.57 148.82 14.56C148.82 6.55 142.3 0.02 134.29 0.02C126.28 0.02 119.76 6.54 119.76 14.55C119.76 22.56 126.28 29.08 134.29 29.08V29.09ZM145.62 6.45C144.88 6.95 144.09 7.41 143.28 7.8C142.8 6.84 142.22 5.93 141.55 5.09C142.15 4.73 142.72 4.32 143.24 3.88C144.14 4.64 144.94 5.5 145.62 6.45ZM142.76 3.5C142.26 3.91 141.72 4.29 141.16 4.63C140.45 3.81 139.64 3.07 138.77 2.42C139.03 2.18 139.28 1.91 139.51 1.63C140.67 2.1 141.76 2.73 142.77 3.5H142.76ZM140.63 4.93C139.85 5.35 139.03 5.69 138.18 5.95C137.83 5.14 137.42 4.35 136.97 3.58C137.44 3.37 137.88 3.12 138.3 2.8C139.15 3.42 139.94 4.13 140.63 4.92V4.93ZM138.91 1.41C138.71 1.64 138.5 1.86 138.27 2.07C137.5 1.54 136.69 1.09 135.84 0.72C136.9 0.83 137.93 1.06 138.92 1.41H138.91ZM137.77 2.45C137.42 2.7 137.05 2.91 136.65 3.07C136.23 2.4 135.75 1.75 135.25 1.12C136.13 1.48 136.98 1.93 137.77 2.45ZM134.58 1.22C135.12 1.87 135.62 2.55 136.08 3.28C135.59 3.43 135.09 3.52 134.58 3.54V1.21V1.22ZM134.58 4.14C135.2 4.11 135.82 4 136.41 3.8C136.85 4.54 137.25 5.31 137.6 6.11C136.61 6.36 135.6 6.5 134.58 6.53V4.14ZM133.98 1.25V3.53C133.48 3.5 132.98 3.41 132.5 3.27C132.95 2.57 133.44 1.89 133.98 1.24V1.25ZM131.93 3.07C131.53 2.9 131.16 2.69 130.81 2.45C131.6 1.93 132.44 1.49 133.32 1.13C132.83 1.75 132.35 2.4 131.93 3.08V3.07ZM132.77 0.71C131.91 1.09 131.09 1.54 130.32 2.06C130.08 1.85 129.87 1.63 129.67 1.4C130.67 1.05 131.71 0.82 132.77 0.7V0.71ZM129.08 1.62C129.3 1.9 129.55 2.16 129.82 2.41C129.24 2.83 127.97 3.97 127.97 3.97C127.97 3.97 128.14 4 128.3 4.04C128.41 4.07 128.65 4.14 128.65 4.14C128.65 4.14 129.76 3.19 130.29 2.81C130.7 3.12 131.14 3.38 131.62 3.59C131.37 4.02 130.73 5.21 130.73 5.21C130.73 5.21 130.88 5.3 131.01 5.38C131.14 5.47 131.23 5.55 131.23 5.55C131.23 5.55 131.92 4.24 132.18 3.81C132.76 4 133.37 4.12 133.99 4.14V6.53C133.65 6.53 132.77 6.49 132.41 6.45L132.19 6.43L132.31 6.62C132.4 6.76 132.48 6.89 132.54 7.02L132.57 7.07H132.63C132.89 7.1 133.69 7.12 133.99 7.13V11.49H134.59V10.49C135.48 10.45 136.21 10.39 137.1 10.31H137.14L137.92 9.61L137.49 9.65C136.55 9.77 135.72 9.83 134.97 9.87L134.58 9.89V7.12C135.67 7.1 136.77 6.95 137.84 6.66C138.13 7.38 138.68 9.12 138.68 9.12L139.25 8.94C139.25 8.94 138.7 7.21 138.41 6.49C139.32 6.21 140.19 5.83 141.02 5.38C141.69 6.2 142.26 7.1 142.74 8.05C142.31 8.25 141.53 8.53 141.53 8.53C142.16 8.6 142.63 8.75 142.63 8.75C142.63 8.75 142.85 8.66 142.99 8.59C143.04 8.71 143.15 8.97 143.15 8.97L143.93 9.32L143.84 9.1C143.84 9.1 143.58 8.48 143.52 8.34C144.35 7.93 145.16 7.46 145.94 6.94C147.42 9.21 148.21 11.84 148.21 14.56C148.21 19.08 146.05 23.1 142.71 25.65C140.77 24.59 140.74 23.12 140.84 22.58C140.94 22.03 141.32 22.27 141.56 22.27C142.83 22.27 144.17 21.89 145.81 20.21C147.67 18.31 148.25 14.1 145.4 11.36C142.32 8.4 139.05 8.92 136.94 11.58C136.51 12.13 135.45 12.53 134.54 12.49C133.19 12.44 134.04 13.5 134.04 13.72C134.04 13.94 133.83 14.1 133.71 14.06C133.25 13.93 133.43 14.61 133.43 14.81C133.43 15.01 133.24 15.12 133.14 15.12C132.57 15.12 132.73 15.63 132.74 15.77C132.76 15.91 132.71 16.14 132.52 16.25C132.34 16.35 132.13 16.8 132.13 17.14C132.13 17.76 132.7 18.19 133.64 18.89C134.58 19.59 134.7 20.26 134.72 20.74C134.74 21.22 134.78 21.99 135 22.51C135.25 23.13 135.22 24.26 133.92 24.31C132.33 24.38 129.5 25.65 129.26 25.74C128.36 26.06 127.17 26.17 126.24 25.94C125.74 25.59 125.26 25.2 124.81 24.78C124.62 24.14 124.95 23.45 125.27 22.99C125.8 23.52 126.59 23.49 127.03 23.5C127.48 23.52 129.65 23.18 129.96 23.07C130.27 22.97 130.41 23 130.6 23.07C131.43 23.37 132.57 23.46 133.03 21.87C133.5 20.28 132.4 20.72 132.26 20.79C132.12 20.86 131.93 20.84 132 20.71C132.2 20.3 131.9 20.35 131.73 20.33C131.29 20.29 130.7 20.76 130.51 20.93C130.32 21.1 130.13 21.08 130.06 21.05C129.47 20.76 127.71 21.18 127.16 20.23C127.21 19.97 126.71 16.1 126.46 15.43C126.41 15.29 126.36 15.05 126.53 14.8C126.98 14.13 128.21 14.85 128.88 14.83C129.68 14.81 129.81 14.47 130.03 14.2C130.24 13.94 130.4 14.08 130.51 14.01C130.66 13.92 130.51 13.73 130.57 13.62C130.62 13.52 130.68 13.57 130.82 13.45C130.96 13.33 130.8 13.07 130.87 12.97C131.07 12.67 131.61 12.91 131.28 12.13C131.1 11.7 131.35 11.24 131.59 10.93C131.98 10.43 133.48 8.32 130.83 6.13C128.31 4.04 125.75 4.21 124.11 5.99C122.46 7.77 123.29 10.38 123.46 11.07C123.63 11.76 123.14 12.38 122.57 12.65C122.12 12.86 121.09 13.55 120.31 14.22C120.43 8.62 123.83 3.7 129.04 1.6L129.08 1.62ZM50.98 5.57V1.05H46.02V5.57H50.98ZM115.13 15.26L115.28 15.45L115.46 14.52C115.67 12.88 115.39 9.45 114.79 7.92L114.58 7.4L114.49 7.66L114.39 7.93C114.25 8.29 114.01 9.06 113.88 10.08C113.7 11.52 113.74 13.56 114.99 15.09L115.13 15.27V15.26ZM84.07 33.34C89.3 33.34 93.14 30.86 93.8 25.87H89.43C88.95 29.06 87.34 30.33 84.11 30.33C79.88 30.33 78.31 26.36 78.62 22.51H94.06V20.47C94.06 14.4 90.96 10.26 84.42 10.12C77.48 10.12 74.25 15.48 74.25 21.9C74.25 28.32 77.05 33.33 84.07 33.33V33.34ZM84.11 13.14C88.12 13.14 89.79 15.98 89.7 19.64H78.62C78.62 16.05 80.66 13.14 84.11 13.14ZM119 63.65C117.68 63.65 116.52 64.24 115.81 65.5L115.77 65.46L115.71 63.96H114.45C114.49 64.65 114.55 65.46 114.55 66.25V74.14H115.77V68.28C115.77 66.45 116.68 64.77 118.69 64.77C120.35 64.77 121.37 65.8 121.37 67.57V74.14H122.59V67.77C122.59 66.59 122.33 63.65 119 63.65ZM63.52 33.34C68.37 33.34 72.03 30.33 72.38 25.4H68.23C68.01 28.55 66.31 30.33 63.57 30.33C59.6 30.33 58.07 26.88 58.07 21.73C58.07 16.58 59.6 13.14 63.57 13.14C66.54 13.14 67.84 15.06 68.06 17.81H72.2C71.99 13.06 68.5 10.13 63.87 10.13C56.93 10.13 53.7 15.49 53.7 21.92C53.7 28.35 56.49 33.35 63.52 33.35V33.34ZM67.46 67.01C67.5 64.68 66.1 63.64 63.85 63.64C61.9 63.64 60.34 64.43 60.04 66.52H61.34C61.5 65.14 62.56 64.76 63.84 64.76C65.28 64.76 66.13 65.29 66.25 66.95V67.88C64.77 67.96 63 67.76 61.64 68.35C60.42 68.86 59.59 69.91 59.59 71.29C59.59 73.28 61.09 74.43 62.98 74.43C64.36 74.43 65.72 73.62 66.16 72.77L66.22 72.63H66.26L66.3 74.13H67.56C67.52 73.44 67.44 72.63 67.46 71.84V67.01ZM63.2 73.32C61.96 73.32 60.91 72.67 60.91 71.29C60.91 68.73 64.52 69.06 66.25 69C66.37 71.13 65.86 73.32 63.21 73.32H63.2ZM98.76 32.68H102.91V13.66H107.97V10.77H102.91V6.76C102.78 4.36 104.14 3.75 106.49 3.75C107.19 3.75 107.89 3.85 108.59 3.88V0.43C107.58 0.26 106.62 0 105.62 0C102.52 0 98.9 1.26 98.77 6.07V10.78H95V13.67H98.77V32.7L98.76 32.68Z" fill="#1CABE2"/>
</svg>
