<?xml version="1.0" encoding="UTF-8" standalone="no"?>
<svg id="svg2" xmlns:rdf="http://www.w3.org/1999/02/22-rdf-syntax-ns#" xmlns="http://www.w3.org/2000/svg" height="100" width="90" version="1.1" xmlns:cc="http://creativecommons.org/ns#" viewBox="0 0 90 100" xmlns:dc="http://purl.org/dc/elements/1.1/">
 <metadata id="metadata30">
  <rdf:RDF>
   <cc:Work rdf:about="">
    <dc:format>image/svg+xml</dc:format>
    <dc:type rdf:resource="http://purl.org/dc/dcmitype/StillImage"/>
    <dc:title/>
   </cc:Work>
  </rdf:RDF>
 </metadata>
 <path id="circle" fill="#61a533" d="m75.808 30.951a30.808 30.808 0 1 1 -30.808 -30.805 30.808 30.808 0 0 1 30.808 30.805m-43.079-6.9068h5.6223a0.32765 0.32765 0 0 0 0.31606 -0.31606 6.4023 6.4023 0 0 1 12.665 0 0.34795 0.34795 0 0 0 0.33345 0.31606h5.602a0.31316 0.31316 0 0 0 0.31606 -0.31316 12.619 12.619 0 0 0 -25.168 0 0.31316 0.31316 0 0 0 0.31316 0.31316m18.323 11.694a12.613 12.613 0 0 0 6.5299 -10.117 0.31316 0.31316 0 0 0 -0.31606 -0.31316h-5.6339a0.32765 0.32765 0 0 0 -0.31606 0.31316 6.4023 6.4023 0 0 1 -12.665 0 0.31606 0.31606 0 0 0 -0.31606 -0.31316h-5.6136a0.31606 0.31606 0 0 0 -0.31606 0.31316 12.613 12.613 0 0 0 6.5299 10.117 12.616 12.616 0 0 0 -6.5589 10.755 0.31316 0.31316 0 0 0 0.31316 0.31606h5.6049a0.31606 0.31606 0 0 0 0.28996 -0.31606 6.4023 6.4023 0 0 1 12.79 0 0.31606 0.31606 0 0 0 0.31606 0.31606h5.5904a0.31606 0.31606 0 0 0 0.31606 -0.31606 12.619 12.619 0 0 0 -6.5444 -10.755"/>
 <path id="oxfam" fill="#61a533" d="m75.808 75.451h-4.9902v23.962h4.7611v-13.631l3.062 6.3733h3.0388l3.0591-6.353v13.611h4.7611v-23.962h-5.0569l-4.2885 9.2178zm-45.837 0-3.3925 6.9764-3.3954-6.9764h-5.6252l6.2022 11.964-6.237 11.996h5.6919l3.3635-6.959 3.3635 6.959h5.6919l-6.237-11.996 6.2022-11.964zm29.692 7.4809 1.9456 7.5389h-3.9289zm4.2537 16.481h4.8597l-6.353-23.962h-5.6832l-6.2486 23.962h4.88l1.1134-4.245h6.3414zm-13.695-9.444v-4.8423h-7.2432v-4.8046h8.432v-4.8713h-13.327v23.959h4.8626v-9.4411zm-38.823 2.5139c0 1.8528-1.8992 2.4791-3.0127 2.4791-1.1134 0-3.0156-0.62631-3.0156-2.4791v-10.099c0-1.8528 1.9021-2.4791 3.0156-2.4791 1.1134 0 3.0127 0.62631 3.0127 2.4791zm-3.0121-17.47c-5.3845 0.0145-7.8869 3.7898-7.8869 6.9967v10.844c0 3.2098 2.5023 6.9851 7.8869 6.9996 5.3845 0.0145 7.884-3.7898 7.884-6.9996v-10.844c0-3.2069-2.4994-6.9822-7.884-6.9967"/>
</svg>
