<svg width="91" height="100" viewBox="0 0 91 100" fill="none" xmlns="http://www.w3.org/2000/svg">
<g clip-path="url(#clip0_839_3531)">
<path d="M48.2558 53.7677C52.82 48.7169 56.8422 43.6283 60.5946 38.3896C64.4915 32.9485 67.1109 24.6914 66.9254 19.5306C66.4235 5.49908 57.051 2.36099 48.0679 1.6929C40.6178 1.13884 26.7967 2.97448 25.2702 21.9732C24.4182 32.5848 30.1981 43.768 38.8616 53.5894C33.2784 59.0875 26.3189 65.1694 17.2676 71.9306C18.8342 73.9509 20.4137 75.3473 22.6573 76.9517C30.896 70.7204 37.7406 64.6779 43.6747 58.6314C50.8238 65.5709 59.2175 71.5604 67.2907 75.7897C69.2476 75.0558 71.6076 72.7424 72.1312 70.6626C61.7244 64.543 53.994 58.9534 48.2558 53.7677ZM32.1342 22.8726C31.8684 14.4034 38.3212 7.08257 46.9164 7.75869C54.63 8.36575 60.218 11.4027 60.0791 20.3946C59.9972 25.6855 56.8438 32.9092 52.7967 38.005C50.1388 41.3518 47.1083 44.9894 43.3857 48.9586C34.3793 39.1565 32.3823 30.7853 32.1342 22.8726Z" fill="#E2001A"/>
<path d="M20.1701 78.5594C20.2568 78.9127 20.0673 79.2243 19.7694 79.368C19.2113 79.5078 18.809 79.1681 18.5568 78.7385C18.8226 78.2792 18.0518 77.8423 18.7046 77.5364C19.3526 77.5284 19.9011 78.0182 20.1701 78.5594Z" fill="black"/>
<path d="M61.9831 80.3652C62.1396 80.9972 61.6265 80.7121 61.3615 81.0413C60.8428 81.0702 60.4959 80.7121 60.1506 80.3371C60.1378 80.0039 59.884 79.6112 60.1667 79.3374C60.4076 79.2298 60.7417 79.2354 60.9809 79.3502C61.3463 79.6152 61.7108 79.991 61.9831 80.3652Z" fill="black"/>
<path d="M31.9096 74.9101C32.1064 78.9676 31.354 83.2893 33.074 87.0561C33.5686 87.3412 33.6449 88.4348 34.3363 88.0189C33.6851 85.8428 34.5531 83.5976 36.3157 82.1803C37.2495 81.6391 38.6837 81.069 39.6898 81.8993C40.2439 81.9635 40.8694 82.2695 41.0083 82.8637C41.4299 84.334 40.6253 86.0427 41.3448 87.3869C41.7431 88.0414 42.5573 88.0165 43.2985 88.0285C43.451 87.7162 43.3105 87.2143 43.1676 86.8786C43.178 85.0454 44.0766 83.1889 45.6657 82.1956C46.2992 81.9274 47.1528 81.811 47.6812 82.3562C48.0096 82.6758 48.1509 83.1231 48.0714 83.5109C47.5607 84.187 46.7746 83.527 46.3177 84.2978C45.3959 85.2654 44.8049 86.4033 45.0426 87.778C45.7452 89.0291 47.0533 88.2718 48.0722 88.2317C49.6196 87.5154 50.9197 86.0724 52.4148 85.2068C51.5588 81.8977 51.6167 78.1582 51.448 74.6748C51.289 74.1536 52.0487 74.1472 52.3988 74.2821C53.3118 75.0369 53.3302 76.296 53.3495 77.4628C53.7719 77.6547 54.3685 77.4234 54.9041 77.4869C55.8508 77.3343 57.1541 76.8557 57.9218 77.5342C58.1771 77.7968 58.54 78.228 58.3859 78.6335C58.0422 79.2944 57.2705 78.9306 56.7662 79.2005C55.7039 79.6469 54.3757 79.349 53.3856 79.8894C53.4579 82.3715 53.8289 84.7467 54.6841 86.9084C54.5829 87.4616 54.8921 87.8374 55.2012 88.2124C56.3551 87.8222 56.9477 86.592 57.407 85.6172C57.501 84.3781 58.0173 83.331 58.3305 82.1876C58.5031 81.8013 58.8894 81.9748 59.2049 81.9419C60.2135 82.6051 60.2882 83.755 60.3813 84.8479C60.8294 85.8372 60.6591 87.297 61.9487 87.7057C62.7662 87.5516 63.566 87.305 64.2405 86.7968C64.0309 84.7387 65.0395 82.9946 66.5427 81.648C67.1039 81.2119 67.8475 81.057 68.4321 81.5476C70.6203 81.3228 72.6936 80.1697 74.8544 80.4989C75.3314 80.8217 75.6751 81.326 75.9826 81.7941C76.3913 81.7074 76.6756 81.2866 77.0667 81.1445C77.5324 80.9662 78.0375 80.6587 78.5538 80.7591C78.9818 80.6001 79.7029 80.7398 79.9542 81.2441C81.6325 82.8067 79.8314 85.5385 81.6236 86.9919C83.6375 87.3187 84.8131 85.5417 86.6311 85.3289C86.9378 85.8516 86.6865 86.4956 86.4552 87.0666C85.2516 88.3072 83.6978 89.3936 81.9802 89.0893C80.6167 88.6428 79.2291 87.3982 79.0677 85.8781C78.8774 84.9868 79.1006 83.7494 78.8565 82.7826C77.2618 82.8878 76.458 84.6158 76.0485 85.9608C75.7192 86.8819 76.454 88.467 75.3186 88.8572C74.5405 88.8821 74.3855 88.0831 74.0611 87.5596C74.3606 86.1022 74.1494 84.2095 74.3389 82.7135C74.2939 82.027 73.674 82.61 73.2701 82.418C72.5442 82.6846 71.7107 82.6533 71.0378 83.0693C71.1583 83.645 71.5589 84.0955 71.8287 84.6182C72.0761 85.3626 72.3419 86.1078 72.5908 86.8522C72.5731 87.9627 72.3708 89.0516 71.4714 89.7421C70.234 90.778 68.3253 90.8222 66.892 90.134C66.138 89.808 65.4626 89.1857 64.8981 88.5481C64.0205 89.0524 63.2143 89.6883 62.1238 89.5976C60.6094 89.3141 59.5783 87.7435 59.0058 86.4386C58.2992 87.8166 57.4223 89.4691 55.8572 90.093C55.2984 90.2689 54.7459 90.0569 54.3075 89.7357C53.6522 89.0034 53.4443 88.1113 52.9938 87.2898C52.6621 87.1734 52.7296 87.5813 52.524 87.6897C52.1884 87.8326 51.9242 88.1996 51.4986 88.1554C50.4226 89.4723 48.8391 90.1693 47.2235 90.4407C46.2045 90.4616 45.155 90.1316 44.3504 89.4514C43.4438 89.4009 42.7083 90.2785 41.7905 89.7453C41.1834 89.4771 40.6165 89.0243 40.1797 88.5176C39.2201 89.502 38.1842 90.6343 36.5991 90.1476C36.0458 90.0272 35.6676 89.3551 35.0533 89.5679C34.6615 89.7461 34.2303 90.0553 33.771 89.8248C32.165 89.5229 31.6198 87.7178 30.8601 86.5398C30.49 86.4972 30.8754 86.7446 30.6506 86.8883C30.1655 88.3441 29.0124 89.808 27.5052 90.3395C26.0574 90.5764 24.9967 89.7269 24.2154 88.7336C24.0355 88.3979 23.6629 88.5955 23.4196 88.7215C22.7443 89.3029 21.7245 89.343 20.9159 89.0162C19.8302 88.5352 18.9783 87.3564 18.6057 86.2949C17.9882 86.7486 17.3875 87.2207 16.77 87.6736C16.0224 88.1064 15.258 88.4838 14.4036 88.5818C11.6895 90.5395 7.60469 90.0505 4.35338 89.5743C3.7672 89.1768 3.59134 88.5256 3.69332 87.9531C4.51317 87.6142 5.34347 87.7941 6.11595 88.1201C8.35549 88.1739 10.9829 88.3441 12.8723 87.077C13.1726 86.7855 13.3268 86.4354 13.3517 86.0106C11.8967 83.1182 8.37075 83.6 6.21713 81.5853C5.81322 81.3757 5.35712 80.9421 5.36435 80.425C4.50354 79.8557 5.40207 79.2398 5.66948 78.6881C7.02333 77.3022 8.94007 76.7393 10.811 76.6758C11.4767 76.7232 12.1793 76.8083 12.5391 77.4435C12.5166 77.7944 12.9333 78.3196 12.3391 78.4585C10.7315 78.2296 9.04044 78.6303 7.67696 79.3867C7.41358 79.6413 6.87076 80.0588 7.17911 80.4523C8.91517 81.9234 11.4735 81.7218 13.1309 83.5069C13.1871 83.5085 13.2056 83.5085 13.261 83.5085C13.8953 84.3701 14.8316 84.9402 15.0372 85.9624C15.6772 86.4908 16.1935 85.406 16.807 85.2494C17.9874 84.3597 18.3608 82.9954 18.4748 81.5717C18.519 81.183 18.9823 81.0979 19.2946 81.2513C21.3519 82.3385 19.7186 84.9796 20.5425 86.7325C20.6316 86.9927 20.887 87.2561 21.1447 87.3348C22.0128 87.5146 22.5925 87.1525 23.3738 86.906C23.679 86.3366 23.3763 85.5168 23.6822 84.9483C24.2073 83.2901 25.6616 81.4424 27.5703 81.3051C28.2552 81.3709 28.8045 81.7122 29.3738 82.0736C29.4485 82.019 29.5047 81.9459 29.5802 81.8913C29.548 79.1314 30.3816 76.7192 29.9809 73.936C30.2258 73.6799 30.6353 73.5201 30.9846 73.6919C31.4054 73.9947 31.6005 74.5158 31.9096 74.9101ZM68.147 83.2286C66.6896 84.0942 66.1845 85.6054 66.0673 87.1584C66.2777 87.9397 67.1955 88.4352 67.9897 88.5958C68.934 88.6102 69.8984 88.4954 70.4299 87.633C70.9993 86.7722 70.5721 85.6175 70.3456 84.7438C69.9329 83.8854 69.0914 83.243 68.147 83.2286ZM38.984 83.2406C38.3528 83.3049 37.7016 83.5353 37.2865 84.0284C36.4008 85.0337 35.4556 86.2775 36.0812 87.7133C36.2426 88.0682 36.5533 88.3501 36.9613 88.3196C38.9358 87.535 38.878 85.2754 39.1101 83.4462C39.0001 83.4077 39.1125 83.28 38.984 83.2406ZM26.9231 83.6646C26.8942 84.368 25.9868 84.3359 25.8286 84.9815C25.4809 85.9202 24.5912 87.2211 25.5764 88.1437C25.8872 88.3894 26.2919 88.5436 26.646 88.4376C28.366 87.3351 29.434 85.3517 29.0936 83.4213C28.4496 83.0969 27.4514 83.0808 26.9231 83.6646Z" fill="black"/>
<path d="M2.91818 95.9831H5.06377V96.3774H2.91818V97.9303H5.15933V98.3535H2.43799V94.1193H5.15933V94.5433H2.91818V95.9831Z" fill="black"/>
<path d="M9.85269 98.3533H9.06817L6.69211 94.515H6.68007V98.3533H6.20068V94.1199H6.99083L9.36206 97.9871H9.3733V94.1199H9.85269V98.3533Z" fill="black"/>
<mask id="mask0_839_3531" style="mask-type:luminance" maskUnits="userSpaceOnUse" x="-312" y="-545" width="479" height="677">
<path d="M-311.676 131.355H166.326V-544.675H-311.676V131.355Z" fill="white"/>
</mask>
<g mask="url(#mask0_839_3531)">
<path d="M10.888 95.3163C10.888 94.1872 11.4075 94.0861 12.4514 94.0861C13.366 94.0861 14.0261 94.1254 13.9755 95.2769H13.4961C13.4736 94.5374 13.3315 94.51 12.4345 94.51C11.4975 94.51 11.3682 94.6273 11.3682 95.2151C11.3682 96.0221 11.7512 95.9546 12.5421 95.9771C13.5467 96.0333 14.0542 96.0052 14.0542 97.1511C14.0542 98.3483 13.4905 98.3877 12.4225 98.3877C11.3449 98.3877 10.786 98.2576 10.8767 97.033H11.3561C11.3449 97.9645 11.5256 97.9645 12.4225 97.9645C13.3267 97.9645 13.5756 97.9645 13.5756 97.1342C13.5756 96.3272 13.2134 96.4621 12.4402 96.4011C11.6051 96.3328 10.888 96.434 10.888 95.3163Z" fill="black"/>
</g>
<path d="M15.3938 95.9831H17.5394V96.3774H15.3938V97.9303H17.6349V98.3535H14.9136V94.1193H17.6349V94.5433H15.3938V95.9831Z" fill="black"/>
<path d="M21.2558 98.3533H20.782L19.1784 94.4812H19.1672V98.3533H18.687V94.1199H19.5173L21.0133 97.7438L22.5149 94.1199H23.3452V98.3533H22.865V94.4812H22.8537L21.2558 98.3533Z" fill="black"/>
<mask id="mask1_839_3531" style="mask-type:luminance" maskUnits="userSpaceOnUse" x="-312" y="-545" width="479" height="677">
<path d="M-311.676 131.355H166.326V-544.675H-311.676V131.355Z" fill="white"/>
</mask>
<g mask="url(#mask1_839_3531)">
<path d="M24.5303 98.3533V94.1199H26.6759C27.4716 94.1199 27.6579 94.4981 27.6579 95.2377C27.6579 95.6833 27.5672 95.9828 27.1271 96.1298V96.141C27.6925 96.2422 27.7824 96.6493 27.7824 97.1737C27.7824 97.9357 27.4997 98.3533 26.7835 98.3533H24.5303ZM25.0105 97.9309H26.5289C27.0485 97.9309 27.3022 97.8683 27.3022 97.2186C27.3022 96.6606 27.2179 96.3779 26.5851 96.3892H25.0105V97.9309ZM25.0105 95.966H26.4053C26.9802 95.966 27.1785 95.8359 27.1785 95.1758C27.1785 94.6049 26.9585 94.5431 26.4558 94.5431H25.0105V95.966Z" fill="black"/>
</g>
<path d="M29.4543 97.9304H31.6111V98.3528H28.9741V94.1194H29.4543V97.9304Z" fill="black"/>
<path d="M32.8596 95.9831H35.0052V96.3774H32.8596V97.9303H35.1007V98.3535H32.3794V94.1193H35.1007V94.5433H32.8596V95.9831Z" fill="black"/>
<mask id="mask2_839_3531" style="mask-type:luminance" maskUnits="userSpaceOnUse" x="-312" y="-545" width="479" height="677">
<path d="M-311.676 131.355H166.326V-544.675H-311.676V131.355Z" fill="white"/>
</mask>
<g mask="url(#mask2_839_3531)">
<path d="M39.6402 98.3879C38.8661 98.3879 38.4092 97.9021 38.4092 97.0558V95.4185C38.4092 94.2212 39.1487 94.0863 40.1758 94.0863H40.5708C41.4573 94.0863 41.7287 94.4693 41.7287 95.3053V95.441H41.2486V95.3221C41.2486 94.7295 41.1241 94.5095 40.5034 94.5095H40.2328C39.2395 94.5095 38.8894 94.6275 38.8894 95.4016V96.5643C38.8894 97.5295 38.9287 97.9648 39.7301 97.9648H40.3002C41.0679 97.9648 41.3048 97.8572 41.3048 97.2525V96.9145H41.785V97.3095C41.785 98.2803 41.1642 98.3879 40.3171 98.3879H39.6402Z" fill="black"/>
<path d="M44.5361 94.0863C45.5921 94.0976 45.9133 94.4469 45.9133 95.5084V97.0156C45.9133 98.0154 45.5519 98.3879 44.5361 98.3879H43.966C42.9494 98.3879 42.5889 98.0154 42.5889 97.0156V95.5084C42.5889 94.4469 42.9101 94.0976 43.966 94.0863H44.5361ZM43.966 94.5095C43.2545 94.5095 43.0683 94.6845 43.0683 95.5084V97.0156C43.0683 97.8572 43.3445 97.9583 43.966 97.9648H44.5361C45.1568 97.9583 45.4339 97.8572 45.4339 97.0156V95.5084C45.4339 94.6845 45.2476 94.5095 44.5361 94.5095H43.966Z" fill="black"/>
</g>
<path d="M50.6284 98.3533H49.8439L47.467 94.515H47.4558V98.3533H46.9756V94.1199H47.7665L50.137 97.9871H50.1482V94.1199H50.6284V98.3533Z" fill="black"/>
<path d="M53.3341 98.3533H52.8539V94.5431H51.4824V94.1199H54.7056V94.5431H53.3341V98.3533Z" fill="black"/>
<mask id="mask3_839_3531" style="mask-type:luminance" maskUnits="userSpaceOnUse" x="-312" y="-545" width="479" height="677">
<path d="M-311.676 131.355H166.326V-544.675H-311.676V131.355Z" fill="white"/>
</mask>
<g mask="url(#mask3_839_3531)">
<path d="M56.0466 98.3533H55.5664V94.1199H57.5201C58.4347 94.1199 58.8354 94.3736 58.8354 95.3396C58.8354 95.9314 58.7671 96.3723 58.095 96.4566V96.4687C58.5696 96.5024 58.7784 96.773 58.7784 97.2307V98.3533H58.299V97.4563C58.299 96.9199 58.1689 96.6606 57.5875 96.6606H56.0466V98.3533ZM57.5257 96.2366C58.2653 96.2141 58.3552 95.9885 58.3552 95.2891C58.3552 94.747 58.2821 94.5431 57.5257 94.5431H56.0466V96.2366H57.5257Z" fill="black"/>
</g>
<path d="M60.2932 95.9831H62.438V96.3774H60.2932V97.9303H62.5343V98.3535H59.813V94.1193H62.5343V94.5433H60.2932V95.9831Z" fill="black"/>
<path d="M66.4906 97.9304H68.6466V98.3528H66.0112V94.1194H66.4906V97.9304Z" fill="black"/>
<path d="M69.8969 95.9831H72.0417V96.3774H69.8969V97.9303H72.138V98.3535H69.4175V94.1193H72.138V94.5433H69.8969V95.9831Z" fill="black"/>
<mask id="mask4_839_3531" style="mask-type:luminance" maskUnits="userSpaceOnUse" x="-312" y="-545" width="479" height="677">
<path d="M-311.676 131.355H166.326V-544.675H-311.676V131.355Z" fill="white"/>
</mask>
<g mask="url(#mask4_839_3531)">
<path d="M75.3947 95.3163C75.3947 94.1872 75.9142 94.0861 76.9589 94.0861C77.8735 94.0861 78.5336 94.1254 78.483 95.2769H78.0028C77.9811 94.5374 77.839 94.51 76.942 94.51C76.0041 94.51 75.8748 94.6273 75.8748 95.2151C75.8748 96.0221 76.2587 95.9546 77.0496 95.9771C78.0542 96.0333 78.5625 96.0052 78.5625 97.1511C78.5625 98.3483 77.9972 98.3877 76.9308 98.3877C75.8524 98.3877 75.2935 98.2576 75.3834 97.033H75.8636C75.8524 97.9645 76.033 97.9645 76.9308 97.9645C77.8333 97.9645 78.0823 97.9645 78.0823 97.1342C78.0823 96.3272 77.7209 96.4621 76.9476 96.4011C76.1117 96.3328 75.3947 96.434 75.3947 95.3163Z" fill="black"/>
</g>
<path d="M80.0769 98.353H79.5967V94.1197H80.0769V98.353Z" fill="black"/>
<mask id="mask5_839_3531" style="mask-type:luminance" maskUnits="userSpaceOnUse" x="-312" y="-545" width="479" height="677">
<path d="M-311.676 131.355H166.326V-544.675H-311.676V131.355Z" fill="white"/>
</mask>
<g mask="url(#mask5_839_3531)">
<path d="M81.2881 94.1194H83.3486C83.8625 94.1194 84.7996 94.1877 84.7996 95.7511V96.7621C84.7996 97.1796 84.7313 98.3528 83.461 98.3528H81.2881V94.1194ZM83.3486 97.9304C84.1949 97.9304 84.3081 97.4334 84.3194 96.6769V95.5648C84.3194 95.3279 84.2351 94.5426 83.4281 94.5426H81.7683V97.9304H83.3486Z" fill="black"/>
</g>
<path d="M86.3816 97.4563L86.0539 98.3533H85.5513L87.093 94.1191H87.7707L89.351 98.3533H88.854L88.5215 97.4563H86.3816ZM87.4431 94.515L86.5108 97.0605H88.385L87.4431 94.515Z" fill="black"/>
</g>
<defs>
<clipPath id="clip0_839_3531">
<rect width="90.1367" height="100" fill="white" transform="translate(0.825684)"/>
</clipPath>
</defs>
</svg>
