<svg width="102" height="50" viewBox="0 0 102 50" fill="none" xmlns="http://www.w3.org/2000/svg">
<g clip-path="url(#clip0_825_3538)">
<path fill-rule="evenodd" clip-rule="evenodd" d="M63.5859 7.36567H69.9041V1.13647H63.5859V7.36567Z" fill="#FCB813"/>
<path fill-rule="evenodd" clip-rule="evenodd" d="M63.5859 48.3791H69.9041V10.8713H63.5859V48.3791Z" fill="#DE1E25"/>
<path fill-rule="evenodd" clip-rule="evenodd" d="M26.8546 23.4496C26.8546 16.5022 20.8792 10.8707 13.5079 10.8707C9.82265 10.8707 6.48591 12.2789 4.07073 14.5549L8.41667 18.9286C9.69203 17.6531 11.5014 16.8568 13.5079 16.8568C17.3714 16.8568 20.503 19.8084 20.503 23.4496V36.4733C20.503 40.1144 17.3714 43.0661 13.5079 43.0661C9.64477 43.0661 6.51282 40.1144 6.51282 36.4733C6.51282 32.8321 9.64477 29.8805 13.5079 29.8805C14.8135 29.8805 16.0354 30.2174 17.0813 30.804L17.0577 24.3445C15.9274 24.0511 14.7373 23.8945 13.5079 23.8945C6.13704 23.8945 0.161621 29.5259 0.161621 36.4733C0.161621 43.4204 6.13704 49.0521 13.5079 49.0521C20.8792 49.0521 26.8546 43.4204 26.8546 36.4733V23.4496ZM74.9075 36.4733C74.9075 43.4204 80.8829 49.0521 88.2541 49.0521C91.9394 49.0521 95.2762 47.6439 97.6917 45.3679L93.3457 40.9942C92.0704 42.2698 90.2607 43.0661 88.2541 43.0661C84.391 43.0661 81.2594 40.1144 81.2594 36.4733V23.4496C81.2594 19.8084 84.391 16.8568 88.2541 16.8568C92.1173 16.8568 95.2492 19.8084 95.2492 23.4496C95.2492 27.0907 92.1173 30.0423 88.2541 30.0423C86.9486 30.0423 85.727 29.7055 84.6808 29.1188L84.7047 35.5783C85.8347 35.8718 87.0251 36.0284 88.2541 36.0284C95.6254 36.0284 101.601 30.3969 101.601 23.4496C101.601 16.5025 95.6254 10.8707 88.2541 10.8707C80.8829 10.8707 74.9075 16.5025 74.9075 23.4496V36.4733ZM51.7346 1.13672V36.4733C51.7346 40.1144 48.6831 43.0661 44.9187 43.0661C41.1546 43.0661 38.1028 40.1144 38.1028 36.4733V23.8945C38.1028 20.253 41.1546 17.3017 44.9187 17.3017C46.1944 17.3017 47.3884 17.6405 48.4094 18.2303L48.4077 11.7735C47.2974 11.4748 46.1274 11.3156 44.9187 11.3156C37.7365 11.3156 31.914 16.9471 31.914 23.8945V36.4733C31.914 43.4204 37.7365 49.0521 44.9187 49.0521C52.1012 49.0521 57.9234 43.4204 57.9234 36.4733V1.13672H51.7346Z" fill="#DE1E25"/>
</g>
<defs>
<clipPath id="clip0_825_3538">
<rect width="101.5" height="49" fill="white" transform="translate(0.162598 0.75)"/>
</clipPath>
</defs>
</svg>
