<svg width="90" height="92" viewBox="0 0 90 92" fill="none" xmlns="http://www.w3.org/2000/svg">
<g clip-path="url(#clip0_825_3544)">
<path d="M10.1858 0.875C10.1858 0.875 0.580566 0.875001 0.580566 10.736V91.625H79.4753C79.4753 91.625 89.0806 91.625 89.0806 81.764V0.875H10.1858Z" fill="#005291"/>
<path d="M83.267 76.7891C83.267 75.2793 82.601 74.5436 81.2307 74.5436H79.898C79.5924 74.5082 79.2827 74.5435 78.9929 74.6466C78.703 74.7498 78.4407 74.9181 78.2261 75.1385C78.0115 75.359 77.8504 75.6257 77.7551 75.9183C77.6598 76.2108 77.6329 76.5213 77.6765 76.8258V79.4763C77.6765 80.9488 78.38 81.6851 79.787 81.6851H83.0082V80.1018H79.7502C79.343 80.1018 79.1577 79.8813 79.1577 79.4021V78.9236H83.2302V76.7883L83.267 76.7891ZM79.2312 76.8258V76.7508C79.2312 76.3458 79.4562 76.1621 79.8605 76.1621H81.2705C81.6035 76.1621 81.7887 76.3833 81.7887 76.7876V77.3028H79.2342L79.2312 76.8258ZM77.0097 80.1026H74.7882C74.1957 80.1026 73.8995 79.8078 73.8995 79.2558V77.0808C73.8995 76.4546 74.1957 76.1238 74.7882 76.1238H77.0097V74.5436H74.8992C73.1962 74.5436 72.3447 75.3903 72.3447 77.0838V79.1088C72.3447 80.8023 73.196 81.6858 74.9367 81.6858H77.0097V80.1026Z" fill="white"/>
<path d="M71.1812 76.8258C71.1812 75.316 70.5144 74.5435 69.1449 74.5435H67.8864C67.7072 74.5438 67.5298 74.5797 67.3646 74.6493C67.1994 74.7188 67.0497 74.8205 66.9242 74.9485V74.5435H65.4062V81.685H66.9257V77.1573C66.9257 76.4943 67.2219 76.1268 67.8144 76.1268H68.8509C69.3692 76.1268 69.6287 76.4215 69.6287 76.9735V81.6858H71.1467V76.8265L71.1812 76.8258ZM64.3689 81.7218V76.9728C64.4116 76.6537 64.3812 76.3291 64.28 76.0236C64.1788 75.718 64.0094 75.4394 63.7847 75.2089C63.5601 74.9784 63.2859 74.8019 62.9831 74.6929C62.6802 74.5839 62.3565 74.5451 62.0364 74.5795H59.1489V76.1635H62.0739C62.5922 76.1635 62.8517 76.4583 62.8517 77.0103V77.3786H60.9257C60.6351 77.3372 60.3389 77.3639 60.0604 77.4564C59.7819 77.5489 59.5286 77.7047 59.3205 77.9117C59.1124 78.1186 58.9552 78.371 58.8611 78.649C58.767 78.927 58.7387 79.223 58.7784 79.5138V79.5505C58.7784 81.0228 59.4452 81.7593 60.8147 81.7593H64.3689V81.7218ZM60.7404 80.1018C60.4074 80.1018 60.2589 79.918 60.2589 79.513C60.2589 79.1448 60.4089 78.9243 60.7404 78.8875H62.8134V80.0635H60.7404V80.1018ZM58.1507 74.5435H57.1884C56.727 74.5186 56.2745 74.6774 55.9299 74.9853V74.5435H54.4119V81.685H55.9299V77.194C55.9299 76.4943 56.2262 76.1268 56.8554 76.1268H58.1139V74.5435H58.1507ZM54.1149 72.1503H49.1897V81.7218H50.7444V77.7093H52.9284V76.126H50.7444V73.7336H54.1502V72.1503H54.1149ZM41.9334 81.7218C43.3772 81.7218 44.1174 80.9853 44.1549 79.4763V79.4013C44.1549 78.0393 43.4147 77.3763 41.9334 77.3763H40.5257C40.0817 77.3763 39.8589 77.155 39.8589 76.7508C39.8589 76.3825 40.0442 76.162 40.3772 76.162H43.8204V74.542H40.4889C39.1189 74.579 38.4154 75.3153 38.3784 76.7508C38.3784 78.2233 39.0819 78.9595 40.4889 78.9595H41.9702C42.4142 78.9595 42.6369 79.1433 42.6737 79.5115C42.6737 79.9165 42.4142 80.137 41.9334 80.137H38.6012V81.7203L41.9334 81.7218ZM37.3427 81.7218V76.9728C37.3853 76.6537 37.3549 76.3291 37.2537 76.0236C37.1525 75.718 36.9832 75.4394 36.7585 75.2089C36.5338 74.9784 36.2597 74.8019 35.9568 74.6929C35.6539 74.5839 35.3302 74.5451 35.0102 74.5795H32.1257V76.1635H35.0507C35.5689 76.1635 35.8284 76.4583 35.8284 77.0103V77.3786H33.8994C33.6089 77.3372 33.3127 77.3639 33.0342 77.4564C32.7556 77.5489 32.5024 77.7047 32.2943 77.9117C32.0862 78.1186 31.9289 78.371 31.8348 78.649C31.7408 78.927 31.7125 79.223 31.7522 79.5138V79.5505C31.7522 81.0228 32.4189 81.7593 33.7884 81.7593H37.3427V81.7218ZM33.7517 80.1018C33.4187 80.1018 33.2702 79.918 33.2702 79.513C33.2702 79.1448 33.4202 78.9243 33.7517 78.8875H35.8247V80.0635H33.7509L33.7517 80.1018ZM30.7517 80.1018C29.7892 80.1018 29.3079 79.8073 29.3079 79.2183V76.1635H30.7517V74.5803H29.3454V72.1503H27.8274V79.1815C27.8274 80.875 28.6419 81.7218 30.3077 81.7218H30.7892V80.1018H30.7517ZM26.3462 74.5428H24.7914V81.7218H26.3462V74.5428ZM26.3462 72.1128H24.7914V73.6225H26.3462V72.1128ZM23.9394 74.5428H22.9757C22.5143 74.5179 22.0618 74.6767 21.7172 74.9846V74.5428H20.2007V81.6843H21.7187V77.1933C21.7187 76.4935 22.0149 76.126 22.6442 76.126H23.9027V74.5435L23.9394 74.5428Z" fill="white"/>
<path d="M18.3181 81.7218V76.9728C18.3607 76.6537 18.3303 76.3291 18.2291 76.0235C18.1279 75.718 17.9585 75.4394 17.7339 75.2089C17.5092 74.9783 17.2351 74.8019 16.9322 74.6929C16.6293 74.5838 16.3056 74.5451 15.9856 74.5795H13.0981V76.1635H16.0231C16.5413 76.1635 16.8008 76.4583 16.8008 77.0103V77.3418H14.8681C14.5775 77.3004 14.2813 77.3271 14.0028 77.4196C13.7243 77.5121 13.471 77.6679 13.2629 77.8749C13.0548 78.0818 12.8975 78.3342 12.8035 78.6122C12.7094 78.8902 12.6811 79.1862 12.7208 79.477V79.5138C12.7208 80.986 13.3876 81.7225 14.7571 81.7225L18.3181 81.7218ZM14.7271 80.1018C14.3941 80.1018 14.2456 79.918 14.2456 79.513C14.2456 79.1448 14.3956 78.9243 14.7271 78.8875H16.8001V80.0635H14.7233L14.7271 80.1018ZM11.8771 80.1018H8.76232C8.20732 80.1018 7.94782 79.6968 7.94782 78.8868V74.6163C7.94782 73.9908 8.28082 73.696 8.91007 73.696H11.8718V72.1135H8.98432C7.24432 72.1135 6.39307 72.997 6.39307 74.764V78.739C6.39307 80.689 7.28182 81.6475 9.01807 81.6475H11.8681L11.8771 80.1018Z" fill="white"/>
<path d="M22.7942 41.0652H19.0547C18.0925 41.0652 17.6477 41.5805 17.6477 42.6117C17.6477 43.679 18.0182 44.2317 18.7585 44.2317H20.017C22.201 44.2317 23.275 45.3732 23.275 47.6555V48.0972C23.275 50.3795 22.0165 51.5577 19.4987 51.5577H15.6115V49.4577H19.8692C20.7947 49.4577 21.2387 48.9792 21.2387 47.9855V47.9105C21.2387 46.8432 20.8315 46.3272 20.0537 46.3272H18.685C16.612 46.3272 15.5747 45.1122 15.5747 42.7565V42.3147C15.5747 40.106 16.8332 39.0012 19.3142 39.0012H22.7575V41.063L22.7942 41.0652Z" fill="white"/>
<path d="M27.089 45.8134H30.458V45.1137C30.458 44.5617 30.233 44.2669 29.7545 44.2669H27.9027C27.3477 44.2669 27.0882 44.5249 27.0882 45.0402L27.089 45.8134ZM32.4575 47.8752H27.089V48.5007C27.089 49.0894 27.3852 49.3842 27.9035 49.3842H32.198V51.4842H27.9027C26.0142 51.4842 25.0887 50.5272 25.0887 48.6124V48.5757L25.0527 45.1512C25.0527 43.1629 26.015 42.1692 27.9777 42.1692L29.7552 42.2059C31.5695 42.2059 32.4552 43.1997 32.4552 45.1144L32.4575 47.8752Z" fill="white"/>
<path d="M40.2983 51.5204H37.5586C35.2628 51.5204 34.1528 50.4156 34.1528 48.1701L34.1896 45.5564V45.4813C34.1896 43.2726 35.3003 42.1311 37.5586 42.1311H40.3336V44.2311H37.3718C36.5941 44.2311 36.2243 44.6361 36.2243 45.4829V48.2804C36.2243 49.0169 36.6316 49.3851 37.4093 49.3851H40.3343V51.5204H40.2983Z" fill="white"/>
<path d="M47.5441 45.5194C47.5441 44.6727 47.2111 44.2677 46.5444 44.2677H44.9896C44.3229 44.2677 43.9899 44.6727 43.9899 45.5194V48.2067C43.9899 49.0167 44.3231 49.4217 44.9896 49.4217H46.5444C47.2111 49.4217 47.5441 48.9799 47.5441 48.1332V45.5194ZM49.5804 48.4279C49.5434 50.4894 48.6184 51.5202 46.8054 51.5202H44.7286C42.8786 51.5202 41.9536 50.4894 41.9536 48.4279V45.1887C41.9536 43.1637 42.8791 42.1699 44.7286 42.1699H46.8016C48.6159 42.1699 49.5414 43.1637 49.5766 45.1887L49.5804 48.4279Z" fill="white"/>
<path d="M58.8371 51.4836H56.7971V51.1888C56.3965 51.3938 55.9509 51.4951 55.5011 51.4836H54.1721C52.2101 51.4836 51.2471 50.3421 51.2471 48.0231V42.1731H53.2833V48.0576C53.2833 48.9411 53.6538 49.3828 54.4308 49.3828H55.6158C56.4671 49.3828 56.8743 48.8676 56.8743 47.8731V42.1326H58.9106V51.4836H58.8371Z" fill="white"/>
<path d="M65.9257 44.2676H64.2599C63.4454 44.2676 63.0382 44.7093 63.0382 45.6296V51.5201H61.002V42.2058H63.0382V42.7578C63.5035 42.3695 64.0988 42.1722 64.704 42.2058H65.9257V44.2676Z" fill="white"/>
<path d="M67.3852 51.5201V49.4201H71.3467C71.9392 49.4201 72.2355 49.1621 72.2722 48.6469C72.2355 48.1684 71.9392 47.9471 71.421 47.9471H69.7177C67.9777 47.9471 67.1265 46.9901 67.1265 45.0754C67.1635 43.2349 68.015 42.2776 69.681 42.2036H73.6425V44.3036H69.57C69.1627 44.3036 68.9407 44.5609 68.9407 45.0401C68.9232 45.1509 68.9323 45.2642 68.9671 45.3708C69.0019 45.4773 69.0615 45.5741 69.141 45.6532C69.2205 45.7323 69.3176 45.7913 69.4244 45.8256C69.5312 45.8598 69.6446 45.8682 69.7552 45.8501H71.3475C73.1617 45.8501 74.0872 46.7336 74.0872 48.5006V48.6109C74.0505 50.5609 73.1617 51.5194 71.3872 51.5194H67.389L67.3852 51.5201Z" fill="white"/>
<path d="M13.6868 65.6937H9.91057C7.57807 65.6937 6.39307 64.442 6.39307 61.9017V56.711C6.39307 54.392 7.54057 53.2505 9.83632 53.2505H13.6493V55.2755H9.68782C8.83657 55.2755 8.42932 55.6805 8.42932 56.4905L8.46607 61.9385V62.0135C8.46607 63.0807 8.83657 63.5967 9.57682 63.5967H13.7236V65.6967L13.6868 65.6937Z" fill="white"/>
<path d="M20.4986 63.5952V62.0487H17.7184C17.6215 62.0488 17.5258 62.0698 17.4378 62.1102C17.3498 62.1506 17.2715 62.2095 17.2082 62.2829C17.145 62.3562 17.0983 62.4423 17.0712 62.5353C17.0442 62.6284 17.0375 62.7261 17.0516 62.8219C17.0516 63.3004 17.2766 63.5584 17.7184 63.5584H20.4934L20.4986 63.5952ZM17.7986 65.6952C15.9844 65.6952 15.0986 64.7382 15.0986 62.7867V62.7117C15.0986 60.8712 16.0241 59.9509 17.9486 59.9509H20.5031V59.5092C20.5031 58.7727 20.1701 58.4044 19.4666 58.4044H15.5374V56.3059L19.3879 56.3427C21.4609 56.4177 22.4981 57.4474 22.4981 59.4717V65.6562H17.7934L17.7986 65.6952Z" fill="white"/>
<path d="M28.4425 65.6937H27.8132C25.5917 65.6937 24.481 64.589 24.481 62.4177V53.2505H26.5172V56.3795H28.4425V58.4795H26.5172V62.4545C26.5172 63.2277 27.1465 63.6327 28.4425 63.6327V65.6937Z" fill="white"/>
<path d="M38.226 65.6936H36.1875V59.5436C36.1875 58.8071 35.8542 58.4389 35.1877 58.4389H33.7838C32.9693 58.4389 32.5988 58.8806 32.5988 59.7641V65.6546H30.5625V53.1401H32.5988V56.8586C32.757 56.6822 32.9512 56.5417 33.1683 56.4465C33.3853 56.3513 33.6203 56.3036 33.8573 56.3066H35.523C37.2998 56.3066 38.223 57.3004 38.223 59.2886L38.226 65.6936Z" fill="white"/>
<path d="M45.5954 59.6931C45.5954 58.8464 45.2624 58.4414 44.5956 58.4414H43.0409C42.3741 58.4414 42.0411 58.8464 42.0411 59.6931V62.3796C42.0411 63.1896 42.3744 63.5946 43.0409 63.5946H44.5956C45.2624 63.5946 45.5954 63.1529 45.5954 62.3061V59.6931ZM47.6316 62.6384C47.5949 64.7001 46.6694 65.6939 44.8566 65.6939H42.7799C40.9289 65.6939 40.0049 64.6634 40.0049 62.6384V59.3991C40.0049 57.3741 40.9304 56.3804 42.7799 56.3804H44.8529C46.6671 56.3804 47.5926 57.3741 47.6279 59.3991L47.6316 62.6384Z" fill="white"/>
<path d="M51.3331 53.2505H49.2969V65.6937H51.3331V53.2505Z" fill="white"/>
<path d="M55.5636 65.6936H53.5273V56.3426H55.5636V65.6936ZM55.5636 55.2019H53.5273V53.2136H55.5636V55.2019Z" fill="white"/>
<path d="M59.4639 62.675C59.4639 63.2637 59.7969 63.5952 60.5004 63.5952L62.7586 63.5585V58.4412H60.3519C59.7594 58.4412 59.4631 58.7725 59.4631 59.435L59.4639 62.675ZM62.7586 68.786V65.6937H60.4651C58.4289 65.6937 57.3901 64.6632 57.3901 62.6382V59.5092C57.3901 57.4475 58.3524 56.417 60.3151 56.417H64.7949V68.8235H62.7586V68.786Z" fill="white"/>
<path d="M74.3449 65.6569H72.3049V65.3622C71.9043 65.5671 71.4587 65.6684 71.0089 65.6569H69.6799C67.7179 65.6569 66.7549 64.5154 66.7549 62.1964V56.3464H68.7911V62.2309C68.7911 63.1144 69.1616 63.5562 69.9386 63.5562H71.1236C71.9749 63.5562 72.3821 63.0409 72.3821 62.0472V56.3059H74.4184V65.6569H74.3449Z" fill="white"/>
<path d="M77.8993 59.987H81.2683V59.2873C81.2683 58.7353 81.0433 58.4405 80.5648 58.4405H78.7131C78.1581 58.4405 77.8986 58.6985 77.8986 59.2138V59.987H77.8993ZM83.2678 62.087H77.8626V62.7125C77.8626 63.3013 78.1588 63.596 78.6771 63.596H83.2678V65.696H78.7131C76.8246 65.696 75.8991 64.739 75.8991 62.8243V62.7493L75.8623 59.3255C75.8623 57.3373 76.8246 56.3435 78.7873 56.3435L80.5641 56.3803C82.3783 56.3803 83.2641 57.3373 83.2641 59.2888L83.2678 62.087Z" fill="white"/>
<path d="M30.8727 17.5512C30.8328 17.4349 30.758 17.3337 30.6586 17.2612C30.5592 17.1888 30.44 17.1486 30.317 17.1462C30.2255 17.1488 30.1362 17.1746 30.0575 17.2212C29.687 17.405 29.7245 17.8467 29.8325 18.1782C29.9465 18.55 30.0219 18.9325 30.0575 19.3197L30.1685 20.3135C30.1685 20.4237 30.2052 20.4972 30.2052 20.6082C30.2802 21.1235 30.3552 25.3572 30.3905 25.6152C30.4098 25.7783 30.447 25.9388 30.5015 26.0937C30.5382 26.1305 30.5382 26.1687 30.5765 26.2437C30.6025 26.2978 30.6456 26.3418 30.6992 26.369C30.7527 26.3961 30.8137 26.4048 30.8727 26.3937C30.9095 26.3937 30.9477 26.357 30.9837 26.357C31.0747 26.2797 31.1481 26.184 31.1992 26.0761C31.2503 25.9683 31.2778 25.8508 31.28 25.7315C31.3719 25.1591 31.422 24.5809 31.43 24.0012V22.6317C31.43 22.1165 31.3932 20.4965 31.355 20.2017L31.2425 19.0962C31.2057 18.9125 31.2057 18.7647 31.1675 18.6177C31.1232 18.3682 31.0613 18.1221 30.9822 17.8812C30.9567 17.7672 30.9195 17.6562 30.8712 17.5497" fill="white"/>
<path d="M39.9799 23.3675C39.9799 23.3675 41.0164 23.0728 41.1274 23.5888C41.1274 23.5888 41.3869 24.1775 40.3497 24.3988C40.2287 24.4349 40.1047 24.46 39.9792 24.4738C39.8292 24.5105 39.2014 24.6575 39.0169 24.695C38.7919 24.7318 37.9062 24.9898 37.6474 25.0633L36.0927 25.505C35.8332 25.58 35.5744 25.655 35.2782 25.763C34.9991 25.8389 34.7267 25.9375 34.4637 26.0578C34.3887 26.0945 34.3137 26.0945 34.2387 26.1328C33.9792 26.243 33.7204 26.3165 33.4609 26.4275C33.2014 26.5385 32.5354 26.906 32.4612 26.9428C32.4612 26.9428 31.9429 27.2375 31.6834 27.4213C30.4984 28.2313 29.7949 28.415 29.7582 28.0843C29.7214 27.7895 30.1287 27.5323 30.3139 27.3845C30.6571 27.118 31.0157 26.8721 31.3879 26.648C31.3879 26.648 32.2392 26.096 32.6839 25.838C32.9089 25.7278 34.1652 25.1015 34.6092 24.9545C35.0907 24.7708 35.5714 24.623 36.0904 24.4393C36.4977 24.2893 38.3487 23.7395 38.8654 23.6293C39.2445 23.5867 39.6172 23.5001 39.9762 23.3713" fill="white"/>
<path d="M38.9799 26.7546C39.1299 26.6046 39.3872 26.4598 39.5349 26.6796C39.5532 26.7136 39.5628 26.7516 39.5628 26.7902C39.5628 26.8288 39.5532 26.8668 39.5349 26.9008C39.4982 26.9758 39.1644 27.4528 39.0909 27.5638C38.7947 28.0056 37.6097 29.6638 37.4987 29.8461C37.1657 30.3246 36.3879 31.3926 35.2772 32.8281C34.9409 33.2972 34.5422 33.7183 34.0922 34.0798C33.9812 34.1548 33.7959 34.2636 33.6482 34.1548C33.1667 33.7866 33.7592 33.0868 34.0922 32.5716C34.6847 31.7616 35.0544 31.2463 35.5727 30.6216C36.0909 29.9968 36.6092 29.4066 37.1274 28.8178C37.3524 28.5966 37.5347 28.3393 37.7567 28.1181C37.972 27.8549 38.2072 27.6087 38.4602 27.3816C38.6236 27.2007 38.7966 27.0287 38.9784 26.8663C38.9034 26.8296 38.9417 26.7913 38.9784 26.7561" fill="white"/>
<path d="M42.0907 23.7756C42.1977 23.7024 42.3199 23.6544 42.4481 23.6353C42.5764 23.6162 42.7072 23.6265 42.8309 23.6653C42.9537 23.7191 43.057 23.8092 43.1272 23.9233C43.1469 24.0699 43.1469 24.2185 43.1272 24.3651C43.0522 24.8068 41.2762 31.9483 41.1652 32.2063C41.0361 32.6413 40.8359 33.0518 40.5727 33.4213C40.4977 33.5316 40.3132 33.7161 40.1654 33.7161C39.9802 33.6793 39.9404 33.4213 39.9404 33.2743C39.9404 33.1993 41.6062 25.1383 41.7172 24.6966C41.8117 24.3789 41.9357 24.0709 42.0877 23.7763" fill="white"/>
<path d="M40.5726 34.0438C40.5726 34.0438 40.2396 34.0806 40.1653 34.2276C40.1324 34.2824 40.112 34.3439 40.1057 34.4076C40.0993 34.4713 40.1071 34.5355 40.1286 34.5958C40.2396 34.8906 40.6836 34.8906 40.9431 34.8906H42.9051C43.1402 34.8844 43.3754 34.8967 43.6086 34.9273C44.1804 34.9646 44.7493 35.0382 45.3118 35.1478C45.6747 35.2121 46.0333 35.2983 46.3858 35.4058C46.6821 35.4808 47.5333 35.7006 47.6076 35.7373C47.9406 35.8123 48.2368 35.8873 48.5706 35.9586C49.0521 36.0688 50.3106 36.4371 50.4591 36.4371C50.6931 36.4566 50.9285 36.4566 51.1626 36.4371C51.3243 36.4179 51.477 36.352 51.602 36.2474C51.7269 36.1429 51.8187 36.0042 51.8661 35.8483C51.892 35.6596 51.8791 35.4676 51.8281 35.2841C51.7772 35.1006 51.6893 34.9294 51.5698 34.7811C51.3448 34.4496 51.1258 34.1181 50.9406 33.7873C50.7209 33.4061 50.5231 33.0127 50.3481 32.6091C50.1628 32.1673 49.7556 30.9523 49.7188 30.8053C49.5336 30.2533 48.9411 28.3753 48.7933 27.9703C48.7566 27.8601 47.9046 25.4301 47.7936 25.1728C47.6626 24.8045 47.5015 24.4475 47.3121 24.1056C47.2753 24.0306 47.1621 23.9556 47.1621 23.8476C47.1621 23.5896 47.5326 23.6976 47.6803 23.7373C47.6803 23.7373 48.0876 23.8123 48.3096 23.8476C48.3096 23.8476 49.5313 24.0681 50.1606 24.2158C50.8282 24.3787 51.4838 24.5877 52.1226 24.8413C52.4931 24.9913 54.6403 25.9461 54.9366 26.0931L56.9361 26.9766C57.2323 27.1266 58.3798 27.6396 58.6393 27.7498C58.6393 27.7498 59.8611 28.2651 59.8978 27.5998C59.8978 26.7531 59.3428 26.6061 58.4541 26.1643C58.1578 26.0143 55.4181 24.7656 54.9366 24.5811C54.4183 24.3606 53.9 24.1761 53.3443 23.9923C52.7885 23.8086 52.2336 23.6241 51.6411 23.4771C51.0815 23.3193 50.5126 23.1963 49.9378 23.1088C49.7878 23.0721 48.3088 22.8876 47.7163 22.8508H47.5311C47.1948 22.8511 46.8595 22.8881 46.5313 22.9611C46.4193 23.0169 46.3283 23.1074 46.2718 23.2191C46.2645 23.4283 46.2768 23.6377 46.3086 23.8446C46.3086 23.9196 46.4938 24.6178 46.5336 24.7281C46.5703 24.8781 46.7586 25.6116 46.7931 25.7961C46.8298 26.0173 46.9041 26.2011 46.9431 26.4216C47.0931 27.0103 47.8686 29.8086 47.9428 30.0658C48.0171 30.3231 48.5721 31.9798 48.6463 32.2011C48.7206 32.4223 49.0536 33.2316 49.1278 33.4161C49.266 33.734 49.427 34.0415 49.6093 34.3363L49.9423 34.7781C49.9056 34.7413 50.3128 35.2198 49.2021 34.8148C49.0168 34.7398 48.8316 34.7046 48.6463 34.6311C47.9796 34.4106 46.2028 34.0423 45.9808 34.0056C45.5368 33.9306 44.3151 33.7843 44.2033 33.7843C43.7961 33.7476 43.4256 33.7476 43.0183 33.7476C42.6111 33.7476 42.2038 33.7843 41.7966 33.8226C41.5003 33.8976 40.5748 34.0438 40.5748 34.0438" fill="white"/>
<path d="M50.3466 26.2393C50.2778 26.241 50.212 26.2676 50.1614 26.3143C50.1246 26.3893 50.1614 26.4643 50.1614 26.498C50.1897 26.5742 50.2424 26.6388 50.3114 26.6818C50.3948 26.7863 50.4701 26.8971 50.5364 27.0133C50.7959 27.3815 51.0546 27.713 51.3141 28.0805C51.3891 28.1908 51.7581 28.6693 51.8691 28.817C52.1654 29.1853 52.4616 29.5903 52.7946 29.9585C52.8696 30.0688 53.6834 31.1 53.9796 31.505C54.1546 31.6873 54.3399 31.8593 54.5346 32.0203C54.7941 32.0953 55.2014 32.1305 55.2014 31.7623C55.1564 31.4766 55.0122 31.2158 54.7941 31.0258C54.5346 30.6943 53.2761 29.1508 52.9799 28.8508C52.8299 28.667 52.6469 28.5193 52.4984 28.3355C52.3874 28.2253 51.8316 27.599 51.6471 27.4153C51.4684 27.201 51.2701 27.0038 51.0546 26.8265C50.9046 26.6765 50.7584 26.5685 50.6106 26.4215C50.6856 26.4215 50.4254 26.2378 50.3511 26.2378" fill="white"/>
<path d="M58.0106 18.8764C58.0376 18.7681 58.0889 18.6674 58.1606 18.5817C58.2487 18.486 58.3656 18.4215 58.4936 18.3979H58.7523C58.8635 18.4063 58.9674 18.4566 59.043 18.5386C59.1186 18.6205 59.1603 18.7282 59.1596 18.8397C59.1596 19.2079 59.1228 19.3182 59.1228 19.5395C59.1228 19.9812 59.1978 21.1227 59.1978 21.2697C59.4566 23.2947 59.9013 25.3197 59.9013 25.5402C59.9075 25.6884 59.8951 25.8368 59.8646 25.9819C59.8646 26.0187 59.8278 26.057 59.8278 26.0922C59.8085 26.1457 59.7733 26.1919 59.7269 26.2248C59.6805 26.2576 59.6252 26.2755 59.5683 26.2759H59.4573C59.3589 26.2304 59.2715 26.164 59.2012 26.0814C59.1309 25.9988 59.0793 25.9019 59.0501 25.7975C58.8771 25.4477 58.7525 25.076 58.6795 24.6927C58.6428 24.5825 58.6428 24.4722 58.6046 24.3612C58.5296 24.1032 58.4935 23.846 58.4193 23.588C58.3766 23.4695 58.3514 23.3454 58.3443 23.2197C58.2693 22.7779 58.159 22.373 58.0848 21.9312C58.048 21.6732 57.8996 20.606 57.8598 20.4222C57.8228 20.1658 57.8228 19.9054 57.8598 19.649C57.8666 19.475 57.8917 19.3023 57.9348 19.1337C57.9472 19.0445 57.9725 18.9576 58.0098 18.8757" fill="white"/>
<path d="M48.384 19.208C48.292 19.1955 48.1983 19.2024 48.109 19.2282C48.0198 19.254 47.9369 19.2982 47.8658 19.358C47.7991 19.4575 47.7667 19.5761 47.7733 19.6957C47.7799 19.8153 47.8253 19.9295 47.9025 20.021C48.0135 20.1313 48.2355 20.1313 48.3465 20.171C48.5436 20.1894 48.7419 20.1894 48.939 20.171C48.939 20.171 54.048 20.0608 56.3438 19.1773C56.9109 18.9786 57.4376 18.6793 57.8985 18.2938C58.1467 18.0792 58.3484 17.816 58.491 17.5205C58.5278 17.4103 58.602 17.2993 58.5278 17.189C58.4858 17.079 58.406 16.9876 58.3028 16.931C57.9323 16.673 57.414 17.0413 57.1553 17.2625C56.6364 17.6429 56.0619 17.9409 55.452 18.146C54.822 18.3688 54.1791 18.5531 53.5268 18.698C53.0517 18.8076 52.5691 18.8816 52.083 18.9193C52.158 18.9193 49.6028 19.1398 48.381 19.214" fill="white"/>
<path d="M50.7157 17.0728C50.6047 17.1478 50.5304 17.2566 50.3827 17.2566C50.3397 17.2542 50.2976 17.2432 50.259 17.2243C50.2203 17.2054 50.1859 17.1788 50.1577 17.1463C50.1394 17.1123 50.1299 17.0743 50.1299 17.0357C50.1299 16.9971 50.1394 16.9591 50.1577 16.9251C50.2069 16.8307 50.2692 16.7438 50.3429 16.6671C50.3797 16.6303 50.3797 16.5921 50.4179 16.5568C50.4838 16.4519 50.5591 16.3533 50.6429 16.2621C50.9392 15.8203 52.1242 14.1621 52.2352 13.9798C52.5682 13.5013 54.3082 11.2191 54.4567 10.9978C54.6817 10.7031 54.9007 10.4091 55.1234 10.1511C55.2057 10.0577 55.3066 9.98258 55.4197 9.93056C55.7159 9.82031 56.1974 9.82031 56.1974 10.2253C56.1516 10.5796 55.9809 10.9059 55.7159 11.1456C55.3829 11.5506 55.0867 11.9923 54.7904 12.3973C54.7154 12.5076 53.9017 13.5388 53.5687 13.9071C53.3834 14.1283 52.7542 14.8641 52.6064 15.0118C52.6064 15.0118 52.1992 15.4903 51.9772 15.7116C51.7619 15.9747 51.5267 16.2209 51.2737 16.4481L50.7554 16.9633C50.7922 17.0001 50.7554 17.0383 50.7187 17.0736" fill="white"/>
<path d="M35.3892 11.4779C35.335 11.4556 35.2762 11.4473 35.218 11.4538C35.1598 11.4602 35.1042 11.4811 35.0562 11.5146C34.9535 11.5883 34.8752 11.691 34.8312 11.8094C34.3872 12.5459 37.0152 14.6811 37.2379 14.8281C38.0892 15.4536 39.0889 16.2269 39.4594 16.1901C39.3844 16.1901 39.7924 16.1901 39.7189 15.8586C39.6822 15.6006 36.3867 12.2144 36.1279 11.9586C35.9779 11.9219 35.4987 11.5169 35.3877 11.4801" fill="white"/>
<path d="M31.5362 15.5637C31.1657 15.3424 30.7584 15.3057 30.6107 15.785C30.4997 16.1532 30.8357 16.3737 31.0922 16.5582C31.8614 17.0574 32.6658 17.5003 33.4989 17.8835C34.3877 18.3252 35.3132 18.7302 36.2387 19.1352C36.4982 19.2455 36.7937 19.3565 37.0532 19.4667C37.9104 19.8305 38.804 20.102 39.7187 20.2767C40.2981 20.363 40.8888 20.3375 41.4587 20.2017C41.7917 20.1267 42.4952 19.9437 42.5694 19.5387C42.5756 19.4148 42.5632 19.2907 42.5327 19.1705C42.3474 18.692 41.6072 18.7654 41.1999 18.8389C40.381 18.926 39.5531 18.8638 38.7564 18.6552C37.9883 18.4903 37.2335 18.2687 36.4982 17.9922C36.0909 17.8422 35.7204 17.6607 35.3132 17.5137C34.9427 17.33 34.5729 17.1455 34.2392 16.9617C33.5724 16.6302 32.8697 16.2987 32.2029 15.9312C32.0177 15.8562 31.8699 15.7475 31.6847 15.6732C31.6422 15.628 31.5919 15.5909 31.5362 15.5637Z" fill="white"/>
<path d="M39.9063 8.01672C39.7441 7.82648 39.5224 7.6967 39.2771 7.64847C39.1271 7.61172 38.8331 7.57347 38.7221 7.72347C38.0553 8.53347 41.7221 13.209 42.7203 18.9885C42.7649 19.1493 42.8414 19.2996 42.9453 19.4302C43.0563 19.5405 43.1703 19.5802 43.2783 19.467C43.3533 19.392 43.3893 19.1355 43.4283 19.062C43.5209 18.4889 43.5209 17.9048 43.4283 17.3317C43.3531 16.7487 43.2419 16.1708 43.0953 15.6015C42.9101 14.865 42.2441 12.6562 41.9846 11.9572C41.7264 11.2661 41.4297 10.5901 41.0958 9.93222C41.0602 9.83864 41.0095 9.75149 40.9458 9.67422C40.6359 9.10052 40.2897 8.54714 39.9093 8.01747" fill="white"/>
<path d="M46.4223 19.3918C46.4223 19.3918 46.3113 20.0548 46.6473 20.0548C46.8358 20.0397 47.0141 19.9631 47.1546 19.8366C47.2952 19.7101 47.3902 19.5409 47.425 19.355C47.4618 19.205 50.7941 9.23004 50.8683 8.82654C50.9899 8.68567 51.0629 8.50934 51.0764 8.32371C51.09 8.13808 51.0433 7.95304 50.9433 7.79604C50.9433 7.79604 50.758 7.64604 51.0543 7.53804C51.0543 7.53804 51.5725 7.50129 51.61 7.20654C51.61 7.20654 51.8351 6.65454 50.7956 6.65454C50.6103 6.65454 50.3883 6.69129 50.2031 6.69129C49.6557 6.7288 49.1115 6.80271 48.5741 6.91254C48.2036 6.98754 47.8338 7.06254 47.5 7.13379C47.1295 7.20879 46.7223 7.28379 46.3525 7.35504L45.3161 7.53879C45.2411 7.53879 45.166 7.57554 45.091 7.57554C44.9058 7.61229 44.7206 7.61229 44.5353 7.65054C44.0913 7.68729 43.684 7.72554 43.2393 7.76079C42.9929 7.77921 42.7455 7.77921 42.499 7.76079C41.9065 7.72404 41.2773 7.72404 40.6848 7.65054C40.5967 7.65651 40.5083 7.64399 40.4253 7.61379C40.3143 7.57704 40.3503 7.76379 40.3503 7.83504C40.3688 7.95709 40.3688 8.08124 40.3503 8.20329C40.3503 8.20329 40.2393 8.82879 41.0905 8.82879H43.6083C44.0156 8.82879 44.4228 8.82879 44.8668 8.79204C44.967 8.79803 45.0674 8.78557 45.163 8.75529C46.5093 8.60718 47.8448 8.37345 49.1613 8.05554C49.1613 8.05554 50.0126 7.76079 49.9391 8.05554C49.9391 8.05554 50.014 8.09229 49.5318 9.12279C49.495 9.12279 46.6068 15.9335 46.4216 19.394" fill="white"/>
</g>
<defs>
<clipPath id="clip0_825_3544">
<rect width="88.5" height="90.75" fill="white" transform="translate(0.580566 0.875)"/>
</clipPath>
</defs>
</svg>
