<svg width="144" height="63" viewBox="0 0 144 63" fill="none" xmlns="http://www.w3.org/2000/svg">
<g clip-path="url(#clip0_829_3678)">
<path fill-rule="evenodd" clip-rule="evenodd" d="M22.7319 54.3049C23.3376 53.9484 24.6992 53.2217 24.8619 53.1233C25.1224 52.9677 25.278 52.9874 25.2864 53.0679C25.3192 53.3767 25.3102 54.0277 25.7043 54.1606C25.8176 54.1982 26.1127 54.0605 26.1657 54.1392C26.3088 54.3526 26.3183 54.3139 26.3565 54.3765C26.4018 54.454 26.5985 54.4098 26.6408 54.4498C26.7499 54.5487 26.6337 54.6799 26.6969 54.749C26.7988 54.8575 26.9896 54.6799 27.0862 54.6996C27.2626 54.7341 27.3068 54.9321 27.2769 55.0602C27.2275 55.2695 27.3568 55.4299 27.7002 55.1455C27.8791 54.9953 27.891 55.0722 28.0454 54.9953C28.1372 54.95 28.2892 54.9547 28.3542 55.0197C28.4198 55.0841 28.5223 55.1974 28.6189 55.2331C28.762 55.2868 28.9152 55.2319 29.0028 55.2683C29.1369 55.322 29.1405 55.5169 29.2544 55.533C29.3671 55.5497 29.4827 55.3297 29.556 55.3971C29.7605 55.5896 29.3832 55.9217 29.6443 55.995C29.7862 56.0344 29.8434 55.9223 29.9567 55.9056C30.0699 55.8883 30.1355 55.7542 30.2339 55.7542C30.331 55.7542 30.4032 55.8698 30.526 55.8019C30.6273 55.7476 30.7072 55.7065 30.8014 55.651C30.9385 55.5682 31.0816 55.6093 31.1609 55.5437C31.2581 55.4662 31.1847 55.2528 31.4697 55.3053C31.7636 55.3601 31.4232 55.629 31.552 55.7381C31.6521 55.8221 31.8942 55.741 31.9723 55.7142C32.132 55.6624 32.2781 55.4674 32.3311 55.3327C32.3967 55.1699 32.6411 54.6334 32.7371 54.4891C32.8349 54.3419 33.0787 53.7737 33.2081 53.5782C33.3392 53.3856 33.8579 52.5552 33.9074 52.427C33.9551 52.2959 34.1423 52.1176 34.1899 52.0205C34.2394 51.9227 34.3449 51.5978 34.4749 51.3367C34.6055 51.0785 34.962 50.5581 34.9959 50.4609C35.0275 50.3637 35.3024 49.7306 35.4001 49.5357C35.4979 49.3407 35.8395 48.8948 35.9212 48.6832C36.0023 48.4721 36.2282 48.025 36.2282 48.025L36.472 47.6196C36.472 47.6196 36.5531 47.4408 36.6664 47.1976C36.7814 46.9531 37.1218 46.4345 37.2202 46.2551C37.3168 46.0762 37.5928 45.7024 37.5928 45.7024L37.8038 45.2326L37.966 44.8756C37.966 44.8756 38.0965 44.4529 38.1615 44.339C38.2259 44.2263 38.453 43.9497 38.5192 43.8037C38.5836 43.6564 38.7785 43.0066 38.8769 42.8129C38.9741 42.6173 39.4438 41.775 39.4933 41.611C39.541 41.4495 40.0287 40.5719 40.0776 40.3949C40.1264 40.2142 40.1431 39.9716 40.2063 39.8565C40.2719 39.7445 40.4674 39.4506 40.4996 39.3695C40.5318 39.289 40.8567 38.5092 40.9056 38.396C40.9545 38.2827 40.9873 38.0705 41.1173 38.0705C41.2466 38.0705 41.3402 38.2111 41.4255 38.3304C41.5226 38.4693 41.7176 38.4448 41.832 38.5575C41.9453 38.672 42.3179 39.078 42.3358 39.1429C42.3507 39.2079 42.5617 39.2246 42.61 39.289C42.6595 39.3546 42.6923 39.5173 42.7567 39.5489C42.8223 39.5811 43.1472 39.8076 43.2109 39.906C43.2765 40.0032 43.357 40.1999 43.4393 40.2637C43.5198 40.3287 43.8929 40.557 43.9412 40.653C43.9901 40.7502 44.5267 41.3994 44.591 41.5132C44.6566 41.6265 44.7055 41.8227 44.7532 41.9043C44.8027 41.9842 44.9964 42.0987 45.0143 42.1797C45.0292 42.2614 45.0465 42.5535 45.0954 42.6346C45.1431 42.7163 45.3696 42.8135 45.403 42.8945C45.4358 42.9756 45.5342 43.2838 45.583 43.3333C45.6313 43.381 45.7273 43.4472 45.7595 43.5104C45.7929 43.5759 45.8269 43.9348 45.8746 43.9974C45.9223 44.063 46.085 44.339 46.1333 44.4529C46.1828 44.5655 46.3467 44.7772 46.3777 44.8583C46.4099 44.9387 46.4254 45.266 46.4588 45.3769C46.4916 45.492 46.6376 45.7346 46.6531 45.802C46.6704 45.8658 46.7032 46.0607 46.7032 46.0607L46.8326 46.3695C46.8326 46.3695 46.9786 46.6771 46.9786 46.7922C46.9786 46.9049 47.0108 47.0348 47.0269 47.1153C47.0442 47.1976 47.1736 47.4062 47.1736 47.473C47.1736 47.5386 47.3524 47.9124 47.3524 47.9124C47.3524 47.9124 47.319 48.2367 47.3524 48.3177C47.3846 48.3982 47.5301 48.6254 47.5301 48.7064C47.5301 48.7881 47.4824 49.0003 47.4824 49.0003L47.5635 49.1309C47.5635 49.1309 47.5146 49.308 47.5474 49.3729C47.579 49.4373 47.5146 49.5852 47.5635 49.6329C47.6112 49.6817 47.7417 50.0251 47.7417 50.0251C47.644 50.139 40.8704 53.2718 37.966 54.6256C33.7822 56.5792 25.0843 60.9413 24.1591 61.4766C23.2338 62.012 22.6502 62.3208 22.4254 62.2057C21.9122 61.9405 21.0757 61.1982 20.504 59.6071C20.02 58.2658 20.0182 57.1492 20.0581 56.5894C20.0897 56.1601 20.0563 55.8394 20.7061 55.4644C20.9327 55.3333 22.1262 54.6626 22.7319 54.3049ZM10.6866 30.3181C10.652 30.2442 10.615 30.1166 10.7104 30.026C10.8064 29.933 10.9381 29.809 11.052 29.7815C11.1492 29.7577 11.1057 29.5896 11.4127 29.5455C11.6631 29.5097 11.796 29.208 11.9099 29.0107C11.9814 28.8843 12.4613 28.5666 12.8971 28.2977C13.7407 27.7731 15.7831 26.6255 19.6009 24.6415C24.6473 22.0202 32.9231 18.2567 39.8659 15.6467C47.3369 12.8365 57.4692 9.88849 59.6767 9.31201C59.9068 9.25299 60.131 9.11885 60.3271 9.08666C60.5215 9.05268 60.7164 9.15105 61.1701 9.05268C61.6255 8.9573 61.6899 8.82614 61.8533 8.79395C62.016 8.76116 62.242 8.82614 62.3403 8.85834C62.4369 8.89112 62.7296 8.89112 62.8274 8.9567C62.9252 9.02049 62.9568 9.11885 62.9568 9.24882C62.9568 9.37759 63.1523 9.50814 63.1523 9.50814C63.1523 9.50814 63.3204 9.58922 63.3472 9.70309C63.3723 9.81516 63.3145 10.1246 63.3145 10.1246C63.3145 10.1246 63.4635 10.1138 63.5082 10.2557C63.5559 10.3964 63.5082 10.4823 63.5082 10.4823C63.5082 10.4823 63.7049 10.611 63.7681 10.7744C63.8337 10.9371 63.7681 11.4242 63.8337 11.5857C63.8981 11.7485 64.2606 11.9327 64.3208 12.139C64.3828 12.344 64.3536 12.6266 64.3536 12.6266C64.3536 12.6266 64.5807 12.6582 64.5479 12.8842C64.5157 13.1131 64.2236 13.6323 64.2236 13.7623C64.2236 13.8929 64.4191 14.2499 64.3536 14.5087C64.2886 14.7698 64.1598 14.8008 64.0829 14.8467C64.0042 14.8932 63.3711 14.9904 63.0867 15.0613C60.3718 15.7391 46.0999 19.4013 37.8533 22.5961C32.5565 24.6469 26.7875 26.5844 19.4709 30.0975C19.2742 30.1929 18.7967 30.4397 18.7967 30.4397C18.7967 30.4397 18.191 30.7557 17.9644 30.8528C17.7373 30.9494 17.1984 31.2999 17.1984 31.2999C17.1984 31.2999 16.759 31.5581 16.7107 31.2677C16.6785 31.0722 16.4895 31.161 16.3101 31.0925C16.1611 31.0352 16.0686 30.9095 16.0245 30.8653C15.928 30.7688 15.6221 30.9339 15.4606 31.0001C15.2978 31.0639 15.3831 31.2463 15.1512 31.2677C14.9211 31.2886 14.8 31.6743 14.5669 31.7226C14.3332 31.7697 13.845 32.0308 13.5928 32.1447C13.4599 32.2037 13.2137 32.4762 13.0408 32.6323C12.8721 32.782 12.382 32.9406 12.2205 32.8756C12.0583 32.8094 12.2187 31.9128 12.0339 31.5915C11.9617 31.4663 12.0339 31.316 12.0017 31.2189C11.9689 31.1223 11.8389 31.1378 11.7412 31.1056C11.644 31.0722 11.6112 30.9089 11.5468 30.8123C11.4812 30.7157 11.5027 30.6078 11.3954 30.5273C11.3626 30.5017 11.266 30.5351 11.1987 30.5273C11.1319 30.5196 11.0246 30.4164 10.9662 30.4021C10.8636 30.3747 10.7206 30.3902 10.6866 30.3181ZM42.2291 25.7867C41.8911 25.584 42.0067 25.3944 42.399 25.2269C44.8158 24.1932 50.918 22.0184 54.4145 20.9072C57.4018 19.9599 65.652 17.273 67.9531 16.6107C68.5034 16.4533 68.7269 16.4593 68.972 16.718C69.5937 17.3798 70.2 18.271 70.7706 19.3775C71.2982 20.3987 71.7518 21.8753 71.9307 22.8036C72.0618 23.4832 71.7494 23.5994 71.3798 23.7652C68.8265 24.9074 62.5269 27.6664 59.9068 28.904C57.3476 30.113 52.6648 32.3641 51.0778 33.1623C50.4083 33.4992 50.5198 33.6381 50.0643 33.1182C49.9266 32.9626 49.706 32.5996 49.6429 32.5018C49.5773 32.4028 48.7003 31.6242 48.602 31.5271C48.5054 31.4287 48.0177 30.8445 47.889 30.7479C47.7572 30.6495 47.3357 30.0659 47.2064 30.0003C47.0764 29.9359 46.8558 29.8304 46.7599 29.7338C46.6615 29.6355 46.4916 29.4322 46.3944 29.3684C46.296 29.3022 46.0767 29.0751 46.0767 29.0751L45.7768 28.7991L45.5169 28.5058C45.5169 28.5058 45.2891 28.2154 45.1276 28.1505C44.9654 28.0849 44.7383 27.8262 44.6733 27.726C44.6077 27.6306 44.0879 26.9808 43.828 26.8175C43.4852 26.6029 43.1471 26.3811 42.8139 26.1522C42.6828 26.055 42.5105 25.9542 42.2291 25.7867ZM51.5237 34.6837C51.2727 34.4339 51.5935 34.3982 51.8814 34.2867C52.9467 33.8759 59.3035 31.8866 64.8388 30.4296C70.3521 28.9797 78.334 27.3242 79.5179 27.0851C80.0175 26.9826 80.2077 27.0595 80.461 27.4667C80.7543 27.9394 81.3636 29.5121 81.5979 30.7801C81.896 32.3885 81.6116 34.0291 81.4685 34.4184C81.3481 34.7439 80.8974 34.7666 79.822 35.0575C79.1769 35.234 76.4251 35.9422 75.2972 36.2683C73.9999 36.6457 70.5577 37.6412 69.2891 38.074C67.7212 38.6082 65.655 39.2896 65.655 39.2896L54.7078 39.4762C54.7078 39.4762 54.545 38.7387 54.4479 38.6714C54.3495 38.607 54.1867 38.2493 54.0902 38.1527C53.9936 38.0544 53.863 37.6979 53.863 37.6979C53.863 37.6979 53.7659 37.3086 53.6681 37.243C53.5703 37.178 53.3354 36.6176 53.2383 36.5527C53.1387 36.4877 52.9199 36.2045 52.8245 36.0739C52.7256 35.9446 52.6695 35.7818 52.5074 35.6519C52.3464 35.5213 52.1425 35.2614 52.0126 35.197C51.8814 35.1314 51.7729 34.9317 51.5237 34.6837ZM38.2831 13.5787C37.9714 13.5888 37.6989 13.5858 37.6244 13.4934C37.5827 13.4398 37.6268 13.3533 37.5517 13.286C37.473 13.2174 37.3204 13.2371 37.2715 13.2752C37.2226 13.311 37.2357 13.311 37.1254 13.348C37.0157 13.3843 36.602 13.2371 36.4553 13.286C36.3093 13.3354 35.9981 13.3498 35.8949 13.2997C35.7888 13.246 35.7721 12.9617 35.5909 12.8842C35.4949 12.8436 35.1891 12.6767 35.0913 12.5074C34.9936 12.3363 34.7378 12.0829 34.6842 11.9619C34.6287 11.8403 34.5453 11.6459 34.5059 11.5446C34.4684 11.4456 34.373 11.2412 34.3128 11.1678C34.2513 11.0939 34.1685 11.0307 34.1053 10.961C34.0409 10.8912 33.9878 10.6599 33.9223 10.5592C33.8895 10.5073 33.815 10.4042 33.7762 10.3267C33.7375 10.2498 33.7404 10.1597 33.7035 10.0715C33.6665 9.98208 33.5568 9.85272 33.5324 9.76747C33.5085 9.68162 33.4722 9.10872 33.4835 8.67174C33.4954 8.23237 33.4853 7.84547 33.5324 7.66066C33.5777 7.4842 33.6665 7.31966 33.7035 7.13605C33.7398 6.95422 33.9712 6.35747 34.0326 6.07787C34.0922 5.79768 34.2388 5.27307 34.3128 5.09005C34.3849 4.90763 34.5804 4.42116 34.6782 4.26199C34.7748 4.10341 35.1408 3.55615 35.2863 3.37372C35.4317 3.1907 36.1024 2.52122 36.261 2.39901C36.6969 2.06777 37.1437 1.75104 37.6005 1.44934C37.7126 1.37899 37.8933 1.37601 37.8933 1.37601L38.0512 1.21684C38.0512 1.21684 38.1371 1.12026 38.2211 1.05886C38.307 0.999242 38.5139 0.999242 38.5139 0.999242C38.5139 0.999242 38.7505 0.813242 39.0003 0.863915C39.1106 0.887761 39.1839 0.694012 39.2817 0.670165C39.3783 0.645127 39.7312 0.597435 39.7801 0.645127C39.8296 0.694012 39.8904 0.754223 40.0853 0.791781C40.2803 0.82755 40.449 0.782242 40.5241 0.803704C40.6242 0.831127 40.7304 0.961685 40.8043 0.984935C40.8758 1.01057 41.7653 1.82968 41.8869 2.03297C41.9286 2.10451 41.9405 2.23745 41.9614 2.2774C41.9972 2.34715 42.1504 2.44134 42.2034 2.66668C42.2452 2.84553 42.4246 2.90038 42.4479 3.15434C42.4598 3.30815 42.7459 3.43572 42.8252 3.75049C42.8449 3.8262 42.8831 4.1362 42.9069 4.1833C42.9314 4.23278 42.9963 4.24888 43.0321 4.35916C43.0679 4.46945 43.0929 4.62863 43.0816 4.76097C43.0679 4.8957 43.3117 5.39528 43.2879 5.69932C43.266 5.99263 43.213 6.28279 43.1299 6.56493C43.0559 6.79505 43.106 7.23262 43.0559 7.41743C43.0083 7.59866 42.8741 8.03743 42.8491 8.17216C42.8252 8.3063 42.4473 9.23093 42.3871 9.3287C42.3257 9.42587 42.1116 9.84318 42.0145 9.9648C41.9173 10.087 41.1667 11.1315 41.0338 11.268C40.8991 11.4009 40.564 11.6519 40.499 11.7527C40.4096 11.8898 40.3381 12.0513 40.2439 12.2034C40.0937 12.4418 39.8922 12.2648 39.7926 12.4335C39.6573 12.6642 39.3991 12.7256 39.3544 12.8603C39.2865 13.069 39.1136 13.2484 39.0379 13.311C38.8572 13.4612 38.4745 13.5721 38.2831 13.5787ZM16.4096 45.6625C16.4096 45.6625 13.2053 46.7439 11.9278 47.1976C10.7146 47.6292 9.38815 48.0978 8.49272 48.4644C7.40891 48.9055 5.49109 49.6871 5.03503 49.8463C4.32143 50.0973 4.01799 49.9476 3.82245 49.5244C3.62751 49.1029 3.16668 48.2188 2.90676 47.1803C2.64743 46.1412 2.55324 45.2797 2.53893 44.959C2.52343 44.6377 2.78872 44.0666 3.1798 43.8526C3.57207 43.6379 4.50147 43.0692 5.24905 42.6388C6.67624 41.8191 11.5963 39.1942 14.5264 37.6806C17.6294 36.0739 22.5232 33.703 25.1528 32.4034C27.7849 31.105 32.104 29.059 32.6244 28.8319C33.1431 28.6041 33.6951 28.3442 33.9551 28.3442C34.2144 28.3442 34.1178 28.4742 34.1178 28.5719C34.1178 28.6697 34.0284 28.7102 33.9962 28.904C33.9628 29.0989 33.9867 29.3189 33.9223 29.5151C33.8567 29.7082 33.6868 29.8948 33.6552 30.0242C33.6218 30.1541 33.5968 30.6185 33.4674 30.7801C33.338 30.9422 32.8754 31.8436 32.7771 32.2657C32.6805 32.6878 32.4611 33.3787 32.3639 33.5403C32.2668 33.703 31.9579 34.3117 31.9246 34.5072C31.8936 34.7022 31.6819 35.1648 31.6169 35.3597C31.5514 35.5547 31.1627 36.2778 31.0983 36.4066C31.0321 36.5371 30.7722 37.4057 30.7066 37.5351C30.6422 37.6663 30.3823 38.0544 30.3823 38.0544L30.2523 38.607C30.2523 38.607 29.8958 39.1274 29.8958 39.2246C29.8958 39.323 29.6359 40.1999 29.5066 40.3949C29.376 40.588 28.7584 41.9842 28.629 42.4719C28.4985 42.9583 28.2707 43.6737 28.2063 43.8359C28.142 43.9974 27.7849 44.5822 27.7205 44.7778C27.6549 44.9727 27.3628 45.9462 27.265 46.1412C27.1678 46.3367 26.9073 46.8888 26.9073 47.0831C26.9073 47.2786 26.713 47.7013 26.5496 48.0566C26.3881 48.4143 26.1931 49.0319 26.096 49.2597C25.9982 49.4862 25.8676 49.6454 25.8348 49.7759C25.8027 49.9053 25.7717 50.266 25.7383 50.3637C25.7077 50.4512 25.6749 50.5379 25.6399 50.6237C25.4789 50.7012 16.7411 54.4551 15.5083 55.04C14.273 55.6242 5.40882 59.8253 4.85678 60.0858C4.30534 60.3457 3.56909 60.9109 3.03791 60.5508C2.33564 60.0721 1.66914 59.0753 1.21785 58.19C0.842277 57.4526 0.433316 56.2204 0.373104 55.3327C0.299181 54.2143 0.766566 54.0086 2.40659 53.0572C3.21139 52.591 9.59024 49.2281 11.6356 48.1687C12.2163 47.87 16.4096 45.6625 16.4096 45.6625Z" fill="#EE0000"/>
<path fill-rule="evenodd" clip-rule="evenodd" d="M65.1777 52.1186H67.0949L64.9822 60.4111H62.4324L61.0821 55.1113H61.0612L59.7098 60.4111H57.7961L59.9131 52.1186H62.4944L63.7833 57.5132H63.8024L65.1783 52.118L65.1777 52.1186ZM69.811 54.3464C69.5368 55.4195 71.8457 56.4669 71.4355 58.4038C71.1971 59.5353 70.4739 60.5625 68.2044 60.5583C67.4932 60.5566 66.6019 60.3634 65.9867 60.1482L66.4493 58.2214C66.9632 58.5111 67.5444 58.7091 68.1579 58.7091C68.5173 58.7091 69.1487 58.6751 69.3335 58.0116C69.5839 57.1233 67.2827 56.0526 67.6511 54.1217C67.8395 53.1392 68.8506 51.9725 70.797 51.9725C71.3449 51.9725 72.0871 52.0679 72.7667 52.4494C72.7578 52.5311 72.3411 54.1717 72.3411 54.1717C71.9226 53.91 71.5428 53.7342 70.8966 53.7485C70.5592 53.7562 69.9249 53.91 69.811 54.3464ZM47.6406 54.3464C47.3652 55.4451 49.6765 56.4669 49.2657 58.4038C49.0273 59.5353 48.3053 60.5625 46.0322 60.5583C45.3246 60.5566 44.4303 60.3634 43.8169 60.1482L44.2813 58.2214C44.7922 58.5111 45.3764 58.7091 45.9863 58.7091C46.3452 58.7091 46.9765 58.6751 47.1631 58.0116C47.4111 57.1233 45.1123 56.0526 45.4808 54.1217C45.6674 53.1392 46.6808 51.9725 48.6273 51.9725C49.1733 51.9725 49.9913 52.0488 50.7156 52.5115C50.7061 52.5925 50.1713 54.1717 50.1713 54.1717C49.7516 53.91 49.3719 53.7342 48.7262 53.7485C48.3894 53.7562 47.7503 53.91 47.6406 54.3464ZM103.845 57.5126L105.224 52.1204H107.14L105.026 60.4063H102.472L101.128 55.1113H101.109L99.7558 60.4063H97.841L99.9567 52.1204H102.538L103.826 57.5126H103.845ZM79.4818 53.8963L79.1128 55.3503H81.7549L81.3025 57.1269H78.6579L77.8209 60.4063H75.633L77.7554 52.118H83.0957L82.6373 53.8963H79.4818ZM114.079 52.1192L113.622 53.8927H111.639L109.976 60.4039H107.788L109.452 53.8927H107.459L107.914 52.1192H114.079ZM114.846 52.1192H117.034L114.917 60.4105H112.731L114.846 52.1192ZM121.975 57.1245H119.242L118.858 58.6268H122.316L121.859 60.4105H116.216L118.334 52.1192H123.979L123.523 53.8927H120.067L119.695 55.348H122.427L121.975 57.1245ZM135.972 57.1245H133.174L132.791 58.625H136.246L135.792 60.4075H130.149L132.269 52.1192H137.909L137.454 53.8927H133.999L133.626 55.348L136.426 55.3468L135.972 57.1245ZM140.517 54.3452C140.217 55.3992 142.553 56.4663 142.142 58.4026C141.905 59.5359 141.18 60.5619 138.908 60.5577C138.2 60.5566 137.306 60.3634 136.694 60.1482L137.159 58.2214C137.669 58.5111 138.252 58.7079 138.862 58.7079C139.225 58.7079 139.853 58.6757 140.04 58.0116C140.289 57.1215 137.992 56.0526 138.357 54.1205C138.544 53.1374 139.558 51.9743 141.503 51.9743C142.052 51.9743 142.793 52.0673 143.475 52.4489C143.465 52.5323 143.045 54.17 143.045 54.17C142.629 53.9112 142.248 53.733 141.602 53.7485C141.264 53.7556 140.639 53.9142 140.517 54.3452ZM87.4321 56.7656C87.4584 56.9415 88.2208 60.4105 88.2208 60.4105H85.8696L85.1101 55.8177L85.8237 55.8165H85.8833C86.8431 55.8326 87.3516 55.3992 87.5186 54.7435C87.7421 53.8629 87.0679 53.8629 86.7531 53.8629H85.68L84.0102 60.4105H81.9207L84.0346 52.1192H87.7421C89.5717 52.1234 90.0552 53.0063 89.6343 54.6463C89.3982 55.5793 88.5392 56.5629 87.4321 56.7656ZM128.483 56.7626C128.509 56.9379 129.272 60.4075 129.272 60.4075H126.921L126.16 55.8136H126.933C127.895 55.8285 128.4 55.3956 128.568 54.7411C128.792 53.8588 128.115 53.8588 127.803 53.8588H126.731L125.057 60.4099H122.969L125.082 52.1192H128.789C130.621 52.1192 131.105 53.0015 130.685 54.6421C130.448 55.5751 129.589 56.5593 128.483 56.7626ZM83.578 49.7131H77.9384L80.0535 41.4278L85.6937 41.4289L85.2413 43.2061H81.7853L81.4134 44.6607H84.2314L83.7795 46.4372H80.9603L80.5763 47.939H84.0323L83.578 49.7131ZM68.9513 49.7137H63.3093L65.4257 41.4289H71.0659L70.6128 43.2043H67.1551L66.7837 44.6589H69.5755L69.1224 46.4354H66.3324L65.9485 47.939H69.4044L68.9513 49.7137ZM88.3025 49.8502C85.8088 49.8502 84.5032 48.308 85.2115 45.549C85.9221 42.8049 88.0217 41.2644 90.5142 41.2644C91.1247 41.2644 91.9522 41.3598 92.4649 41.5506L91.9909 43.4118C91.4901 43.2264 90.9816 43.0767 90.4147 43.0767C88.7103 43.0767 87.7022 44.4538 87.4184 45.5627C87.0864 46.8432 87.422 48.0319 88.7675 48.0319C89.6307 48.0319 90.2937 47.8722 90.9375 47.6963L90.4117 49.6147C89.7929 49.7214 88.7001 49.8502 88.3019 49.8502H88.3025ZM93.6816 49.7137H91.4961L93.6107 41.4272H95.7974L93.6816 49.7137ZM56.9162 43.7903L55.4031 49.7137H53.5539L55.6696 41.4313H58.7458L58.6063 46.6358H58.6254L61.2049 41.4313H64.1076L61.996 49.7137H60.1456L61.6562 43.7766H61.6359L58.6826 49.7155L56.8202 49.7131L56.9371 43.7903H56.9162ZM96.9032 49.7131H94.986L97.1131 41.4278L99.6861 41.4289L100.974 46.8206H100.993L102.371 41.4289H104.285L102.171 49.7137H99.6211L98.2756 44.4234H98.2529L96.9032 49.7131ZM107.006 43.6621C106.725 44.7555 109.042 45.7815 108.631 47.7219C108.39 48.8517 107.67 49.8788 105.398 49.8747C104.689 49.8729 103.794 49.6797 103.181 49.4645L103.646 47.5383C104.157 47.8275 104.74 48.0254 105.351 48.0254C105.711 48.0254 106.342 47.9938 106.529 47.3279C106.778 46.4396 104.478 45.3689 104.844 43.4374C105.032 42.4561 106.045 41.29 107.993 41.29C108.539 41.29 109.283 41.383 109.961 41.7652C109.951 41.8486 109.535 43.4863 109.535 43.4863C109.117 43.2264 108.736 43.0511 108.09 43.0654C107.754 43.0725 107.118 43.2258 107.006 43.6621ZM54.1029 52.1186H56.7278C56.8906 54.8353 57.2238 57.6551 57.4992 60.4093H55.1796L55.0389 58.0151H52.4766L51.0411 60.4093H48.6446C50.5248 57.7057 52.3049 54.8996 54.1029 52.1186ZM53.4412 56.2785L54.9 53.9023H54.9215L55.0645 56.2785H53.4412ZM95.0051 51.9868C97.4731 51.9868 98.833 53.5929 98.0234 56.511C97.2514 59.2027 95.1392 60.5715 92.8178 60.5715C90.3467 60.5715 89.0549 59.0298 89.7595 56.272C90.46 53.5291 92.5382 51.9868 95.0051 51.9868ZM95.8909 56.272C95.5327 57.5907 94.5234 58.7562 93.2774 58.7562C91.9575 58.7562 91.6159 57.5639 91.942 56.2863C92.2669 55.0046 93.222 53.8003 94.5442 53.8003C95.8152 53.8003 96.198 54.939 95.8909 56.272ZM78.1691 45.5645C77.5527 47.9747 75.9633 49.7131 73.5686 49.7149H70.1025L72.2165 41.4278H76.1433C77.1646 41.4278 79.0627 42.0597 78.1691 45.5645ZM75.9824 45.5645C75.6694 46.7806 74.8038 47.9378 73.5954 47.9378H72.6499L73.8571 43.2019H74.9498C76.1147 43.2019 76.3764 44.0246 75.9824 45.5645Z" fill="black"/>
</g>
<defs>
<clipPath id="clip0_829_3678">
<rect width="143.673" height="62" fill="white" transform="translate(0.219727 0.375)"/>
</clipPath>
</defs>
</svg>
