<svg width="107" height="121" viewBox="0 0 107 121" fill="none" xmlns="http://www.w3.org/2000/svg">
<circle cx="22.5601" cy="9.39898" r="8.92241" fill="#FFCB60"/>
<circle cx="53.5953" cy="9.39898" r="8.92241" fill="#FFCB60"/>
<circle cx="84.8882" cy="9.39898" r="8.92241" fill="#FFCB60"/>
<path d="M0.448242 34.0979C0.448242 26.8134 6.35345 20.9082 13.6379 20.9082H93.8103C101.095 20.9082 107 26.8134 107 34.0979V34.0979H0.448242V34.0979Z" fill="#FFCB60"/>
<path d="M0.448242 34.0977H8.20686V69.0114C8.20686 71.1539 6.47004 72.8908 4.32755 72.8908V72.8908C2.18507 72.8908 0.448242 71.1539 0.448242 69.0114V34.0977Z" fill="#FFCB60"/>
<path d="M10.5342 68.752H21.3962V115.045C21.3962 118.045 18.9647 120.476 15.9652 120.476V120.476C12.9657 120.476 10.5342 118.045 10.5342 115.045V68.752Z" fill="#FFCB60"/>
<path d="M23.7236 68.752H34.5857V115.045C34.5857 118.045 32.1541 120.476 29.1547 120.476V120.476C26.1552 120.476 23.7236 118.045 23.7236 115.045V68.752Z" fill="#FFCB60"/>
<path d="M54.7588 68.752H65.6209V115.045C65.6209 118.045 63.1893 120.476 60.1898 120.476V120.476C57.1903 120.476 54.7588 118.045 54.7588 115.045V68.752Z" fill="#FFCB60"/>
<path d="M86.0518 68.752H96.9138V115.045C96.9138 118.045 94.4823 120.476 91.4828 120.476V120.476C88.4833 120.476 86.0518 118.045 86.0518 115.045V68.752Z" fill="#FFCB60"/>
<path d="M41.8271 68.752H52.6892V115.045C52.6892 118.045 50.2577 120.476 47.2582 120.476V120.476C44.2587 120.476 41.8271 118.045 41.8271 115.045V68.752Z" fill="#FFCB60"/>
<path d="M72.8623 68.752H83.7244V115.045C83.7244 118.045 81.2928 120.476 78.2933 120.476V120.476C75.2939 120.476 72.8623 118.045 72.8623 115.045V68.752Z" fill="#FFCB60"/>
<path d="M99.2412 34.0977H107V69.0114C107 71.1539 105.263 72.8908 103.121 72.8908V72.8908C100.978 72.8908 99.2412 71.1539 99.2412 69.0114V34.0977Z" fill="#FFCB60"/>
<rect x="10.5342" y="34.0977" width="24.0517" height="34.6552" fill="#FFCB60"/>
<rect x="41.5693" y="34.0977" width="24.0517" height="34.6552" fill="#FFCB60"/>
<rect x="72.8623" y="34.0977" width="24.0517" height="34.6552" fill="#FFCB60"/>
</svg>
