<svg width="266" height="265" viewBox="0 0 266 265" fill="none" xmlns="http://www.w3.org/2000/svg">
<circle cx="133" cy="132.5" r="132.5" fill="#F1F3F3"/>
<path d="M249.455 147.613L216.848 158.793L235.895 189.434" stroke="#003333" stroke-width="2.27734"/>
<path d="M156.49 17.2598L159.189 49.2739" stroke="#003333" stroke-width="2.27734"/>
<line x1="75.3993" y1="65.3235" x2="56.5595" y2="42.7571" stroke="#003333" stroke-width="2.27734"/>
<line x1="57.7805" y1="82.0544" x2="30.2453" y2="75.2224" stroke="#003333" stroke-width="2.27734"/>
<path d="M14.4746 127.117L46.4609 132.293" stroke="#003333" stroke-width="2.27734"/>
<path d="M220.695 52.2828C217.955 54.2169 217.302 58.0062 219.236 60.7463C221.17 63.4864 224.959 64.1397 227.699 62.2055C230.44 60.2713 231.093 56.4821 229.159 53.742C227.224 51.0019 223.435 50.3486 220.695 52.2828ZM235.187 74.4351C232.447 76.3693 231.794 80.1585 233.728 82.8986C235.662 85.6387 239.452 86.292 242.192 84.3579C244.932 82.4237 245.585 78.6344 243.651 75.8943C241.717 73.1542 237.927 72.5009 235.187 74.4351ZM206.91 80.9492L205.99 80.2783L204.587 82.2028L206.966 82.0865L206.91 80.9492ZM223.277 56.5732L205.99 80.2783L207.83 81.6201L225.117 57.9151L223.277 56.5732ZM206.966 82.0865L238.745 80.5338L238.634 78.2592L206.855 79.8119L206.966 82.0865Z" fill="#003333"/>
<path d="M159.059 246.168C158.205 242.924 154.884 240.986 151.64 241.84C148.397 242.693 146.459 246.014 147.312 249.258C148.166 252.502 151.487 254.439 154.731 253.586C157.974 252.733 159.912 249.411 159.059 246.168ZM119.102 246.168C118.248 242.924 114.927 240.986 111.683 241.84C108.44 242.693 106.502 246.014 107.355 249.258C108.209 252.502 111.53 254.439 114.774 253.586C118.017 252.733 119.955 249.411 119.102 246.168ZM133.141 218.531L134.08 217.887L133.138 216.516L132.201 217.89L133.141 218.531ZM154.124 247.068L134.08 217.887L132.203 219.176L152.247 248.358L154.124 247.068ZM132.201 217.89L112.288 247.071L114.169 248.355L134.082 219.173L132.201 217.89Z" fill="#003333"/>
<path d="M228.518 208.177C227.664 204.934 224.343 202.996 221.1 203.849C217.856 204.703 215.918 208.024 216.772 211.267C217.625 214.511 220.946 216.449 224.19 215.595C227.433 214.742 229.371 211.421 228.518 208.177ZM215.742 221.156C214.889 217.913 211.567 215.975 208.324 216.828C205.08 217.682 203.143 221.003 203.996 224.247C204.849 227.49 208.17 229.428 211.414 228.575C214.658 227.721 216.595 224.4 215.742 221.156ZM191.693 197.507L192.111 196.448L188.496 195.021L190.77 198.174L191.693 197.507ZM223.063 208.663L192.111 196.448L191.275 198.567L222.227 210.781L223.063 208.663ZM190.77 198.174L208.945 223.368L210.792 222.035L192.617 196.841L190.77 198.174Z" fill="#003333"/>
<path d="M112.505 18.6254C111.652 21.869 108.331 23.8067 105.087 22.9534C101.844 22.1001 99.9059 18.7788 100.759 15.5352C101.613 12.2916 104.934 10.3539 108.177 11.2073C111.421 12.0606 113.359 15.3818 112.505 18.6254ZM84.6312 28.77C83.7778 32.0136 80.4566 33.9513 77.213 33.098C73.9694 32.2446 72.0317 28.9234 72.885 25.6798C73.7384 22.4362 77.0596 20.4985 80.3032 21.3518C83.5468 22.2052 85.4845 25.5264 84.6312 28.77ZM106.632 49.5718L107.771 49.5718L107.771 51.9441L105.92 50.4602L106.632 49.5718ZM107.771 17.0803L107.771 49.5718L105.494 49.5718L105.494 17.0803L107.771 17.0803ZM105.92 50.4602L78.0458 28.1133L79.4703 26.3365L107.345 48.6834L105.92 50.4602Z" fill="#003333"/>
<path d="M41.3612 195.859C40.5078 192.616 37.1866 190.678 33.943 191.531C30.6994 192.385 28.7617 195.706 29.615 198.95C30.4684 202.193 33.7896 204.131 37.0332 203.278C40.2768 202.424 42.2145 199.103 41.3612 195.859ZM27.4901 169.463C26.6367 166.219 23.3155 164.282 20.0719 165.135C16.8283 165.988 14.8906 169.31 15.744 172.553C16.5973 175.797 19.9185 177.734 23.1621 176.881C26.4057 176.028 28.3434 172.707 27.4901 169.463ZM48.6307 158.379L49.7098 158.742L50.5591 156.221L48.1485 157.348L48.6307 158.379ZM36.5672 197.768L49.7098 158.742L47.5516 158.016L34.409 197.041L36.5672 197.768ZM48.1485 157.348L21.1348 169.977L22.0993 172.04L49.113 159.411L48.1485 157.348Z" fill="#003333"/>
<path d="M20.3475 128.559C19.4942 131.803 16.1729 133.74 12.9293 132.887C9.68572 132.034 7.74803 128.712 8.60137 125.469C9.45471 122.225 12.7759 120.288 16.0196 121.141C19.2632 121.994 21.2009 125.315 20.3475 128.559ZM22.1073 152.885C21.2539 156.129 17.9327 158.066 14.6891 157.213C11.4455 156.36 9.5078 153.039 10.3611 149.795C11.2145 146.551 14.5357 144.614 17.7793 145.467C21.0229 146.32 22.9606 149.642 22.1073 152.885ZM48.6307 159.566L49.4163 158.742L52.561 161.739L48.3505 160.669L48.6307 159.566ZM15.26 126.19L49.4163 158.742L47.8451 160.39L13.6889 127.838L15.26 126.19ZM48.3505 160.669L15.954 152.444L16.5144 150.236L48.9109 158.462L48.3505 160.669Z" fill="#003333"/>
<path d="M190.809 63.6653C190.351 64.0965 190.33 64.8172 190.761 65.2749C191.192 65.7327 191.913 65.7542 192.371 65.323L190.809 63.6653ZM208.162 48.8831C210.462 51.3244 214.305 51.4391 216.746 49.1393C219.188 46.8396 219.302 42.9961 217.003 40.5548C214.703 38.1134 210.859 37.9987 208.418 40.2985C205.977 42.5983 205.862 46.4417 208.162 48.8831ZM192.371 65.323L213.363 45.5477L211.801 43.8901L190.809 63.6653L192.371 65.323Z" fill="#003333"/>
<path d="M159.34 216.969C158.883 216.538 158.861 215.818 159.292 215.36C159.723 214.902 160.444 214.881 160.902 215.312L159.34 216.969ZM176.693 231.752C178.993 229.31 182.836 229.196 185.278 231.495C187.719 233.795 187.834 237.639 185.534 240.08C183.234 242.521 179.391 242.636 176.949 240.336C174.508 238.036 174.393 234.193 176.693 231.752ZM160.902 215.312L181.894 235.087L180.333 236.745L159.34 216.969L160.902 215.312Z" fill="#003333"/>
<path d="M106.121 216.969C106.578 216.538 106.6 215.818 106.169 215.36C105.737 214.902 105.017 214.881 104.559 215.312L106.121 216.969ZM88.768 231.752C86.4682 229.31 82.6247 229.196 80.1834 231.495C77.7421 233.795 77.6273 237.639 79.9271 240.08C82.2269 242.521 86.0704 242.636 88.5117 240.336C90.953 238.036 91.0678 234.193 88.768 231.752ZM104.559 215.312L83.5668 235.087L85.1283 236.745L106.121 216.969L104.559 215.312Z" fill="#003333"/>
<path d="M215.287 104.577C214.693 104.784 214.381 105.434 214.588 106.028C214.796 106.621 215.446 106.934 216.039 106.726L215.287 104.577ZM239.717 97.3268C240.872 100.475 244.361 102.091 247.51 100.936C250.659 99.7805 252.275 96.2913 251.119 93.1426C249.964 89.9939 246.475 88.3781 243.326 89.5335C240.177 90.6889 238.561 94.1781 239.717 97.3268ZM216.039 106.726L245.794 96.3094L245.042 94.16L215.287 104.577L216.039 106.726Z" fill="#003333"/>
<path d="M219.842 129.627C219.248 129.835 218.935 130.485 219.143 131.078C219.351 131.672 220 131.985 220.594 131.777L219.842 129.627ZM244.271 122.378C245.427 125.526 248.916 127.142 252.065 125.987C255.213 124.831 256.829 121.342 255.674 118.193C254.518 115.045 251.029 113.429 247.881 114.584C244.732 115.74 243.116 119.229 244.271 122.378ZM220.594 131.777L250.349 121.36L249.596 119.211L219.842 129.627L220.594 131.777Z" fill="#003333"/>
<path d="M48.8499 105.226C49.4434 105.434 49.7561 106.083 49.5483 106.677C49.3406 107.271 48.6909 107.583 48.0974 107.375L48.8499 105.226ZM24.4199 97.9762C23.2645 101.125 19.7753 102.741 16.6267 101.585C13.478 100.43 11.8621 96.9407 13.0176 93.792C14.173 90.6434 17.6622 89.0275 20.8108 90.1829C23.9595 91.3384 25.5754 94.8275 24.4199 97.9762ZM48.0974 107.375L18.3425 96.9588L19.095 94.8094L48.8499 105.226L48.0974 107.375Z" fill="#003333"/>
<path d="M131.865 45.6403C131.917 46.2671 132.467 46.7333 133.093 46.6817C133.72 46.6301 134.186 46.0802 134.135 45.4534L131.865 45.6403ZM136.01 14.9564C137.165 11.8078 135.549 8.31858 132.401 7.16316C129.252 6.00773 125.763 7.62359 124.607 10.7723C123.452 13.9209 125.068 17.4101 128.217 18.5655C131.365 19.721 134.854 18.1051 136.01 14.9564ZM134.135 45.4534L131.443 12.7709L129.174 12.9578L131.865 45.6403L134.135 45.4534Z" fill="#003333"/>
<path d="M44.9377 138.468C48.2045 139.228 51.4688 137.196 52.2288 133.929C52.9888 130.662 50.9567 127.398 47.69 126.638C44.4233 125.878 41.1589 127.91 40.3989 131.177C39.6389 134.443 41.671 137.708 44.9377 138.468ZM56.7385 87.7451C60.0053 88.5051 63.2696 86.473 64.0296 83.2063C64.7896 79.9396 62.7575 76.6752 59.4908 75.9152C56.2241 75.1552 52.9597 77.1873 52.1997 80.454C51.4397 83.7208 53.4718 86.9851 56.7385 87.7451ZM47.4525 132.568C47.6124 120.246 48.3784 111.437 50.1692 103.852C51.9557 96.2847 54.7739 89.885 59.1005 82.4L57.1288 81.2603C52.726 88.8772 49.8042 95.4863 47.9528 103.329C46.1057 111.153 45.3361 120.154 45.1753 132.538L47.4525 132.568Z" fill="#008080"/>
<path d="M76.8063 201.145C59.1322 183.88 53.1219 174.362 48.2011 157.627" stroke="#008080" stroke-width="2.27734" stroke-linecap="round"/>
<path d="M188.632 200.938C206.306 183.673 212.317 174.155 217.237 157.42" stroke="#008080" stroke-width="2.27734" stroke-linecap="round"/>
<path d="M165.065 214.622C165.117 211.268 162.441 208.507 159.087 208.455C155.734 208.402 152.973 211.078 152.92 214.432C152.868 217.786 155.544 220.547 158.898 220.599C162.251 220.651 165.012 217.975 165.065 214.622ZM112.994 213.809C113.046 210.455 110.37 207.694 107.016 207.642C103.663 207.589 100.902 210.265 100.849 213.619C100.797 216.973 103.473 219.734 106.827 219.786C110.18 219.838 112.941 217.162 112.994 213.809ZM158.766 213.411C146.689 215.859 137.918 216.972 130.125 216.825C122.351 216.678 115.5 215.277 107.27 212.63L106.573 214.798C114.948 217.491 122.025 218.95 130.082 219.102C138.12 219.254 147.08 218.103 159.219 215.643L158.766 213.411Z" fill="#008080"/>
<path d="M165.118 49.3392C165.17 52.6928 162.494 55.4539 159.14 55.5062C155.787 55.5586 153.026 52.8824 152.973 49.5289C152.921 46.1753 155.597 43.4142 158.951 43.3619C162.304 43.3095 165.065 45.9857 165.118 49.3392ZM113.047 50.1523C113.099 53.5059 110.423 56.2669 107.069 56.3193C103.716 56.3717 100.955 53.6955 100.902 50.3419C100.85 46.9884 103.526 44.2273 106.88 44.175C110.233 44.1226 112.994 46.7987 113.047 50.1523ZM158.819 50.55C146.743 48.1021 137.971 46.9889 130.178 47.1359C122.404 47.2825 115.554 48.6844 107.323 51.3311L106.626 49.1631C115.001 46.4697 122.079 45.0109 130.135 44.8589C138.173 44.7073 147.134 45.8577 159.272 48.3181L158.819 50.55Z" fill="#008080"/>
<circle cx="133" cy="131.672" r="60.2461" fill="white" stroke="#FFCB60" stroke-width="3.72656"/>
<rect width="82.8125" height="82.8125" transform="translate(91.5938 90.2656)" fill="white"/>
<rect width="44.9622" height="50.7726" transform="translate(110.388 115.611)" fill="white"/>
<circle cx="132.877" cy="132.414" r="16.6801" transform="rotate(0.422522 132.877 132.414)" fill="#FFCB60"/>
<path d="M133.034 121.586L133.534 141.493L144.17 124.659L134.65 142.149L152.279 132.887L135.289 143.274L155.186 144.068L135.279 144.568L152.114 155.204L134.624 145.683L143.885 163.312L133.499 146.322L132.705 166.219L132.205 146.312L121.569 163.147L131.089 145.657L113.461 154.919L130.451 144.532L110.553 143.738L130.46 143.238L113.625 132.602L131.115 142.123L121.854 124.494L132.241 141.484L133.034 121.586Z" fill="white"/>
<path d="M128.625 127.711L132.851 142.036L137.289 127.775L133.787 142.294L144.76 132.162L134.468 142.985L149.037 139.697L134.712 143.924L148.973 148.361L134.454 144.859L144.585 155.833L133.763 145.54L137.05 160.109L132.824 145.785L128.386 160.045L131.888 145.527L120.915 155.658L131.207 144.835L116.639 148.123L130.963 143.896L116.702 139.459L131.221 142.961L121.09 131.988L131.912 142.28L128.625 127.711Z" fill="white"/>
<circle cx="132.87" cy="143.903" r="8.92685" transform="rotate(0.422522 132.87 143.903)" fill="white"/>
<path d="M92.5763 102.191C95.0183 102.169 96.5843 102.151 97.5517 102.137C97.281 102.088 100.809 102.09 97.5517 102.137C97.7061 102.165 99.0967 102.21 103.688 102.273L124.593 99.5358C133.013 101.254 137.68 102.567 145.916 105.477C146.997 105.128 151.819 112.252 157.855 120.505C158.472 121.426 158.614 124.491 158.737 131.597C158.677 132.604 157.965 132.268 155.535 130.127L153.035 120.47C148.487 116.813 145.145 114.32 143.937 112.531C139.341 110.96 136.613 110.193 131.431 109.065C129.78 109.333 128.664 109.74 125.952 111.434C127.519 114.234 129.954 115.855 133.448 118.719L140.651 122.306C141.834 123.396 141.858 124.129 141.431 125.525C140.845 126.954 140.334 127.224 139.328 127.437C127.568 124.153 120.597 122.06 107.432 117.402L92.5763 120.47L92.5763 102.191Z" fill="#008080"/>
<path d="M173.548 161.624C171.106 161.646 169.54 161.664 168.572 161.678C168.843 161.728 165.315 161.726 168.572 161.678C168.418 161.65 167.027 161.605 162.436 161.542L141.531 164.28C133.111 162.562 128.445 161.248 120.208 158.339C119.127 158.687 114.305 151.564 108.269 143.31C107.652 142.39 107.51 139.325 107.387 132.219C107.447 131.211 108.159 131.548 110.59 133.688L113.089 143.346C117.637 147.002 120.979 149.496 122.187 151.285C126.783 152.855 129.511 153.622 134.693 154.751C136.344 154.483 137.46 154.075 140.173 152.381C138.605 149.582 136.17 147.96 132.676 145.097L125.473 141.509C124.29 140.419 124.266 139.686 124.693 138.29C125.279 136.862 125.79 136.592 126.796 136.378C138.556 139.662 145.527 141.756 158.692 146.413L173.548 143.346L173.548 161.624Z" fill="#008080"/>
<path d="M80.7597 116.403C81.8452 113.23 80.1526 109.777 76.9792 108.691C73.8057 107.606 70.3531 109.299 69.2676 112.472C68.1821 115.645 69.8747 119.098 73.0482 120.184C76.2216 121.269 79.6742 119.576 80.7597 116.403ZM54.2772 107.344C55.3628 104.171 53.6702 100.718 50.4967 99.6327C47.3232 98.5472 43.8707 100.24 42.7851 103.413C41.6996 106.587 43.3922 110.039 46.5657 111.125C49.7391 112.21 53.1917 110.518 54.2772 107.344ZM75.3822 113.36L48.8997 104.301L48.1626 106.456L74.6451 115.515L75.3822 113.36Z" fill="#FFCB60"/>
<path d="M219.88 137.64C216.613 138.4 213.349 136.368 212.589 133.101C211.829 129.834 213.861 126.57 217.128 125.81C220.395 125.05 223.659 127.082 224.419 130.349C225.179 133.615 223.147 136.88 219.88 137.64ZM208.079 86.917C204.813 87.677 201.548 85.6449 200.788 82.3782C200.028 79.1114 202.06 75.8471 205.327 75.0871C208.594 74.3271 211.858 76.3592 212.618 79.6259C213.378 82.8926 211.346 86.157 208.079 86.917ZM217.365 131.739C217.205 119.418 216.439 110.609 214.649 103.024C212.862 95.4566 210.044 89.0569 205.717 81.5719L207.689 80.4322C212.092 88.0491 215.014 94.6581 216.865 102.501C218.712 110.325 219.482 119.326 219.643 131.71L217.365 131.739Z" fill="#008080"/>
<path d="M99.4194 87.7885C101.709 85.3373 101.577 81.4944 99.1259 79.2052C96.6747 76.9159 92.8318 77.0473 90.5426 79.4986C88.2533 81.9498 88.3847 85.7927 90.836 88.082C93.2872 90.3712 97.1301 90.2398 99.4194 87.7885ZM78.9636 68.6851C81.2528 66.2338 81.1214 62.3909 78.6702 60.1017C76.2189 57.8125 72.376 57.9438 70.0868 60.3951C67.7976 62.8463 67.9289 66.6893 70.3802 68.9785C72.8314 71.2677 76.6744 71.1363 78.9636 68.6851ZM95.7581 82.8114L75.3024 63.7079L73.748 65.3723L94.2038 84.4758L95.7581 82.8114Z" fill="#FFCB60"/>
<path d="M99.4194 174.676C101.709 177.128 101.577 180.97 99.1259 183.26C96.6747 185.549 92.8318 185.418 90.5426 182.966C88.2533 180.515 88.3847 176.672 90.836 174.383C93.2872 172.094 97.1301 172.225 99.4194 174.676ZM75.3024 198.757C74.8427 199.186 74.1222 199.162 73.693 198.702C73.2637 198.242 73.2884 197.522 73.748 197.093L75.3024 198.757ZM95.7581 179.653L75.3024 198.757L73.748 197.093L94.2038 177.989L95.7581 179.653Z" fill="#FFCB60"/>
<path d="M166.356 174.676C164.067 177.128 164.198 180.97 166.649 183.26C169.101 185.549 172.944 185.418 175.233 182.966C177.522 180.515 177.391 176.672 174.939 174.383C172.488 172.094 168.645 172.225 166.356 174.676ZM186.812 193.78C184.523 196.231 184.654 200.074 187.105 202.363C189.556 204.652 193.399 204.521 195.689 202.07C197.978 199.618 197.846 195.776 195.395 193.486C192.944 191.197 189.101 191.329 186.812 193.78ZM170.017 179.653L190.473 198.757L192.027 197.093L171.572 177.989L170.017 179.653Z" fill="#FFCB60"/>
<path d="M132.885 186.412C129.531 186.425 126.823 189.154 126.835 192.508C126.847 195.862 129.576 198.571 132.93 198.558C136.284 198.546 138.993 195.817 138.981 192.463C138.968 189.109 136.239 186.4 132.885 186.412ZM132.978 211.517C129.624 211.529 126.915 214.258 126.927 217.612C126.939 220.966 129.668 223.675 133.022 223.663C136.376 223.65 139.085 220.921 139.073 217.567C139.06 214.214 136.332 211.505 132.978 211.517ZM131.769 192.49L131.861 217.594L134.138 217.586L134.046 192.481L131.769 192.49Z" fill="#FFCB60"/>
<path d="M132.978 40.3021C129.624 40.3144 126.915 43.0433 126.927 46.3973C126.939 49.7512 129.668 52.4602 133.022 52.4479C136.376 52.4356 139.085 49.7067 139.073 46.3527C139.061 42.9988 136.332 40.2898 132.978 40.3021ZM133.07 65.4065C129.716 65.4188 127.007 68.1477 127.019 71.5017C127.032 74.8556 129.76 77.5646 133.114 77.5523C136.468 77.54 139.177 74.8111 139.165 71.4571C139.153 68.1032 136.424 65.3942 133.07 65.4065ZM131.861 46.3792L131.953 71.4836L134.231 71.4752L134.139 46.3708L131.861 46.3792Z" fill="#FFCB60"/>
<path d="M166.563 87.7885C164.274 85.3373 164.405 81.4944 166.856 79.2052C169.308 76.9159 173.151 77.0473 175.44 79.4986C177.729 81.9498 177.598 85.7927 175.146 88.082C172.695 90.3712 168.852 90.2398 166.563 87.7885ZM187.019 68.6851C184.73 66.2338 184.861 62.3909 187.312 60.1017C189.764 57.8125 193.606 57.9438 195.896 60.3951C198.185 62.8463 198.053 66.6893 195.602 68.9785C193.151 71.2677 189.308 71.1363 187.019 68.6851ZM170.224 82.8114L190.68 63.7079L192.234 65.3723L171.779 84.4758L170.224 82.8114Z" fill="#FFCB60"/>
<path d="M222.369 103.413C223.455 106.587 221.762 110.039 218.589 111.125C215.415 112.21 211.963 110.518 210.877 107.344C209.791 104.171 211.484 100.718 214.658 99.6329C217.831 98.5473 221.284 100.24 222.369 103.413ZM195.887 112.472C196.972 115.646 195.28 119.098 192.106 120.184C188.933 121.269 185.48 119.577 184.395 116.403C183.309 113.23 185.002 109.777 188.175 108.692C191.348 107.606 194.801 109.299 195.887 112.472ZM216.992 106.456L190.509 115.515L189.772 113.36L216.255 104.302L216.992 106.456Z" fill="#FFCB60"/>
<path d="M80.7597 147.304C81.8452 150.477 80.1526 153.93 76.9792 155.016C73.8057 156.101 70.3531 154.409 69.2676 151.235C68.1821 148.062 69.8747 144.609 73.0482 143.523C76.2216 142.438 79.6742 144.131 80.7597 147.304ZM54.2772 156.363C55.3628 159.536 53.6702 162.989 50.4967 164.074C47.3232 165.16 43.8707 163.467 42.7851 160.294C41.6996 157.12 43.3922 153.668 46.5657 152.582C49.7391 151.497 53.1917 153.189 54.2772 156.363ZM75.3822 150.347L48.8997 159.406L48.1626 157.251L74.6451 148.192L75.3822 150.347Z" fill="#FFCB60"/>
<path d="M222.783 160.294C223.869 157.12 222.176 153.668 219.003 152.582C215.829 151.497 212.377 153.189 211.291 156.363C210.206 159.536 211.898 162.989 215.072 164.074C218.245 165.16 221.698 163.467 222.783 160.294ZM196.301 151.235C197.386 148.061 195.694 144.609 192.52 143.523C189.347 142.438 185.894 144.13 184.809 147.304C183.723 150.477 185.416 153.93 188.589 155.015C191.763 156.101 195.215 154.408 196.301 151.235ZM217.406 157.251L190.923 148.192L190.186 150.347L216.669 159.406L217.406 157.251Z" fill="#FFCB60"/>
<path d="M49.1421 221.808C51.4419 224.249 55.2853 224.364 57.7266 222.064C60.168 219.764 60.2827 215.921 57.9829 213.479C55.6831 211.038 51.8397 210.923 49.3984 213.223C46.957 215.523 46.8423 219.366 49.1421 221.808ZM70.1344 202.032C72.4342 204.474 76.2776 204.589 78.7189 202.289C81.1603 199.989 81.275 196.146 78.9752 193.704C76.6754 191.263 72.832 191.148 70.3906 193.448C67.9493 195.748 67.8346 199.591 70.1344 202.032ZM54.3433 218.472L75.3356 198.697L73.774 197.04L52.7817 216.815L54.3433 218.472Z" fill="#003333"/>
<path d="M25.8823 78.2001C28.5248 80.2657 32.3414 79.798 34.407 77.1556C36.4725 74.5131 36.0049 70.6965 33.3624 68.6309C30.72 66.5654 26.9034 67.033 24.8378 69.6755C22.7722 72.3179 23.2399 76.1345 25.8823 78.2001ZM52.0372 47.0186C54.6797 49.0841 58.4963 48.6165 60.5619 45.974C62.6275 43.3316 62.1598 39.515 59.5174 37.4494C56.8749 35.3838 53.0583 35.8515 50.9927 38.4939C48.9271 41.1364 49.3948 44.953 52.0372 47.0186ZM30.6562 73.8928C36.84 60.4975 44.7645 52.3032 56.4793 43.1305L55.0753 41.3374C43.195 50.6397 34.9766 59.1005 28.5886 72.9383L30.6562 73.8928Z" fill="#003333"/>
<path d="M151.262 13.3637C149.896 16.4267 151.271 20.0175 154.334 21.384C157.397 22.7505 160.988 21.3753 162.354 18.3123C163.721 15.2494 162.346 11.6586 159.283 10.292C156.22 8.9255 152.629 10.3007 151.262 13.3637ZM188.201 27.7905C186.834 30.8535 188.209 34.4443 191.272 35.8108C194.335 37.1774 197.926 35.8021 199.293 32.7392C200.659 29.6762 199.284 26.0854 196.221 24.7189C193.158 23.3523 189.567 24.7276 188.201 27.7905ZM156.595 16.9565C171.3 19.7641 181.462 22.122 193.046 31.1625L194.447 29.3672C182.407 19.9708 171.779 17.5371 157.022 14.7196L156.595 16.9565Z" fill="#003333"/>
<path d="M251.955 141.806C248.805 140.654 245.317 142.274 244.166 145.424C243.014 148.574 244.634 152.061 247.784 153.213C250.934 154.365 254.421 152.745 255.573 149.595C256.725 146.445 255.105 142.957 251.955 141.806ZM237.98 183.937C234.83 182.785 231.343 184.405 230.191 187.555C229.039 190.705 230.659 194.192 233.809 195.344C236.959 196.496 240.446 194.876 241.598 191.726C242.75 188.576 241.13 185.088 237.98 183.937ZM248.739 147.374C246.96 162.177 243.188 176.794 234.951 189.003L236.838 190.277C245.362 177.644 249.201 162.622 251 147.645L248.739 147.374Z" fill="#003333"/>
</svg>
