<svg width="598" height="92" viewBox="0 0 598 92" fill="none" xmlns="http://www.w3.org/2000/svg">
<rect width="597.163" height="90.9768" transform="translate(0.418945 0.75)" fill="white"/>
<rect width="80.1161" height="80.1161" transform="translate(0.418945 6.17969)" fill="white"/>
<rect width="43.4982" height="49.1195" transform="translate(18.6016 30.6992)" fill="white"/>
<circle cx="40.3574" cy="46.9548" r="16.137" transform="rotate(0.422522 40.3574 46.9548)" fill="#FFCB60"/>
<path d="M40.5098 36.4815L40.9936 55.7403L51.2834 39.4536L42.073 56.3741L59.1276 47.4143L42.6909 57.4627L61.9405 58.2306L42.6816 58.7144L58.9684 69.0042L42.0478 59.7938L51.0076 76.8483L40.9592 60.4116L40.1914 79.6612L39.7075 60.4024L29.4178 76.6891L38.6281 59.7686L21.5736 68.7284L38.0103 58.68L18.7607 57.9121L38.0195 57.4283L21.7328 47.1385L38.6534 56.3489L29.6935 39.2944L39.742 55.7311L40.5098 36.4815Z" fill="white"/>
<path d="M36.2438 42.4049L40.3328 56.2629L44.6256 42.4667L41.2378 56.5126L51.8536 46.7112L41.8967 57.1813L55.991 54.0009L42.1329 58.0899L55.9292 62.3827L41.8833 58.9948L51.6847 69.6107L41.2146 59.6537L44.395 73.748L40.306 59.89L36.0131 73.6862L39.401 59.6404L28.7852 69.4418L38.7421 58.9717L24.6478 62.152L38.5058 58.0631L24.7096 53.7702L38.7555 57.1581L28.9541 46.5423L39.4242 56.4992L36.2438 42.4049Z" fill="white"/>
<circle cx="40.3506" cy="58.0707" r="8.63618" transform="rotate(0.422522 40.3506 58.0707)" fill="white"/>
<path d="M1.36902 17.7174C3.73145 17.6961 5.24647 17.6786 6.1824 17.6649C5.92049 17.6171 9.33336 17.619 6.1824 17.6649C6.3318 17.6923 7.67711 17.7358 12.1191 17.7966L32.3436 15.1482C40.4887 16.8104 45.0036 18.081 52.9724 20.8955C54.0179 20.5586 58.6826 27.45 64.5218 35.4349C65.1188 36.3254 65.2565 39.2908 65.3752 46.1654C65.3172 47.1397 64.6282 46.8145 62.2773 44.7437L59.8594 35.4006C55.4596 31.863 52.2258 29.4509 51.057 27.72C46.6106 26.2004 43.9718 25.4586 38.9587 24.3669C37.3615 24.6264 36.2812 25.0202 33.6575 26.6591C35.1743 29.3674 37.5297 30.9361 40.9104 33.7066L47.8788 37.1773C49.0228 38.2319 49.0462 38.9406 48.6329 40.2913C48.0664 41.6733 47.5713 41.9345 46.5988 42.1413C35.2213 38.9642 28.477 36.9389 15.7413 32.433L1.36901 35.4006L1.36902 17.7174Z" fill="#008080"/>
<path d="M79.7042 75.2143C77.3418 75.2355 75.8268 75.253 74.8908 75.2667C75.1528 75.3146 71.7399 75.3126 74.8908 75.2667C74.7414 75.2394 73.3961 75.1958 68.9541 75.135L48.7297 77.7834C40.5845 76.1213 36.0696 74.8506 28.1009 72.0361C27.0553 72.3731 22.3906 65.4816 16.5514 57.4967C15.9544 56.6062 15.8168 53.6409 15.698 46.7663C15.756 45.7919 16.445 46.1172 18.796 48.1879L21.2138 57.5311C25.6137 61.0686 28.8474 63.4808 30.0163 65.2117C34.4627 66.7312 37.1015 67.473 42.1145 68.5648C43.7117 68.3053 44.792 67.9114 47.4158 66.2725C45.899 63.5642 43.5435 61.9956 40.1629 59.225L33.1945 55.7544C32.0504 54.6998 32.0271 53.991 32.4403 52.6404C33.0068 51.2584 33.5019 50.9972 34.4745 50.7903C45.8519 53.9674 52.5962 55.9928 65.3319 60.4986L79.7042 57.5311L79.7042 75.2143Z" fill="#008080"/>
<path d="M117.901 62.75V17.885H139.821C145.461 17.885 149.691 18.9532 152.511 21.0896C155.374 23.2261 156.805 26.0462 156.805 29.5499C156.805 31.9 156.228 33.9509 155.075 35.7028C153.921 37.412 152.34 38.7365 150.332 39.6766C148.324 40.6166 146.016 41.0866 143.41 41.0866L144.627 38.4588C147.448 38.4588 149.947 38.9288 152.126 39.8688C154.306 40.7661 155.993 42.1121 157.19 43.9067C158.429 45.7013 159.048 47.9018 159.048 50.5083C159.048 54.3538 157.532 57.3662 154.498 59.5454C151.464 61.6818 146.999 62.75 141.102 62.75H117.901ZM128.22 54.9307H140.333C143.025 54.9307 145.055 54.5034 146.422 53.6488C147.832 52.7515 148.537 51.3415 148.537 49.4187C148.537 47.5386 147.832 46.1499 146.422 45.2526C145.055 44.3126 143.025 43.8426 140.333 43.8426H127.451V36.2796H138.539C141.06 36.2796 142.982 35.8524 144.307 34.9978C145.674 34.1005 146.358 32.7545 146.358 30.9599C146.358 29.2081 145.674 27.9048 144.307 27.0503C142.982 26.153 141.06 25.7043 138.539 25.7043H128.22V54.9307ZM183.317 63.2627C179.386 63.2627 175.925 62.4936 172.934 60.9554C169.986 59.4172 167.7 57.3235 166.076 54.6743C164.452 51.9824 163.641 48.9273 163.641 45.509C163.641 42.048 164.431 38.9929 166.012 36.3437C167.636 33.6518 169.836 31.5581 172.614 30.0626C175.391 28.5244 178.531 27.7553 182.035 27.7553C185.411 27.7553 188.444 28.4817 191.136 29.9345C193.871 31.3445 196.029 33.3955 197.61 36.0874C199.191 38.7365 199.981 41.9198 199.981 45.6372C199.981 46.0218 199.96 46.4704 199.917 46.9832C199.874 47.4532 199.832 47.9018 199.789 48.3291H171.78V42.4967H194.533L190.688 44.2272C190.688 42.4326 190.325 40.873 189.598 39.5484C188.872 38.2238 187.868 37.1983 186.586 36.4719C185.304 35.7028 183.808 35.3183 182.099 35.3183C180.39 35.3183 178.873 35.7028 177.549 36.4719C176.267 37.1983 175.263 38.2452 174.536 39.6125C173.81 40.9371 173.447 42.518 173.447 44.3553V45.8936C173.447 47.7736 173.853 49.44 174.665 50.8928C175.519 52.3029 176.694 53.3924 178.19 54.1616C179.728 54.8879 181.522 55.2511 183.573 55.2511C185.411 55.2511 187.013 54.9734 188.38 54.4179C189.79 53.8625 191.072 53.0292 192.226 51.9183L197.546 57.6867C195.965 59.4813 193.978 60.8699 191.585 61.8527C189.192 62.7927 186.436 63.2627 183.317 63.2627ZM227.596 27.7553C230.331 27.7553 232.766 28.3108 234.903 29.4217C237.082 30.4899 238.791 32.1563 240.03 34.421C241.269 36.6428 241.889 39.5057 241.889 43.0094V62.75H231.89V44.5476C231.89 41.7703 231.271 39.7193 230.032 38.3947C228.835 37.0701 227.126 36.4078 224.904 36.4078C223.323 36.4078 221.892 36.7497 220.61 37.4333C219.371 38.0742 218.388 39.0784 217.662 40.4457C216.978 41.813 216.636 43.5649 216.636 45.7013V62.75H206.638V28.268H216.188V37.8179L214.393 34.9337C215.632 32.6264 217.405 30.8531 219.713 29.614C222.02 28.3749 224.648 27.7553 227.596 27.7553ZM268.315 63.2627C264.384 63.2627 260.923 62.4936 257.932 60.9554C254.984 59.4172 252.698 57.3235 251.074 54.6743C249.451 51.9824 248.639 48.9273 248.639 45.509C248.639 42.048 249.429 38.9929 251.01 36.3437C252.634 33.6518 254.834 31.5581 257.612 30.0626C260.389 28.5244 263.53 27.7553 267.033 27.7553C270.409 27.7553 273.443 28.4817 276.135 29.9345C278.869 31.3445 281.027 33.3955 282.608 36.0874C284.189 38.7365 284.979 41.9198 284.979 45.6372C284.979 46.0218 284.958 46.4704 284.915 46.9832C284.873 47.4532 284.83 47.9018 284.787 48.3291H256.778V42.4967H279.531L275.686 44.2272C275.686 42.4326 275.323 40.873 274.596 39.5484C273.87 38.2238 272.866 37.1983 271.584 36.4719C270.302 35.7028 268.807 35.3183 267.097 35.3183C265.388 35.3183 263.871 35.7028 262.547 36.4719C261.265 37.1983 260.261 38.2452 259.534 39.6125C258.808 40.9371 258.445 42.518 258.445 44.3553V45.8936C258.445 47.7736 258.851 49.44 259.663 50.8928C260.517 52.3029 261.692 53.3924 263.188 54.1616C264.726 54.8879 266.521 55.2511 268.572 55.2511C270.409 55.2511 272.011 54.9734 273.379 54.4179C274.789 53.8625 276.07 53.0292 277.224 51.9183L282.544 57.6867C280.963 59.4813 278.976 60.8699 276.583 61.8527C274.19 62.7927 271.434 63.2627 268.315 63.2627ZM292.854 62.75V27.4989C292.854 23.6106 294.007 20.5128 296.315 18.2055C298.622 15.8554 301.912 14.6803 306.185 14.6803C307.638 14.6803 309.027 14.8299 310.351 15.129C311.718 15.4281 312.872 15.8981 313.812 16.539L311.184 23.7815C310.629 23.397 310.009 23.0979 309.326 22.8842C308.642 22.6706 307.916 22.5638 307.146 22.5638C305.694 22.5638 304.561 22.9911 303.75 23.8456C302.98 24.6575 302.596 25.8966 302.596 27.563V30.7677L302.852 35.0619V62.75H292.854ZM287.534 36.7283V29.0372H311.441V36.7283H287.534ZM336.947 62.75V56.0202L336.306 54.5461V42.4967C336.306 40.3602 335.643 38.6938 334.319 37.4974C333.037 36.301 331.05 35.7028 328.358 35.7028C326.521 35.7028 324.705 36.0019 322.91 36.6001C321.158 37.1556 319.663 37.9247 318.424 38.9075L314.835 31.9213C316.715 30.5967 318.979 29.5713 321.628 28.8449C324.278 28.1185 326.97 27.7553 329.704 27.7553C334.96 27.7553 339.04 28.9944 341.946 31.4727C344.851 33.9509 346.304 37.8179 346.304 43.0735V62.75H336.947ZM326.435 63.2627C323.744 63.2627 321.436 62.8141 319.513 61.9168C317.591 60.9768 316.116 59.7163 315.091 58.1353C314.065 56.5544 313.553 54.7811 313.553 52.8156C313.553 50.7646 314.044 48.97 315.027 47.4318C316.052 45.8936 317.655 44.6972 319.834 43.8426C322.013 42.9453 324.854 42.4967 328.358 42.4967H337.523V48.3291H329.448C327.098 48.3291 325.474 48.7137 324.577 49.4828C323.722 50.2519 323.295 51.2133 323.295 52.367C323.295 53.6488 323.786 54.6743 324.769 55.4434C325.794 56.1698 327.183 56.533 328.935 56.533C330.601 56.533 332.097 56.1484 333.422 55.3793C334.746 54.5675 335.708 53.3924 336.306 51.8542L337.844 56.4689C337.118 58.6908 335.793 60.3786 333.87 61.5322C331.947 62.6859 329.469 63.2627 326.435 63.2627ZM372.268 63.2627C368.55 63.2627 365.239 62.515 362.333 61.0195C359.428 59.4813 357.142 57.3662 355.475 54.6743C353.852 51.9824 353.04 48.9273 353.04 45.509C353.04 42.048 353.852 38.9929 355.475 36.3437C357.142 33.6518 359.428 31.5581 362.333 30.0626C365.239 28.5244 368.55 27.7553 372.268 27.7553C375.9 27.7553 379.062 28.5244 381.754 30.0626C384.445 31.5581 386.432 33.7159 387.714 36.536L379.959 40.7021C379.062 39.0784 377.929 37.882 376.562 37.1129C375.237 36.3437 373.785 35.9592 372.204 35.9592C370.495 35.9592 368.956 36.3437 367.589 37.1129C366.222 37.882 365.132 38.9715 364.32 40.3816C363.551 41.7916 363.167 43.5008 363.167 45.509C363.167 47.5173 363.551 49.2264 364.32 50.6364C365.132 52.0465 366.222 53.1361 367.589 53.9052C368.956 54.6743 370.495 55.0589 372.204 55.0589C373.785 55.0589 375.237 54.6957 376.562 53.9693C377.929 53.2002 379.062 51.9824 379.959 50.316L387.714 54.5461C386.432 57.3235 384.445 59.4813 381.754 61.0195C379.062 62.515 375.9 63.2627 372.268 63.2627ZM408.072 63.2627C404.013 63.2627 400.851 62.2373 398.586 60.1863C396.322 58.0926 395.19 54.9948 395.19 50.8928V20.641H405.188V50.7646C405.188 52.2174 405.573 53.3497 406.342 54.1616C407.111 54.9307 408.158 55.3152 409.482 55.3152C411.063 55.3152 412.409 54.8879 413.52 54.0334L416.212 61.0836C415.187 61.81 413.947 62.3654 412.495 62.75C411.085 63.0918 409.61 63.2627 408.072 63.2627ZM389.87 36.7283V29.0372H413.776V36.7283H389.87ZM437.168 63.2627C433.494 63.2627 430.225 62.4936 427.362 60.9554C424.542 59.4172 422.299 57.3235 420.632 54.6743C419.009 51.9824 418.197 48.9273 418.197 45.509C418.197 42.048 419.009 38.9929 420.632 36.3437C422.299 33.6518 424.542 31.5581 427.362 30.0626C430.225 28.5244 433.494 27.7553 437.168 27.7553C440.8 27.7553 444.048 28.5244 446.91 30.0626C449.773 31.5581 452.017 33.6305 453.64 36.2796C455.264 38.9288 456.076 42.0053 456.076 45.509C456.076 48.9273 455.264 51.9824 453.64 54.6743C452.017 57.3235 449.773 59.4172 446.91 60.9554C444.048 62.4936 440.8 63.2627 437.168 63.2627ZM437.168 55.0589C438.835 55.0589 440.33 54.6743 441.655 53.9052C442.979 53.1361 444.026 52.0465 444.795 50.6364C445.565 49.1837 445.949 47.4745 445.949 45.509C445.949 43.5008 445.565 41.7916 444.795 40.3816C444.026 38.9715 442.979 37.882 441.655 37.1129C440.33 36.3437 438.835 35.9592 437.168 35.9592C435.502 35.9592 434.006 36.3437 432.682 37.1129C431.357 37.882 430.289 38.9715 429.477 40.3816C428.708 41.7916 428.324 43.5008 428.324 45.509C428.324 47.4745 428.708 49.1837 429.477 50.6364C430.289 52.0465 431.357 53.1361 432.682 53.9052C434.006 54.6743 435.502 55.0589 437.168 55.0589ZM462.759 62.75V28.268H472.309V38.0102L470.963 35.1901C471.988 32.7545 473.633 30.9172 475.898 29.6781C478.163 28.3962 480.919 27.7553 484.166 27.7553V36.9847C483.739 36.9419 483.354 36.9206 483.012 36.9206C482.67 36.8778 482.307 36.8565 481.923 36.8565C479.188 36.8565 476.966 37.647 475.257 39.2279C473.591 40.7661 472.757 43.1803 472.757 46.4704V62.75H462.759ZM504.911 63.2627C502.048 63.2627 499.484 62.7073 497.219 61.5963C494.997 60.4854 493.267 58.7976 492.028 56.533C490.789 54.2256 490.169 51.2987 490.169 47.7523V28.268H500.168V46.2781C500.168 49.1409 500.766 51.256 501.962 52.6233C503.201 53.9479 504.932 54.6102 507.154 54.6102C508.692 54.6102 510.059 54.2897 511.256 53.6488C512.452 52.9652 513.392 51.9397 514.076 50.5724C514.759 49.1623 515.101 47.4104 515.101 45.3167V28.268H525.1V62.75H515.614V53.2643L517.345 56.0202C516.191 58.413 514.482 60.229 512.217 61.4681C509.995 62.6645 507.56 63.2627 504.911 63.2627ZM578.523 27.7553C581.257 27.7553 583.671 28.3108 585.765 29.4217C587.902 30.4899 589.568 32.1563 590.764 34.421C592.004 36.6428 592.623 39.5057 592.623 43.0094V62.75H582.625V44.5476C582.625 41.7703 582.048 39.7193 580.894 38.3947C579.74 37.0701 578.117 36.4078 576.023 36.4078C574.57 36.4078 573.267 36.7497 572.113 37.4333C570.96 38.0742 570.062 39.057 569.421 40.3816C568.781 41.7062 568.46 43.394 568.46 45.4449V62.75H558.462V44.5476C558.462 41.7703 557.885 39.7193 556.731 38.3947C555.62 37.0701 554.018 36.4078 551.924 36.4078C550.471 36.4078 549.168 36.7497 548.014 37.4333C546.861 38.0742 545.963 39.057 545.323 40.3816C544.682 41.7062 544.361 43.394 544.361 45.4449V62.75H534.363V28.268H543.913V37.6897L542.118 34.9337C543.314 32.5836 545.002 30.8104 547.181 29.614C549.403 28.3749 551.924 27.7553 554.744 27.7553C557.906 27.7553 560.662 28.5671 563.012 30.1908C565.405 31.7718 566.986 34.2073 567.755 37.4974L564.23 36.536C565.384 33.8441 567.221 31.7077 569.742 30.1267C572.306 28.5458 575.233 27.7553 578.523 27.7553Z" fill="#003333"/>
<path d="M306.321 85.7266V68.9022H313.171C314.966 68.9022 316.536 69.2627 317.882 69.9838C319.244 70.6888 320.301 71.6742 321.054 72.94C321.807 74.2059 322.184 75.664 322.184 77.3144C322.184 78.9648 321.807 80.4229 321.054 81.6887C320.301 82.9545 319.244 83.948 317.882 84.669C316.536 85.3741 314.966 85.7266 313.171 85.7266H306.321ZM308.1 84.1883H313.075C314.565 84.1883 315.855 83.8999 316.944 83.3231C318.05 82.7302 318.907 81.921 319.516 80.8956C320.125 79.8541 320.429 78.6603 320.429 77.3144C320.429 75.9524 320.125 74.7587 319.516 73.7332C318.907 72.7077 318.05 71.9065 316.944 71.3297C315.855 70.7368 314.565 70.4404 313.075 70.4404H308.1V84.1883ZM330.961 85.8467C329.743 85.8467 328.645 85.5743 327.668 85.0296C326.707 84.4687 325.946 83.7076 325.385 82.7462C324.824 81.7688 324.544 80.6552 324.544 79.4054C324.544 78.1396 324.824 77.026 325.385 76.0646C325.946 75.1032 326.707 74.3501 327.668 73.8053C328.629 73.2605 329.727 72.9881 330.961 72.9881C332.211 72.9881 333.316 73.2605 334.278 73.8053C335.255 74.3501 336.016 75.1032 336.561 76.0646C337.122 77.026 337.402 78.1396 337.402 79.4054C337.402 80.6552 337.122 81.7688 336.561 82.7462C336.016 83.7076 335.255 84.4687 334.278 85.0296C333.3 85.5743 332.195 85.8467 330.961 85.8467ZM330.961 84.3325C331.874 84.3325 332.683 84.1323 333.388 83.7317C334.093 83.3151 334.646 82.7382 335.047 82.0012C335.463 81.2481 335.672 80.3828 335.672 79.4054C335.672 78.412 335.463 77.5467 335.047 76.8096C334.646 76.0726 334.093 75.5037 333.388 75.1032C332.683 74.6866 331.882 74.4783 330.985 74.4783C330.088 74.4783 329.286 74.6866 328.581 75.1032C327.876 75.5037 327.316 76.0726 326.899 76.8096C326.482 77.5467 326.274 78.412 326.274 79.4054C326.274 80.3828 326.482 81.2481 326.899 82.0012C327.316 82.7382 327.876 83.3151 328.581 83.7317C329.286 84.1323 330.08 84.3325 330.961 84.3325ZM347.327 72.9881C348.353 72.9881 349.25 73.1884 350.019 73.589C350.804 73.9735 351.413 74.5664 351.846 75.3676C352.295 76.1687 352.519 77.1782 352.519 78.3959V85.7266H350.812V78.5642C350.812 77.2343 350.476 76.2328 349.803 75.5598C349.146 74.8708 348.217 74.5263 347.015 74.5263C346.118 74.5263 345.333 74.7106 344.66 75.0791C344.003 75.4316 343.49 75.9524 343.121 76.6414C342.769 77.3144 342.593 78.1316 342.593 79.093V85.7266H340.886V73.1083H342.52V76.5693L342.256 75.9204C342.657 75.007 343.298 74.294 344.179 73.7813C345.06 73.2525 346.11 72.9881 347.327 72.9881ZM363.57 72.9881C364.595 72.9881 365.493 73.1884 366.262 73.589C367.047 73.9735 367.656 74.5664 368.088 75.3676C368.537 76.1687 368.761 77.1782 368.761 78.3959V85.7266H367.055V78.5642C367.055 77.2343 366.718 76.2328 366.045 75.5598C365.388 74.8708 364.459 74.5263 363.257 74.5263C362.36 74.5263 361.575 74.7106 360.902 75.0791C360.245 75.4316 359.732 75.9524 359.364 76.6414C359.011 77.3144 358.835 78.1316 358.835 79.093V85.7266H357.128V73.1083H358.763V76.5693L358.498 75.9204C358.899 75.007 359.54 74.294 360.421 73.7813C361.302 73.2525 362.352 72.9881 363.57 72.9881ZM378.73 85.8467C377.417 85.8467 376.263 85.5743 375.269 85.0296C374.276 84.4687 373.499 83.7076 372.938 82.7462C372.377 81.7688 372.097 80.6552 372.097 79.4054C372.097 78.1556 372.361 77.05 372.89 76.0886C373.435 75.1272 374.172 74.3741 375.101 73.8293C376.047 73.2685 377.104 72.9881 378.274 72.9881C379.459 72.9881 380.509 73.2605 381.422 73.8053C382.352 74.3341 383.081 75.0871 383.61 76.0646C384.138 77.026 384.403 78.1396 384.403 79.4054C384.403 79.4855 384.395 79.5736 384.379 79.6698C384.379 79.7499 384.379 79.838 384.379 79.9342H373.395V78.6603H383.465L382.792 79.1651C382.792 78.2517 382.592 77.4426 382.191 76.7375C381.807 76.0165 381.278 75.4557 380.605 75.0551C379.932 74.6545 379.155 74.4542 378.274 74.4542C377.409 74.4542 376.631 74.6545 375.942 75.0551C375.253 75.4557 374.717 76.0165 374.332 76.7375C373.948 77.4586 373.755 78.2838 373.755 79.2131V79.4775C373.755 80.4389 373.964 81.2881 374.38 82.0252C374.813 82.7462 375.406 83.3151 376.159 83.7317C376.928 84.1323 377.801 84.3325 378.779 84.3325C379.548 84.3325 380.261 84.1963 380.918 83.924C381.591 83.6516 382.167 83.235 382.648 82.6741L383.61 83.7797C383.049 84.4527 382.344 84.9655 381.494 85.318C380.661 85.6705 379.74 85.8467 378.73 85.8467ZM387.876 85.7266V73.1083H389.51V76.5453L389.342 75.9444C389.695 74.983 390.288 74.2539 391.121 73.7572C391.954 73.2445 392.987 72.9881 394.221 72.9881V74.6465C394.157 74.6465 394.093 74.6465 394.029 74.6465C393.965 74.6305 393.901 74.6225 393.837 74.6225C392.507 74.6225 391.465 75.0311 390.712 75.8482C389.959 76.6494 389.583 77.7951 389.583 79.2852V85.7266H387.876ZM409.173 85.8467C407.859 85.8467 406.705 85.5743 405.712 85.0296C404.719 84.4687 403.941 83.7076 403.381 82.7462C402.82 81.7688 402.539 80.6552 402.539 79.4054C402.539 78.1556 402.804 77.05 403.333 76.0886C403.877 75.1272 404.614 74.3741 405.544 73.8293C406.489 73.2685 407.547 72.9881 408.716 72.9881C409.902 72.9881 410.952 73.2605 411.865 73.8053C412.794 74.3341 413.523 75.0871 414.052 76.0646C414.581 77.026 414.845 78.1396 414.845 79.4054C414.845 79.4855 414.837 79.5736 414.821 79.6698C414.821 79.7499 414.821 79.838 414.821 79.9342H403.837V78.6603H413.908L413.235 79.1651C413.235 78.2517 413.035 77.4426 412.634 76.7375C412.249 76.0165 411.721 75.4557 411.048 75.0551C410.375 74.6545 409.598 74.4542 408.716 74.4542C407.851 74.4542 407.074 74.6545 406.385 75.0551C405.696 75.4557 405.159 76.0165 404.775 76.7375C404.39 77.4586 404.198 78.2838 404.198 79.2131V79.4775C404.198 80.4389 404.406 81.2881 404.823 82.0252C405.255 82.7462 405.848 83.3151 406.601 83.7317C407.37 84.1323 408.244 84.3325 409.221 84.3325C409.99 84.3325 410.703 84.1963 411.36 83.924C412.033 83.6516 412.61 83.235 413.091 82.6741L414.052 83.7797C413.491 84.4527 412.786 84.9655 411.937 85.318C411.104 85.6705 410.182 85.8467 409.173 85.8467ZM424.76 72.9881C425.785 72.9881 426.683 73.1884 427.452 73.589C428.237 73.9735 428.846 74.5664 429.278 75.3676C429.727 76.1687 429.951 77.1782 429.951 78.3959V85.7266H428.245V78.5642C428.245 77.2343 427.909 76.2328 427.236 75.5598C426.579 74.8708 425.649 74.5263 424.447 74.5263C423.55 74.5263 422.765 74.7106 422.092 75.0791C421.435 75.4316 420.922 75.9524 420.554 76.6414C420.201 77.3144 420.025 78.1316 420.025 79.093V85.7266H418.319V73.1083H419.953V76.5693L419.689 75.9204C420.089 75.007 420.73 74.294 421.611 73.7813C422.493 73.2525 423.542 72.9881 424.76 72.9881ZM437.571 85.7266L431.971 73.1083H433.749L438.893 84.8132H438.052L443.267 73.1083H444.95L439.325 85.7266H437.571ZM447.353 85.7266V73.1083H449.059V85.7266H447.353ZM448.218 70.3202C447.866 70.3202 447.569 70.2001 447.329 69.9597C447.088 69.7194 446.968 69.431 446.968 69.0945C446.968 68.758 447.088 68.4776 447.329 68.2532C447.569 68.0129 447.866 67.8927 448.218 67.8927C448.571 67.8927 448.867 68.0049 449.107 68.2292C449.348 68.4535 449.468 68.7339 449.468 69.0704C449.468 69.4229 449.348 69.7194 449.107 69.9597C448.883 70.2001 448.587 70.3202 448.218 70.3202ZM459.167 85.8467C457.853 85.8467 456.7 85.5743 455.706 85.0296C454.713 84.4687 453.936 83.7076 453.375 82.7462C452.814 81.7688 452.534 80.6552 452.534 79.4054C452.534 78.1556 452.798 77.05 453.327 76.0886C453.872 75.1272 454.609 74.3741 455.538 73.8293C456.483 73.2685 457.541 72.9881 458.711 72.9881C459.896 72.9881 460.946 73.2605 461.859 73.8053C462.789 74.3341 463.518 75.0871 464.046 76.0646C464.575 77.026 464.84 78.1396 464.84 79.4054C464.84 79.4855 464.832 79.5736 464.815 79.6698C464.815 79.7499 464.815 79.838 464.815 79.9342H453.832V78.6603H463.902L463.229 79.1651C463.229 78.2517 463.029 77.4426 462.628 76.7375C462.244 76.0165 461.715 75.4557 461.042 75.0551C460.369 74.6545 459.592 74.4542 458.711 74.4542C457.845 74.4542 457.068 74.6545 456.379 75.0551C455.69 75.4557 455.153 76.0165 454.769 76.7375C454.384 77.4586 454.192 78.2838 454.192 79.2131V79.4775C454.192 80.4389 454.4 81.2881 454.817 82.0252C455.25 82.7462 455.842 83.3151 456.596 83.7317C457.365 84.1323 458.238 84.3325 459.215 84.3325C459.984 84.3325 460.698 84.1963 461.354 83.924C462.027 83.6516 462.604 83.235 463.085 82.6741L464.046 83.7797C463.486 84.4527 462.781 84.9655 461.931 85.318C461.098 85.6705 460.177 85.8467 459.167 85.8467ZM479.627 85.8467C478.425 85.8467 477.343 85.5743 476.382 85.0296C475.436 84.4848 474.691 83.7317 474.147 82.7703C473.602 81.7929 473.329 80.6712 473.329 79.4054C473.329 78.1235 473.602 77.0019 474.147 76.0405C474.691 75.0791 475.436 74.3341 476.382 73.8053C477.343 73.2605 478.425 72.9881 479.627 72.9881C480.732 72.9881 481.718 73.2365 482.583 73.7332C483.464 74.2299 484.161 74.959 484.674 75.9204C485.203 76.8657 485.467 78.0274 485.467 79.4054C485.467 80.7674 485.211 81.9291 484.698 82.8905C484.185 83.8518 483.488 84.5889 482.607 85.1017C481.742 85.5984 480.748 85.8467 479.627 85.8467ZM479.747 84.3325C480.644 84.3325 481.445 84.1323 482.15 83.7317C482.871 83.3151 483.432 82.7382 483.833 82.0012C484.249 81.2481 484.458 80.3828 484.458 79.4054C484.458 78.412 484.249 77.5467 483.833 76.8096C483.432 76.0726 482.871 75.5037 482.15 75.1032C481.445 74.6866 480.644 74.4783 479.747 74.4783C478.865 74.4783 478.072 74.6866 477.367 75.1032C476.662 75.5037 476.101 76.0726 475.685 76.8096C475.268 77.5467 475.06 78.412 475.06 79.4054C475.06 80.3828 475.268 81.2481 475.685 82.0012C476.101 82.7382 476.662 83.3151 477.367 83.7317C478.072 84.1323 478.865 84.3325 479.747 84.3325ZM484.506 85.7266V81.9291L484.674 79.3814L484.434 76.8337V67.8927H486.14V85.7266H484.506ZM496.252 85.8467C494.938 85.8467 493.785 85.5743 492.791 85.0296C491.798 84.4687 491.021 83.7076 490.46 82.7462C489.899 81.7688 489.619 80.6552 489.619 79.4054C489.619 78.1556 489.883 77.05 490.412 76.0886C490.957 75.1272 491.694 74.3741 492.623 73.8293C493.568 73.2685 494.626 72.9881 495.796 72.9881C496.981 72.9881 498.031 73.2605 498.944 73.8053C499.874 74.3341 500.603 75.0871 501.131 76.0646C501.66 77.026 501.924 78.1396 501.924 79.4054C501.924 79.4855 501.916 79.5736 501.9 79.6698C501.9 79.7499 501.9 79.838 501.9 79.9342H490.917V78.6603H500.987L500.314 79.1651C500.314 78.2517 500.114 77.4426 499.713 76.7375C499.329 76.0165 498.8 75.4557 498.127 75.0551C497.454 74.6545 496.677 74.4542 495.796 74.4542C494.93 74.4542 494.153 74.6545 493.464 75.0551C492.775 75.4557 492.238 76.0165 491.854 76.7375C491.469 77.4586 491.277 78.2838 491.277 79.2131V79.4775C491.277 80.4389 491.485 81.2881 491.902 82.0252C492.335 82.7462 492.927 83.3151 493.681 83.7317C494.45 84.1323 495.323 84.3325 496.3 84.3325C497.069 84.3325 497.782 84.1963 498.439 83.924C499.112 83.6516 499.689 83.235 500.17 82.6741L501.131 83.7797C500.571 84.4527 499.866 84.9655 499.016 85.318C498.183 85.6705 497.262 85.8467 496.252 85.8467ZM516.712 85.8467C515.51 85.8467 514.428 85.5743 513.467 85.0296C512.521 84.4848 511.776 83.7317 511.232 82.7703C510.687 81.7929 510.414 80.6712 510.414 79.4054C510.414 78.1235 510.687 77.0019 511.232 76.0405C511.776 75.0791 512.521 74.3341 513.467 73.8053C514.428 73.2605 515.51 72.9881 516.712 72.9881C517.817 72.9881 518.803 73.2365 519.668 73.7332C520.549 74.2299 521.246 74.959 521.759 75.9204C522.288 76.8657 522.552 78.0274 522.552 79.4054C522.552 80.7674 522.296 81.9291 521.783 82.8905C521.27 83.8518 520.573 84.5889 519.692 85.1017C518.827 85.5984 517.833 85.8467 516.712 85.8467ZM516.832 84.3325C517.729 84.3325 518.53 84.1323 519.235 83.7317C519.956 83.3151 520.517 82.7382 520.918 82.0012C521.334 81.2481 521.543 80.3828 521.543 79.4054C521.543 78.412 521.334 77.5467 520.918 76.8096C520.517 76.0726 519.956 75.5037 519.235 75.1032C518.53 74.6866 517.729 74.4783 516.832 74.4783C515.95 74.4783 515.157 74.6866 514.452 75.1032C513.747 75.5037 513.186 76.0726 512.77 76.8096C512.353 77.5467 512.145 78.412 512.145 79.4054C512.145 80.3828 512.353 81.2481 512.77 82.0012C513.186 82.7382 513.747 83.3151 514.452 83.7317C515.157 84.1323 515.95 84.3325 516.832 84.3325ZM521.591 85.7266V81.9291L521.759 79.3814L521.519 76.8337V67.8927H523.225V85.7266H521.591ZM533.121 85.8467C531.903 85.8467 530.806 85.5743 529.828 85.0296C528.867 84.4687 528.106 83.7076 527.545 82.7462C526.984 81.7688 526.704 80.6552 526.704 79.4054C526.704 78.1396 526.984 77.026 527.545 76.0646C528.106 75.1032 528.867 74.3501 529.828 73.8053C530.79 73.2605 531.887 72.9881 533.121 72.9881C534.371 72.9881 535.476 73.2605 536.438 73.8053C537.415 74.3501 538.176 75.1032 538.721 76.0646C539.282 77.026 539.562 78.1396 539.562 79.4054C539.562 80.6552 539.282 81.7688 538.721 82.7462C538.176 83.7076 537.415 84.4687 536.438 85.0296C535.46 85.5743 534.355 85.8467 533.121 85.8467ZM533.121 84.3325C534.034 84.3325 534.843 84.1323 535.548 83.7317C536.253 83.3151 536.806 82.7382 537.207 82.0012C537.623 81.2481 537.832 80.3828 537.832 79.4054C537.832 78.412 537.623 77.5467 537.207 76.8096C536.806 76.0726 536.253 75.5037 535.548 75.1032C534.843 74.6866 534.042 74.4783 533.145 74.4783C532.248 74.4783 531.447 74.6866 530.742 75.1032C530.036 75.5037 529.476 76.0726 529.059 76.8096C528.642 77.5467 528.434 78.412 528.434 79.4054C528.434 80.3828 528.642 81.2481 529.059 82.0012C529.476 82.7382 530.036 83.3151 530.742 83.7317C531.447 84.1323 532.24 84.3325 533.121 84.3325ZM549.488 72.9881C550.513 72.9881 551.41 73.1884 552.179 73.589C552.965 73.9735 553.573 74.5664 554.006 75.3676C554.455 76.1687 554.679 77.1782 554.679 78.3959V85.7266H552.973V78.5642C552.973 77.2343 552.636 76.2328 551.963 75.5598C551.306 74.8708 550.377 74.5263 549.175 74.5263C548.278 74.5263 547.493 74.7106 546.82 75.0791C546.163 75.4316 545.65 75.9524 545.281 76.6414C544.929 77.3144 544.753 78.1316 544.753 79.093V85.7266H543.046V73.1083H544.681V76.5693L544.416 75.9204C544.817 75.007 545.458 74.294 546.339 73.7813C547.22 73.2525 548.27 72.9881 549.488 72.9881ZM565.73 72.9881C566.755 72.9881 567.653 73.1884 568.422 73.589C569.207 73.9735 569.816 74.5664 570.248 75.3676C570.697 76.1687 570.921 77.1782 570.921 78.3959V85.7266H569.215V78.5642C569.215 77.2343 568.878 76.2328 568.205 75.5598C567.548 74.8708 566.619 74.5263 565.417 74.5263C564.52 74.5263 563.735 74.7106 563.062 75.0791C562.405 75.4316 561.892 75.9524 561.524 76.6414C561.171 77.3144 560.995 78.1316 560.995 79.093V85.7266H559.288V73.1083H560.923V76.5693L560.658 75.9204C561.059 75.007 561.7 74.294 562.581 73.7813C563.463 73.2525 564.512 72.9881 565.73 72.9881ZM580.891 85.8467C579.577 85.8467 578.423 85.5743 577.43 85.0296C576.436 84.4687 575.659 83.7076 575.098 82.7462C574.537 81.7688 574.257 80.6552 574.257 79.4054C574.257 78.1556 574.521 77.05 575.05 76.0886C575.595 75.1272 576.332 74.3741 577.261 73.8293C578.207 73.2685 579.264 72.9881 580.434 72.9881C581.62 72.9881 582.669 73.2605 583.582 73.8053C584.512 74.3341 585.241 75.0871 585.77 76.0646C586.298 77.026 586.563 78.1396 586.563 79.4054C586.563 79.4855 586.555 79.5736 586.539 79.6698C586.539 79.7499 586.539 79.838 586.539 79.9342H575.555V78.6603H585.625L584.952 79.1651C584.952 78.2517 584.752 77.4426 584.352 76.7375C583.967 76.0165 583.438 75.4557 582.765 75.0551C582.092 74.6545 581.315 74.4542 580.434 74.4542C579.569 74.4542 578.792 74.6545 578.103 75.0551C577.414 75.4557 576.877 76.0165 576.492 76.7375C576.108 77.4586 575.915 78.2838 575.915 79.2131V79.4775C575.915 80.4389 576.124 81.2881 576.54 82.0252C576.973 82.7462 577.566 83.3151 578.319 83.7317C579.088 84.1323 579.961 84.3325 580.939 84.3325C581.708 84.3325 582.421 84.1963 583.078 83.924C583.751 83.6516 584.328 83.235 584.808 82.6741L585.77 83.7797C585.209 84.4527 584.504 84.9655 583.655 85.318C582.821 85.6705 581.9 85.8467 580.891 85.8467ZM590.036 85.7266V73.1083H591.671V76.5453L591.502 75.9444C591.855 74.983 592.448 74.2539 593.281 73.7572C594.114 73.2445 595.148 72.9881 596.381 72.9881V74.6465C596.317 74.6465 596.253 74.6465 596.189 74.6465C596.125 74.6305 596.061 74.6225 595.997 74.6225C594.667 74.6225 593.625 75.0311 592.872 75.8482C592.119 76.6494 591.743 77.7951 591.743 79.2852V85.7266H590.036Z" fill="#003333"/>
</svg>
