<svg width="486" height="92" viewBox="0 0 486 92" fill="none" xmlns="http://www.w3.org/2000/svg">
<path d="M5.90076 62.75V17.885H27.8205C33.4607 17.885 37.6908 18.9532 40.5109 21.0896C43.3737 23.2261 44.8051 26.0462 44.8051 29.5499C44.8051 31.9 44.2283 33.9509 43.0746 35.7028C41.921 37.412 40.34 38.7365 38.3318 39.6766C36.3235 40.6166 34.0162 41.0866 31.4097 41.0866L32.6275 38.4588C35.4476 38.4588 37.9472 38.9288 40.1264 39.8688C42.3055 40.7661 43.9933 42.1121 45.1897 43.9067C46.4288 45.7013 47.0484 47.9018 47.0484 50.5083C47.0484 54.3538 45.5315 57.3662 42.4978 59.5454C39.4641 61.6818 34.9989 62.75 29.1024 62.75H5.90076ZM16.2197 54.9307H28.3333C31.0252 54.9307 33.0548 54.5034 34.4221 53.6488C35.8321 52.7515 36.5372 51.3415 36.5372 49.4187C36.5372 47.5386 35.8321 46.1499 34.4221 45.2526C33.0548 44.3126 31.0252 43.8426 28.3333 43.8426H15.4506V36.2796H26.5387C29.0597 36.2796 30.9824 35.8524 32.307 34.9978C33.6743 34.1005 34.358 32.7545 34.358 30.9599C34.358 29.2081 33.6743 27.9048 32.307 27.0503C30.9824 26.153 29.0597 25.7043 26.5387 25.7043H16.2197V54.9307ZM71.317 63.2627C67.386 63.2627 63.925 62.4936 60.934 60.9554C57.9857 59.4172 55.6998 57.3235 54.0761 54.6743C52.4524 51.9824 51.6405 48.9273 51.6405 45.509C51.6405 42.048 52.431 38.9929 54.012 36.3437C55.6357 33.6518 57.8362 31.5581 60.6135 30.0626C63.3909 28.5244 66.5314 27.7553 70.0352 27.7553C73.4107 27.7553 76.4445 28.4817 79.1364 29.9345C81.871 31.3445 84.0288 33.3955 85.6098 36.0874C87.1907 38.7365 87.9812 41.9198 87.9812 45.6372C87.9812 46.0218 87.9598 46.4704 87.9171 46.9832C87.8744 47.4532 87.8316 47.9018 87.7889 48.3291H59.7803V42.4967H82.5333L78.6877 44.2272C78.6877 42.4326 78.3245 40.873 77.5981 39.5484C76.8718 38.2238 75.8676 37.1983 74.5858 36.4719C73.3039 35.7028 71.8084 35.3183 70.0993 35.3183C68.3901 35.3183 66.8733 35.7028 65.5487 36.4719C64.2668 37.1983 63.2627 38.2452 62.5363 39.6125C61.8099 40.9371 61.4467 42.518 61.4467 44.3553V45.8936C61.4467 47.7736 61.8527 49.44 62.6645 50.8928C63.5191 52.3029 64.6941 53.3924 66.1896 54.1616C67.7278 54.8879 69.5224 55.2511 71.5734 55.2511C73.4107 55.2511 75.0131 54.9734 76.3804 54.4179C77.7904 53.8625 79.0723 53.0292 80.226 51.9183L85.5457 57.6867C83.9647 59.4813 81.9778 60.8699 79.585 61.8527C77.1922 62.7927 74.4362 63.2627 71.317 63.2627ZM115.596 27.7553C118.331 27.7553 120.766 28.3108 122.903 29.4217C125.082 30.4899 126.791 32.1563 128.03 34.421C129.269 36.6428 129.889 39.5057 129.889 43.0094V62.75H119.89V44.5476C119.89 41.7703 119.271 39.7193 118.032 38.3947C116.835 37.0701 115.126 36.4078 112.904 36.4078C111.323 36.4078 109.892 36.7497 108.61 37.4333C107.371 38.0742 106.388 39.0784 105.662 40.4457C104.978 41.813 104.636 43.5649 104.636 45.7013V62.75H94.6378V28.268H104.188V37.8179L102.393 34.9337C103.632 32.6264 105.405 30.8531 107.713 29.614C110.02 28.3749 112.648 27.7553 115.596 27.7553ZM156.315 63.2627C152.384 63.2627 148.923 62.4936 145.932 60.9554C142.984 59.4172 140.698 57.3235 139.074 54.6743C137.451 51.9824 136.639 48.9273 136.639 45.509C136.639 42.048 137.429 38.9929 139.01 36.3437C140.634 33.6518 142.834 31.5581 145.612 30.0626C148.389 28.5244 151.53 27.7553 155.033 27.7553C158.409 27.7553 161.443 28.4817 164.135 29.9345C166.869 31.3445 169.027 33.3955 170.608 36.0874C172.189 38.7365 172.979 41.9198 172.979 45.6372C172.979 46.0218 172.958 46.4704 172.915 46.9832C172.873 47.4532 172.83 47.9018 172.787 48.3291H144.778V42.4967H167.531L163.686 44.2272C163.686 42.4326 163.323 40.873 162.596 39.5484C161.87 38.2238 160.866 37.1983 159.584 36.4719C158.302 35.7028 156.807 35.3183 155.097 35.3183C153.388 35.3183 151.871 35.7028 150.547 36.4719C149.265 37.1983 148.261 38.2452 147.534 39.6125C146.808 40.9371 146.445 42.518 146.445 44.3553V45.8936C146.445 47.7736 146.851 49.44 147.663 50.8928C148.517 52.3029 149.692 53.3924 151.188 54.1616C152.726 54.8879 154.521 55.2511 156.572 55.2511C158.409 55.2511 160.011 54.9734 161.379 54.4179C162.789 53.8625 164.07 53.0292 165.224 51.9183L170.544 57.6867C168.963 59.4813 166.976 60.8699 164.583 61.8527C162.19 62.7927 159.434 63.2627 156.315 63.2627ZM180.854 62.75V27.4989C180.854 23.6106 182.007 20.5128 184.315 18.2055C186.622 15.8554 189.912 14.6803 194.185 14.6803C195.638 14.6803 197.027 14.8299 198.351 15.129C199.718 15.4281 200.872 15.8981 201.812 16.539L199.184 23.7815C198.629 23.397 198.009 23.0979 197.326 22.8842C196.642 22.6706 195.916 22.5638 195.146 22.5638C193.694 22.5638 192.561 22.9911 191.75 23.8456C190.98 24.6575 190.596 25.8966 190.596 27.563V30.7677L190.852 35.0619V62.75H180.854ZM175.534 36.7283V29.0372H199.441V36.7283H175.534ZM224.947 62.75V56.0202L224.306 54.5461V42.4967C224.306 40.3602 223.643 38.6938 222.319 37.4974C221.037 36.301 219.05 35.7028 216.358 35.7028C214.521 35.7028 212.705 36.0019 210.91 36.6001C209.158 37.1556 207.663 37.9247 206.424 38.9075L202.835 31.9213C204.715 30.5967 206.979 29.5713 209.628 28.8449C212.278 28.1185 214.97 27.7553 217.704 27.7553C222.96 27.7553 227.04 28.9944 229.946 31.4727C232.851 33.9509 234.304 37.8179 234.304 43.0735V62.75H224.947ZM214.435 63.2627C211.744 63.2627 209.436 62.8141 207.513 61.9168C205.591 60.9768 204.116 59.7163 203.091 58.1353C202.065 56.5544 201.553 54.7811 201.553 52.8156C201.553 50.7646 202.044 48.97 203.027 47.4318C204.052 45.8936 205.655 44.6972 207.834 43.8426C210.013 42.9453 212.854 42.4967 216.358 42.4967H225.523V48.3291H217.448C215.098 48.3291 213.474 48.7137 212.577 49.4828C211.722 50.2519 211.295 51.2133 211.295 52.367C211.295 53.6488 211.786 54.6743 212.769 55.4434C213.794 56.1698 215.183 56.533 216.935 56.533C218.601 56.533 220.097 56.1484 221.422 55.3793C222.746 54.5675 223.708 53.3924 224.306 51.8542L225.844 56.4689C225.118 58.6908 223.793 60.3786 221.87 61.5322C219.947 62.6859 217.469 63.2627 214.435 63.2627ZM260.268 63.2627C256.55 63.2627 253.239 62.515 250.333 61.0195C247.428 59.4813 245.142 57.3662 243.475 54.6743C241.852 51.9824 241.04 48.9273 241.04 45.509C241.04 42.048 241.852 38.9929 243.475 36.3437C245.142 33.6518 247.428 31.5581 250.333 30.0626C253.239 28.5244 256.55 27.7553 260.268 27.7553C263.9 27.7553 267.062 28.5244 269.754 30.0626C272.445 31.5581 274.432 33.7159 275.714 36.536L267.959 40.7021C267.062 39.0784 265.929 37.882 264.562 37.1129C263.237 36.3437 261.785 35.9592 260.204 35.9592C258.495 35.9592 256.956 36.3437 255.589 37.1129C254.222 37.882 253.132 38.9715 252.32 40.3816C251.551 41.7916 251.167 43.5008 251.167 45.509C251.167 47.5173 251.551 49.2264 252.32 50.6364C253.132 52.0465 254.222 53.1361 255.589 53.9052C256.956 54.6743 258.495 55.0589 260.204 55.0589C261.785 55.0589 263.237 54.6957 264.562 53.9693C265.929 53.2002 267.062 51.9824 267.959 50.316L275.714 54.5461C274.432 57.3235 272.445 59.4813 269.754 61.0195C267.062 62.515 263.9 63.2627 260.268 63.2627ZM296.072 63.2627C292.013 63.2627 288.851 62.2373 286.586 60.1863C284.322 58.0926 283.19 54.9948 283.19 50.8928V20.641H293.188V50.7646C293.188 52.2174 293.573 53.3497 294.342 54.1616C295.111 54.9307 296.158 55.3152 297.482 55.3152C299.063 55.3152 300.409 54.8879 301.52 54.0334L304.212 61.0836C303.187 61.81 301.947 62.3654 300.495 62.75C299.085 63.0918 297.61 63.2627 296.072 63.2627ZM277.87 36.7283V29.0372H301.776V36.7283H277.87ZM325.168 63.2627C321.494 63.2627 318.225 62.4936 315.362 60.9554C312.542 59.4172 310.299 57.3235 308.632 54.6743C307.009 51.9824 306.197 48.9273 306.197 45.509C306.197 42.048 307.009 38.9929 308.632 36.3437C310.299 33.6518 312.542 31.5581 315.362 30.0626C318.225 28.5244 321.494 27.7553 325.168 27.7553C328.8 27.7553 332.048 28.5244 334.91 30.0626C337.773 31.5581 340.017 33.6305 341.64 36.2796C343.264 38.9288 344.076 42.0053 344.076 45.509C344.076 48.9273 343.264 51.9824 341.64 54.6743C340.017 57.3235 337.773 59.4172 334.91 60.9554C332.048 62.4936 328.8 63.2627 325.168 63.2627ZM325.168 55.0589C326.835 55.0589 328.33 54.6743 329.655 53.9052C330.979 53.1361 332.026 52.0465 332.795 50.6364C333.565 49.1837 333.949 47.4745 333.949 45.509C333.949 43.5008 333.565 41.7916 332.795 40.3816C332.026 38.9715 330.979 37.882 329.655 37.1129C328.33 36.3437 326.835 35.9592 325.168 35.9592C323.502 35.9592 322.006 36.3437 320.682 37.1129C319.357 37.882 318.289 38.9715 317.477 40.3816C316.708 41.7916 316.324 43.5008 316.324 45.509C316.324 47.4745 316.708 49.1837 317.477 50.6364C318.289 52.0465 319.357 53.1361 320.682 53.9052C322.006 54.6743 323.502 55.0589 325.168 55.0589ZM350.759 62.75V28.268H360.309V38.0102L358.963 35.1901C359.988 32.7545 361.633 30.9172 363.898 29.6781C366.163 28.3962 368.919 27.7553 372.166 27.7553V36.9847C371.739 36.9419 371.354 36.9206 371.012 36.9206C370.67 36.8778 370.307 36.8565 369.923 36.8565C367.188 36.8565 364.966 37.647 363.257 39.2279C361.591 40.7661 360.757 43.1803 360.757 46.4704V62.75H350.759ZM392.911 63.2627C390.048 63.2627 387.484 62.7073 385.219 61.5963C382.997 60.4854 381.267 58.7976 380.028 56.533C378.789 54.2256 378.169 51.2987 378.169 47.7523V28.268H388.168V46.2781C388.168 49.1409 388.766 51.256 389.962 52.6233C391.201 53.9479 392.932 54.6102 395.154 54.6102C396.692 54.6102 398.059 54.2897 399.256 53.6488C400.452 52.9652 401.392 51.9397 402.076 50.5724C402.759 49.1623 403.101 47.4104 403.101 45.3167V28.268H413.1V62.75H403.614V53.2643L405.345 56.0202C404.191 58.413 402.482 60.229 400.217 61.4681C397.995 62.6645 395.56 63.2627 392.911 63.2627ZM466.523 27.7553C469.257 27.7553 471.671 28.3108 473.765 29.4217C475.902 30.4899 477.568 32.1563 478.764 34.421C480.004 36.6428 480.623 39.5057 480.623 43.0094V62.75H470.625V44.5476C470.625 41.7703 470.048 39.7193 468.894 38.3947C467.74 37.0701 466.117 36.4078 464.023 36.4078C462.57 36.4078 461.267 36.7497 460.113 37.4333C458.96 38.0742 458.062 39.057 457.421 40.3816C456.781 41.7062 456.46 43.394 456.46 45.4449V62.75H446.462V44.5476C446.462 41.7703 445.885 39.7193 444.731 38.3947C443.62 37.0701 442.018 36.4078 439.924 36.4078C438.471 36.4078 437.168 36.7497 436.014 37.4333C434.861 38.0742 433.963 39.057 433.323 40.3816C432.682 41.7062 432.361 43.394 432.361 45.4449V62.75H422.363V28.268H431.913V37.6897L430.118 34.9337C431.314 32.5836 433.002 30.8104 435.181 29.614C437.403 28.3749 439.924 27.7553 442.744 27.7553C445.906 27.7553 448.662 28.5671 451.012 30.1908C453.405 31.7718 454.986 34.2073 455.755 37.4974L452.23 36.536C453.384 33.8441 455.221 31.7077 457.742 30.1267C460.306 28.5458 463.233 27.7553 466.523 27.7553Z" fill="#003333"/>
<path d="M194.321 85.7266V68.9022H201.171C202.966 68.9022 204.536 69.2627 205.882 69.9838C207.244 70.6888 208.301 71.6742 209.054 72.94C209.807 74.2059 210.184 75.664 210.184 77.3144C210.184 78.9648 209.807 80.4229 209.054 81.6887C208.301 82.9545 207.244 83.948 205.882 84.669C204.536 85.3741 202.966 85.7266 201.171 85.7266H194.321ZM196.1 84.1883H201.075C202.565 84.1883 203.855 83.8999 204.944 83.3231C206.05 82.7302 206.907 81.921 207.516 80.8956C208.125 79.8541 208.429 78.6603 208.429 77.3144C208.429 75.9524 208.125 74.7587 207.516 73.7332C206.907 72.7077 206.05 71.9065 204.944 71.3297C203.855 70.7368 202.565 70.4404 201.075 70.4404H196.1V84.1883ZM218.961 85.8467C217.743 85.8467 216.645 85.5743 215.668 85.0296C214.707 84.4687 213.946 83.7076 213.385 82.7462C212.824 81.7688 212.544 80.6552 212.544 79.4054C212.544 78.1396 212.824 77.026 213.385 76.0646C213.946 75.1032 214.707 74.3501 215.668 73.8053C216.629 73.2605 217.727 72.9881 218.961 72.9881C220.211 72.9881 221.316 73.2605 222.278 73.8053C223.255 74.3501 224.016 75.1032 224.561 76.0646C225.122 77.026 225.402 78.1396 225.402 79.4054C225.402 80.6552 225.122 81.7688 224.561 82.7462C224.016 83.7076 223.255 84.4687 222.278 85.0296C221.3 85.5743 220.195 85.8467 218.961 85.8467ZM218.961 84.3325C219.874 84.3325 220.683 84.1323 221.388 83.7317C222.093 83.3151 222.646 82.7382 223.047 82.0012C223.463 81.2481 223.672 80.3828 223.672 79.4054C223.672 78.412 223.463 77.5467 223.047 76.8096C222.646 76.0726 222.093 75.5037 221.388 75.1032C220.683 74.6866 219.882 74.4783 218.985 74.4783C218.088 74.4783 217.286 74.6866 216.581 75.1032C215.876 75.5037 215.316 76.0726 214.899 76.8096C214.482 77.5467 214.274 78.412 214.274 79.4054C214.274 80.3828 214.482 81.2481 214.899 82.0012C215.316 82.7382 215.876 83.3151 216.581 83.7317C217.286 84.1323 218.08 84.3325 218.961 84.3325ZM235.327 72.9881C236.353 72.9881 237.25 73.1884 238.019 73.589C238.804 73.9735 239.413 74.5664 239.846 75.3676C240.295 76.1687 240.519 77.1782 240.519 78.3959V85.7266H238.812V78.5642C238.812 77.2343 238.476 76.2328 237.803 75.5598C237.146 74.8708 236.217 74.5263 235.015 74.5263C234.118 74.5263 233.333 74.7106 232.66 75.0791C232.003 75.4316 231.49 75.9524 231.121 76.6414C230.769 77.3144 230.593 78.1316 230.593 79.093V85.7266H228.886V73.1083H230.52V76.5693L230.256 75.9204C230.657 75.007 231.298 74.294 232.179 73.7813C233.06 73.2525 234.11 72.9881 235.327 72.9881ZM251.57 72.9881C252.595 72.9881 253.493 73.1884 254.262 73.589C255.047 73.9735 255.656 74.5664 256.088 75.3676C256.537 76.1687 256.761 77.1782 256.761 78.3959V85.7266H255.055V78.5642C255.055 77.2343 254.718 76.2328 254.045 75.5598C253.388 74.8708 252.459 74.5263 251.257 74.5263C250.36 74.5263 249.575 74.7106 248.902 75.0791C248.245 75.4316 247.732 75.9524 247.364 76.6414C247.011 77.3144 246.835 78.1316 246.835 79.093V85.7266H245.128V73.1083H246.763V76.5693L246.498 75.9204C246.899 75.007 247.54 74.294 248.421 73.7813C249.302 73.2525 250.352 72.9881 251.57 72.9881ZM266.73 85.8467C265.417 85.8467 264.263 85.5743 263.269 85.0296C262.276 84.4687 261.499 83.7076 260.938 82.7462C260.377 81.7688 260.097 80.6552 260.097 79.4054C260.097 78.1556 260.361 77.05 260.89 76.0886C261.435 75.1272 262.172 74.3741 263.101 73.8293C264.047 73.2685 265.104 72.9881 266.274 72.9881C267.459 72.9881 268.509 73.2605 269.422 73.8053C270.352 74.3341 271.081 75.0871 271.61 76.0646C272.138 77.026 272.403 78.1396 272.403 79.4054C272.403 79.4855 272.395 79.5736 272.379 79.6698C272.379 79.7499 272.379 79.838 272.379 79.9342H261.395V78.6603H271.465L270.792 79.1651C270.792 78.2517 270.592 77.4426 270.191 76.7375C269.807 76.0165 269.278 75.4557 268.605 75.0551C267.932 74.6545 267.155 74.4542 266.274 74.4542C265.409 74.4542 264.631 74.6545 263.942 75.0551C263.253 75.4557 262.717 76.0165 262.332 76.7375C261.948 77.4586 261.755 78.2838 261.755 79.2131V79.4775C261.755 80.4389 261.964 81.2881 262.38 82.0252C262.813 82.7462 263.406 83.3151 264.159 83.7317C264.928 84.1323 265.801 84.3325 266.779 84.3325C267.548 84.3325 268.261 84.1963 268.918 83.924C269.591 83.6516 270.167 83.235 270.648 82.6741L271.61 83.7797C271.049 84.4527 270.344 84.9655 269.494 85.318C268.661 85.6705 267.74 85.8467 266.73 85.8467ZM275.876 85.7266V73.1083H277.51V76.5453L277.342 75.9444C277.695 74.983 278.288 74.2539 279.121 73.7572C279.954 73.2445 280.987 72.9881 282.221 72.9881V74.6465C282.157 74.6465 282.093 74.6465 282.029 74.6465C281.965 74.6305 281.901 74.6225 281.837 74.6225C280.507 74.6225 279.465 75.0311 278.712 75.8482C277.959 76.6494 277.583 77.7951 277.583 79.2852V85.7266H275.876ZM297.173 85.8467C295.859 85.8467 294.705 85.5743 293.712 85.0296C292.719 84.4687 291.941 83.7076 291.381 82.7462C290.82 81.7688 290.539 80.6552 290.539 79.4054C290.539 78.1556 290.804 77.05 291.333 76.0886C291.877 75.1272 292.614 74.3741 293.544 73.8293C294.489 73.2685 295.547 72.9881 296.716 72.9881C297.902 72.9881 298.952 73.2605 299.865 73.8053C300.794 74.3341 301.523 75.0871 302.052 76.0646C302.581 77.026 302.845 78.1396 302.845 79.4054C302.845 79.4855 302.837 79.5736 302.821 79.6698C302.821 79.7499 302.821 79.838 302.821 79.9342H291.837V78.6603H301.908L301.235 79.1651C301.235 78.2517 301.035 77.4426 300.634 76.7375C300.249 76.0165 299.721 75.4557 299.048 75.0551C298.375 74.6545 297.598 74.4542 296.716 74.4542C295.851 74.4542 295.074 74.6545 294.385 75.0551C293.696 75.4557 293.159 76.0165 292.775 76.7375C292.39 77.4586 292.198 78.2838 292.198 79.2131V79.4775C292.198 80.4389 292.406 81.2881 292.823 82.0252C293.255 82.7462 293.848 83.3151 294.601 83.7317C295.37 84.1323 296.244 84.3325 297.221 84.3325C297.99 84.3325 298.703 84.1963 299.36 83.924C300.033 83.6516 300.61 83.235 301.091 82.6741L302.052 83.7797C301.491 84.4527 300.786 84.9655 299.937 85.318C299.104 85.6705 298.182 85.8467 297.173 85.8467ZM312.76 72.9881C313.785 72.9881 314.683 73.1884 315.452 73.589C316.237 73.9735 316.846 74.5664 317.278 75.3676C317.727 76.1687 317.951 77.1782 317.951 78.3959V85.7266H316.245V78.5642C316.245 77.2343 315.909 76.2328 315.236 75.5598C314.579 74.8708 313.649 74.5263 312.447 74.5263C311.55 74.5263 310.765 74.7106 310.092 75.0791C309.435 75.4316 308.922 75.9524 308.554 76.6414C308.201 77.3144 308.025 78.1316 308.025 79.093V85.7266H306.319V73.1083H307.953V76.5693L307.689 75.9204C308.089 75.007 308.73 74.294 309.611 73.7813C310.493 73.2525 311.542 72.9881 312.76 72.9881ZM325.571 85.7266L319.971 73.1083H321.749L326.893 84.8132H326.052L331.267 73.1083H332.95L327.325 85.7266H325.571ZM335.353 85.7266V73.1083H337.059V85.7266H335.353ZM336.218 70.3202C335.866 70.3202 335.569 70.2001 335.329 69.9597C335.088 69.7194 334.968 69.431 334.968 69.0945C334.968 68.758 335.088 68.4776 335.329 68.2532C335.569 68.0129 335.866 67.8927 336.218 67.8927C336.571 67.8927 336.867 68.0049 337.107 68.2292C337.348 68.4535 337.468 68.7339 337.468 69.0704C337.468 69.4229 337.348 69.7194 337.107 69.9597C336.883 70.2001 336.587 70.3202 336.218 70.3202ZM347.167 85.8467C345.853 85.8467 344.7 85.5743 343.706 85.0296C342.713 84.4687 341.936 83.7076 341.375 82.7462C340.814 81.7688 340.534 80.6552 340.534 79.4054C340.534 78.1556 340.798 77.05 341.327 76.0886C341.872 75.1272 342.609 74.3741 343.538 73.8293C344.483 73.2685 345.541 72.9881 346.711 72.9881C347.896 72.9881 348.946 73.2605 349.859 73.8053C350.789 74.3341 351.518 75.0871 352.046 76.0646C352.575 77.026 352.84 78.1396 352.84 79.4054C352.84 79.4855 352.832 79.5736 352.815 79.6698C352.815 79.7499 352.815 79.838 352.815 79.9342H341.832V78.6603H351.902L351.229 79.1651C351.229 78.2517 351.029 77.4426 350.628 76.7375C350.244 76.0165 349.715 75.4557 349.042 75.0551C348.369 74.6545 347.592 74.4542 346.711 74.4542C345.845 74.4542 345.068 74.6545 344.379 75.0551C343.69 75.4557 343.153 76.0165 342.769 76.7375C342.384 77.4586 342.192 78.2838 342.192 79.2131V79.4775C342.192 80.4389 342.4 81.2881 342.817 82.0252C343.25 82.7462 343.842 83.3151 344.596 83.7317C345.365 84.1323 346.238 84.3325 347.215 84.3325C347.984 84.3325 348.698 84.1963 349.354 83.924C350.027 83.6516 350.604 83.235 351.085 82.6741L352.046 83.7797C351.486 84.4527 350.781 84.9655 349.931 85.318C349.098 85.6705 348.177 85.8467 347.167 85.8467ZM367.627 85.8467C366.425 85.8467 365.343 85.5743 364.382 85.0296C363.436 84.4848 362.691 83.7317 362.147 82.7703C361.602 81.7929 361.329 80.6712 361.329 79.4054C361.329 78.1235 361.602 77.0019 362.147 76.0405C362.691 75.0791 363.436 74.3341 364.382 73.8053C365.343 73.2605 366.425 72.9881 367.627 72.9881C368.732 72.9881 369.718 73.2365 370.583 73.7332C371.464 74.2299 372.161 74.959 372.674 75.9204C373.203 76.8657 373.467 78.0274 373.467 79.4054C373.467 80.7674 373.211 81.9291 372.698 82.8905C372.185 83.8518 371.488 84.5889 370.607 85.1017C369.742 85.5984 368.748 85.8467 367.627 85.8467ZM367.747 84.3325C368.644 84.3325 369.445 84.1323 370.15 83.7317C370.871 83.3151 371.432 82.7382 371.833 82.0012C372.249 81.2481 372.458 80.3828 372.458 79.4054C372.458 78.412 372.249 77.5467 371.833 76.8096C371.432 76.0726 370.871 75.5037 370.15 75.1032C369.445 74.6866 368.644 74.4783 367.747 74.4783C366.865 74.4783 366.072 74.6866 365.367 75.1032C364.662 75.5037 364.101 76.0726 363.685 76.8096C363.268 77.5467 363.06 78.412 363.06 79.4054C363.06 80.3828 363.268 81.2481 363.685 82.0012C364.101 82.7382 364.662 83.3151 365.367 83.7317C366.072 84.1323 366.865 84.3325 367.747 84.3325ZM372.506 85.7266V81.9291L372.674 79.3814L372.434 76.8337V67.8927H374.14V85.7266H372.506ZM384.252 85.8467C382.938 85.8467 381.785 85.5743 380.791 85.0296C379.798 84.4687 379.021 83.7076 378.46 82.7462C377.899 81.7688 377.619 80.6552 377.619 79.4054C377.619 78.1556 377.883 77.05 378.412 76.0886C378.957 75.1272 379.694 74.3741 380.623 73.8293C381.568 73.2685 382.626 72.9881 383.796 72.9881C384.981 72.9881 386.031 73.2605 386.944 73.8053C387.874 74.3341 388.603 75.0871 389.131 76.0646C389.66 77.026 389.924 78.1396 389.924 79.4054C389.924 79.4855 389.916 79.5736 389.9 79.6698C389.9 79.7499 389.9 79.838 389.9 79.9342H378.917V78.6603H388.987L388.314 79.1651C388.314 78.2517 388.114 77.4426 387.713 76.7375C387.329 76.0165 386.8 75.4557 386.127 75.0551C385.454 74.6545 384.677 74.4542 383.796 74.4542C382.93 74.4542 382.153 74.6545 381.464 75.0551C380.775 75.4557 380.238 76.0165 379.854 76.7375C379.469 77.4586 379.277 78.2838 379.277 79.2131V79.4775C379.277 80.4389 379.485 81.2881 379.902 82.0252C380.335 82.7462 380.927 83.3151 381.681 83.7317C382.45 84.1323 383.323 84.3325 384.3 84.3325C385.069 84.3325 385.782 84.1963 386.439 83.924C387.112 83.6516 387.689 83.235 388.17 82.6741L389.131 83.7797C388.571 84.4527 387.866 84.9655 387.016 85.318C386.183 85.6705 385.262 85.8467 384.252 85.8467ZM404.712 85.8467C403.51 85.8467 402.428 85.5743 401.467 85.0296C400.521 84.4848 399.776 83.7317 399.232 82.7703C398.687 81.7929 398.414 80.6712 398.414 79.4054C398.414 78.1235 398.687 77.0019 399.232 76.0405C399.776 75.0791 400.521 74.3341 401.467 73.8053C402.428 73.2605 403.51 72.9881 404.712 72.9881C405.817 72.9881 406.803 73.2365 407.668 73.7332C408.549 74.2299 409.246 74.959 409.759 75.9204C410.288 76.8657 410.552 78.0274 410.552 79.4054C410.552 80.7674 410.296 81.9291 409.783 82.8905C409.27 83.8518 408.573 84.5889 407.692 85.1017C406.827 85.5984 405.833 85.8467 404.712 85.8467ZM404.832 84.3325C405.729 84.3325 406.53 84.1323 407.235 83.7317C407.956 83.3151 408.517 82.7382 408.918 82.0012C409.334 81.2481 409.543 80.3828 409.543 79.4054C409.543 78.412 409.334 77.5467 408.918 76.8096C408.517 76.0726 407.956 75.5037 407.235 75.1032C406.53 74.6866 405.729 74.4783 404.832 74.4783C403.95 74.4783 403.157 74.6866 402.452 75.1032C401.747 75.5037 401.186 76.0726 400.77 76.8096C400.353 77.5467 400.145 78.412 400.145 79.4054C400.145 80.3828 400.353 81.2481 400.77 82.0012C401.186 82.7382 401.747 83.3151 402.452 83.7317C403.157 84.1323 403.95 84.3325 404.832 84.3325ZM409.591 85.7266V81.9291L409.759 79.3814L409.519 76.8337V67.8927H411.225V85.7266H409.591ZM421.121 85.8467C419.903 85.8467 418.806 85.5743 417.828 85.0296C416.867 84.4687 416.106 83.7076 415.545 82.7462C414.984 81.7688 414.704 80.6552 414.704 79.4054C414.704 78.1396 414.984 77.026 415.545 76.0646C416.106 75.1032 416.867 74.3501 417.828 73.8053C418.79 73.2605 419.887 72.9881 421.121 72.9881C422.371 72.9881 423.476 73.2605 424.438 73.8053C425.415 74.3501 426.176 75.1032 426.721 76.0646C427.282 77.026 427.562 78.1396 427.562 79.4054C427.562 80.6552 427.282 81.7688 426.721 82.7462C426.176 83.7076 425.415 84.4687 424.438 85.0296C423.46 85.5743 422.355 85.8467 421.121 85.8467ZM421.121 84.3325C422.034 84.3325 422.843 84.1323 423.548 83.7317C424.253 83.3151 424.806 82.7382 425.207 82.0012C425.623 81.2481 425.832 80.3828 425.832 79.4054C425.832 78.412 425.623 77.5467 425.207 76.8096C424.806 76.0726 424.253 75.5037 423.548 75.1032C422.843 74.6866 422.042 74.4783 421.145 74.4783C420.248 74.4783 419.447 74.6866 418.742 75.1032C418.036 75.5037 417.476 76.0726 417.059 76.8096C416.642 77.5467 416.434 78.412 416.434 79.4054C416.434 80.3828 416.642 81.2481 417.059 82.0012C417.476 82.7382 418.036 83.3151 418.742 83.7317C419.447 84.1323 420.24 84.3325 421.121 84.3325ZM437.488 72.9881C438.513 72.9881 439.41 73.1884 440.179 73.589C440.965 73.9735 441.573 74.5664 442.006 75.3676C442.455 76.1687 442.679 77.1782 442.679 78.3959V85.7266H440.973V78.5642C440.973 77.2343 440.636 76.2328 439.963 75.5598C439.306 74.8708 438.377 74.5263 437.175 74.5263C436.278 74.5263 435.493 74.7106 434.82 75.0791C434.163 75.4316 433.65 75.9524 433.281 76.6414C432.929 77.3144 432.753 78.1316 432.753 79.093V85.7266H431.046V73.1083H432.681V76.5693L432.416 75.9204C432.817 75.007 433.458 74.294 434.339 73.7813C435.22 73.2525 436.27 72.9881 437.488 72.9881ZM453.73 72.9881C454.755 72.9881 455.653 73.1884 456.422 73.589C457.207 73.9735 457.816 74.5664 458.248 75.3676C458.697 76.1687 458.921 77.1782 458.921 78.3959V85.7266H457.215V78.5642C457.215 77.2343 456.878 76.2328 456.205 75.5598C455.548 74.8708 454.619 74.5263 453.417 74.5263C452.52 74.5263 451.735 74.7106 451.062 75.0791C450.405 75.4316 449.892 75.9524 449.524 76.6414C449.171 77.3144 448.995 78.1316 448.995 79.093V85.7266H447.288V73.1083H448.923V76.5693L448.658 75.9204C449.059 75.007 449.7 74.294 450.581 73.7813C451.463 73.2525 452.512 72.9881 453.73 72.9881ZM468.891 85.8467C467.577 85.8467 466.423 85.5743 465.43 85.0296C464.436 84.4687 463.659 83.7076 463.098 82.7462C462.537 81.7688 462.257 80.6552 462.257 79.4054C462.257 78.1556 462.521 77.05 463.05 76.0886C463.595 75.1272 464.332 74.3741 465.261 73.8293C466.207 73.2685 467.264 72.9881 468.434 72.9881C469.62 72.9881 470.669 73.2605 471.582 73.8053C472.512 74.3341 473.241 75.0871 473.77 76.0646C474.298 77.026 474.563 78.1396 474.563 79.4054C474.563 79.4855 474.555 79.5736 474.539 79.6698C474.539 79.7499 474.539 79.838 474.539 79.9342H463.555V78.6603H473.625L472.952 79.1651C472.952 78.2517 472.752 77.4426 472.352 76.7375C471.967 76.0165 471.438 75.4557 470.765 75.0551C470.092 74.6545 469.315 74.4542 468.434 74.4542C467.569 74.4542 466.792 74.6545 466.103 75.0551C465.414 75.4557 464.877 76.0165 464.492 76.7375C464.108 77.4586 463.915 78.2838 463.915 79.2131V79.4775C463.915 80.4389 464.124 81.2881 464.54 82.0252C464.973 82.7462 465.566 83.3151 466.319 83.7317C467.088 84.1323 467.961 84.3325 468.939 84.3325C469.708 84.3325 470.421 84.1963 471.078 83.924C471.751 83.6516 472.328 83.235 472.808 82.6741L473.77 83.7797C473.209 84.4527 472.504 84.9655 471.655 85.318C470.821 85.6705 469.9 85.8467 468.891 85.8467ZM478.036 85.7266V73.1083H479.671V76.5453L479.502 75.9444C479.855 74.983 480.448 74.2539 481.281 73.7572C482.114 73.2445 483.148 72.9881 484.381 72.9881V74.6465C484.317 74.6465 484.253 74.6465 484.189 74.6465C484.125 74.6305 484.061 74.6225 483.997 74.6225C482.667 74.6225 481.625 75.0311 480.872 75.8482C480.119 76.6494 479.743 77.7951 479.743 79.2852V85.7266H478.036Z" fill="#003333"/>
</svg>
