<svg width="486" height="91" viewBox="0 0 486 91" fill="none" xmlns="http://www.w3.org/2000/svg">
<rect width="485" height="90.9768" fill="white"/>
<path d="M5.31971 62V17.135H27.2395C32.8796 17.135 37.1098 18.2032 39.9299 20.3396C42.7927 22.4761 44.2241 25.2962 44.2241 28.7999C44.2241 31.15 43.6472 33.2009 42.4936 34.9528C41.3399 36.662 39.7589 37.9865 37.7507 38.9266C35.7425 39.8666 33.4351 40.3366 30.8287 40.3366L32.0464 37.7088C34.8665 37.7088 37.3661 38.1788 39.5453 39.1188C41.7245 40.0161 43.4122 41.3621 44.6086 43.1567C45.8478 44.9513 46.4673 47.1518 46.4673 49.7583C46.4673 53.6038 44.9505 56.6162 41.9167 58.7954C38.883 60.9318 34.4179 62 28.5213 62H5.31971ZM15.6387 54.1807H27.7522C30.4441 54.1807 32.4737 53.7534 33.841 52.8988C35.2511 52.0015 35.9561 50.5915 35.9561 48.6687C35.9561 46.7886 35.2511 45.3999 33.841 44.5026C32.4737 43.5626 30.4441 43.0926 27.7522 43.0926H14.8695V35.5296H25.9576C28.4786 35.5296 30.4014 35.1024 31.726 34.2478C33.0933 33.3505 33.7769 32.0045 33.7769 30.2099C33.7769 28.4581 33.0933 27.1548 31.726 26.3003C30.4014 25.403 28.4786 24.9543 25.9576 24.9543H15.6387V54.1807ZM70.736 62.5127C66.805 62.5127 63.3439 61.7436 60.3529 60.2054C57.4047 58.6672 55.1187 56.5735 53.495 53.9243C51.8713 51.2324 51.0595 48.1773 51.0595 44.759C51.0595 41.298 51.85 38.2429 53.4309 35.5937C55.0546 32.9018 57.2551 30.8081 60.0325 29.3126C62.8098 27.7744 65.9504 27.0053 69.4541 27.0053C72.8297 27.0053 75.8634 27.7317 78.5553 29.1845C81.29 30.5945 83.4477 32.6455 85.0287 35.3374C86.6097 37.9865 87.4001 41.1698 87.4001 44.8872C87.4001 45.2718 87.3788 45.7204 87.336 46.2332C87.2933 46.7032 87.2506 47.1518 87.2079 47.5791H59.1993V41.7467H81.9522L78.1067 43.4772C78.1067 41.6826 77.7435 40.123 77.0171 38.7984C76.2907 37.4738 75.2866 36.4483 74.0047 35.7219C72.7229 34.9528 71.2274 34.5683 69.5182 34.5683C67.8091 34.5683 66.2922 34.9528 64.9676 35.7219C63.6858 36.4483 62.6817 37.4952 61.9553 38.8625C61.2289 40.1871 60.8657 41.768 60.8657 43.6053V45.1436C60.8657 47.0236 61.2716 48.69 62.0835 50.1428C62.938 51.5529 64.1131 52.6424 65.6086 53.4116C67.1468 54.1379 68.9414 54.5011 70.9924 54.5011C72.8297 54.5011 74.432 54.2234 75.7993 53.6679C77.2094 53.1125 78.4912 52.2792 79.6449 51.1683L84.9646 56.9367C83.3837 58.7313 81.3968 60.1199 79.004 61.1027C76.6112 62.0427 73.8552 62.5127 70.736 62.5127ZM115.015 27.0053C117.75 27.0053 120.185 27.5608 122.322 28.6717C124.501 29.7399 126.21 31.4063 127.449 33.671C128.688 35.8928 129.308 38.7557 129.308 42.2594V62H119.309V43.7976C119.309 41.0203 118.69 38.9693 117.451 37.6447C116.254 36.3201 114.545 35.6578 112.323 35.6578C110.742 35.6578 109.311 35.9997 108.029 36.6833C106.79 37.3242 105.807 38.3284 105.081 39.6957C104.397 41.063 104.055 42.8149 104.055 44.9513V62H94.0568V27.518H103.607V37.0679L101.812 34.1837C103.051 31.8764 104.824 30.1031 107.132 28.864C109.439 27.6249 112.067 27.0053 115.015 27.0053ZM155.734 62.5127C151.803 62.5127 148.342 61.7436 145.351 60.2054C142.403 58.6672 140.117 56.5735 138.493 53.9243C136.869 51.2324 136.058 48.1773 136.058 44.759C136.058 41.298 136.848 38.2429 138.429 35.5937C140.053 32.9018 142.253 30.8081 145.031 29.3126C147.808 27.7744 150.949 27.0053 154.452 27.0053C157.828 27.0053 160.862 27.7317 163.553 29.1845C166.288 30.5945 168.446 32.6455 170.027 35.3374C171.608 37.9865 172.398 41.1698 172.398 44.8872C172.398 45.2718 172.377 45.7204 172.334 46.2332C172.291 46.7032 172.249 47.1518 172.206 47.5791H144.197V41.7467H166.95L163.105 43.4772C163.105 41.6826 162.742 40.123 162.015 38.7984C161.289 37.4738 160.285 36.4483 159.003 35.7219C157.721 34.9528 156.226 34.5683 154.516 34.5683C152.807 34.5683 151.29 34.9528 149.966 35.7219C148.684 36.4483 147.68 37.4952 146.953 38.8625C146.227 40.1871 145.864 41.768 145.864 43.6053V45.1436C145.864 47.0236 146.27 48.69 147.082 50.1428C147.936 51.5529 149.111 52.6424 150.607 53.4116C152.145 54.1379 153.94 54.5011 155.991 54.5011C157.828 54.5011 159.43 54.2234 160.797 53.6679C162.208 53.1125 163.489 52.2792 164.643 51.1683L169.963 56.9367C168.382 58.7313 166.395 60.1199 164.002 61.1027C161.609 62.0427 158.853 62.5127 155.734 62.5127ZM180.273 62V26.7489C180.273 22.8606 181.426 19.7628 183.734 17.4555C186.041 15.1054 189.331 13.9303 193.604 13.9303C195.057 13.9303 196.445 14.0799 197.77 14.379C199.137 14.6781 200.291 15.1481 201.231 15.789L198.603 23.0315C198.048 22.647 197.428 22.3479 196.745 22.1342C196.061 21.9206 195.335 21.8138 194.565 21.8138C193.113 21.8138 191.98 22.2411 191.168 23.0956C190.399 23.9075 190.015 25.1466 190.015 26.813V30.0177L190.271 34.3119V62H180.273ZM174.953 35.9783V28.2872H198.86V35.9783H174.953ZM224.366 62V55.2702L223.725 53.7961V41.7467C223.725 39.6102 223.062 37.9438 221.738 36.7474C220.456 35.551 218.469 34.9528 215.777 34.9528C213.94 34.9528 212.124 35.2519 210.329 35.8501C208.577 36.4056 207.082 37.1747 205.843 38.1575L202.254 31.1713C204.134 29.8467 206.398 28.8213 209.047 28.0949C211.697 27.3685 214.388 27.0053 217.123 27.0053C222.379 27.0053 226.459 28.2444 229.365 30.7227C232.27 33.2009 233.723 37.0679 233.723 42.3235V62H224.366ZM213.854 62.5127C211.162 62.5127 208.855 62.0641 206.932 61.1668C205.01 60.2268 203.535 58.9663 202.51 57.3853C201.484 55.8044 200.972 54.0311 200.972 52.0656C200.972 50.0146 201.463 48.22 202.446 46.6818C203.471 45.1436 205.074 43.9472 207.253 43.0926C209.432 42.1953 212.273 41.7467 215.777 41.7467H224.942V47.5791H216.867C214.517 47.5791 212.893 47.9637 211.996 48.7328C211.141 49.5019 210.714 50.4633 210.714 51.617C210.714 52.8988 211.205 53.9243 212.188 54.6934C213.213 55.4198 214.602 55.783 216.354 55.783C218.02 55.783 219.516 55.3984 220.84 54.6293C222.165 53.8175 223.126 52.6424 223.725 51.1042L225.263 55.7189C224.537 57.9408 223.212 59.6286 221.289 60.7822C219.366 61.9359 216.888 62.5127 213.854 62.5127ZM259.687 62.5127C255.969 62.5127 252.658 61.765 249.752 60.2695C246.847 58.7313 244.561 56.6162 242.894 53.9243C241.271 51.2324 240.459 48.1773 240.459 44.759C240.459 41.298 241.271 38.2429 242.894 35.5937C244.561 32.9018 246.847 30.8081 249.752 29.3126C252.658 27.7744 255.969 27.0053 259.687 27.0053C263.319 27.0053 266.481 27.7744 269.173 29.3126C271.864 30.8081 273.851 32.9659 275.133 35.786L267.378 39.9521C266.481 38.3284 265.348 37.132 263.981 36.3629C262.656 35.5937 261.204 35.2092 259.623 35.2092C257.914 35.2092 256.375 35.5937 255.008 36.3629C253.641 37.132 252.551 38.2215 251.739 39.6316C250.97 41.0416 250.586 42.7508 250.586 44.759C250.586 46.7673 250.97 48.4764 251.739 49.8864C252.551 51.2965 253.641 52.3861 255.008 53.1552C256.375 53.9243 257.914 54.3089 259.623 54.3089C261.204 54.3089 262.656 53.9457 263.981 53.2193C265.348 52.4502 266.481 51.2324 267.378 49.566L275.133 53.7961C273.851 56.5735 271.864 58.7313 269.173 60.2695C266.481 61.765 263.319 62.5127 259.687 62.5127ZM295.491 62.5127C291.432 62.5127 288.27 61.4873 286.005 59.4363C283.741 57.3426 282.608 54.2448 282.608 50.1428V19.891H292.607V50.0146C292.607 51.4674 292.992 52.5997 293.761 53.4116C294.53 54.1807 295.577 54.5652 296.901 54.5652C298.482 54.5652 299.828 54.1379 300.939 53.2834L303.631 60.3336C302.605 61.06 301.366 61.6154 299.914 62C298.504 62.3418 297.029 62.5127 295.491 62.5127ZM277.289 35.9783V28.2872H301.195V35.9783H277.289ZM324.587 62.5127C320.913 62.5127 317.644 61.7436 314.781 60.2054C311.961 58.6672 309.718 56.5735 308.051 53.9243C306.428 51.2324 305.616 48.1773 305.616 44.759C305.616 41.298 306.428 38.2429 308.051 35.5937C309.718 32.9018 311.961 30.8081 314.781 29.3126C317.644 27.7744 320.913 27.0053 324.587 27.0053C328.219 27.0053 331.467 27.7744 334.329 29.3126C337.192 30.8081 339.435 32.8805 341.059 35.5296C342.683 38.1788 343.495 41.2553 343.495 44.759C343.495 48.1773 342.683 51.2324 341.059 53.9243C339.435 56.5735 337.192 58.6672 334.329 60.2054C331.467 61.7436 328.219 62.5127 324.587 62.5127ZM324.587 54.3089C326.254 54.3089 327.749 53.9243 329.074 53.1552C330.398 52.3861 331.445 51.2965 332.214 49.8864C332.983 48.4337 333.368 46.7245 333.368 44.759C333.368 42.7508 332.983 41.0416 332.214 39.6316C331.445 38.2215 330.398 37.132 329.074 36.3629C327.749 35.5937 326.254 35.2092 324.587 35.2092C322.921 35.2092 321.425 35.5937 320.101 36.3629C318.776 37.132 317.708 38.2215 316.896 39.6316C316.127 41.0416 315.742 42.7508 315.742 44.759C315.742 46.7245 316.127 48.4337 316.896 49.8864C317.708 51.2965 318.776 52.3861 320.101 53.1552C321.425 53.9243 322.921 54.3089 324.587 54.3089ZM350.178 62V27.518H359.728V37.2602L358.382 34.4401C359.407 32.0045 361.052 30.1672 363.317 28.9281C365.582 27.6462 368.338 27.0053 371.585 27.0053V36.2347C371.158 36.1919 370.773 36.1706 370.431 36.1706C370.089 36.1278 369.726 36.1065 369.342 36.1065C366.607 36.1065 364.385 36.897 362.676 38.4779C361.01 40.0161 360.176 42.4303 360.176 45.7204V62H350.178ZM392.329 62.5127C389.467 62.5127 386.903 61.9573 384.638 60.8463C382.416 59.7354 380.686 58.0476 379.447 55.783C378.208 53.4756 377.588 50.5487 377.588 47.0023V27.518H387.587V45.5281C387.587 48.3909 388.185 50.506 389.381 51.8733C390.62 53.1979 392.351 53.8602 394.573 53.8602C396.111 53.8602 397.478 53.5397 398.675 52.8988C399.871 52.2152 400.811 51.1897 401.495 49.8224C402.178 48.4123 402.52 46.6604 402.52 44.5667V27.518H412.519V62H403.033V52.5143L404.763 55.2702C403.61 57.663 401.901 59.479 399.636 60.7181C397.414 61.9145 394.979 62.5127 392.329 62.5127ZM465.942 27.0053C468.676 27.0053 471.09 27.5608 473.184 28.6717C475.321 29.7399 476.987 31.4063 478.183 33.671C479.422 35.8928 480.042 38.7557 480.042 42.2594V62H470.044V43.7976C470.044 41.0203 469.467 38.9693 468.313 37.6447C467.159 36.3201 465.536 35.6578 463.442 35.6578C461.989 35.6578 460.686 35.9997 459.532 36.6833C458.379 37.3242 457.481 38.307 456.84 39.6316C456.199 40.9562 455.879 42.644 455.879 44.6949V62H445.881V43.7976C445.881 41.0203 445.304 38.9693 444.15 37.6447C443.039 36.3201 441.437 35.6578 439.343 35.6578C437.89 35.6578 436.587 35.9997 435.433 36.6833C434.28 37.3242 433.382 38.307 432.741 39.6316C432.101 40.9562 431.78 42.644 431.78 44.6949V62H421.782V27.518H431.331V36.9397L429.537 34.1837C430.733 31.8336 432.421 30.0604 434.6 28.864C436.822 27.6249 439.343 27.0053 442.163 27.0053C445.325 27.0053 448.081 27.8171 450.431 29.4408C452.824 31.0218 454.405 33.4573 455.174 36.7474L451.649 35.786C452.803 33.0941 454.64 30.9577 457.161 29.3767C459.725 27.7958 462.652 27.0053 465.942 27.0053Z" fill="#003333"/>
<path d="M126.095 85.121C124.829 85.121 123.651 84.9127 122.562 84.4961C121.488 84.0635 120.551 83.4626 119.749 82.6935C118.964 81.9084 118.347 81.003 117.899 79.9776C117.466 78.9361 117.25 77.7984 117.25 76.5646C117.25 75.3308 117.466 74.2012 117.899 73.1757C118.347 72.1342 118.964 71.2289 119.749 70.4598C120.551 69.6746 121.488 69.0738 122.562 68.6572C123.635 68.2245 124.813 68.0082 126.095 68.0082C127.36 68.0082 128.53 68.2245 129.604 68.6572C130.677 69.0738 131.607 69.6666 132.392 70.4357C133.193 71.2049 133.81 72.1102 134.242 73.1517C134.691 74.1932 134.915 75.3308 134.915 76.5646C134.915 77.7984 134.691 78.9361 134.242 79.9776C133.81 81.0191 133.193 81.9244 132.392 82.6935C131.607 83.4626 130.677 84.0635 129.604 84.4961C128.53 84.9127 127.36 85.121 126.095 85.121ZM126.095 83.5347C127.104 83.5347 128.033 83.3665 128.883 83.03C129.748 82.6775 130.493 82.1888 131.118 81.5639C131.759 80.9229 132.256 80.1859 132.608 79.3527C132.961 78.5034 133.137 77.5741 133.137 76.5646C133.137 75.5552 132.961 74.6338 132.608 73.8006C132.256 72.9514 131.759 72.2143 131.118 71.5894C130.493 70.9485 129.748 70.4598 128.883 70.1233C128.033 69.7708 127.104 69.5945 126.095 69.5945C125.085 69.5945 124.148 69.7708 123.283 70.1233C122.417 70.4598 121.664 70.9485 121.023 71.5894C120.398 72.2143 119.902 72.9514 119.533 73.8006C119.181 74.6338 119.004 75.5552 119.004 76.5646C119.004 77.5581 119.181 78.4794 119.533 79.3286C119.902 80.1779 120.398 80.9229 121.023 81.5639C121.664 82.1888 122.417 82.6775 123.283 83.03C124.148 83.3665 125.085 83.5347 126.095 83.5347ZM138.541 84.9768V72.3585H140.176V75.7955L140.008 75.1946C140.36 74.2332 140.953 73.5042 141.786 73.0075C142.619 72.4947 143.653 72.2383 144.887 72.2383V73.8968C144.823 73.8968 144.758 73.8968 144.694 73.8968C144.63 73.8807 144.566 73.8727 144.502 73.8727C143.172 73.8727 142.131 74.2813 141.378 75.0985C140.624 75.8997 140.248 77.0453 140.248 78.5355V84.9768H138.541ZM153.267 89.7597C152.113 89.7597 151.008 89.5915 149.95 89.255C148.893 88.9185 148.035 88.4378 147.378 87.8129L148.244 86.515C148.837 87.0438 149.566 87.4604 150.431 87.7648C151.312 88.0853 152.241 88.2455 153.219 88.2455C154.821 88.2455 155.999 87.869 156.752 87.1159C157.505 86.3788 157.882 85.2252 157.882 83.6549V80.5063L158.122 78.3432L157.954 76.1801V72.3585H159.588V83.4386C159.588 85.6177 159.051 87.212 157.978 88.2215C156.92 89.247 155.35 89.7597 153.267 89.7597ZM152.954 84.4961C151.753 84.4961 150.671 84.2397 149.71 83.727C148.748 83.1982 147.987 82.4692 147.426 81.5398C146.882 80.6105 146.609 79.5449 146.609 78.3432C146.609 77.1415 146.882 76.0839 147.426 75.1706C147.987 74.2413 148.748 73.5202 149.71 73.0075C150.671 72.4947 151.753 72.2383 152.954 72.2383C154.076 72.2383 155.086 72.4707 155.983 72.9354C156.88 73.4 157.593 74.089 158.122 75.0024C158.651 75.9157 158.915 77.0293 158.915 78.3432C158.915 79.6571 158.651 80.7707 158.122 81.684C157.593 82.5974 156.88 83.2944 155.983 83.7751C155.086 84.2558 154.076 84.4961 152.954 84.4961ZM153.123 82.9819C154.052 82.9819 154.877 82.7896 155.598 82.4051C156.319 82.0045 156.888 81.4597 157.305 80.7707C157.721 80.0657 157.93 79.2565 157.93 78.3432C157.93 77.4299 157.721 76.6287 157.305 75.9397C156.888 75.2507 156.319 74.7139 155.598 74.3294C154.877 73.9288 154.052 73.7285 153.123 73.7285C152.209 73.7285 151.384 73.9288 150.647 74.3294C149.926 74.7139 149.357 75.2507 148.941 75.9397C148.54 76.6287 148.34 77.4299 148.34 78.3432C148.34 79.2565 148.54 80.0657 148.941 80.7707C149.357 81.4597 149.926 82.0045 150.647 82.4051C151.384 82.7896 152.209 82.9819 153.123 82.9819ZM172.244 84.9768V82.1888L172.172 81.7321V77.0693C172.172 75.9958 171.868 75.1706 171.259 74.5938C170.666 74.0169 169.777 73.7285 168.591 73.7285C167.774 73.7285 166.997 73.8647 166.259 74.1371C165.522 74.4095 164.897 74.77 164.385 75.2187L163.616 73.9448C164.257 73.4 165.026 72.9834 165.923 72.695C166.82 72.3906 167.766 72.2383 168.759 72.2383C170.393 72.2383 171.651 72.6469 172.533 73.4641C173.43 74.2653 173.878 75.4911 173.878 77.1415V84.9768H172.244ZM167.894 85.097C166.948 85.097 166.123 84.9448 165.418 84.6403C164.729 84.3199 164.2 83.8872 163.832 83.3424C163.463 82.7816 163.279 82.1407 163.279 81.4197C163.279 80.7627 163.431 80.1698 163.736 79.6411C164.056 79.0963 164.569 78.6637 165.274 78.3432C165.995 78.0067 166.956 77.8385 168.158 77.8385H172.509V79.1123H168.206C166.989 79.1123 166.139 79.3286 165.659 79.7612C165.194 80.1939 164.962 80.7307 164.962 81.3716C164.962 82.0926 165.242 82.6695 165.803 83.1021C166.364 83.5347 167.149 83.751 168.158 83.751C169.12 83.751 169.945 83.5347 170.634 83.1021C171.339 82.6534 171.852 82.0125 172.172 81.1793L172.557 82.357C172.236 83.1902 171.675 83.8552 170.874 84.3519C170.089 84.8486 169.096 85.097 167.894 85.097ZM184.955 72.2383C185.98 72.2383 186.878 72.4386 187.647 72.8392C188.432 73.2238 189.041 73.8166 189.473 74.6178C189.922 75.419 190.146 76.4284 190.146 77.6462V84.9768H188.44V77.8144C188.44 76.4845 188.103 75.4831 187.43 74.8101C186.773 74.1211 185.844 73.7766 184.642 73.7766C183.745 73.7766 182.96 73.9608 182.287 74.3294C181.63 74.6819 181.117 75.2026 180.749 75.8916C180.396 76.5646 180.22 77.3818 180.22 78.3432V84.9768H178.513V72.3585H180.148V75.8195L179.883 75.1706C180.284 74.2573 180.925 73.5442 181.806 73.0315C182.687 72.5027 183.737 72.2383 184.955 72.2383ZM194.756 84.9768V72.3585H196.462V84.9768H194.756ZM195.621 69.5705C195.268 69.5705 194.972 69.4503 194.732 69.21C194.491 68.9696 194.371 68.6812 194.371 68.3447C194.371 68.0082 194.491 67.7278 194.732 67.5035C194.972 67.2631 195.268 67.143 195.621 67.143C195.974 67.143 196.27 67.2551 196.51 67.4795C196.751 67.7038 196.871 67.9842 196.871 68.3207C196.871 68.6732 196.751 68.9696 196.51 69.21C196.286 69.4503 195.99 69.5705 195.621 69.5705ZM204.599 85.097C203.558 85.097 202.572 84.9528 201.643 84.6644C200.714 84.3599 199.985 83.9834 199.456 83.5347L200.225 82.1888C200.738 82.5733 201.395 82.9098 202.196 83.1982C202.997 83.4706 203.838 83.6068 204.719 83.6068C205.921 83.6068 206.786 83.4226 207.315 83.054C207.844 82.6695 208.108 82.1647 208.108 81.5398C208.108 81.0752 207.956 80.7146 207.652 80.4583C207.363 80.1859 206.979 79.9856 206.498 79.8574C206.017 79.7132 205.481 79.593 204.888 79.4969C204.295 79.4007 203.702 79.2886 203.109 79.1604C202.532 79.0322 202.004 78.8479 201.523 78.6076C201.042 78.3512 200.65 78.0067 200.345 77.5741C200.057 77.1415 199.913 76.5646 199.913 75.8436C199.913 75.1546 200.105 74.5377 200.489 73.9929C200.874 73.4481 201.435 73.0235 202.172 72.719C202.925 72.3986 203.838 72.2383 204.912 72.2383C205.729 72.2383 206.546 72.3505 207.363 72.5748C208.181 72.7831 208.853 73.0635 209.382 73.4161L208.637 74.786C208.076 74.4015 207.475 74.1291 206.835 73.9689C206.194 73.7926 205.553 73.7045 204.912 73.7045C203.774 73.7045 202.933 73.9048 202.388 74.3053C201.859 74.6899 201.595 75.1866 201.595 75.7955C201.595 76.2762 201.739 76.6527 202.028 76.9251C202.332 77.1975 202.725 77.4138 203.205 77.5741C203.702 77.7183 204.239 77.8385 204.816 77.9346C205.408 78.0307 205.993 78.1509 206.57 78.2951C207.163 78.4233 207.7 78.6076 208.181 78.8479C208.677 79.0723 209.07 79.4007 209.358 79.8334C209.663 80.25 209.815 80.8028 209.815 81.4918C209.815 82.2288 209.607 82.8698 209.19 83.4145C208.789 83.9433 208.197 84.3599 207.411 84.6644C206.642 84.9528 205.705 85.097 204.599 85.097ZM220.854 84.9768V82.1888L220.782 81.7321V77.0693C220.782 75.9958 220.477 75.1706 219.868 74.5938C219.275 74.0169 218.386 73.7285 217.2 73.7285C216.383 73.7285 215.606 73.8647 214.869 74.1371C214.132 74.4095 213.507 74.77 212.994 75.2187L212.225 73.9448C212.866 73.4 213.635 72.9834 214.532 72.695C215.43 72.3906 216.375 72.2383 217.369 72.2383C219.003 72.2383 220.261 72.6469 221.142 73.4641C222.039 74.2653 222.488 75.4911 222.488 77.1415V84.9768H220.854ZM216.503 85.097C215.558 85.097 214.733 84.9448 214.028 84.6403C213.339 84.3199 212.81 83.8872 212.441 83.3424C212.073 82.7816 211.889 82.1407 211.889 81.4197C211.889 80.7627 212.041 80.1698 212.345 79.6411C212.666 79.0963 213.178 78.6637 213.884 78.3432C214.605 78.0067 215.566 77.8385 216.768 77.8385H221.118V79.1123H216.816C215.598 79.1123 214.749 79.3286 214.268 79.7612C213.803 80.1939 213.571 80.7307 213.571 81.3716C213.571 82.0926 213.851 82.6695 214.412 83.1021C214.973 83.5347 215.758 83.751 216.768 83.751C217.729 83.751 218.554 83.5347 219.243 83.1021C219.948 82.6534 220.461 82.0125 220.782 81.1793L221.166 82.357C220.846 83.1902 220.285 83.8552 219.484 84.3519C218.698 84.8486 217.705 85.097 216.503 85.097ZM231.113 85.097C229.927 85.097 229.014 84.7765 228.373 84.1356C227.732 83.4947 227.411 82.5893 227.411 81.4197V69.5705H229.118V81.3235C229.118 82.0606 229.302 82.6294 229.671 83.03C230.055 83.4306 230.6 83.6309 231.305 83.6309C232.058 83.6309 232.683 83.4145 233.18 82.9819L233.781 84.2077C233.444 84.5121 233.036 84.7365 232.555 84.8807C232.09 85.0249 231.609 85.097 231.113 85.097ZM225.152 73.7766V72.3585H232.963V73.7766H225.152ZM236.887 84.9768V72.3585H238.594V84.9768H236.887ZM237.752 69.5705C237.4 69.5705 237.103 69.4503 236.863 69.21C236.623 68.9696 236.503 68.6812 236.503 68.3447C236.503 68.0082 236.623 67.7278 236.863 67.5035C237.103 67.2631 237.4 67.143 237.752 67.143C238.105 67.143 238.401 67.2551 238.642 67.4795C238.882 67.7038 239.002 67.9842 239.002 68.3207C239.002 68.6732 238.882 68.9696 238.642 69.21C238.417 69.4503 238.121 69.5705 237.752 69.5705ZM248.485 85.097C247.267 85.097 246.17 84.8246 245.192 84.2798C244.231 83.719 243.47 82.9579 242.909 81.9965C242.348 81.0191 242.068 79.9055 242.068 78.6556C242.068 77.3898 242.348 76.2762 242.909 75.3148C243.47 74.3534 244.231 73.6003 245.192 73.0555C246.154 72.5107 247.251 72.2383 248.485 72.2383C249.735 72.2383 250.841 72.5107 251.802 73.0555C252.779 73.6003 253.541 74.3534 254.085 75.3148C254.646 76.2762 254.927 77.3898 254.927 78.6556C254.927 79.9055 254.646 81.0191 254.085 81.9965C253.541 82.9579 252.779 83.719 251.802 84.2798C250.825 84.8246 249.719 85.097 248.485 85.097ZM248.485 83.5828C249.399 83.5828 250.208 83.3825 250.913 82.9819C251.618 82.5653 252.171 81.9885 252.571 81.2514C252.988 80.4983 253.196 79.6331 253.196 78.6556C253.196 77.6622 252.988 76.797 252.571 76.0599C252.171 75.3228 251.618 74.754 250.913 74.3534C250.208 73.9368 249.407 73.7285 248.509 73.7285C247.612 73.7285 246.811 73.9368 246.106 74.3534C245.401 74.754 244.84 75.3228 244.423 76.0599C244.007 76.797 243.798 77.6622 243.798 78.6556C243.798 79.6331 244.007 80.4983 244.423 81.2514C244.84 81.9885 245.401 82.5653 246.106 82.9819C246.811 83.3825 247.604 83.5828 248.485 83.5828ZM264.852 72.2383C265.877 72.2383 266.775 72.4386 267.544 72.8392C268.329 73.2238 268.938 73.8166 269.37 74.6178C269.819 75.419 270.043 76.4284 270.043 77.6462V84.9768H268.337V77.8144C268.337 76.4845 268 75.4831 267.327 74.8101C266.67 74.1211 265.741 73.7766 264.539 73.7766C263.642 73.7766 262.857 73.9608 262.184 74.3294C261.527 74.6819 261.014 75.2026 260.646 75.8916C260.293 76.5646 260.117 77.3818 260.117 78.3432V84.9768H258.41V72.3585H260.045V75.8195L259.78 75.1706C260.181 74.2573 260.822 73.5442 261.703 73.0315C262.585 72.5027 263.634 72.2383 264.852 72.2383ZM288.851 84.9768V82.1888L288.778 81.7321V77.0693C288.778 75.9958 288.474 75.1706 287.865 74.5938C287.272 74.0169 286.383 73.7285 285.197 73.7285C284.38 73.7285 283.603 73.8647 282.866 74.1371C282.129 74.4095 281.504 74.77 280.991 75.2187L280.222 73.9448C280.863 73.4 281.632 72.9834 282.529 72.695C283.427 72.3906 284.372 72.2383 285.366 72.2383C287 72.2383 288.258 72.6469 289.139 73.4641C290.036 74.2653 290.485 75.4911 290.485 77.1415V84.9768H288.851ZM284.5 85.097C283.555 85.097 282.73 84.9448 282.025 84.6403C281.336 84.3199 280.807 83.8872 280.438 83.3424C280.07 82.7816 279.886 82.1407 279.886 81.4197C279.886 80.7627 280.038 80.1698 280.342 79.6411C280.663 79.0963 281.175 78.6637 281.88 78.3432C282.602 78.0067 283.563 77.8385 284.765 77.8385H289.115V79.1123H284.813C283.595 79.1123 282.746 79.3286 282.265 79.7612C281.8 80.1939 281.568 80.7307 281.568 81.3716C281.568 82.0926 281.848 82.6695 282.409 83.1021C282.97 83.5347 283.755 83.751 284.765 83.751C285.726 83.751 286.551 83.5347 287.24 83.1021C287.945 82.6534 288.458 82.0125 288.778 81.1793L289.163 82.357C288.843 83.1902 288.282 83.8552 287.481 84.3519C286.695 84.8486 285.702 85.097 284.5 85.097ZM285.293 70.3877L281.4 67.4073H283.683L286.976 70.3877H285.293ZM307.924 85.097C306.818 85.097 305.825 84.8486 304.943 84.3519C304.062 83.8392 303.365 83.1021 302.852 82.1407C302.34 81.1793 302.083 80.0176 302.083 78.6556C302.083 77.2777 302.34 76.116 302.852 75.1706C303.381 74.2092 304.086 73.4801 304.967 72.9834C305.849 72.4867 306.834 72.2383 307.924 72.2383C309.125 72.2383 310.199 72.5107 311.144 73.0555C312.106 73.5843 312.859 74.3294 313.404 75.2908C313.948 76.2522 314.221 77.3738 314.221 78.6556C314.221 79.9215 313.948 81.0431 313.404 82.0205C312.859 82.9819 312.106 83.735 311.144 84.2798C310.199 84.8246 309.125 85.097 307.924 85.097ZM301.41 84.9768V67.143H303.117V76.0839L302.876 78.6316L303.045 81.1793V84.9768H301.41ZM307.804 83.5828C308.701 83.5828 309.502 83.3825 310.207 82.9819C310.912 82.5653 311.473 81.9885 311.889 81.2514C312.306 80.4983 312.514 79.6331 312.514 78.6556C312.514 77.6622 312.306 76.797 311.889 76.0599C311.473 75.3228 310.912 74.754 310.207 74.3534C309.502 73.9368 308.701 73.7285 307.804 73.7285C306.906 73.7285 306.097 73.9368 305.376 74.3534C304.671 74.754 304.11 75.3228 303.694 76.0599C303.293 76.797 303.093 77.6622 303.093 78.6556C303.093 79.6331 303.293 80.4983 303.694 81.2514C304.11 81.9885 304.671 82.5653 305.376 82.9819C306.097 83.3825 306.906 83.5828 307.804 83.5828ZM322.915 85.097C321.842 85.097 320.904 84.8967 320.103 84.4961C319.302 84.0955 318.677 83.4947 318.228 82.6935C317.796 81.8923 317.579 80.8909 317.579 79.6891V72.3585H319.286V79.4969C319.286 80.8428 319.614 81.8603 320.271 82.5493C320.944 83.2223 321.882 83.5588 323.083 83.5588C323.965 83.5588 324.726 83.3825 325.367 83.03C326.024 82.6615 326.52 82.1327 326.857 81.4437C327.209 80.7547 327.386 79.9295 327.386 78.9681V72.3585H329.092V84.9768H327.458V81.5158L327.722 82.1407C327.321 83.07 326.697 83.7991 325.847 84.3279C325.014 84.8406 324.037 85.097 322.915 85.097ZM337.838 85.097C336.652 85.097 335.739 84.7765 335.098 84.1356C334.457 83.4947 334.136 82.5893 334.136 81.4197V69.5705H335.843V81.3235C335.843 82.0606 336.027 82.6294 336.396 83.03C336.78 83.4306 337.325 83.6309 338.03 83.6309C338.783 83.6309 339.408 83.4145 339.905 82.9819L340.506 84.2077C340.169 84.5121 339.76 84.7365 339.28 84.8807C338.815 85.0249 338.334 85.097 337.838 85.097ZM331.877 73.7766V72.3585H339.688V73.7766H331.877ZM356.344 72.2383C357.369 72.2383 358.267 72.4386 359.036 72.8392C359.821 73.2238 360.43 73.8166 360.862 74.6178C361.311 75.419 361.535 76.4284 361.535 77.6462V84.9768H359.829V77.8144C359.829 76.4845 359.492 75.4831 358.819 74.8101C358.162 74.1211 357.233 73.7766 356.031 73.7766C355.134 73.7766 354.349 73.9608 353.676 74.3294C353.019 74.6819 352.506 75.2026 352.138 75.8916C351.785 76.5646 351.609 77.3818 351.609 78.3432V84.9768H349.902V72.3585H351.537V75.8195L351.272 75.1706C351.673 74.2573 352.314 73.5442 353.195 73.0315C354.076 72.5027 355.126 72.2383 356.344 72.2383ZM371.288 85.097C370.07 85.097 368.973 84.8246 367.995 84.2798C367.034 83.719 366.273 82.9579 365.712 81.9965C365.151 81.0191 364.871 79.9055 364.871 78.6556C364.871 77.3898 365.151 76.2762 365.712 75.3148C366.273 74.3534 367.034 73.6003 367.995 73.0555C368.957 72.5107 370.054 72.2383 371.288 72.2383C372.538 72.2383 373.644 72.5107 374.605 73.0555C375.582 73.6003 376.343 74.3534 376.888 75.3148C377.449 76.2762 377.729 77.3898 377.729 78.6556C377.729 79.9055 377.449 81.0191 376.888 81.9965C376.343 82.9579 375.582 83.719 374.605 84.2798C373.628 84.8246 372.522 85.097 371.288 85.097ZM371.288 83.5828C372.201 83.5828 373.011 83.3825 373.716 82.9819C374.421 82.5653 374.973 81.9885 375.374 81.2514C375.791 80.4983 375.999 79.6331 375.999 78.6556C375.999 77.6622 375.791 76.797 375.374 76.0599C374.973 75.3228 374.421 74.754 373.716 74.3534C373.011 73.9368 372.209 73.7285 371.312 73.7285C370.415 73.7285 369.614 73.9368 368.909 74.3534C368.204 74.754 367.643 75.3228 367.226 76.0599C366.81 76.797 366.601 77.6622 366.601 78.6556C366.601 79.6331 366.81 80.4983 367.226 81.2514C367.643 81.9885 368.204 82.5653 368.909 82.9819C369.614 83.3825 370.407 83.5828 371.288 83.5828ZM387.655 72.2383C388.68 72.2383 389.578 72.4386 390.347 72.8392C391.132 73.2238 391.741 73.8166 392.173 74.6178C392.622 75.419 392.846 76.4284 392.846 77.6462V84.9768H391.14V77.8144C391.14 76.4845 390.803 75.4831 390.13 74.8101C389.473 74.1211 388.544 73.7766 387.342 73.7766C386.445 73.7766 385.66 73.9608 384.987 74.3294C384.33 74.6819 383.817 75.2026 383.449 75.8916C383.096 76.5646 382.92 77.3818 382.92 78.3432V84.9768H381.213V72.3585H382.848V75.8195L382.583 75.1706C382.984 74.2573 383.625 73.5442 384.506 73.0315C385.387 72.5027 386.437 72.2383 387.655 72.2383ZM403.746 84.9768V67.143H405.453V84.9768H403.746ZM415.416 85.097C414.343 85.097 413.405 84.8967 412.604 84.4961C411.803 84.0955 411.178 83.4947 410.729 82.6935C410.297 81.8923 410.081 80.8909 410.081 79.6891V72.3585H411.787V79.4969C411.787 80.8428 412.115 81.8603 412.772 82.5493C413.445 83.2223 414.383 83.5588 415.585 83.5588C416.466 83.5588 417.227 83.3825 417.868 83.03C418.525 82.6615 419.021 82.1327 419.358 81.4437C419.71 80.7547 419.887 79.9295 419.887 78.9681V72.3585H421.593V84.9768H419.959V81.5158L420.223 82.1407C419.823 83.07 419.198 83.7991 418.349 84.3279C417.515 84.8406 416.538 85.097 415.416 85.097ZM431.589 85.097C430.339 85.097 429.217 84.8246 428.224 84.2798C427.246 83.719 426.477 82.9579 425.916 81.9965C425.356 81.0191 425.075 79.9055 425.075 78.6556C425.075 77.3898 425.356 76.2762 425.916 75.3148C426.477 74.3534 427.246 73.6003 428.224 73.0555C429.217 72.5107 430.339 72.2383 431.589 72.2383C432.662 72.2383 433.632 72.4467 434.497 72.8633C435.362 73.2799 436.043 73.9048 436.54 74.738L435.266 75.6032C434.833 74.9623 434.297 74.4896 433.656 74.1852C433.015 73.8807 432.318 73.7285 431.565 73.7285C430.667 73.7285 429.858 73.9368 429.137 74.3534C428.416 74.754 427.847 75.3228 427.431 76.0599C427.014 76.797 426.806 77.6622 426.806 78.6556C426.806 79.6491 427.014 80.5143 427.431 81.2514C427.847 81.9885 428.416 82.5653 429.137 82.9819C429.858 83.3825 430.667 83.5828 431.565 83.5828C432.318 83.5828 433.015 83.4306 433.656 83.1261C434.297 82.8217 434.833 82.357 435.266 81.7321L436.54 82.5974C436.043 83.4145 435.362 84.0394 434.497 84.4721C433.632 84.8887 432.662 85.097 431.589 85.097ZM439.892 84.9768V72.3585H441.527V75.7955L441.358 75.1946C441.711 74.2332 442.304 73.5042 443.137 73.0075C443.97 72.4947 445.004 72.2383 446.237 72.2383V73.8968C446.173 73.8968 446.109 73.8968 446.045 73.8968C445.981 73.8807 445.917 73.8727 445.853 73.8727C444.523 73.8727 443.481 74.2813 442.728 75.0985C441.975 75.8997 441.599 77.0453 441.599 78.5355V84.9768H439.892ZM456.32 84.9768V82.1888L456.248 81.7321V77.0693C456.248 75.9958 455.943 75.1706 455.334 74.5938C454.741 74.0169 453.852 73.7285 452.666 73.7285C451.849 73.7285 451.072 73.8647 450.335 74.1371C449.598 74.4095 448.973 74.77 448.46 75.2187L447.691 73.9448C448.332 73.4 449.101 72.9834 449.999 72.695C450.896 72.3906 451.841 72.2383 452.835 72.2383C454.469 72.2383 455.727 72.6469 456.608 73.4641C457.505 74.2653 457.954 75.4911 457.954 77.1415V84.9768H456.32ZM451.969 85.097C451.024 85.097 450.199 84.9448 449.494 84.6403C448.805 84.3199 448.276 83.8872 447.908 83.3424C447.539 82.7816 447.355 82.1407 447.355 81.4197C447.355 80.7627 447.507 80.1698 447.811 79.6411C448.132 79.0963 448.645 78.6637 449.35 78.3432C450.071 78.0067 451.032 77.8385 452.234 77.8385H456.584V79.1123H452.282C451.064 79.1123 450.215 79.3286 449.734 79.7612C449.27 80.1939 449.037 80.7307 449.037 81.3716C449.037 82.0926 449.318 82.6695 449.878 83.1021C450.439 83.5347 451.224 83.751 452.234 83.751C453.195 83.751 454.02 83.5347 454.709 83.1021C455.414 82.6534 455.927 82.0125 456.248 81.1793L456.632 82.357C456.312 83.1902 455.751 83.8552 454.95 84.3519C454.165 84.8486 453.171 85.097 451.969 85.097ZM466.579 85.097C465.393 85.097 464.48 84.7765 463.839 84.1356C463.198 83.4947 462.878 82.5893 462.878 81.4197V69.5705H464.584V81.3235C464.584 82.0606 464.768 82.6294 465.137 83.03C465.521 83.4306 466.066 83.6309 466.771 83.6309C467.524 83.6309 468.149 83.4145 468.646 82.9819L469.247 84.2077C468.91 84.5121 468.502 84.7365 468.021 84.8807C467.556 85.0249 467.076 85.097 466.579 85.097ZM460.618 73.7766V72.3585H468.43V73.7766H460.618ZM472.353 84.9768V72.3585H474.06V84.9768H472.353ZM473.219 69.5705C472.866 69.5705 472.57 69.4503 472.329 69.21C472.089 68.9696 471.969 68.6812 471.969 68.3447C471.969 68.0082 472.089 67.7278 472.329 67.5035C472.57 67.2631 472.866 67.143 473.219 67.143C473.571 67.143 473.867 67.2551 474.108 67.4795C474.348 67.7038 474.468 67.9842 474.468 68.3207C474.468 68.6732 474.348 68.9696 474.108 69.21C473.883 69.4503 473.587 69.5705 473.219 69.5705ZM479.096 84.9768V70.7722C479.096 69.6506 479.425 68.7453 480.082 68.0563C480.739 67.3673 481.684 67.0228 482.918 67.0228C483.399 67.0228 483.863 67.0869 484.312 67.2151C484.761 67.3433 485.137 67.5435 485.442 67.8159L484.865 69.0898C484.624 68.8815 484.344 68.7293 484.023 68.6331C483.703 68.521 483.359 68.4649 482.99 68.4649C482.269 68.4649 481.716 68.6652 481.332 69.0658C480.947 69.4663 480.755 70.0592 480.755 70.8443V72.7671L480.803 73.5603V84.9768H479.096ZM476.837 73.7766V72.3585H484.648V73.7766H476.837Z" fill="#003333"/>
</svg>
