<svg width="242" height="46" viewBox="0 0 242 46" fill="none" xmlns="http://www.w3.org/2000/svg">
<path d="M2.656 31V8.6H13.6C16.416 8.6 18.528 9.13333 19.936 10.2C21.3653 11.2667 22.08 12.6747 22.08 14.424C22.08 15.5973 21.792 16.6213 21.216 17.496C20.64 18.3493 19.8507 19.0107 18.848 19.48C17.8453 19.9493 16.6933 20.184 15.392 20.184L16 18.872C17.408 18.872 18.656 19.1067 19.744 19.576C20.832 20.024 21.6747 20.696 22.272 21.592C22.8907 22.488 23.2 23.5867 23.2 24.888C23.2 26.808 22.4427 28.312 20.928 29.4C19.4133 30.4667 17.184 31 14.24 31H2.656ZM7.808 27.096H13.856C15.2 27.096 16.2133 26.8827 16.896 26.456C17.6 26.008 17.952 25.304 17.952 24.344C17.952 23.4053 17.6 22.712 16.896 22.264C16.2133 21.7947 15.2 21.56 13.856 21.56H7.424V17.784H12.96C14.2187 17.784 15.1787 17.5707 15.84 17.144C16.5227 16.696 16.864 16.024 16.864 15.128C16.864 14.2533 16.5227 13.6027 15.84 13.176C15.1787 12.728 14.2187 12.504 12.96 12.504H7.808V27.096ZM35.3168 31.256C33.3541 31.256 31.6261 30.872 30.1328 30.104C28.6608 29.336 27.5194 28.2907 26.7088 26.968C25.8981 25.624 25.4928 24.0987 25.4928 22.392C25.4928 20.664 25.8874 19.1387 26.6768 17.816C27.4874 16.472 28.5861 15.4267 29.9728 14.68C31.3594 13.912 32.9274 13.528 34.6768 13.528C36.3621 13.528 37.8768 13.8907 39.2208 14.616C40.5861 15.32 41.6634 16.344 42.4528 17.688C43.2421 19.0107 43.6368 20.6 43.6368 22.456C43.6368 22.648 43.6261 22.872 43.6048 23.128C43.5834 23.3627 43.5621 23.5867 43.5408 23.8H29.5568V20.888H40.9167L38.9968 21.752C38.9968 20.856 38.8154 20.0773 38.4528 19.416C38.0901 18.7547 37.5888 18.2427 36.9488 17.88C36.3088 17.496 35.5621 17.304 34.7088 17.304C33.8554 17.304 33.0981 17.496 32.4368 17.88C31.7968 18.2427 31.2954 18.7653 30.9328 19.448C30.5701 20.1093 30.3888 20.8987 30.3888 21.816V22.584C30.3888 23.5227 30.5914 24.3547 30.9968 25.08C31.4234 25.784 32.0101 26.328 32.7568 26.712C33.5248 27.0747 34.4208 27.256 35.4448 27.256C36.3621 27.256 37.1621 27.1173 37.8448 26.84C38.5488 26.5627 39.1888 26.1467 39.7648 25.592L42.4208 28.472C41.6314 29.368 40.6394 30.0613 39.4448 30.552C38.2501 31.0213 36.8741 31.256 35.3168 31.256ZM57.4243 13.528C58.7896 13.528 60.0056 13.8053 61.0723 14.36C62.1603 14.8933 63.0136 15.7253 63.6323 16.856C64.2509 17.9653 64.5603 19.3947 64.5603 21.144V31H59.5683V21.912C59.5683 20.5253 59.2589 19.5013 58.6403 18.84C58.0429 18.1787 57.1896 17.848 56.0803 17.848C55.2909 17.848 54.5763 18.0187 53.9363 18.36C53.3176 18.68 52.8269 19.1813 52.4643 19.864C52.1229 20.5467 51.9523 21.4213 51.9523 22.488V31H46.9603V13.784H51.7283V18.552L50.8323 17.112C51.4509 15.96 52.3363 15.0747 53.4883 14.456C54.6403 13.8373 55.9523 13.528 57.4243 13.528ZM77.7543 31.256C75.7916 31.256 74.0636 30.872 72.5703 30.104C71.0983 29.336 69.9569 28.2907 69.1463 26.968C68.3356 25.624 67.9303 24.0987 67.9303 22.392C67.9303 20.664 68.3249 19.1387 69.1143 17.816C69.9249 16.472 71.0236 15.4267 72.4103 14.68C73.7969 13.912 75.3649 13.528 77.1143 13.528C78.7996 13.528 80.3143 13.8907 81.6583 14.616C83.0236 15.32 84.1009 16.344 84.8903 17.688C85.6796 19.0107 86.0743 20.6 86.0743 22.456C86.0743 22.648 86.0636 22.872 86.0423 23.128C86.0209 23.3627 85.9996 23.5867 85.9783 23.8H71.9943V20.888H83.3542L81.4343 21.752C81.4343 20.856 81.2529 20.0773 80.8903 19.416C80.5276 18.7547 80.0263 18.2427 79.3863 17.88C78.7463 17.496 77.9996 17.304 77.1463 17.304C76.2929 17.304 75.5356 17.496 74.8743 17.88C74.2343 18.2427 73.7329 18.7653 73.3703 19.448C73.0076 20.1093 72.8263 20.8987 72.8263 21.816V22.584C72.8263 23.5227 73.0289 24.3547 73.4343 25.08C73.8609 25.784 74.4476 26.328 75.1943 26.712C75.9623 27.0747 76.8583 27.256 77.8823 27.256C78.7996 27.256 79.5996 27.1173 80.2823 26.84C80.9863 26.5627 81.6263 26.1467 82.2023 25.592L84.8583 28.472C84.0689 29.368 83.0769 30.0613 81.8823 30.552C80.6876 31.0213 79.3116 31.256 77.7543 31.256ZM90.0058 31V13.4C90.0058 11.4587 90.5818 9.912 91.7338 8.76C92.8858 7.58666 94.5284 7 96.6618 7C97.3871 7 98.0804 7.07467 98.7418 7.224C99.4244 7.37333 100 7.608 100.47 7.928L99.1578 11.544C98.8804 11.352 98.5711 11.2027 98.2298 11.096C97.8884 10.9893 97.5258 10.936 97.1418 10.936C96.4164 10.936 95.8511 11.1493 95.4458 11.576C95.0618 11.9813 94.8698 12.6 94.8698 13.432V15.032L94.9978 17.176V31H90.0058ZM87.3498 18.008V14.168H99.2858V18.008H87.3498ZM112.02 31V27.64L111.7 26.904V20.888C111.7 19.8213 111.37 18.9893 110.708 18.392C110.068 17.7947 109.076 17.496 107.732 17.496C106.815 17.496 105.908 17.6453 105.012 17.944C104.138 18.2213 103.391 18.6053 102.772 19.096L100.98 15.608C101.919 14.9467 103.05 14.4347 104.372 14.072C105.695 13.7093 107.039 13.528 108.404 13.528C111.028 13.528 113.066 14.1467 114.516 15.384C115.967 16.6213 116.692 18.552 116.692 21.176V31H112.02ZM106.772 31.256C105.428 31.256 104.276 31.032 103.316 30.584C102.356 30.1147 101.62 29.4853 101.108 28.696C100.596 27.9067 100.34 27.0213 100.34 26.04C100.34 25.016 100.586 24.12 101.076 23.352C101.588 22.584 102.388 21.9867 103.476 21.56C104.564 21.112 105.983 20.888 107.732 20.888H112.308V23.8H108.276C107.103 23.8 106.292 23.992 105.844 24.376C105.418 24.76 105.204 25.24 105.204 25.816C105.204 26.456 105.45 26.968 105.94 27.352C106.452 27.7147 107.146 27.896 108.02 27.896C108.852 27.896 109.599 27.704 110.26 27.32C110.922 26.9147 111.402 26.328 111.7 25.56L112.468 27.864C112.106 28.9733 111.444 29.816 110.484 30.392C109.524 30.968 108.287 31.256 106.772 31.256ZM129.655 31.256C127.799 31.256 126.146 30.8827 124.695 30.136C123.245 29.368 122.103 28.312 121.271 26.968C120.461 25.624 120.055 24.0987 120.055 22.392C120.055 20.664 120.461 19.1387 121.271 17.816C122.103 16.472 123.245 15.4267 124.695 14.68C126.146 13.912 127.799 13.528 129.655 13.528C131.469 13.528 133.047 13.912 134.391 14.68C135.735 15.4267 136.727 16.504 137.367 17.912L133.495 19.992C133.047 19.1813 132.482 18.584 131.799 18.2C131.138 17.816 130.413 17.624 129.623 17.624C128.77 17.624 128.002 17.816 127.319 18.2C126.637 18.584 126.093 19.128 125.687 19.832C125.303 20.536 125.111 21.3893 125.111 22.392C125.111 23.3947 125.303 24.248 125.687 24.952C126.093 25.656 126.637 26.2 127.319 26.584C128.002 26.968 128.77 27.16 129.623 27.16C130.413 27.16 131.138 26.9787 131.799 26.616C132.482 26.232 133.047 25.624 133.495 24.792L137.367 26.904C136.727 28.2907 135.735 29.368 134.391 30.136C133.047 30.8827 131.469 31.256 129.655 31.256ZM147.532 31.256C145.505 31.256 143.926 30.744 142.796 29.72C141.665 28.6747 141.1 27.128 141.1 25.08V9.976H146.092V25.016C146.092 25.7413 146.284 26.3067 146.668 26.712C147.052 27.096 147.574 27.288 148.236 27.288C149.025 27.288 149.697 27.0747 150.252 26.648L151.596 30.168C151.084 30.5307 150.465 30.808 149.74 31C149.036 31.1707 148.3 31.256 147.532 31.256ZM138.444 18.008V14.168H150.38V18.008H138.444ZM162.059 31.256C160.224 31.256 158.592 30.872 157.163 30.104C155.755 29.336 154.635 28.2907 153.803 26.968C152.992 25.624 152.587 24.0987 152.587 22.392C152.587 20.664 152.992 19.1387 153.803 17.816C154.635 16.472 155.755 15.4267 157.163 14.68C158.592 13.912 160.224 13.528 162.059 13.528C163.872 13.528 165.493 13.912 166.923 14.68C168.352 15.4267 169.472 16.4613 170.283 17.784C171.093 19.1067 171.499 20.6427 171.499 22.392C171.499 24.0987 171.093 25.624 170.283 26.968C169.472 28.2907 168.352 29.336 166.923 30.104C165.493 30.872 163.872 31.256 162.059 31.256ZM162.059 27.16C162.891 27.16 163.637 26.968 164.299 26.584C164.96 26.2 165.483 25.656 165.867 24.952C166.251 24.2267 166.443 23.3733 166.443 22.392C166.443 21.3893 166.251 20.536 165.867 19.832C165.483 19.128 164.96 18.584 164.299 18.2C163.637 17.816 162.891 17.624 162.059 17.624C161.227 17.624 160.48 17.816 159.819 18.2C159.157 18.584 158.624 19.128 158.219 19.832C157.835 20.536 157.643 21.3893 157.643 22.392C157.643 23.3733 157.835 24.2267 158.219 24.952C158.624 25.656 159.157 26.2 159.819 26.584C160.48 26.968 161.227 27.16 162.059 27.16ZM174.835 31V13.784H179.603V18.648L178.931 17.24C179.443 16.024 180.265 15.1067 181.395 14.488C182.526 13.848 183.902 13.528 185.523 13.528V18.136C185.31 18.1147 185.118 18.104 184.947 18.104C184.777 18.0827 184.595 18.072 184.403 18.072C183.038 18.072 181.929 18.4667 181.075 19.256C180.243 20.024 179.827 21.2293 179.827 22.872V31H174.835ZM195.881 31.256C194.451 31.256 193.171 30.9787 192.041 30.424C190.931 29.8693 190.067 29.0267 189.449 27.896C188.83 26.744 188.521 25.2827 188.521 23.512V13.784H193.513V22.776C193.513 24.2053 193.811 25.2613 194.409 25.944C195.027 26.6053 195.891 26.936 197.001 26.936C197.769 26.936 198.451 26.776 199.049 26.456C199.646 26.1147 200.115 25.6027 200.457 24.92C200.798 24.216 200.969 23.3413 200.969 22.296V13.784H205.961V31H201.225V26.264L202.089 27.64C201.513 28.8347 200.659 29.7413 199.529 30.36C198.419 30.9573 197.203 31.256 195.881 31.256ZM232.633 13.528C233.999 13.528 235.204 13.8053 236.249 14.36C237.316 14.8933 238.148 15.7253 238.745 16.856C239.364 17.9653 239.673 19.3947 239.673 21.144V31H234.681V21.912C234.681 20.5253 234.393 19.5013 233.817 18.84C233.241 18.1787 232.431 17.848 231.385 17.848C230.66 17.848 230.009 18.0187 229.433 18.36C228.857 18.68 228.409 19.1707 228.089 19.832C227.769 20.4933 227.609 21.336 227.609 22.36V31H222.617V21.912C222.617 20.5253 222.329 19.5013 221.753 18.84C221.199 18.1787 220.399 17.848 219.353 17.848C218.628 17.848 217.977 18.0187 217.401 18.36C216.825 18.68 216.377 19.1707 216.057 19.832C215.737 20.4933 215.577 21.336 215.577 22.36V31H210.585V13.784H215.353V18.488L214.457 17.112C215.055 15.9387 215.897 15.0533 216.985 14.456C218.095 13.8373 219.353 13.528 220.761 13.528C222.34 13.528 223.716 13.9333 224.889 14.744C226.084 15.5333 226.873 16.7493 227.257 18.392L225.497 17.912C226.073 16.568 226.991 15.5013 228.249 14.712C229.529 13.9227 230.991 13.528 232.633 13.528Z" fill="#003333"/>
<path d="M70.368 43V34.6H71.256V42.232H75.96V43H70.368ZM81.2024 43V41.608L81.1664 41.38V39.052C81.1664 38.516 81.0144 38.104 80.7104 37.816C80.4144 37.528 79.9704 37.384 79.3784 37.384C78.9704 37.384 78.5824 37.452 78.2144 37.588C77.8464 37.724 77.5344 37.904 77.2784 38.128L76.8944 37.492C77.2144 37.22 77.5984 37.012 78.0464 36.868C78.4944 36.716 78.9664 36.64 79.4624 36.64C80.2784 36.64 80.9064 36.844 81.3464 37.252C81.7944 37.652 82.0184 38.264 82.0184 39.088V43H81.2024ZM79.0304 43.06C78.5584 43.06 78.1464 42.984 77.7944 42.832C77.4504 42.672 77.1864 42.456 77.0024 42.184C76.8184 41.904 76.7264 41.584 76.7264 41.224C76.7264 40.896 76.8024 40.6 76.9544 40.336C77.1144 40.064 77.3704 39.848 77.7224 39.688C78.0824 39.52 78.5624 39.436 79.1624 39.436H81.3344V40.072H79.1864C78.5784 40.072 78.1544 40.18 77.9144 40.396C77.6824 40.612 77.5664 40.88 77.5664 41.2C77.5664 41.56 77.7064 41.848 77.9864 42.064C78.2664 42.28 78.6584 42.388 79.1624 42.388C79.6424 42.388 80.0544 42.28 80.3984 42.064C80.7504 41.84 81.0064 41.52 81.1664 41.104L81.3584 41.692C81.1984 42.108 80.9184 42.44 80.5184 42.688C80.1264 42.936 79.6304 43.06 79.0304 43.06ZM90.7252 43.06C90.1812 43.06 89.6892 42.936 89.2492 42.688C88.8092 42.432 88.4572 42.068 88.1932 41.596C87.9372 41.116 87.8092 40.532 87.8092 39.844C87.8092 39.156 87.9372 38.576 88.1932 38.104C88.4492 37.624 88.7972 37.26 89.2372 37.012C89.6772 36.764 90.1732 36.64 90.7252 36.64C91.3252 36.64 91.8612 36.776 92.3332 37.048C92.8132 37.312 93.1892 37.688 93.4612 38.176C93.7332 38.656 93.8692 39.212 93.8692 39.844C93.8692 40.484 93.7332 41.044 93.4612 41.524C93.1892 42.004 92.8132 42.38 92.3332 42.652C91.8612 42.924 91.3252 43.06 90.7252 43.06ZM87.4732 45.328V36.7H88.2892V38.596L88.2052 39.856L88.3252 41.128V45.328H87.4732ZM90.6652 42.304C91.1132 42.304 91.5132 42.204 91.8652 42.004C92.2172 41.796 92.4972 41.508 92.7052 41.14C92.9132 40.764 93.0172 40.332 93.0172 39.844C93.0172 39.356 92.9132 38.928 92.7052 38.56C92.4972 38.192 92.2172 37.904 91.8652 37.696C91.5132 37.488 91.1132 37.384 90.6652 37.384C90.2172 37.384 89.8132 37.488 89.4532 37.696C89.1012 37.904 88.8212 38.192 88.6132 38.56C88.4132 38.928 88.3132 39.356 88.3132 39.844C88.3132 40.332 88.4132 40.764 88.6132 41.14C88.8212 41.508 89.1012 41.796 89.4532 42.004C89.8132 42.204 90.2172 42.304 90.6652 42.304ZM95.606 43V34.096H96.458V43H95.606ZM102.777 43V41.608L102.741 41.38V39.052C102.741 38.516 102.589 38.104 102.285 37.816C101.989 37.528 101.545 37.384 100.953 37.384C100.545 37.384 100.157 37.452 99.7886 37.588C99.4206 37.724 99.1086 37.904 98.8526 38.128L98.4686 37.492C98.7886 37.22 99.1726 37.012 99.6206 36.868C100.069 36.716 100.541 36.64 101.037 36.64C101.853 36.64 102.481 36.844 102.921 37.252C103.369 37.652 103.593 38.264 103.593 39.088V43H102.777ZM100.605 43.06C100.133 43.06 99.7206 42.984 99.3686 42.832C99.0246 42.672 98.7606 42.456 98.5766 42.184C98.3926 41.904 98.3006 41.584 98.3006 41.224C98.3006 40.896 98.3766 40.6 98.5286 40.336C98.6886 40.064 98.9446 39.848 99.2966 39.688C99.6566 39.52 100.137 39.436 100.737 39.436H102.909V40.072H100.761C100.153 40.072 99.7286 40.18 99.4886 40.396C99.2566 40.612 99.1406 40.88 99.1406 41.2C99.1406 41.56 99.2806 41.848 99.5606 42.064C99.8406 42.28 100.233 42.388 100.737 42.388C101.217 42.388 101.629 42.28 101.973 42.064C102.325 41.84 102.581 41.52 102.741 41.104L102.933 41.692C102.773 42.108 102.493 42.44 102.093 42.688C101.701 42.936 101.205 43.06 100.605 43.06ZM107.899 43.06C107.307 43.06 106.851 42.9 106.531 42.58C106.211 42.26 106.051 41.808 106.051 41.224V35.308H106.903V41.176C106.903 41.544 106.995 41.828 107.179 42.028C107.371 42.228 107.643 42.328 107.995 42.328C108.371 42.328 108.683 42.22 108.931 42.004L109.231 42.616C109.063 42.768 108.859 42.88 108.619 42.952C108.387 43.024 108.147 43.06 107.899 43.06ZM104.923 37.408V36.7H108.823V37.408H104.923ZM113.235 43.06C112.579 43.06 112.003 42.924 111.507 42.652C111.011 42.372 110.623 41.992 110.343 41.512C110.063 41.024 109.923 40.468 109.923 39.844C109.923 39.22 110.055 38.668 110.319 38.188C110.591 37.708 110.959 37.332 111.423 37.06C111.895 36.78 112.423 36.64 113.007 36.64C113.599 36.64 114.123 36.776 114.579 37.048C115.043 37.312 115.407 37.688 115.671 38.176C115.935 38.656 116.067 39.212 116.067 39.844C116.067 39.884 116.063 39.928 116.055 39.976C116.055 40.016 116.055 40.06 116.055 40.108H110.571V39.472H115.599L115.263 39.724C115.263 39.268 115.163 38.864 114.963 38.512C114.771 38.152 114.507 37.872 114.171 37.672C113.835 37.472 113.447 37.372 113.007 37.372C112.575 37.372 112.187 37.472 111.843 37.672C111.499 37.872 111.231 38.152 111.039 38.512C110.847 38.872 110.751 39.284 110.751 39.748V39.88C110.751 40.36 110.855 40.784 111.063 41.152C111.279 41.512 111.575 41.796 111.951 42.004C112.335 42.204 112.771 42.304 113.259 42.304C113.643 42.304 113.999 42.236 114.327 42.1C114.663 41.964 114.951 41.756 115.191 41.476L115.671 42.028C115.391 42.364 115.039 42.62 114.615 42.796C114.199 42.972 113.739 43.06 113.235 43.06ZM117.945 43V35.908C117.945 35.348 118.109 34.896 118.437 34.552C118.765 34.208 119.237 34.036 119.853 34.036C120.093 34.036 120.325 34.068 120.549 34.132C120.773 34.196 120.961 34.296 121.113 34.432L120.825 35.068C120.705 34.964 120.565 34.888 120.405 34.84C120.245 34.784 120.073 34.756 119.889 34.756C119.529 34.756 119.253 34.856 119.061 35.056C118.869 35.256 118.773 35.552 118.773 35.944V36.904L118.797 37.3V43H117.945ZM116.817 37.408V36.7H120.717V37.408H116.817ZM124.33 43.06C123.722 43.06 123.174 42.924 122.686 42.652C122.206 42.372 121.826 41.992 121.546 41.512C121.266 41.024 121.126 40.468 121.126 39.844C121.126 39.212 121.266 38.656 121.546 38.176C121.826 37.696 122.206 37.32 122.686 37.048C123.166 36.776 123.714 36.64 124.33 36.64C124.954 36.64 125.506 36.776 125.986 37.048C126.474 37.32 126.854 37.696 127.126 38.176C127.406 38.656 127.546 39.212 127.546 39.844C127.546 40.468 127.406 41.024 127.126 41.512C126.854 41.992 126.474 42.372 125.986 42.652C125.498 42.924 124.946 43.06 124.33 43.06ZM124.33 42.304C124.786 42.304 125.19 42.204 125.542 42.004C125.894 41.796 126.17 41.508 126.37 41.14C126.578 40.764 126.682 40.332 126.682 39.844C126.682 39.348 126.578 38.916 126.37 38.548C126.17 38.18 125.894 37.896 125.542 37.696C125.19 37.488 124.79 37.384 124.342 37.384C123.894 37.384 123.494 37.488 123.142 37.696C122.79 37.896 122.51 38.18 122.302 38.548C122.094 38.916 121.99 39.348 121.99 39.844C121.99 40.332 122.094 40.764 122.302 41.14C122.51 41.508 122.79 41.796 123.142 42.004C123.494 42.204 123.89 42.304 124.33 42.304ZM129.286 43V36.7H130.102V38.416L130.018 38.116C130.194 37.636 130.49 37.272 130.906 37.024C131.322 36.768 131.838 36.64 132.454 36.64V37.468C132.422 37.468 132.39 37.468 132.358 37.468C132.326 37.46 132.294 37.456 132.262 37.456C131.598 37.456 131.078 37.66 130.702 38.068C130.326 38.468 130.138 39.04 130.138 39.784V43H129.286ZM141.88 36.64C142.392 36.64 142.836 36.74 143.212 36.94C143.596 37.132 143.892 37.428 144.1 37.828C144.316 38.228 144.424 38.732 144.424 39.34V43H143.572V39.424C143.572 38.76 143.412 38.26 143.092 37.924C142.78 37.58 142.336 37.408 141.76 37.408C141.328 37.408 140.952 37.5 140.632 37.684C140.32 37.86 140.076 38.12 139.9 38.464C139.732 38.8 139.648 39.208 139.648 39.688V43H138.796V39.424C138.796 38.76 138.636 38.26 138.316 37.924C137.996 37.58 137.548 37.408 136.972 37.408C136.548 37.408 136.176 37.5 135.856 37.684C135.536 37.86 135.288 38.12 135.112 38.464C134.944 38.8 134.86 39.208 134.86 39.688V43H134.008V36.7H134.824V38.404L134.692 38.104C134.884 37.648 135.192 37.292 135.616 37.036C136.048 36.772 136.556 36.64 137.14 36.64C137.756 36.64 138.28 36.796 138.712 37.108C139.144 37.412 139.424 37.872 139.552 38.488L139.216 38.356C139.4 37.844 139.724 37.432 140.188 37.12C140.66 36.8 141.224 36.64 141.88 36.64ZM149.411 43.06C148.755 43.06 148.179 42.924 147.683 42.652C147.187 42.372 146.799 41.992 146.519 41.512C146.239 41.024 146.099 40.468 146.099 39.844C146.099 39.22 146.231 38.668 146.495 38.188C146.767 37.708 147.135 37.332 147.599 37.06C148.071 36.78 148.599 36.64 149.183 36.64C149.775 36.64 150.299 36.776 150.755 37.048C151.219 37.312 151.583 37.688 151.847 38.176C152.111 38.656 152.243 39.212 152.243 39.844C152.243 39.884 152.239 39.928 152.231 39.976C152.231 40.016 152.231 40.06 152.231 40.108H146.747V39.472H151.775L151.439 39.724C151.439 39.268 151.339 38.864 151.139 38.512C150.947 38.152 150.683 37.872 150.347 37.672C150.011 37.472 149.623 37.372 149.183 37.372C148.751 37.372 148.363 37.472 148.019 37.672C147.675 37.872 147.407 38.152 147.215 38.512C147.023 38.872 146.927 39.284 146.927 39.748V39.88C146.927 40.36 147.031 40.784 147.239 41.152C147.455 41.512 147.751 41.796 148.127 42.004C148.511 42.204 148.947 42.304 149.435 42.304C149.819 42.304 150.175 42.236 150.503 42.1C150.839 41.964 151.127 41.756 151.367 41.476L151.847 42.028C151.567 42.364 151.215 42.62 150.791 42.796C150.375 42.972 149.915 43.06 149.411 43.06ZM159.626 43.06C159.026 43.06 158.486 42.924 158.006 42.652C157.534 42.38 157.162 42.004 156.89 41.524C156.618 41.036 156.482 40.476 156.482 39.844C156.482 39.204 156.618 38.644 156.89 38.164C157.162 37.684 157.534 37.312 158.006 37.048C158.486 36.776 159.026 36.64 159.626 36.64C160.178 36.64 160.67 36.764 161.102 37.012C161.542 37.26 161.89 37.624 162.146 38.104C162.41 38.576 162.542 39.156 162.542 39.844C162.542 40.524 162.414 41.104 162.158 41.584C161.902 42.064 161.554 42.432 161.114 42.688C160.682 42.936 160.186 43.06 159.626 43.06ZM159.686 42.304C160.134 42.304 160.534 42.204 160.886 42.004C161.246 41.796 161.526 41.508 161.726 41.14C161.934 40.764 162.038 40.332 162.038 39.844C162.038 39.348 161.934 38.916 161.726 38.548C161.526 38.18 161.246 37.896 160.886 37.696C160.534 37.488 160.134 37.384 159.686 37.384C159.246 37.384 158.85 37.488 158.498 37.696C158.146 37.896 157.866 38.18 157.658 38.548C157.45 38.916 157.346 39.348 157.346 39.844C157.346 40.332 157.45 40.764 157.658 41.14C157.866 41.508 158.146 41.796 158.498 42.004C158.85 42.204 159.246 42.304 159.686 42.304ZM162.062 43V41.104L162.146 39.832L162.026 38.56V34.096H162.878V43H162.062ZM167.927 43.06C167.271 43.06 166.695 42.924 166.199 42.652C165.703 42.372 165.315 41.992 165.035 41.512C164.755 41.024 164.615 40.468 164.615 39.844C164.615 39.22 164.747 38.668 165.011 38.188C165.283 37.708 165.651 37.332 166.115 37.06C166.587 36.78 167.115 36.64 167.699 36.64C168.291 36.64 168.815 36.776 169.271 37.048C169.735 37.312 170.099 37.688 170.363 38.176C170.627 38.656 170.759 39.212 170.759 39.844C170.759 39.884 170.755 39.928 170.747 39.976C170.747 40.016 170.747 40.06 170.747 40.108H165.263V39.472H170.291L169.955 39.724C169.955 39.268 169.855 38.864 169.655 38.512C169.463 38.152 169.199 37.872 168.863 37.672C168.527 37.472 168.139 37.372 167.699 37.372C167.267 37.372 166.879 37.472 166.535 37.672C166.191 37.872 165.923 38.152 165.731 38.512C165.539 38.872 165.443 39.284 165.443 39.748V39.88C165.443 40.36 165.547 40.784 165.755 41.152C165.971 41.512 166.267 41.796 166.643 42.004C167.027 42.204 167.463 42.304 167.951 42.304C168.335 42.304 168.691 42.236 169.019 42.1C169.355 41.964 169.643 41.756 169.883 41.476L170.363 42.028C170.083 42.364 169.731 42.62 169.307 42.796C168.891 42.972 168.431 43.06 167.927 43.06ZM174.185 43.06C173.665 43.06 173.173 42.988 172.709 42.844C172.245 42.692 171.881 42.504 171.617 42.28L172.001 41.608C172.257 41.8 172.585 41.968 172.985 42.112C173.385 42.248 173.805 42.316 174.245 42.316C174.845 42.316 175.277 42.224 175.541 42.04C175.805 41.848 175.937 41.596 175.937 41.284C175.937 41.052 175.861 40.872 175.709 40.744C175.565 40.608 175.373 40.508 175.133 40.444C174.893 40.372 174.625 40.312 174.329 40.264C174.033 40.216 173.737 40.16 173.441 40.096C173.153 40.032 172.889 39.94 172.649 39.82C172.409 39.692 172.213 39.52 172.061 39.304C171.917 39.088 171.845 38.8 171.845 38.44C171.845 38.096 171.941 37.788 172.133 37.516C172.325 37.244 172.605 37.032 172.973 36.88C173.349 36.72 173.805 36.64 174.341 36.64C174.749 36.64 175.157 36.696 175.565 36.808C175.973 36.912 176.309 37.052 176.573 37.228L176.201 37.912C175.921 37.72 175.621 37.584 175.301 37.504C174.981 37.416 174.661 37.372 174.341 37.372C173.773 37.372 173.353 37.472 173.081 37.672C172.817 37.864 172.685 38.112 172.685 38.416C172.685 38.656 172.757 38.844 172.901 38.98C173.053 39.116 173.249 39.224 173.489 39.304C173.737 39.376 174.005 39.436 174.293 39.484C174.589 39.532 174.881 39.592 175.169 39.664C175.465 39.728 175.733 39.82 175.973 39.94C176.221 40.052 176.417 40.216 176.561 40.432C176.713 40.64 176.789 40.916 176.789 41.26C176.789 41.628 176.685 41.948 176.477 42.22C176.277 42.484 175.981 42.692 175.589 42.844C175.205 42.988 174.737 43.06 174.185 43.06ZM184.001 43.06C183.401 43.06 182.861 42.924 182.381 42.652C181.909 42.38 181.537 42.004 181.265 41.524C180.993 41.036 180.857 40.476 180.857 39.844C180.857 39.204 180.993 38.644 181.265 38.164C181.537 37.684 181.909 37.312 182.381 37.048C182.861 36.776 183.401 36.64 184.001 36.64C184.553 36.64 185.045 36.764 185.477 37.012C185.917 37.26 186.265 37.624 186.521 38.104C186.785 38.576 186.917 39.156 186.917 39.844C186.917 40.524 186.789 41.104 186.533 41.584C186.277 42.064 185.929 42.432 185.489 42.688C185.057 42.936 184.561 43.06 184.001 43.06ZM184.061 42.304C184.509 42.304 184.909 42.204 185.261 42.004C185.621 41.796 185.901 41.508 186.101 41.14C186.309 40.764 186.413 40.332 186.413 39.844C186.413 39.348 186.309 38.916 186.101 38.548C185.901 38.18 185.621 37.896 185.261 37.696C184.909 37.488 184.509 37.384 184.061 37.384C183.621 37.384 183.225 37.488 182.873 37.696C182.521 37.896 182.241 38.18 182.033 38.548C181.825 38.916 181.721 39.348 181.721 39.844C181.721 40.332 181.825 40.764 182.033 41.14C182.241 41.508 182.521 41.796 182.873 42.004C183.225 42.204 183.621 42.304 184.061 42.304ZM186.437 43V41.104L186.521 39.832L186.401 38.56V34.096H187.253V43H186.437ZM192.194 43.06C191.586 43.06 191.038 42.924 190.55 42.652C190.07 42.372 189.69 41.992 189.41 41.512C189.13 41.024 188.99 40.468 188.99 39.844C188.99 39.212 189.13 38.656 189.41 38.176C189.69 37.696 190.07 37.32 190.55 37.048C191.03 36.776 191.578 36.64 192.194 36.64C192.818 36.64 193.37 36.776 193.85 37.048C194.338 37.32 194.718 37.696 194.99 38.176C195.27 38.656 195.41 39.212 195.41 39.844C195.41 40.468 195.27 41.024 194.99 41.512C194.718 41.992 194.338 42.372 193.85 42.652C193.362 42.924 192.81 43.06 192.194 43.06ZM192.194 42.304C192.65 42.304 193.054 42.204 193.406 42.004C193.758 41.796 194.034 41.508 194.234 41.14C194.442 40.764 194.546 40.332 194.546 39.844C194.546 39.348 194.442 38.916 194.234 38.548C194.034 38.18 193.758 37.896 193.406 37.696C193.054 37.488 192.654 37.384 192.206 37.384C191.758 37.384 191.358 37.488 191.006 37.696C190.654 37.896 190.374 38.18 190.166 38.548C189.958 38.916 189.854 39.348 189.854 39.844C189.854 40.332 189.958 40.764 190.166 41.14C190.374 41.508 190.654 41.796 191.006 42.004C191.358 42.204 191.754 42.304 192.194 42.304ZM200.365 36.64C200.877 36.64 201.325 36.74 201.709 36.94C202.101 37.132 202.405 37.428 202.621 37.828C202.845 38.228 202.957 38.732 202.957 39.34V43H202.105V39.424C202.105 38.76 201.937 38.26 201.601 37.924C201.273 37.58 200.809 37.408 200.209 37.408C199.761 37.408 199.369 37.5 199.033 37.684C198.705 37.86 198.449 38.12 198.265 38.464C198.089 38.8 198.001 39.208 198.001 39.688V43H197.149V36.7H197.965V38.428L197.833 38.104C198.033 37.648 198.353 37.292 198.793 37.036C199.233 36.772 199.757 36.64 200.365 36.64ZM209.206 43V41.608L209.17 41.38V39.052C209.17 38.516 209.018 38.104 208.714 37.816C208.418 37.528 207.974 37.384 207.382 37.384C206.974 37.384 206.586 37.452 206.218 37.588C205.85 37.724 205.538 37.904 205.282 38.128L204.898 37.492C205.218 37.22 205.602 37.012 206.05 36.868C206.498 36.716 206.97 36.64 207.466 36.64C208.282 36.64 208.91 36.844 209.35 37.252C209.798 37.652 210.022 38.264 210.022 39.088V43H209.206ZM207.034 43.06C206.562 43.06 206.15 42.984 205.798 42.832C205.454 42.672 205.19 42.456 205.006 42.184C204.822 41.904 204.73 41.584 204.73 41.224C204.73 40.896 204.806 40.6 204.958 40.336C205.118 40.064 205.374 39.848 205.726 39.688C206.086 39.52 206.566 39.436 207.166 39.436H209.338V40.072H207.19C206.582 40.072 206.158 40.18 205.918 40.396C205.686 40.612 205.57 40.88 205.57 41.2C205.57 41.56 205.71 41.848 205.99 42.064C206.27 42.28 206.662 42.388 207.166 42.388C207.646 42.388 208.058 42.28 208.402 42.064C208.754 41.84 209.01 41.52 209.17 41.104L209.362 41.692C209.202 42.108 208.922 42.44 208.522 42.688C208.13 42.936 207.634 43.06 207.034 43.06ZM214.328 43.06C213.736 43.06 213.28 42.9 212.96 42.58C212.64 42.26 212.48 41.808 212.48 41.224V35.308H213.332V41.176C213.332 41.544 213.424 41.828 213.608 42.028C213.8 42.228 214.072 42.328 214.424 42.328C214.8 42.328 215.112 42.22 215.36 42.004L215.66 42.616C215.492 42.768 215.288 42.88 215.048 42.952C214.816 43.024 214.576 43.06 214.328 43.06ZM211.352 37.408V36.7H215.252V37.408H211.352ZM219.665 43.06C219.009 43.06 218.433 42.924 217.937 42.652C217.441 42.372 217.053 41.992 216.773 41.512C216.493 41.024 216.353 40.468 216.353 39.844C216.353 39.22 216.485 38.668 216.749 38.188C217.021 37.708 217.389 37.332 217.853 37.06C218.325 36.78 218.853 36.64 219.437 36.64C220.029 36.64 220.553 36.776 221.009 37.048C221.473 37.312 221.837 37.688 222.101 38.176C222.365 38.656 222.497 39.212 222.497 39.844C222.497 39.884 222.493 39.928 222.485 39.976C222.485 40.016 222.485 40.06 222.485 40.108H217.001V39.472H222.029L221.693 39.724C221.693 39.268 221.593 38.864 221.393 38.512C221.201 38.152 220.937 37.872 220.601 37.672C220.265 37.472 219.877 37.372 219.437 37.372C219.005 37.372 218.617 37.472 218.273 37.672C217.929 37.872 217.661 38.152 217.469 38.512C217.277 38.872 217.181 39.284 217.181 39.748V39.88C217.181 40.36 217.285 40.784 217.493 41.152C217.709 41.512 218.005 41.796 218.381 42.004C218.765 42.204 219.201 42.304 219.689 42.304C220.073 42.304 220.429 42.236 220.757 42.1C221.093 41.964 221.381 41.756 221.621 41.476L222.101 42.028C221.821 42.364 221.469 42.62 221.045 42.796C220.629 42.972 220.169 43.06 219.665 43.06ZM226.835 43.06C226.299 43.06 225.831 42.96 225.431 42.76C225.031 42.56 224.719 42.26 224.495 41.86C224.279 41.46 224.171 40.96 224.171 40.36V36.7H225.023V40.264C225.023 40.936 225.187 41.444 225.515 41.788C225.851 42.124 226.319 42.292 226.919 42.292C227.359 42.292 227.739 42.204 228.059 42.028C228.387 41.844 228.635 41.58 228.803 41.236C228.979 40.892 229.067 40.48 229.067 40V36.7H229.919V43H229.103V41.272L229.235 41.584C229.035 42.048 228.723 42.412 228.299 42.676C227.883 42.932 227.395 43.06 226.835 43.06ZM232.293 43V36.7H233.109V38.416L233.025 38.116C233.201 37.636 233.497 37.272 233.913 37.024C234.329 36.768 234.845 36.64 235.461 36.64V37.468C235.429 37.468 235.397 37.468 235.365 37.468C235.333 37.46 235.301 37.456 235.269 37.456C234.605 37.456 234.085 37.66 233.709 38.068C233.333 38.468 233.145 39.04 233.145 39.784V43H232.293ZM238.778 43.06C238.258 43.06 237.766 42.988 237.302 42.844C236.838 42.692 236.474 42.504 236.21 42.28L236.594 41.608C236.85 41.8 237.178 41.968 237.578 42.112C237.978 42.248 238.398 42.316 238.838 42.316C239.438 42.316 239.87 42.224 240.134 42.04C240.398 41.848 240.53 41.596 240.53 41.284C240.53 41.052 240.454 40.872 240.302 40.744C240.158 40.608 239.966 40.508 239.726 40.444C239.486 40.372 239.218 40.312 238.922 40.264C238.626 40.216 238.33 40.16 238.034 40.096C237.746 40.032 237.482 39.94 237.242 39.82C237.002 39.692 236.806 39.52 236.654 39.304C236.51 39.088 236.438 38.8 236.438 38.44C236.438 38.096 236.534 37.788 236.726 37.516C236.918 37.244 237.198 37.032 237.566 36.88C237.942 36.72 238.398 36.64 238.934 36.64C239.342 36.64 239.75 36.696 240.158 36.808C240.566 36.912 240.902 37.052 241.166 37.228L240.794 37.912C240.514 37.72 240.214 37.584 239.894 37.504C239.574 37.416 239.254 37.372 238.934 37.372C238.366 37.372 237.946 37.472 237.674 37.672C237.41 37.864 237.278 38.112 237.278 38.416C237.278 38.656 237.35 38.844 237.494 38.98C237.646 39.116 237.842 39.224 238.082 39.304C238.33 39.376 238.598 39.436 238.886 39.484C239.182 39.532 239.474 39.592 239.762 39.664C240.058 39.728 240.326 39.82 240.566 39.94C240.814 40.052 241.01 40.216 241.154 40.432C241.306 40.64 241.382 40.916 241.382 41.26C241.382 41.628 241.278 41.948 241.07 42.22C240.87 42.484 240.574 42.692 240.182 42.844C239.798 42.988 239.33 43.06 238.778 43.06Z" fill="#003333"/>
</svg>
