<svg width="155" height="65" viewBox="0 0 155 65" fill="none" xmlns="http://www.w3.org/2000/svg">
<path d="M64.3778 5.891C64.3778 5.891 57.3488 8.087 50.7503 13.295C48.2611 15.2593 44.1503 19.9948 42.3526 22.5148C40.0666 25.7165 38.2373 28.7938 37.4551 30.7475L37.7993 30.9755C37.7993 30.9755 44.8118 18.9958 54.4141 14.2693C54.4141 14.2693 54.5993 14.207 54.7741 14.246C55.2323 14.3488 55.2323 14.669 54.9263 15.1085C54.5768 15.6125 53.8373 16.7608 53.8373 16.7608C53.1593 17.9113 52.9448 18.1775 52.8218 18.8623C52.5143 20.6008 53.7563 20.438 54.8521 20.0833C54.8521 20.0833 56.5186 19.5725 59.3393 18.7633C59.3393 18.7633 61.8833 18.308 61.1641 20.018C60.5288 21.5293 56.0213 23.6203 56.1008 25.247C56.1008 25.247 60.4823 23.2948 61.4341 24.5255C62.9191 26.4478 56.6356 26.8775 55.8728 31.3355C55.8728 31.3355 59.0476 29.6758 59.5448 31.823C59.5448 31.823 60.1373 33.2465 55.6726 36.932C50.8786 40.889 42.9616 46.9963 42.9616 46.9963L43.1063 47.0638C43.1063 47.0638 51.1831 42.9613 56.7833 39.2218C63.3781 34.8208 65.2523 33.7093 65.1803 30.4475C65.1248 27.965 62.0731 27.695 61.9088 27.6845L61.8818 27.6508C61.9148 27.4475 69.0563 23.7845 69.0563 23.7845C69.0563 23.7845 69.2221 23.7433 69.2363 23.738C70.5713 23.2618 69.1486 21.044 68.1113 21.0035C67.0733 20.9645 63.6368 21.7888 63.4568 21.8008C63.4606 21.7955 63.4523 21.7663 63.4523 21.7663C63.7388 21.59 69.9676 16.8388 69.9676 16.8388C71.3513 15.6448 69.7403 13.6693 67.3396 14.1425C67.3396 14.1425 60.6766 16.5163 60.0016 16.682L59.9693 16.667C59.9693 16.667 67.4116 9.72875 68.5463 9.18125C69.5603 8.6975 67.9733 5.75 65.3723 5.75C65.0551 5.75 64.7228 5.7935 64.3778 5.891Z" fill="url(#paint0_linear_830_3682)"/>
<path d="M8.27295 27.4122C8.2767 29.2189 8.5662 31.1149 9.1962 33.1819C11.6982 41.4004 21.3027 45.1774 27.6792 47.3149C30.8862 48.3904 35.4244 49.7929 38.5497 51.2119C40.8597 52.2619 44.9119 54.5569 46.5342 58.7142C46.7292 59.2392 46.8867 59.6367 46.9422 59.7507L47.057 59.6367C46.607 53.9794 41.5632 50.6149 37.7667 48.5937C32.8594 45.9837 27.4857 44.1972 23.0997 40.3407C18.8937 36.6432 15.5937 30.3034 17.6322 24.2427C19.2799 19.3414 23.5062 16.5319 27.7849 17.3067C31.3684 17.9569 34.2687 21.0079 35.6494 24.9312L36.2697 23.1987C35.3554 19.7149 33.4602 17.4597 31.2199 15.8877C28.8454 14.2212 25.6152 13.3467 22.5244 13.3467C20.2947 13.3467 18.1369 13.8019 16.4254 14.7447C11.7642 17.3089 8.28645 21.3807 8.27295 27.4122Z" fill="url(#paint1_linear_830_3682)"/>
<path d="M100.234 20.1052L99.6396 18.3562C99.5046 17.9587 99.4146 17.5987 99.3239 17.2462H99.3058C99.2158 17.6062 99.1168 17.9767 98.9983 18.3465L98.4036 20.1045H100.234L100.234 20.1052ZM98.2423 20.7187L97.6101 22.6312H96.7986L98.8641 16.5517H99.8106L101.886 22.6305H101.046L100.398 20.718L98.2423 20.7187ZM102.59 21.819C102.825 21.9735 103.24 22.1347 103.638 22.1347C104.214 22.1347 104.484 21.8467 104.484 21.486C104.484 21.1072 104.259 20.8995 103.673 20.6835C102.888 20.4037 102.518 19.971 102.518 19.4467C102.518 18.7432 103.087 18.1665 104.024 18.1665C104.467 18.1665 104.856 18.2925 105.098 18.4365L104.9 19.014C104.632 18.849 104.323 18.7618 104.008 18.762C103.539 18.762 103.276 19.032 103.276 19.3567C103.276 19.7182 103.538 19.8795 104.107 20.0955C104.864 20.3842 105.251 20.763 105.251 21.4132C105.251 22.1797 104.657 22.7295 103.619 22.7295C103.141 22.7295 102.7 22.6035 102.393 22.4235L102.59 21.819ZM106.163 21.819C106.397 21.9735 106.812 22.1347 107.209 22.1347C107.786 22.1347 108.056 21.8467 108.056 21.486C108.056 21.1072 107.831 20.8995 107.246 20.6835C106.461 20.4037 106.091 19.971 106.091 19.4467C106.091 18.7432 106.659 18.1665 107.597 18.1665C108.039 18.1665 108.427 18.2925 108.67 18.4365L108.472 19.014C108.203 18.8485 107.894 18.7613 107.579 18.762C107.11 18.762 106.849 19.032 106.849 19.3567C106.849 19.7182 107.11 19.8795 107.679 20.0955C108.436 20.3842 108.824 20.763 108.824 21.4132C108.824 22.1797 108.229 22.7295 107.192 22.7295C106.714 22.7295 106.272 22.6035 105.965 22.4235L106.163 21.819ZM110.327 20.457C110.327 21.4132 110.877 22.1347 111.653 22.1347C112.41 22.1347 112.978 21.4222 112.978 20.4397C112.978 19.7002 112.608 18.762 111.67 18.762C110.733 18.762 110.327 19.6275 110.327 20.457ZM113.791 20.412C113.791 22.026 112.672 22.7295 111.616 22.7295C110.435 22.7295 109.525 21.864 109.525 20.484C109.525 19.0237 110.481 18.1665 111.689 18.1665C112.942 18.1665 113.791 19.0777 113.791 20.412ZM117.904 22.4677C117.697 22.5757 117.237 22.7287 116.651 22.7287C115.334 22.7287 114.478 21.8272 114.478 20.4922C114.478 19.149 115.398 18.1747 116.822 18.1747C117.291 18.1747 117.706 18.2925 117.923 18.3997L117.742 19.014C117.553 18.906 117.254 18.807 116.822 18.807C115.822 18.807 115.281 19.5457 115.281 20.457C115.281 21.4665 115.93 22.089 116.795 22.089C117.132 22.0905 117.465 22.0167 117.769 21.873L117.904 22.4677ZM118.834 22.6312H119.627V18.2662H118.834V22.6312ZM119.718 17.04C119.728 17.31 119.529 17.5275 119.213 17.5275C118.933 17.5275 118.736 17.31 118.736 17.04C118.736 16.7602 118.943 16.5435 119.231 16.5435C119.528 16.5435 119.718 16.761 119.718 17.04ZM123.244 20.4052C122.379 20.3857 121.396 20.5402 121.396 21.3877C121.396 21.9015 121.738 22.1445 122.145 22.1445C122.713 22.1445 123.073 21.7845 123.199 21.4147C123.226 21.333 123.244 21.243 123.244 21.162V20.4045V20.4052ZM124.012 21.5857C124.012 21.9637 124.029 22.3342 124.084 22.632H123.362L123.299 22.0815H123.273C123.029 22.4257 122.56 22.7317 121.938 22.7317C121.054 22.7317 120.603 22.1092 120.603 21.4785C120.603 20.4225 121.542 19.8465 123.228 19.8555V19.7655C123.228 19.4047 123.128 18.7552 122.236 18.7552C121.835 18.7564 121.441 18.8688 121.099 19.08L120.919 18.5572C121.279 18.3232 121.802 18.1695 122.352 18.1695C123.687 18.1695 124.012 19.08 124.012 19.9552V21.5857H124.012ZM126.214 17.22V18.2655H127.35V18.8692H126.214V21.2235C126.214 21.7635 126.367 22.0702 126.808 22.0702C127.025 22.0702 127.151 22.0522 127.268 22.0155L127.305 22.611C127.151 22.6747 126.909 22.728 126.6 22.728C126.232 22.728 125.932 22.6027 125.744 22.386C125.519 22.1512 125.437 21.7635 125.437 21.249V18.8677H124.762V18.264H125.437V17.4615L126.214 17.22ZM128.242 22.6312H129.036V18.2662H128.241L128.242 22.6312ZM129.126 17.04C129.135 17.31 128.936 17.5275 128.621 17.5275C128.341 17.5275 128.143 17.31 128.143 17.04C128.143 16.7602 128.35 16.5435 128.638 16.5435C128.935 16.5435 129.126 16.761 129.126 17.04ZM130.84 20.457C130.84 21.4132 131.389 22.1347 132.166 22.1347C132.923 22.1347 133.49 21.4222 133.49 20.4397C133.49 19.7002 133.121 18.762 132.184 18.762C131.246 18.762 130.84 19.6275 130.84 20.457ZM134.302 20.412C134.302 22.026 133.184 22.7295 132.129 22.7295C130.948 22.7295 130.036 21.864 130.036 20.484C130.036 19.0237 130.993 18.1665 132.202 18.1665C133.454 18.1665 134.302 19.0777 134.302 20.412H134.302ZM135.305 19.4467C135.305 18.9967 135.296 18.6262 135.269 18.2655H135.973L136.018 18.987H136.036C136.253 18.5722 136.757 18.1665 137.479 18.1665C138.083 18.1665 139.021 18.5272 139.021 20.0235V22.6297H138.227V20.1127C138.227 19.4092 137.966 18.8235 137.217 18.8235C136.693 18.8235 136.287 19.1932 136.152 19.635C136.114 19.7547 136.096 19.8799 136.099 20.0055V22.629H135.304V19.446L135.305 19.4467ZM72.6869 40.0012H74.6849V48.3967H78.5548V49.9665H72.6869V40.0012ZM84.1948 45.5677C84.1378 44.6407 83.7096 43.8412 82.6393 43.8412C81.5676 43.8412 81.0261 44.5837 80.9384 45.5685L84.1948 45.5677ZM85.4804 49.5525C84.7806 49.938 83.9803 50.1367 82.9528 50.1367C80.5266 50.1367 79.1129 48.738 79.1129 46.3267C79.1129 44.1982 80.2408 42.4417 82.5253 42.4417C85.2531 42.4417 86.0233 44.313 86.0233 46.8825H80.9391C81.0261 48.0675 81.8533 48.738 83.0376 48.738C83.9676 48.738 84.6238 48.3967 85.3378 47.997L85.4804 49.5525ZM87.4221 42.615H89.2048V43.6425H89.2348C89.8348 42.7425 90.7048 42.4417 91.4188 42.4417C92.4463 42.4417 93.1753 42.8287 93.5893 43.7415C94.0318 42.8557 94.9888 42.4417 95.8896 42.4417C97.7016 42.4417 98.2146 43.6845 98.2146 45.327V49.9657H96.3021V45.5842C96.3021 44.8987 96.3021 43.9275 95.2026 43.9275C93.9321 43.9275 93.7753 45.4402 93.7753 46.3972V49.9657H91.8629V45.5842C91.8629 44.8987 91.8628 43.9275 90.7641 43.9275C89.4921 43.9275 89.3376 45.4402 89.3376 46.3972V49.9657H87.4228L87.4221 42.615ZM102.643 48.738C103.23 48.738 103.684 48.4807 103.986 48.0817C104.298 47.6677 104.385 47.139 104.385 46.5667H103.555C102.7 46.5667 101.427 46.7122 101.427 47.8395C101.427 48.4687 101.957 48.738 102.643 48.738ZM101.696 42.7582C102.301 42.5377 102.857 42.4417 103.672 42.4417C105.913 42.4417 106.126 43.3702 106.126 45.5392V46.4827C106.126 47.2267 106.141 47.7825 106.153 48.324C106.168 48.8827 106.242 49.3965 106.281 49.9665H104.555C104.484 49.581 104.484 49.095 104.47 48.867H104.442C103.999 49.6815 103.042 50.1367 102.171 50.1367C100.872 50.1367 99.6006 49.3515 99.6006 47.9527C99.6006 46.8547 100.129 46.2127 100.856 45.8535C101.584 45.4972 102.527 45.426 103.326 45.426H104.383C104.383 44.241 104.57 43.8412 103.441 43.8412C102.628 43.8412 101.812 44.1562 101.168 44.6407L101.696 42.7582ZM130.915 48.738C131.5 48.738 131.954 48.4807 132.256 48.0817C132.569 47.6677 132.654 47.139 132.654 46.5667H131.825C130.969 46.5667 129.699 46.7122 129.699 47.8395C129.699 48.4687 130.228 48.738 130.914 48.738H130.915ZM129.967 42.7582C130.572 42.5377 131.128 42.4417 131.942 42.4417C134.184 42.4417 134.397 43.3702 134.397 45.5392V46.4827C134.397 47.2267 134.412 47.7825 134.425 48.324C134.439 48.8827 134.512 49.3965 134.552 49.9665H132.826C132.754 49.581 132.754 49.095 132.741 48.867H132.712C132.27 49.6815 131.313 50.1367 130.442 50.1367C129.143 50.1367 127.87 49.3515 127.87 47.9527C127.87 46.8547 128.4 46.2127 129.127 45.8535C129.855 45.4972 130.798 45.426 131.597 45.426H132.654C132.654 44.241 132.841 43.8412 131.71 43.8412C130.898 43.8412 130.083 44.1562 129.439 44.6407L129.967 42.7582ZM107.981 42.615H109.681V44.2845H109.711C109.797 43.5975 110.58 42.4417 111.722 42.4417C111.909 42.4417 112.107 42.4417 112.309 42.4995L112.094 44.427C111.923 44.3265 111.792 44.2695 111.451 44.2695C109.896 44.2695 109.896 46.212 109.896 47.2687V49.9657H107.981V42.615ZM117.905 44.1982C117.564 44.0422 117.477 43.9282 116.893 43.9282C115.708 43.9282 114.952 44.8695 114.952 46.2547C114.952 47.6107 115.594 48.6532 116.935 48.6532C117.477 48.6532 117.792 48.4522 118.12 48.3105L118.49 49.8952C117.934 50.0662 117.362 50.1367 116.578 50.1367C114.166 50.1367 112.953 48.4965 112.953 46.2547C112.953 44.127 114.207 42.4417 116.506 42.4417C117.278 42.4417 117.835 42.5272 118.363 42.6847L117.905 44.1982ZM119.689 39.9727L121.602 38.5455V43.614H121.63C122.116 42.9007 122.944 42.4432 123.944 42.4432C125.684 42.4432 126.441 43.6732 126.441 45.3277V49.9672H124.528V46.0417C124.528 45.1417 124.516 43.9282 123.288 43.9282C121.903 43.9282 121.602 45.4267 121.602 46.3695V49.9665H119.689V39.9727ZM136.252 39.9742L138.165 38.5455V49.968H136.252V39.9742ZM81.8376 27.3127C80.8768 26.8687 80.1651 26.6572 79.1676 26.6572C76.2674 26.6572 74.6669 28.6125 74.6669 31.1572C74.6669 33.6832 76.2336 35.5852 78.8849 35.5852C79.5599 35.5852 80.0939 35.5155 80.5199 35.409V32.1727H77.8874V30.2145H82.9049V36.903C81.5871 37.2615 80.2184 37.545 78.8849 37.545C74.8619 37.545 72.0688 35.535 72.0688 31.335C72.0688 27.084 74.6661 24.7005 78.8849 24.7005C80.3249 24.7005 81.4641 24.8955 82.5314 25.2165L81.8376 27.3142V27.3127ZM85.2711 28.1685H87.3883V30.2505H87.4228C87.5308 29.394 88.5088 27.954 89.9331 27.954C90.1633 27.954 90.4131 27.954 90.6621 28.0252L90.4476 30.4267C90.2339 30.303 90.0201 30.231 89.5941 30.231C87.6546 30.231 87.6546 32.652 87.6546 33.9682V37.329H85.2696V28.1685H85.2711ZM97.7976 31.8502C97.7271 30.6937 97.1931 29.697 95.8573 29.697C94.5238 29.697 93.8473 30.6225 93.7423 31.8502H97.7976ZM99.3989 36.8145C98.5266 37.2945 97.5299 37.5435 96.2504 37.5435C93.2256 37.5435 91.4631 35.8005 91.4631 32.796C91.4631 30.1417 92.8686 27.954 95.7156 27.954C99.1131 27.954 100.075 30.285 100.075 33.4882H93.7416C93.8481 34.9642 94.8794 35.8005 96.3561 35.8005C97.5126 35.8005 98.3309 35.3745 99.2204 34.875L99.3989 36.8145ZM107.887 32.6527C107.887 31.0875 107.282 29.8057 105.895 29.8057C104.275 29.8057 103.758 31.299 103.758 32.7052C103.758 33.951 104.417 35.4802 105.787 35.4802C107.282 35.4817 107.887 34.1812 107.887 32.6527ZM110.272 28.17V36.4425C110.272 38.9332 108.617 41.2815 104.771 41.2815L105.146 39.4305C107.78 39.4305 107.887 37.4572 107.887 35.8732H107.852C107.406 36.6585 106.34 37.332 105.004 37.332C102.301 37.332 101.269 35.1607 101.269 32.7067C101.269 30.5002 102.408 27.957 105.146 27.957C106.357 27.957 107.3 28.3672 107.959 29.4157L110.272 28.17ZM116.837 35.694C118.67 35.694 119.151 34.056 119.151 32.5267C119.151 31.1205 118.404 29.8042 116.837 29.8042C115.289 29.8042 114.541 31.1572 114.541 32.5267C114.541 34.038 115.022 35.694 116.837 35.694ZM116.837 27.954C119.559 27.954 121.641 29.7885 121.641 32.8117C121.641 35.4442 119.878 37.5442 116.837 37.5442C113.813 37.5442 112.05 35.4442 112.05 32.8117C112.05 29.7877 114.131 27.954 116.837 27.954ZM123.26 28.1685H125.378V30.2505H125.411C125.521 29.394 126.497 27.954 127.921 27.954C128.151 27.954 128.401 27.954 128.65 28.0252L128.435 30.4267C128.221 30.303 128.011 30.231 127.585 30.231C125.644 30.231 125.644 32.652 125.644 33.9682V37.329H123.259V28.1685H123.26ZM134.275 34.8577H134.31L136.515 28.1677H138.936L135.503 37.26C134.738 39.2857 133.828 41.274 130.628 41.3625L131.155 39.4552C132.271 39.4792 132.94 38.7727 132.94 37.7925L129.435 28.1685H132.069L134.275 34.8577ZM96.1798 27.1417H95.0534L95.9511 24.9135H97.9206L96.1798 27.1417ZM74.2033 55.4827H73.0648V56.5395H74.3354V56.8575H72.6869V53.9257H74.2678V54.2437H73.0656V55.1707H74.2041L74.2033 55.4827ZM74.9159 56.8552V53.9227H75.3291L76.2696 55.4077C76.4871 55.7505 76.6558 56.0602 76.7953 56.358L76.8051 56.3527C76.7698 55.9627 76.7601 55.6065 76.7601 55.149V53.9235H77.1171V56.856H76.7346L75.8046 55.3672C75.6023 55.0522 75.419 54.7253 75.2556 54.3885L75.2428 54.393C75.2638 54.762 75.2729 55.1145 75.2729 55.602V56.8552H74.9159ZM78.8818 53.9257H80.4599V54.2437H79.2599V55.2187H80.3683V55.5307H79.2599V56.8575H78.8818V53.9257ZM81.0891 56.8567H81.4664V53.9257H81.0891V56.8567ZM82.2201 56.8552V53.9227H82.6341L83.5731 55.4077C83.7906 55.7505 83.9601 56.0602 84.0996 56.358L84.1086 56.3527C84.0741 55.9627 84.0636 55.6065 84.0636 55.149V53.9235H84.4221V56.856H84.0389L83.1081 55.3672C82.9033 55.0402 82.7084 54.7072 82.5599 54.3885L82.5463 54.393C82.5681 54.762 82.5763 55.1145 82.5763 55.602V56.8552H82.2201ZM85.1706 56.8567H85.5486V53.9257H85.1706V56.8567ZM86.6781 55.2975H87.0658C87.4701 55.2975 87.7274 55.0762 87.7274 54.741C87.7274 54.363 87.4536 54.1972 87.0524 54.1935C86.8709 54.1935 86.7404 54.21 86.6789 54.2272L86.6781 55.2975ZM86.3001 53.9625C86.4914 53.9235 86.7651 53.9025 87.0261 53.9025C87.4311 53.9025 87.6929 53.976 87.8751 54.1417C88.0221 54.2722 88.1046 54.4717 88.1046 54.6982C88.1046 55.0852 87.8609 55.3417 87.5526 55.4467V55.4595C87.7776 55.5382 87.9126 55.7467 87.9823 56.0505C88.0776 56.4585 88.1474 56.7427 88.2089 56.856H87.8173C87.7686 56.769 87.7033 56.5215 87.6208 56.1555C87.5346 55.7505 87.3778 55.599 87.0336 55.5862H86.6766V56.856H86.2986V53.9625H86.3001ZM91.1781 55.638L90.8908 54.795C90.8271 54.6037 90.7829 54.4297 90.7394 54.2602H90.7311C90.6876 54.4335 90.6396 54.6127 90.5834 54.7905L90.2961 55.6387L91.1781 55.638ZM90.2181 55.9327L89.9136 56.8552H89.5221L90.5173 53.9227H90.9748L91.9746 56.8552H91.5696L91.2576 55.9327H90.2181ZM92.9091 56.8552L91.9528 53.9227H92.3616L92.8176 55.3672C92.9436 55.7625 93.0523 56.1187 93.1318 56.4637H93.1393C93.2233 56.124 93.3441 55.7542 93.4746 55.3717L93.9711 53.9235H94.3754L93.3268 56.856L92.9091 56.8552ZM96.2999 55.4827H95.1598V56.5395H96.4289V56.8575H94.7811V53.9257H96.3651V54.2437H95.1598V55.1707H96.2999V55.4827ZM99.0606 56.76C98.9219 56.829 98.6428 56.9032 98.2873 56.9032C97.4608 56.9032 96.8391 56.376 96.8391 55.4152C96.8391 54.4987 97.4609 53.8762 98.3691 53.8762C98.7344 53.8762 98.9653 53.955 99.0651 54.0067L98.9743 54.3157C98.7884 54.2314 98.586 54.1896 98.3819 54.1935C97.6949 54.1935 97.2389 54.633 97.2389 55.4032C97.2389 56.1202 97.6514 56.5822 98.3639 56.5822C98.5949 56.5822 98.8288 56.5342 98.9826 56.46L99.0606 56.76ZM100.636 53.9257H101.014V56.5395H102.267V56.8575H100.636L100.636 53.9257ZM104.215 55.638L103.927 54.795C103.863 54.6037 103.819 54.4297 103.775 54.2602H103.766C103.723 54.4335 103.675 54.6127 103.618 54.7905L103.33 55.6387L104.215 55.638ZM103.254 55.9327L102.949 56.8552H102.558L103.554 53.9227H104.011L105.01 56.8552H104.605L104.294 55.9327H103.254ZM109.016 55.5705C108.994 55.161 108.967 54.669 108.971 54.3045H108.958C108.859 54.6487 108.736 55.0177 108.589 55.4175L108.071 56.841H107.784L107.31 55.4452C107.179 55.0706 107.066 54.6902 106.971 54.3052H106.962C106.95 54.7375 106.932 55.1695 106.906 55.6012L106.828 56.8575H106.466L106.672 53.9257H107.154L107.653 55.344C107.773 55.7055 107.875 56.0265 107.95 56.331H107.962C108.037 56.0355 108.141 55.7137 108.271 55.344L108.793 53.9265H109.276L109.458 56.8575H109.088L109.016 55.5705ZM110.511 53.9242V55.659C110.511 56.3152 110.803 56.5935 111.193 56.5935C111.628 56.5935 111.906 56.3062 111.906 55.659V53.9242H112.29V55.6335C112.29 56.5335 111.815 56.9032 111.18 56.9032C110.579 56.9032 110.128 56.559 110.128 55.6507V53.9227H110.511V53.9242ZM115.083 56.76C114.945 56.829 114.666 56.9032 114.31 56.9032C113.483 56.9032 112.862 56.376 112.862 55.4152C112.862 54.4987 113.483 53.8762 114.391 53.8762C114.757 53.8762 114.988 53.955 115.088 54.0067L114.997 54.3157C114.811 54.2315 114.609 54.1897 114.405 54.1935C113.718 54.1935 113.262 54.633 113.262 55.4032C113.262 56.1202 113.674 56.5822 114.387 56.5822C114.617 56.5822 114.852 56.5342 115.005 56.46L115.083 56.76ZM115.786 55.4077C115.786 56.0332 116.125 56.5942 116.721 56.5942C117.322 56.5942 117.661 56.0415 117.661 55.3762C117.661 54.7942 117.357 54.1852 116.725 54.1852C116.1 54.1852 115.786 54.7627 115.786 55.4077ZM118.061 55.3597C118.061 56.3677 117.448 56.9032 116.701 56.9032C115.926 56.9032 115.383 56.3025 115.383 55.4152C115.383 54.4852 115.962 53.8762 116.743 53.8762C117.544 53.8762 118.061 54.489 118.061 55.3597ZM119.287 56.8552L118.33 53.9227H118.738L119.196 55.3672C119.321 55.7625 119.431 56.1187 119.509 56.4637H119.518C119.601 56.124 119.721 55.7542 119.853 55.3717L120.348 53.9235H120.752L119.704 56.856L119.287 56.8552ZM121.162 56.8567H121.539V53.9257H121.162V56.8567ZM122.237 56.3947C122.406 56.4982 122.656 56.5852 122.915 56.5852C123.303 56.5852 123.529 56.3812 123.529 56.0865C123.529 55.8112 123.371 55.6552 122.976 55.503C122.498 55.3335 122.203 55.0852 122.203 54.6727C122.203 54.2152 122.581 53.8762 123.15 53.8762C123.45 53.8762 123.667 53.946 123.797 54.0195L123.694 54.3292C123.523 54.2372 123.332 54.1893 123.137 54.1897C122.737 54.1897 122.584 54.429 122.584 54.6285C122.584 54.9022 122.762 55.0372 123.167 55.194C123.662 55.3852 123.915 55.6245 123.915 56.0557C123.915 56.5072 123.58 56.9032 122.889 56.9032C122.606 56.9032 122.296 56.817 122.142 56.712L122.237 56.3947ZM126.574 56.76C126.434 56.829 126.156 56.9032 125.8 56.9032C124.974 56.9032 124.352 56.376 124.352 55.4152C124.352 54.4987 124.974 53.8762 125.882 53.8762C126.247 53.8762 126.478 53.955 126.578 54.0067L126.487 54.3157C126.301 54.2314 126.099 54.1896 125.895 54.1935C125.209 54.1935 124.752 54.633 124.752 55.4032C124.752 56.1202 125.164 56.5822 125.877 56.5822C126.109 56.5822 126.343 56.5342 126.495 56.46L126.574 56.76ZM127.138 56.8567H127.516V53.9257H127.138V56.8567ZM128.647 56.5537C128.743 56.571 128.881 56.5762 129.03 56.5762C129.839 56.5762 130.278 56.1232 130.278 55.3312C130.282 54.6412 129.89 54.201 129.092 54.201C128.896 54.201 128.747 54.2182 128.648 54.24V56.5537H128.647ZM128.269 53.9625C128.499 53.928 128.773 53.9025 129.074 53.9025C129.617 53.9025 130.004 54.0277 130.261 54.267C130.521 54.5062 130.673 54.846 130.673 55.3185C130.673 55.7977 130.525 56.1885 130.252 56.4585C129.978 56.7315 129.525 56.8807 128.955 56.8807C128.686 56.8807 128.459 56.8657 128.269 56.8462V53.9625ZM131.483 55.4077C131.483 56.0332 131.824 56.5942 132.419 56.5942C133.021 56.5942 133.358 56.0415 133.358 55.3762C133.358 54.7942 133.055 54.1852 132.424 54.1852C131.797 54.1852 131.484 54.7627 131.484 55.4077H131.483ZM133.759 55.3597C133.759 56.3677 133.146 56.9032 132.397 56.9032C131.623 56.9032 131.08 56.3025 131.08 55.4152C131.08 54.4852 131.658 53.8762 132.442 53.8762C133.241 53.8762 133.759 54.489 133.759 55.3597ZM134.29 56.3947C134.458 56.4982 134.707 56.5852 134.966 56.5852C135.355 56.5852 135.58 56.3812 135.58 56.0865C135.58 55.8112 135.424 55.6552 135.028 55.503C134.548 55.3335 134.254 55.0852 134.254 54.6727C134.254 54.2152 134.632 53.8762 135.202 53.8762C135.502 53.8762 135.719 53.946 135.85 54.0195L135.745 54.3292C135.574 54.2372 135.382 54.1893 135.188 54.1897C134.789 54.1897 134.636 54.429 134.636 54.6285C134.636 54.9022 134.815 55.0372 135.22 55.194C135.714 55.3852 135.967 55.6245 135.967 56.0557C135.967 56.5072 135.631 56.9032 134.941 56.9032C134.657 56.9032 134.348 56.817 134.193 56.712L134.29 56.3947ZM138.092 55.4827H136.952V56.5395H138.223V56.8575H136.575V53.9257H138.157V54.2437H136.953V55.1707H138.092V55.4827Z" fill="#0E2356"/>
<defs>
<linearGradient id="paint0_linear_830_3682" x1="649.379" y1="3418.64" x2="3528.59" y2="1900.83" gradientUnits="userSpaceOnUse">
<stop stop-color="#65BEEC"/>
<stop offset="1" stop-color="#0E2356"/>
</linearGradient>
<linearGradient id="paint1_linear_830_3682" x1="579.678" y1="2750.44" x2="3525.75" y2="2419.16" gradientUnits="userSpaceOnUse">
<stop stop-color="#65BEEC"/>
<stop offset="1" stop-color="#0E2356"/>
</linearGradient>
</defs>
</svg>
