<svg version="1.1" id="svg2" xmlns:svg="http://www.w3.org/2000/svg" xmlns="http://www.w3.org/2000/svg" xmlns:xlink="http://www.w3.org/1999/xlink" x="0px" y="0px" width="125" height="46" viewBox="0 0 500 185" enable-background="new 0 0 500 185" xml:space="preserve">
<g id="g12" transform="matrix(1.25, 0, 0, -1.25, -85.0387, 263.096)">
	<path id="path28" fill="#FFFF00" d="M68.031,62.552h400v147.851h-400V62.552z"/>
	<path id="path46" fill="#030503" d="M403.877,84.443c0-1.716-0.573-2.124-2.038-1.798l-15.585,3.103   c-0.902,0.157-1.395,0.733-1.395,1.709v28.241c0,0.73,2.533,0.812,2.938,0.486c0.737-0.652,0.492-3.019,0.982-3.019   c0.652,0,2.365,2.855,3.1,2.855c1.55,0,2.612-0.895,2.937-0.731c0.324,0.161,0.324,1.47,0.736,1.798   c0.573,0.403,2.284,0.403,3.18,0.488c1.47,0.083,4.164,0.326,4.164,0.326c1.063,0,0.981-0.737,0.981-2.287V84.443L403.877,84.443   L403.877,84.443z M384.86,145.729c0,1.309,0.984,1.795,1.873,1.795h14.454c1.791,0,2.529-0.569,2.529-2.445l0.075-24.977   c0-0.814-8.488-1.064-8.811-0.488c-0.489,0.813-0.25,2.202-0.734,2.202c-0.245,0-1.55-1.959-2.287-1.959   c-0.731,0-1.955,1.39-2.445,1.39c-0.33,0,0.327-1.959-0.33-2.774c-0.405-0.573-4.325-0.983-4.325-0.492V145.729L384.86,145.729z    M387.066,166.379c0,11.261,16.65,17.704,17.787,23.42c1.229-1.143,1.39-3.016,1.39-4.65c0-6.855-11.916-18.362-11.916-26.686   c0-0.897,0.081-1.145,0.081-1.719c0-0.811-0.323-0.977-0.487-0.977C391.959,155.767,387.066,159.606,387.066,166.379z    M409.421,139.855c0,0,0.167,0,1.149-0.246c0.652-0.161,1.302-0.489,1.302-1.386c0-0.489-0.17-1.471,0.166-1.634   c0.332-0.162,0.567,0.164,0.732,0.245c3.018,2.203,3.754-1.709,4.407-1.709c0.573,0,0.495,2.689,1.305,2.689   c0.658,0.245,6.941-2.773,6.941-4.735c0-0.408-0.821-0.488-0.896-0.899c-0.081-0.57,1.469-0.814,1.22-1.874   c-0.084-0.657-1.551-1.469-1.145-1.874c0.415-0.413,2.37,0.405,2.539,0.405c0.404,0,0.483-0.652,0.483-0.898   c0-3.591-8.4-6.288-10.284-5.469c-0.573,0.245-0.645,2.038-0.976,2.038c-0.491,0-0.741-1.63-1.714-1.875   c-0.982-0.163-2.445,1.062-2.859,0.738c-0.407-0.33,0.979-2.617-1.713-2.617c-0.656,0-0.656,0.739-0.656,1.311v17.791V139.855   L409.421,139.855z M409.421,150.548c0,1.386-0.977,2.446-2.03,2.446h-8.819c-2.446,0-2.288,1.797-2.288,2.204   c0,10.853,15.753,12.649,15.753,26.85c0,6.202-3.915,10.366-8.486,14.038c-0.248,0.164,0-0.897,0-1.31   c0-6.608-24.564-10.037-24.564-25.299c0-13.298,13.218-13.871,13.218-15.912c0-0.408-0.811-0.571-0.898-0.571h-10.121   c-1.06,0-2.038-1.061-2.038-2.446v-8.164c-0.983-0.328-2.202,1.145-2.859,1.145c-0.323,0-0.156-2.533-0.733-2.857   c-0.491-0.244-9.706-3.51-10.53-3.591c-1.299-0.246-0.974,2.04-1.707,2.04c-0.658,0-0.658-2.287-2.292-2.287   c-0.974,0-1.787,0.9-2.521,0.9c-0.49,0,1.057-1.879,1.057-2.449c0-1.552-3.017-2.119-3.017-3.184c0-0.567,2.855,0.248,3.263,0.248   c1.466,0,1.306-1.716,1.87-1.716c0.577,0,0.982,1.959,1.473,2.283c0.98,0.575,2.124-0.405,2.612-0.405   c0.819,0-0.654,1.957,0.088,2.287c0,0,9.952,4.24,10.6,3.918c0.571-0.331,0.495-1.309,1.148-1.634   c0.651-0.328,1.631,2.284,1.631,0.653v-19.997c-1.145-0.733-3.593-1.142-4.899-1.142c-0.651,0-0.324,2.12-0.732,2.12   c-0.658,0-1.314-1.794-2.287-1.794c-0.896,0-2.203,2.2-3.098,2.2c-0.571,0,1.056-2.769,0.079-3.259   c-3.754-1.88-9.711-3.672-9.711-9.631c0-1.225,0.658-2.691,0.409-3.098c-0.245-0.571-1.547-1.716-1.475-2.206   c0-0.489,2.452-0.325,2.945-1.062c0.241-0.406,0.409-2.203,0.9-2.203c0.404,0,1.463,1.391,2.365,0.898   c2.855-1.717,7.83-3.589,10.117-4.813c0.567-0.329,0.242-2.121,0.567-2.284c0.655-0.33,1.959,1.713,4.005,0.567   c0.411-0.162,0.709-0.559,0.709-1.293v-6.678c-0.005-1.398,0.676-1.738,1.331-1.9l24.32-4.98c0,0,1.796-0.325,2.526-0.325   c0.902,0,2.12,0.37,2.12,2.166l-0.034,14.862c0,0.16,0.116,0.596,0.357,0.596c1.309,0.119,0.987-4.077,1.312-4.077   c0.646,0,1.064,2.776,1.877,2.776c1.144,0,1.885-1.06,2.366-0.817c0.409,0.244-0.239,1.555-0.239,2.367   c0,0.736,2.116,1.059,4.732,2.036c2.284,0.818,4.161,1.716,4.898,1.716c0.566,0,0.973-1.547,1.466-1.547   c0.406,0,0.491,2.037,1.388,2.037c0.733,0,2.363-1.139,2.776-0.814c0.325,0.242-0.815,1.795,0.081,2.448   c0.651,0.406,2.202,1.385,2.202,1.795c0,0.243-3.021,0.325-3.18,0.325c-0.573,0.167-1.226,1.96-1.639,1.96   c-0.479,0-0.479-1.793-1.221-2.37c-0.653-0.484-2.284,1.716-3.013,1.716c-0.414,0,0.486-1.632,0.486-2.938   c0-1.305-7.913-3.836-8.974-3.836c-1.632,0-1.719,2.038-2.048,2.038c-0.484,0-0.409-2.45-2.443-2.45   c-0.902,0-1.15,0.492-1.15,0.986v19.583c0,0.572,0.168,1.472,1.23,1.472c1.47,0,1.47-2.94,1.955-2.94   c0.902,0,1.395,3.02,3.105,3.02c1.303,0,2.366-1.798,3.184-1.798c0.571,0-0.977,1.875-0.977,2.777c0,0.895,8.08,0.571,11.18,6.04   c0.895,1.551,0.895,3.424,1.225,4.162c0.483,0.816,2.283,0.657,2.283,1.223c0,0.245-1.305,0.57-1.8,0.895   c-0.973,0.571-0.647,3.512-1.135,3.512c-0.736,0-1.471-2.04-2.207-1.144c-1.305,1.632-6.691,4.735-9.137,5.633   c-0.902,0.326,0.653,3.018,0.247,3.266c-0.408,0.245-1.473-1.635-3.027-1.308c-1.223,0.245-0.648,2.449-1.301,2.449   c-0.329,0-1.557-3.103-2.452-2.858c-0.98,0.245-2.37,0.49-2.37,0.49v8.246V150.548z M379.12,97.503   c-0.014-1.674-1.277-1.553-1.277-1.553c-1.305,0-2.122,2.608-2.445,2.525c-0.413-0.081,0.081-2.2-0.413-2.525   c-0.403-0.409-9.059,3.589-9.708,4.239c-0.573,0.573,0.245,1.387,0,1.962c-0.166,0.486-1.477,0.327-1.875,0.567   c-0.335,0.33,0.398,1.798-0.081,2.128c-0.416,0.239-1.306-1.475-1.88-0.653c-0.252,0.323-0.325,0.892-0.325,1.63   c0,4.978,5.302,7.016,8.898,8.244c1.462,0.487,0.97-1.39,1.462-1.473c0.573-0.163,0.652,0.901,1.307,0.901   c0.495,0,2.37-0.901,2.775-0.573c0.329,0.243-0.977,1.47-0.573,1.959c0.495,0.409,4.121,1.404,4.15,0.331L379.12,97.503"/>
	<path id="path64" fill="#030503" d="M104.484,85.274h4.829v28.119h-4.829V85.274z"/>
	<path id="path66" fill="#030503" d="M114.004,85.274v28.119h4.479l5.88-16.084h0.079v16.084h4.361V85.274h-4.206l-6.155,17.566   h-0.075V85.274"/>
	<path id="path68" fill="#030503" d="M135.706,109.187h-4.673v4.206h14.177v-4.206h-4.674V85.274h-4.829"/>
	<path id="path70" fill="#030503" d="M147.436,85.274v28.119h12.931v-4.206h-8.1v-7.245h6.23v-4.206h-6.23V89.48h8.644v-4.205"/>
	<path id="path72" fill="#030503" d="M168.607,85.274h-4.827v28.119h6.775c5.411,0,8.182-2.298,8.182-8.296   c0-4.517-1.754-6.347-3.389-7.087l4.085-12.735h-4.905L171.1,96.918c-0.622-0.08-1.635-0.116-2.493-0.116V85.274z M168.607,100.774   h1.714c2.609,0,3.584,0.978,3.584,4.323c0,3.354-0.975,4.327-3.584,4.327h-1.714V100.774"/>
	<path id="path74" fill="#030503" d="M182.477,85.274v28.119h4.48l5.88-16.084h0.078v16.084h4.364V85.274h-4.208l-6.153,17.566   h-0.076V85.274"/>
	<path id="path76" fill="#030503" d="M204.691,85.274h-4.675l5.183,28.119h5.998l5.181-28.119h-4.671l-0.861,6.23h-5.295   L204.691,85.274L204.691,85.274z M206.25,95.713h3.896l-1.909,12.075h-0.076L206.25,95.713"/>
	<path id="path78" fill="#030503" d="M220.283,109.187h-4.673v4.206h14.176v-4.206h-4.671V85.274h-4.832"/>
	<path id="path80" fill="#030503" d="M231.984,85.274h4.83v28.119h-4.83V85.274z"/>
	<path id="path82" fill="#030503" d="M241.056,106.578c0,3.974,2.332,7.209,7.395,7.209c5.064,0,7.401-3.234,7.401-7.209V92.094   c0-3.978-2.336-7.213-7.401-7.213c-5.062,0-7.395,3.234-7.395,7.213V106.578z M245.884,92.206c0-2.102,0.622-3.114,2.568-3.114   c1.949,0,2.576,1.012,2.576,3.114v14.255c0,2.105-0.627,3.117-2.576,3.117c-1.946,0-2.568-1.011-2.568-3.117V92.206"/>
	<path id="path84" fill="#030503" d="M260.093,85.274v28.119h4.481l5.878-16.084h0.077v16.084h4.364V85.274h-4.208l-6.149,17.566   h-0.076V85.274"/>
	<path id="path86" fill="#030503" d="M282.355,85.274h-4.671l5.179,28.119h5.998l5.18-28.119h-4.675l-0.855,6.23h-5.296   L282.355,85.274L282.355,85.274z M283.917,95.713h3.895l-1.909,12.075h-0.08L283.917,95.713"/>
	<path id="path88" fill="#030503" d="M296.837,85.274v28.119h4.825V89.48h7.595v-4.205"/>
	<path id="path90" fill="#030503" d="M111.226,125.671h-7.767l8.608,46.722h9.966l8.608-46.722h-7.768l-1.424,10.357h-8.8   L111.226,125.671L111.226,125.671z M113.814,143.014h6.471l-3.17,20.064h-0.129L113.814,143.014"/>
	<path id="path92" fill="#030503" d="M167.2,172.393v-46.722h-6.991v36.5h-0.125l-7.25-36.5h-3.886l-7.246,36.501h-0.129v-36.5   h-6.989v46.721h10.549l5.693-27.307h0.13l5.695,27.307"/>
	<path id="path94" fill="#030503" d="M174.561,125.671v46.722h7.444l9.771-26.726h0.131v26.726h7.246v-46.722h-6.988l-10.225,29.188   h-0.131v-29.188"/>
	<path id="path96" fill="#030503" d="M206.515,125.671v46.722h21.49v-6.986h-13.463V153.37h10.351v-6.991h-10.351v-13.718h14.366   v-6.991"/>
	<path id="path98" fill="#030503" d="M247.924,160.878c-0.323,4.009-2.46,5.177-4.27,5.177c-2.59,0-4.012-1.685-4.012-4.596   c0-7.962,16.308-11.779,16.308-24.464c0-7.698-5.179-11.974-12.682-11.974c-7.446,0-11.717,5.955-12.04,12.946l7.634,1.1   c0.325-4.725,2.204-7.054,4.793-7.054c2.781,0,4.659,1.485,4.659,4.27c0,9.256-16.308,11.712-16.308,25.11   c0,7.445,4.528,11.648,12.425,11.648c6.535,0,10.419-4.722,11.132-11.324"/>
	<path id="path100" fill="#030503" d="M265.15,165.406h-7.767v6.986h23.559v-6.986h-7.766v-39.736h-8.026"/>
	<path id="path102" fill="#030503" d="M300.193,125.671h-8.03v19.416l-9.706,27.307h8.156l5.63-17.792h0.128l5.372,17.792h8.155   l-9.705-27.307"/>
</g>
</svg>
