<svg width="66" height="98" viewBox="0 0 66 98" fill="none" xmlns="http://www.w3.org/2000/svg">
<path d="M30.0872 0.644381C28.6932 0.676587 27.2245 1.13786 26.1665 2.0499C24.2857 3.67129 22.4076 5.3559 22.4724 7.561C22.5373 9.7661 23.767 11.0008 23.767 11.0008C23.767 11.0008 24.6101 11.6468 23.767 12.2954C22.9239 12.9439 12.938 19.3017 13.4568 32.4026C13.4568 32.4026 13.7165 35.8121 13.3273 39.444C13.0478 42.0531 13.965 45.2168 14.5063 46.7999C14.5199 46.8148 14.772 47.466 14.2012 47.0865C11.4943 45.3948 9.28384 42.852 7.4325 39.6937C5.73369 36.6082 4.76479 33.0429 4.76479 29.2494C4.76479 21.1922 9.1394 14.1742 15.5836 10.5616C6.74224 12.9997 0.22461 21.2798 0.224609 31.1126C0.224609 31.8643 0.261297 32.6095 0.335573 33.3411C0.407433 35.0365 0.594474 37.7422 1.07069 38.8245C1.78411 40.4459 1.71797 43.9461 1.71797 44.5298C1.71797 45.1135 1.91286 64.3088 13.2626 64.244C13.2626 64.244 18.6722 64.3785 18.709 62.1727C18.7414 60.227 18.1861 60.0227 17.6733 58.8947C17.1869 57.8246 16.8314 57.7595 17.0908 54.3222C17.0908 54.3222 17.1042 53.6264 17.3636 53.6102C17.623 53.5939 20.7861 63.0137 24.872 67.9427C28.9579 72.8718 33.0446 73.3891 36.1577 73.3891C36.1577 73.3891 41.9925 73.3902 41.9925 70.4717C41.9925 67.5532 39.334 68.7193 39.334 59.4449C39.334 50.1705 43.8084 50.6282 44.3273 52.8981C44.8461 55.1681 45.3 56.9825 44.392 63.0789C43.484 69.1753 45.9502 69.8892 48.2202 69.8892C50.4901 69.8892 62.4238 70.2756 64.4992 36.1614C64.4992 36.1614 64.7571 30.6504 62.9411 25.9159C62.9411 25.9159 63.7197 34.996 58.0773 39.8601C52.4348 44.7243 49.1911 44.012 49.1911 44.012C49.1911 44.012 46.4701 43.8151 45.3675 45.1771C44.265 46.539 44.4567 47.5133 42.1219 46.7999C39.7871 46.0865 39.7775 45.5048 37.6372 45.7642C35.497 46.0237 34.2083 46.2809 33.3652 44.5298C32.5221 42.7787 31.5794 41.65 29.8283 41.3258C28.0772 41.0015 20.3829 37.3409 20.5907 27.0209C20.7853 17.4223 25.1309 14.1124 25.1309 14.1124C25.1309 14.1124 25.8461 13.335 26.5595 13.6593C27.2729 13.9836 28.4386 14.0501 29.8005 12.8178C31.1625 11.5856 32.0704 10.6095 34.5349 9.76637C34.5349 9.76637 36.2226 9.50616 36.1577 7.81991C36.0929 6.13366 34.7279 2.44044 32.9768 1.33789C32.2107 0.855529 31.1714 0.619332 30.0872 0.644381ZM35.9728 47.0634C36.3646 47.049 36.9295 47.3082 37.5263 47.535C38.3943 47.8648 40.3792 47.7091 41.1556 47.6552C41.932 47.6013 42.4523 47.9308 41.8306 48.6677C40.9736 49.6837 39.9484 49.646 38.6544 49.7357C37.3604 49.8255 35.9728 48.5568 35.9728 48.5568C35.8991 48.4319 35.2692 47.7607 35.5613 47.2853C35.6526 47.1368 35.7947 47.07 35.9728 47.0634Z" fill="black" stroke="black" stroke-width="0.149811" stroke-linecap="round" stroke-linejoin="round"/>
<path d="M15.5322 68.916C15.5322 69.5525 15.2794 70.1628 14.8294 70.6128C14.3794 71.0629 13.769 71.3157 13.1326 71.3157C12.4961 71.3157 11.8858 71.0629 11.4358 70.6128C10.9857 70.1628 10.7329 69.5525 10.7329 68.916C10.7329 68.2796 10.9857 67.6692 11.4358 67.2192C11.8858 66.7692 12.4961 66.5164 13.1326 66.5164C13.769 66.5164 14.3794 66.7692 14.8294 67.2192C15.2794 67.6692 15.5322 68.2796 15.5322 68.916Z" stroke="#6D6D6D" stroke-width="0.591797" stroke-linecap="round" stroke-linejoin="round"/>
<path d="M29.3466 26.3706C30.8456 24.5316 31.6814 24.2952 32.9785 24.2952C34.2756 24.2952 36.0752 25.1269 36.6104 27.1488C37.1941 29.3539 37.4903 29.6917 35.3883 32.1529C33.8802 33.9186 31.1625 37.7852 28.4386 35.3207C25.7146 32.8561 26.7259 29.5855 29.3466 26.3706Z" fill="black" stroke="black" stroke-width="0.147949"/>
<path d="M53.7069 29.8044C52.8286 27.6004 52.1022 27.1241 50.8648 26.735C49.6275 26.3459 47.6612 26.5995 46.5441 28.3677C45.3258 30.2961 44.9043 30.4783 46.1712 33.4567C47.0801 35.5936 48.5503 40.1485 51.8881 38.6146C55.2259 37.0808 55.2424 33.6574 53.7069 29.8044Z" fill="black" stroke="black" stroke-width="0.147949"/>
<path d="M39.3388 44.2781C40.0327 43.1916 41.6502 42.8227 42.588 42.7937C43.815 42.7559 43.7976 41.6975 43.7976 41.6975C43.7976 41.6975 43.8841 40.6171 39.453 40.1863C35.0268 39.7559 34.9055 40.898 34.9055 40.898C34.9055 40.898 34.6968 41.9357 35.8966 42.1952C36.8105 42.3928 38.3249 43.0608 38.8169 44.246C38.914 44.5334 39.1882 44.539 39.3388 44.2781Z" fill="black" stroke="black" stroke-width="0.147949" stroke-linejoin="round"/>
<path d="M60.2409 17.6751C59.4959 17.9184 58.3285 17.8535 57.1114 16.478C55.8943 15.1024 55.0997 14.035 52.7437 12.9241C52.7437 12.9241 51.0966 12.4795 51.3479 10.8108C51.5991 9.14208 53.3622 5.61891 55.2246 4.71712C57.0871 3.81533 60.2239 4.36071 61.9136 6.18047C63.6032 8.00022 65.2857 9.88443 64.9769 12.0688C64.6682 14.2531 63.3071 15.3413 63.3071 15.3413L63.3308 15.345C62.6822 16.1881 60.2409 17.6751 60.2409 17.6751Z" fill="black" stroke="black" stroke-width="0.147949"/>
<path d="M13.7716 69.2033L14.2692 69.3611C14.1929 69.6385 14.0661 69.8445 13.8886 69.9792C13.7112 70.1138 13.4861 70.1811 13.2133 70.1811C12.8758 70.1811 12.5984 70.0658 12.3811 69.8353C12.1638 69.6047 12.0552 69.2894 12.0552 68.8895C12.0552 68.4664 12.1644 68.1379 12.3829 67.9038C12.6013 67.6698 12.8885 67.5527 13.2445 67.5527C13.5555 67.5527 13.808 67.6446 14.0022 67.8284C14.1178 67.9371 14.2045 68.0931 14.2623 68.2965L13.7543 68.4179C13.7242 68.2861 13.6615 68.1821 13.5662 68.1058C13.4708 68.0295 13.3549 67.9914 13.2185 67.9914C13.0301 67.9914 12.8773 68.059 12.76 68.1942C12.6426 68.3295 12.584 68.5485 12.584 68.8513C12.584 69.1727 12.6418 69.4015 12.7574 69.5379C12.8729 69.6743 13.0232 69.7425 13.2081 69.7425C13.3445 69.7425 13.4618 69.6992 13.5601 69.6125C13.6583 69.5258 13.7288 69.3894 13.7716 69.2033Z" fill="#6D6D6D" stroke="#6D6D6D" stroke-width="0.147949"/>
<path d="M63.3189 75.1853C63.3189 75.8217 63.066 76.4321 62.616 76.8821C62.166 77.3322 61.5556 77.585 60.9192 77.585C60.2828 77.585 59.6724 77.3322 59.2224 76.8821C58.7724 76.4321 58.5195 75.8217 58.5195 75.1853C58.5195 74.5489 58.7724 73.9385 59.2224 73.4885C59.6724 73.0385 60.2828 72.7856 60.9192 72.7856C61.5556 72.7856 62.166 73.0385 62.616 73.4885C63.066 73.9385 63.3189 74.5489 63.3189 75.1853Z" stroke="#6D6D6D" stroke-width="0.591797" stroke-linecap="round" stroke-linejoin="round"/>
<path d="M59.9248 76.4563V73.9146H61.005C61.2766 73.9146 61.4739 73.9374 61.597 73.983C61.7201 74.0287 61.8187 74.1099 61.8926 74.2266C61.9666 74.3434 62.0036 74.4769 62.0036 74.6271C62.0036 74.8179 61.9475 74.9753 61.8354 75.0996C61.7233 75.2238 61.5557 75.3022 61.3326 75.3345C61.4436 75.3992 61.5352 75.4703 61.6074 75.5478C61.6797 75.6252 61.7771 75.7628 61.8996 75.9604L62.2099 76.4563H61.5962L61.2251 75.9032C61.0934 75.7056 61.0032 75.581 60.9547 75.5296C60.9061 75.4781 60.8547 75.4429 60.8004 75.4238C60.746 75.4047 60.6599 75.3952 60.542 75.3952H60.438V76.4563H59.9248ZM60.438 74.9895H60.8177C61.0639 74.9895 61.2176 74.9791 61.2789 74.9583C61.3401 74.9375 61.3881 74.9017 61.4228 74.8508C61.4575 74.7999 61.4748 74.7364 61.4748 74.6601C61.4748 74.5745 61.452 74.5055 61.4063 74.4529C61.3607 74.4003 61.2962 74.3671 61.213 74.3532C61.1714 74.3474 61.0466 74.3445 60.8385 74.3445H60.438V74.9895Z" fill="#6D6D6D" stroke="#6D6D6D" stroke-width="0.147949"/>
<path d="M2.31555 79.8586H5.61746C5.61746 79.8586 6.47305 79.7036 6.80982 80.5717C7.20658 81.5942 8.84061 88.1507 8.84061 88.1507L11.1812 84.6867C11.1812 84.6867 10.2264 79.8357 11.9003 79.8586C13.9179 79.8855 15.0417 79.8586 15.0417 79.8586C15.0417 79.8586 15.8459 79.7819 16.3487 81.122C16.9411 82.7007 18.3826 88.2571 18.3826 88.2571L21.7143 80.6634C21.7143 80.6634 22.1729 79.8586 22.9067 79.8586C23.6863 79.8586 24.1796 80.4049 24.0073 81.0303C23.7449 81.9826 18.2289 96.4851 18.2289 96.4851C18.2289 96.4851 17.8621 97.3564 17.0825 97.3564C16.3028 97.3564 15.9818 96.8978 15.5691 95.843C15.1563 94.7882 12.5423 87.7258 12.5423 87.7258L8.59837 96.6685C8.59837 96.6685 8.30027 97.3564 7.68116 97.3564C6.9474 97.3564 6.67224 97.0354 6.30537 96.3475C5.93848 95.6596 1.30663 82.406 1.30663 82.406C1.30663 82.406 0.389431 79.8586 2.31555 79.8586Z" fill="black" stroke="black" stroke-width="0.147949"/>
<path d="M26.7013 79.8586H30.0032C30.0032 79.8586 30.8588 79.7036 31.1956 80.5717C31.5923 81.5942 33.2264 88.1507 33.2264 88.1507L35.567 84.6867C35.567 84.6867 34.6121 79.8357 36.286 79.8586C38.3037 79.8855 39.4274 79.8586 39.4274 79.8586C39.4274 79.8586 40.2316 79.7819 40.7344 81.122C41.3268 82.7007 42.7683 88.2571 42.7683 88.2571L46.1 80.6634C46.1 80.6634 46.5586 79.8586 47.2924 79.8586C48.072 79.8586 48.5654 80.4049 48.3931 81.0303C48.1306 81.9826 42.6147 96.4851 42.6147 96.4851C42.6147 96.4851 42.2478 97.3564 41.4682 97.3564C40.6886 97.3564 40.3676 96.8978 39.9548 95.843C39.5421 94.7882 36.9281 87.7258 36.9281 87.7258L32.9841 96.6685C32.9841 96.6685 32.686 97.3564 32.0669 97.3564C31.3331 97.3564 31.058 97.0354 30.6911 96.3475C30.3242 95.6596 25.6924 82.406 25.6924 82.406C25.6924 82.406 24.7752 79.8586 26.7013 79.8586Z" fill="black" stroke="black" stroke-width="0.147949"/>
<path d="M51.1057 97.3565C51.1057 97.3565 49.9707 97.4524 49.9707 95.6689C49.9707 93.8853 49.9707 80.9466 49.9707 80.9466C49.9707 80.9466 49.9707 79.844 51.5921 79.844C53.2135 79.844 62.6824 79.844 62.6824 79.844C62.6824 79.844 64.0262 79.7792 64.0262 81.0763C64.0262 82.3734 62.7797 82.2437 62.7797 82.2437H56.1644C56.1644 82.2437 55.3862 82.2437 55.3862 82.9895C55.3862 83.7354 55.3862 86.6215 55.3862 86.6215H60.4773C60.4773 86.6215 61.8535 86.6215 61.8535 87.6916C61.8535 88.7617 60.7043 88.8266 60.7043 88.8266H55.3537V95.906C55.3537 95.906 55.4328 97.3565 54.4924 97.3565C53.8438 97.3565 51.1057 97.3227 51.1057 97.3565Z" fill="black" stroke="black" stroke-width="0.147949"/>
</svg>
