<svg width="82" height="52" viewBox="0 0 82 52" fill="none" xmlns="http://www.w3.org/2000/svg">
<g clip-path="url(#clip0_826_3588)">
<path d="M13.5556 46.9921H13.5536H13.5516C10.179 46.9901 7.27431 44.2401 7.44497 40.7154C7.67164 36.0288 11.8183 35.3561 13.2416 33.2608C13.307 33.1574 13.4216 33.0881 13.553 33.0881C13.6836 33.0881 13.7983 33.1574 13.8636 33.2601H13.865C15.2883 35.3561 19.4356 36.0281 19.6623 40.7154C19.833 44.2401 16.929 46.9901 13.5556 46.9921ZM24.995 40.5401C24.995 34.2214 19.8723 29.0988 13.5536 29.0988C7.23497 29.0988 2.1123 34.2214 2.1123 40.5401C2.1123 46.8588 7.23497 51.9814 13.5536 51.9814C19.8723 51.9814 24.995 46.8588 24.995 40.5401Z" fill="#326DBF"/>
<path d="M13.5509 26.1299C13.7476 26.1299 13.9256 26.0205 14.0162 25.8445C14.6769 24.6745 16.3149 23.6152 18.0489 22.4932C18.9529 21.9079 19.8629 21.2705 20.7182 20.6579C24.3762 18.0379 26.7229 13.9379 26.7229 9.31122C26.7229 9.16455 26.7202 9.01788 26.7156 8.87188L26.7102 8.70655L26.5462 8.72522C23.6902 9.04455 21.0289 10.2239 18.8262 12.1406C18.8369 11.9146 18.8422 11.6912 18.8422 11.4739C18.8422 7.17522 16.9522 3.21322 13.6576 0.604552L13.5509 0.519217L13.4449 0.604552C10.1496 3.21322 8.25957 7.17522 8.25957 11.4739C8.25957 11.6912 8.26491 11.9146 8.27557 12.1406C6.07291 10.2239 3.41157 9.04455 0.554906 8.72522L0.390906 8.70655L0.386239 8.87188C0.381573 9.01788 0.378906 9.16455 0.378906 9.31122C0.378906 13.9379 2.72624 18.0379 6.38357 20.6579C7.23957 21.2705 8.14891 21.9079 9.05291 22.4932C10.7869 23.6152 12.4249 24.6745 13.0856 25.8445C13.1762 26.0205 13.3542 26.1299 13.5509 26.1299Z" fill="#4DBC38"/>
<path d="M33.7343 20.4026H37.3209L37.9716 22.1426H40.7483L36.9756 12.1266H34.1329L30.2803 22.1426H33.0436L33.7343 20.4026ZM35.5276 15.2219H35.5543L36.6169 18.4099H34.4516L35.5276 15.2219ZM40.7736 19.7646C40.3483 19.0213 40.1223 18.1439 40.1223 17.1479C40.1223 14.0259 42.6996 11.8606 45.4096 11.8606C46.2463 11.8606 47.0036 12.0466 47.7876 12.3653V15.4873C47.2696 14.7833 46.4063 14.3846 45.5029 14.3846C43.9616 14.3846 42.8323 15.5539 42.8323 17.1613C42.8323 18.7953 43.9749 19.8846 45.5423 19.8846C46.3796 19.8846 47.2163 19.4993 47.7876 18.8219V21.9433C46.4456 22.3553 46.1009 22.4086 45.4896 22.4086C43.5896 22.4086 41.7029 21.3593 40.7736 19.7646ZM50.7349 14.3319H48.5829V12.1266H55.4909V14.3319H53.3389V22.1426H50.7349V14.3319ZM58.8776 22.1426H56.2736V12.1266H58.8776V22.1426ZM65.2929 22.4746C68.1089 22.4746 70.7523 20.4559 70.7523 16.9486C70.7523 13.8799 68.0556 11.7946 65.2136 11.7946C64.3363 11.7946 63.1009 11.9806 61.8789 12.8306C61.3476 13.2026 59.6736 14.4379 59.6736 17.0686C59.6736 19.8046 61.6663 22.4746 65.2929 22.4746ZM65.1996 14.3186C66.7276 14.3186 68.0429 15.5539 68.0429 16.9619C68.0429 18.6359 66.8069 19.9513 65.2136 19.9513C63.6456 19.9513 62.3836 18.6759 62.3836 16.9619C62.3836 15.5273 63.7383 14.3186 65.1996 14.3186ZM74.1649 22.1426H71.5609V12.1266H74.1649L78.9336 18.2506H78.9603V12.1266H81.5643V22.1426H78.9603L74.1916 16.0053H74.1649V22.1426ZM30.9183 31.9426C30.5063 31.2226 30.2876 30.3739 30.2876 29.4093C30.2876 26.3866 32.7836 24.2906 35.4083 24.2906C36.2189 24.2906 36.9523 24.4706 37.7116 24.7792V27.8013C37.2096 27.1199 36.3736 26.7339 35.4983 26.7339C34.0063 26.7339 32.9123 27.8659 32.9123 29.4219C32.9123 31.0039 34.0189 32.0586 35.5369 32.0586C36.3476 32.0586 37.1583 31.6853 37.7116 31.0299V34.0519C36.4123 34.4506 36.0776 34.5019 35.4856 34.5019C33.6456 34.5019 31.8189 33.4859 30.9183 31.9426ZM43.6176 24.2259C42.7689 24.2259 41.5723 24.4059 40.3883 25.2292C39.8736 25.5892 38.2529 26.7853 38.2529 29.3319C38.2529 31.9813 40.1823 34.5666 43.6949 34.5666C46.4229 34.5666 48.9836 32.6119 48.9836 29.2159C48.9836 26.2453 46.3716 24.2259 43.6176 24.2259ZM43.6176 32.1226C42.0996 32.1226 40.8776 30.8879 40.8776 29.2293C40.8776 27.8399 42.1896 26.6699 43.6049 26.6699C45.0843 26.6699 46.3583 27.8659 46.3583 29.2293C46.3583 30.8499 45.1616 32.1226 43.6176 32.1226ZM56.8069 24.5473H59.3289V34.2446H56.8069L52.1876 28.3033H52.1623V34.2446H49.6403V24.5473H52.1623L56.7816 30.4766H56.8069V24.5473ZM62.1563 34.2446V26.6826H60.0716V24.5473H66.7623V26.6826H64.6783V34.2446H62.1563ZM67.5396 34.2446H70.0616V30.5152H70.0869L72.4676 34.2446H75.6069L72.5576 30.2706C73.8703 30.0393 74.6803 28.9333 74.6803 27.5313C74.6803 25.5253 73.2909 24.5473 71.3476 24.5473H67.5396V34.2446ZM70.0616 26.4766H70.2803C71.5283 26.4766 72.0556 26.8626 72.0556 27.6859C72.0556 28.5086 71.5156 28.8946 70.2803 28.8946H70.0616V26.4766ZM78.5663 26.6826V28.3033H81.4096V30.4379H78.5663V32.1099H81.5643V34.2446H76.0443V24.5473H81.5643V26.6826H78.5663ZM39.8203 36.6566L36.7189 44.7206H33.5209V36.6566H30.8329V46.9966H35.8436H36.7436H38.6963L39.4089 45.1999H43.1116L43.7836 46.9966H46.6503L42.7549 36.6566H39.8203ZM40.1496 43.1432L41.2603 39.8519H41.2876L42.3849 43.1432H40.1496ZM55.1169 42.9372H52.1689V46.9966H49.4809V36.6566H55.4189V38.9332H52.1689V40.6613H55.1169V42.9372ZM58.4483 36.6566L54.4716 46.9966H57.3243L58.0369 45.1999H61.7396L62.4123 46.9966H65.2776L61.3829 36.6566H58.4483ZM58.7776 43.1432L59.8883 39.8519H59.9163L61.0129 43.1432H58.7776ZM65.7976 36.6566H68.4856V46.9966H65.7976V36.6566ZM81.9656 46.9966H79.2776L78.5236 41.0453H78.4963L76.0136 46.9966H74.9443L72.5716 41.0453H72.5443L71.6803 46.9966H69.0063L70.7616 36.6566H73.4083L75.5063 42.1833L77.7283 36.6566H80.4023L81.9656 46.9966Z" fill="#707070"/>
</g>
<defs>
<clipPath id="clip0_826_3588">
<rect width="81.5864" height="51.4623" fill="white" transform="translate(0.379883 0.519043)"/>
</clipPath>
</defs>
</svg>
