<?xml version="1.0" encoding="utf-8"?>
<svg version="1.1" xmlns="http://www.w3.org/2000/svg" xmlns:xlink="http://www.w3.org/1999/xlink" x="0px" y="0px" width="178" height="72" viewBox="0 0 178 72" style="enable-background:new 0 0 178 72;" xml:space="preserve">
<style type="text/css">
	.st0{fill-rule:evenodd;clip-rule:evenodd;fill:#009FE3;}
	.st1{fill:#FFFFFF;}
	.st2{fill-rule:evenodd;clip-rule:evenodd;fill:#E83186;}
	.st3{fill:#FFED00;}
	.st4{fill-rule:evenodd;clip-rule:evenodd;fill:#FFED00;}
	.st5{fill:#E83186;}
	.st6{fill:#14387F;}
	.st7{fill:#009FE3;}
	.st8{fill:none;stroke:#FFFFFF;stroke-width:0.33;}
</style>
<path class="st0" d="M44.8,35.5c0-0.1-0.1-0.2-0.1-0.2c0-0.1,0-0.1,0-0.2c0-0.1,0-0.3-0.1-0.3s0-0.2,0-0.2c0-0.1,0-0.2,0-0.2
	c0-0.1-0.1-0.1-0.1-0.2c0-0.1,0-0.2-0.1-0.3c0-0.1,0.1-0.3,0-0.4c-0.1-0.1,0.1-0.2,0.1-0.3c0-0.1,0.1-0.1,0.1-0.2
	c0-0.1,0-0.1,0.1-0.2l0.1-0.2c0,0,0.1-0.1,0.1-0.1c0-0.1,0-0.1,0-0.2v-0.1c0-0.1,0-0.2,0-0.3c0-0.1,0.1-0.3,0.2-0.4
	c0-0.1,0-0.1,0-0.2c0,0,0-0.1,0-0.2c0-0.1,0.1-0.2,0.2-0.3c0-0.1,0-0.1,0-0.2c0,0,0.1-0.1,0.1-0.2s0,0,0-0.1c0-0.1,0-0.2,0-0.3
	c0-0.1,0-0.1,0-0.2c0-0.1,0-0.1,0.1-0.1c0-0.1,0-0.1,0-0.2c0,0,0-0.1,0-0.2c0-0.1,0-0.2,0-0.3l0,0l0,0c0-0.1,0-0.2,0-0.3
	c0-0.1,0-0.2,0-0.3c0-0.1,0-0.1,0-0.2c0-0.1,0-0.2,0.1-0.3c0.1-0.1,0-0.2-0.1-0.3c-0.1-0.1,0-0.1,0-0.1s0.1,0,0.1-0.2
	c0-0.2-0.1,0-0.1,0s0,0,0-0.1s0-0.1,0-0.1s0-0.2,0-0.2c0-0.1,0,0.1,0.1,0c0,0,0-0.1,0-0.1l0,0c0,0,0-0.1,0-0.1
	c0-0.1-0.1-0.1-0.1-0.2c0-0.1,0-0.2,0-0.3c0,0,0-0.1,0-0.1s0,0,0-0.1c0-0.1,0,0,0-0.1c0-0.1,0,0,0-0.1c0-0.1,0-0.2,0-0.2
	c-0.1-0.2-0.1-0.3,0-0.5c0-0.1,0-0.1,0-0.1c0-0.1,0-0.1,0-0.2c0,0,0-0.1,0-0.1c0-0.1,0-0.2,0-0.4c0-0.1,0-0.1,0-0.2
	c0-0.1,0-0.2,0-0.3c0-0.1,0-0.2,0-0.2s-0.1-0.3,0-0.4s0.1,0,0.1,0c0.2,0,0.5,0,0.7,0h0.2c0.1,0,0.1,0,0.2,0h0.5c0.1,0,0.1,0,0.2,0
	l0.1-0.1h0.1c0.3,0,0.7,0,1-0.1h0.1H49c0,0,0.1,0,0.2,0h0.1c0.1,0,0.2,0,0.3,0h0.1h0.4c0.3,0,0.6-0.1,0.9-0.1c0.5,0,1,0,1.5-0.1
	c0,0,0.1,0,0.1,0c0.1,0,0.1,0,0.2,0h0.3c0.1,0,0.1,0,0.2,0h0.1c0.4-0.1,0.8,0,1.2-0.1c0.1,0,0.3,0,0.4,0h0.3h0.2h0.2
	c0,0,0.1,0,0.1,0h0.3h0.4c0.5,0,1,0,1.5-0.1h0.4h0.4c0.3,0,0.5,0,0.8,0h0.8l1.6-0.5h0.8l1.5-0.1l1.6-0.1h0.7c0.3,0,0.5-0.1,0.8-0.1
	c0.1,0,0.1,0,0.2,0h0.1c0.1,0,0.2,0,0.3,0L69,22c0.1,0,0.2,0,0.3,0h0.1h0.1h0.2c0.1,0,0.3,0,0.4,0h0.2c0.1,0,0.2,0,0.3,0
	c0.2,0,0.5-0.1,0.7-0.1c0.1,0,0.3,0,0.4,0l0,0l26.5-1.3h0.2c0.2,0,0.4,0,0.6,0H99h0.4c0.5,0,1.1-0.1,1.6-0.1c0.2,0,0.3,0,0.5,0
	c0.3,0,0.5-0.1,0.8-0.1c0.1,0,0.2,0,0.3,0c0,0,0.1,0,0.1,0h0.9h0.5h0.4c0.1,0,0.2,0,0.3,0h0.1l0,0l1.5-0.1c0.2,0,0.4,0,0.6,0
	c0.1,0,0.2,0,0.2,0l0.2-0.1c0.1,0,0.2,0,0.4,0h0.3h0.4l0,0l0,0c0.1,0,0.2,0,0.3,0c0,0,0.1,0,0.2,0h0.2h0.4h0.4c0.5,0,1.1,0,1.6-0.1
	h0.2h0.2h0.1l0,0l0,0h0.2c0.1,0,0.3,0,0.5,0c0.1,0,0.2,0,0.3,0c0.1,0,0.1,0,0.2,0l0,0l0,0h0.1c0,0,0,0,0.1,0h0.2h0.2h0.2
	c0.1,0,0.2,0,0.4,0h0.8h0.1c0,0,0,0,0.1,0c0.3,0,0.7,0,1,0c0.1,0,0.2,0,0.3-0.1c0,0,0,0,0.1,0h0.4h0.1h0.2h0.1l0,0
	c0.6,0,1.2,0,1.7-0.1s0.9,0,1.4-0.1s0.9,0,1.4-0.1c0,0,0,0,0,0.1c0,0.1,0,0,0,0.1s0,0,0,0.1s0,0,0,0.1c0,0.1,0.1,0.2,0.1,0.2
	c0,0.1,0,0.2,0,0.2c0,0.1,0,0.1,0,0.2l0,0c0,0.1,0,0.2,0,0.3c0,0,0,0.1,0,0.1c0,0.1,0.1,0.1,0.1,0.2c0,0.1,0,0.2,0,0.2
	c0,0,0,0.1,0,0.2s0,0,0,0.1c0,0.1,0,0.1,0,0.1c0,0,0,0,0,0.1s0,0.1,0,0.1c0,0,0,0.1,0,0.1s0,0.3,0,0.4s0,0.1,0.1,0.2
	c0.1,0.1,0,0.2,0,0.2c0,0.1,0,0.2,0,0.2c0,0.1,0,0.2,0,0.3c0,0.1,0,0.2,0.1,0.3c0.1,0.1,0.1,0.3,0.1,0.4c0,0.1,0,0.1,0.1,0.2
	c0,0,0,0.1,0,0.1c0,0.2-0.1,0.3,0,0.6c-0.1,0.1-0.1,0.1-0.1,0.2c0,0.1,0,0.2-0.1,0.3c0,0.1,0,0.2,0,0.3c0,0,0,0.1,0,0.1
	c0,0.1-0.1,0.1-0.1,0.2s0,0.4,0,0.6c0,0.1,0,0.1,0,0.2c0,0.1,0,0.2,0,0.3c0,0.1,0,0.2-0.1,0.4c-0.1,0.1-0.2,0.2-0.2,0.3
	c0,0.1-0.1,0.1-0.1,0.2c-0.1,0.2-0.1,0.3-0.1,0.5c0,0.1-0.1,0.1-0.1,0.2c0,0.2-0.1,0.3-0.2,0.5c0,0.1,0,0.1,0,0.3c0,0.1,0,0.2,0,0.3
	s0,0.1,0,0.2c0,0.1,0.1,0,0.1,0.2c0,0,0,0.1,0,0.1c0,0,0,0,0,0.1s-0.1,0-0.1,0c0.3-0.1,0.6-0.3,0.8-0.6c0,0.1,0,0.2,0,0.2
	c0,0.1,0,0.2,0,0.3c0,0.1,0,0.2,0,0.3c0.1,0.1,0.1,0.1,0.1,0.2c0.1,0.1,0.2,0,0.3,0.1s0,0.1,0,0.2s0,0.1-0.1,0.2
	c-0.1,0.1-0.2,0.1-0.3,0.1l-0.3,0.1c-0.2,0-0.4,0-0.5,0h-0.2c-0.1,0-0.2,0-0.3,0c0,0-0.1,0-0.1,0c-0.1,0-0.1,0-0.2,0l0,0
	c-0.2,0-0.3,0-0.5,0.1c-0.2,0.1-0.4,0.1-0.6,0.1c-0.1,0-0.1,0-0.2,0c-0.1,0-0.2,0-0.2,0c-0.2,0-0.3,0-0.5,0h-0.3l-0.6,0.1
	c-0.1,0-0.2,0-0.3,0c-0.3,0-0.6,0.1-1,0.1l-1.3,0.1h-0.6h-0.6h-0.6c-0.2,0-0.4,0-0.5,0c-0.4,0-0.8,0-1.3,0.1
	c-0.8,0.1-1.7,0.1-2.4,0.2l-1.2,0.1c-0.7,0.1-1.4,0.1-2.1,0.1c-0.1,0-0.2,0-0.3,0c-0.2,0-0.4,0-0.6,0h-0.6H104c-0.4,0-0.8,0-1.2,0
	s-0.8,0-1.2,0H101l-0.6,0.1H100c0,0-0.1,0-0.1,0l0,0c-0.3,0-0.6,0-0.9,0s-26.3,1.2-26.4,1.2c-0.2,0-0.5,0-0.7,0.1
	c-0.4,0-0.9,0-1.4,0h-0.7c-0.5,0-1,0.1-1.4,0.1h-0.7h-1c-0.5,0-1.2,0.1-1.7,0.2h-0.5c0,0-0.1,0-0.1,0c-0.2,0-0.5,0-0.7,0h-1.3
	c-0.2,0-0.5,0.1-0.7,0.1c-0.2,0-0.4,0-0.5,0h-0.2h-0.1c-0.1,0-0.2,0-0.3,0H60h-0.1h-0.1c-0.1,0-0.2,0-0.3,0h-0.1h-0.3
	c-0.1,0-0.3,0-0.4,0h-0.3h-0.2l-0.6,0.1c-0.3,0-0.5,0-0.8,0h-0.7c-0.2,0-0.4,0-0.6,0h-0.2h-0.1h-0.3c0,0-0.1,0-0.1,0
	c-0.4,0-0.9,0-1.3,0s-0.6,0-0.9,0c-0.3,0-0.6,0-0.9,0c-0.6,0-1.3,0-1.9,0h-0.5c-0.3,0-0.6,0-0.9,0.1c-0.2,0-0.3,0.1-0.5,0.1
	c-0.2,0-0.3,0-0.5,0c-0.2,0-0.3,0-0.5,0c-0.2,0-0.3,0-0.5,0h-0.5c-0.2,0-0.4,0-0.5,0c-0.2,0-0.4,0-0.6,0c0,0,0,0-0.1-0.1
	c-0.1-0.1,0,0,0-0.1s0-0.1,0-0.2"/>
<polygon class="st1" points="58.4,24.5 65.1,24.3 65.2,26.1 61,26.2 61,27.5 64.9,27.4 65,29 61.1,29.1 61.1,30.7 65.5,30.6 
	65.5,32.4 58.7,32.7 "/>
<polygon class="st1" points="66.6,24.3 69.9,24.2 71.3,29 72.4,24.1 75.7,24 76,32.1 73.9,32.2 73.7,25.9 72.4,32.2 70.5,32.3 
	68.7,26.1 68.9,32.3 66.9,32.4 "/>
<polygon class="st1" points="77.3,23.9 80.6,23.8 82,28.7 83.1,23.7 86.4,23.6 86.7,31.7 84.7,31.8 84.4,25.6 83.1,31.8 81.2,31.9 
	79.4,25.8 79.6,32 77.6,32 "/>
<path class="st1" d="M93.3,30.2l-2.8,0.1l-0.4,1.3l-2.6,0.1l2.9-8.2l2.7-0.1l3.3,8l-2.6,0.1L93.3,30.2z M92.7,28.4l-1-2.9l-0.8,2.9
	L92.7,28.4z"/>
<path class="st1" d="M102.1,23.2l2.5-0.1l0.2,4.7c0,0.4,0,0.9-0.2,1.3c-0.3,0.8-0.8,1.5-1.6,1.8c-0.6,0.2-1.1,0.3-1.7,0.3
	c-0.4,0-0.9,0-1.3,0c-0.4,0-0.8-0.1-1.2-0.3c-0.3-0.2-0.6-0.4-0.9-0.7c-0.2-0.3-0.4-0.6-0.6-0.9c-0.1-0.4-0.2-0.9-0.3-1.3l-0.2-4.7
	l2.5-0.1l0.2,4.9c0,0.4,0.1,0.7,0.4,1c0.3,0.2,0.6,0.4,1,0.3c0.7,0,1.3-0.6,1.3-1.3c0,0,0-0.1,0-0.1L102.1,23.2z M98.8,21.5h1.4v1.4
	h-1.4V21.5z M101.1,21.4h1.4v1.4h-1.4L101.1,21.4z"/>
<path class="st1" d="M105.9,28.4l2.4-0.2c0,0.3,0.2,0.6,0.3,0.9c0.3,0.3,0.7,0.5,1.1,0.5c0.3,0,0.6-0.1,0.8-0.3
	c0.2-0.1,0.3-0.4,0.3-0.6c0-0.2-0.1-0.4-0.3-0.6c-0.4-0.2-0.8-0.4-1.3-0.4c-0.9-0.1-1.7-0.4-2.4-0.9c-0.5-0.4-0.8-0.9-0.8-1.6
	c0-0.4,0.1-0.8,0.3-1.2c0.3-0.4,0.6-0.7,1.1-0.9c0.6-0.3,1.3-0.4,2-0.4c0.8-0.1,1.7,0.1,2.4,0.5c0.6,0.4,1,1.1,1,1.8l-2.4,0.2
	c0-0.3-0.2-0.6-0.4-0.8c-0.2-0.2-0.5-0.2-0.8-0.2c-0.2,0-0.5,0.1-0.7,0.2c-0.1,0.1-0.2,0.3-0.1,0.4c0,0.1,0.1,0.3,0.2,0.3
	c0.3,0.1,0.6,0.2,0.9,0.3c0.8,0.1,1.6,0.3,2.4,0.6c0.4,0.2,0.8,0.5,1.1,0.9c0.2,0.4,0.4,0.8,0.4,1.2c0,0.5-0.1,1-0.4,1.5
	c-0.3,0.5-0.7,0.8-1.2,1c-0.6,0.3-1.3,0.4-2,0.4c-1,0.1-2.1-0.1-2.9-0.7C106.3,29.9,105.9,29.2,105.9,28.4"/>
<path class="st2" d="M178,41.6c-0.1-0.1-0.1-0.2-0.1-0.3c0-0.1-0.1-0.1-0.1-0.2c0-0.1,0-0.2,0-0.2s-0.1-0.1-0.1-0.2
	c0-0.1-0.1-0.2-0.1-0.3c0-0.1,0-0.1,0-0.2c0-0.1-0.1-0.2-0.1-0.2s0.1-0.1,0.1-0.2s-0.1-0.1-0.1-0.1s-0.1-0.1-0.1-0.1
	c-0.3,0-0.6,0-0.8,0c-0.3,0-0.5,0-0.8,0l-0.7,0.1c-0.3,0-0.5,0-0.8,0.1c-0.3,0.1-0.5,0.1-0.8,0.1c-0.2,0-0.5,0-0.8,0
	c-0.2,0-0.5,0.1-0.7,0.1c-0.5,0.1-1,0.1-1.5,0.1h-0.7c-0.9,0.1-1.9,0.1-2.9,0.2h-0.2l0,0c-0.3,0-0.6,0-0.9,0.1l-1.4,0.1
	c-0.6,0.1-1.3,0-2,0.1c0,0-0.1,0-0.2,0h-0.5c0,0-0.1,0-0.1,0c-0.1,0-0.2,0-0.2,0c-0.3,0-0.6,0-0.9,0.1c-0.3,0.1-0.7,0-1.1,0
	c-0.4,0-0.8,0-1.2,0.1l-0.9,0.1h-0.3h-0.5c-0.2,0-0.4,0-0.6,0h-0.4h-0.2c-0.1,0-0.3,0-0.4,0h-0.2h-0.2h-0.6l-0.4,0.1h-0.2
	c-0.1,0-0.2,0.1-0.3,0.1c-0.3,0-0.5,0-0.8,0c-0.3,0-0.7,0.1-1.1,0.1c-0.7,0-1.4,0-2.1,0c-0.3,0-0.7,0-1,0h-0.2l-0.8,0.1
	c-0.8,0.1-1.8,0.2-2.7,0.3l-1.6,0.1l-1.1,0.1c-0.7,0.1-1.5,0.1-2.2,0.2c-0.3,0-0.7,0-1.1,0.1c-0.7,0.1-1.4,0-2.1,0.1
	c-0.4,0-0.7,0.1-1.1,0.1l-40.4,3.6c-0.4,0-0.9,0-1.3,0.1l0,0c-0.1,0-0.1,0-0.2,0c-0.3,0-0.5,0-0.7,0l-1,0.1c-0.3,0-0.6,0.1-0.9,0.1
	c-0.6,0-1.3,0-1.8,0.1c-0.6,0.1-1.3,0.1-1.8,0.1l-1,0.1l-0.9,0.1c-0.3,0-0.6,0-0.9,0l-0.5,0.1c-1.1,0.1-2.2,0.1-3.3,0.3L78.9,47
	c-1.2,0.1-2.4,0.2-3.7,0.4c-0.6,0.1-1.3,0.1-1.9,0.2l-0.8,0.1l-0.9,0.1c-0.3,0-0.6,0-0.9,0.1l-0.9,0.1c-0.6,0-1.3,0.1-1.9,0.2
	c-0.6,0-1,0.1-1.5,0.2h-0.6l-0.9,0.1h-0.4c-0.3,0-0.5,0.1-0.8,0.1s-0.3,0-0.4,0h-0.3c-0.3,0-0.6,0-1,0.1c-0.2,0.1-0.5,0.1-0.7,0.1
	l0,0c-0.1,0-0.2,0-0.3,0h-0.2c-0.1,0-0.3,0-0.4,0s-0.2,0-0.3,0.1h-0.8l-0.5,0.1c-0.2,0-0.3,0.1-0.5,0.1c-0.1,0-0.2,0-0.2,0.2
	c0,0.2,0,0.1,0,0.1c0,0.1,0.3,0,0.4,0.1c0,0.1,0.1,0.2,0.2,0.2c0,0.1,0,0.2,0.1,0.3c0.1,0.1,0,0.2,0,0.2c0,0.1,0.1,0.1,0.1,0.2
	c0,0.1,0,0.2,0,0.3c0,0-0.1,0-0.2,0c0,0,0.1,0,0.1,0.1c0,0,0,0.1,0,0.1c0,0.1,0.1,0,0.1,0.1s0,0.1,0,0.2s0.1,0.2,0.1,0.3
	s-0.1,0.1-0.1,0.3c-0.1,0.1-0.2,0.3-0.3,0.5c0,0.1-0.2,0-0.2,0.2c0,0.2,0,0.4-0.1,0.5c0,0.1-0.1,0.1-0.1,0.2
	c-0.1,0.1-0.2,0.2-0.3,0.3c0,0.1-0.1,0.2-0.1,0.4c0,0.1,0.1,0.2,0.1,0.3c0,0.1,0,0.1,0,0.2c0,0.2,0,0.4,0,0.6s-0.2,0.1-0.1,0.2
	c0,0.1,0,0.1-0.1,0.1c0,0.1,0,0.2,0,0.2c0,0.1-0.1,0.2-0.1,0.3c0,0.1-0.1,0.2-0.2,0.2c0.1,0.2-0.1,0.4-0.1,0.5c0,0.2,0,0.1,0.1,0.1
	c0.1,0.1,0,0.1,0.1,0.2c0,0.1,0,0.3,0.1,0.4c0.1,0.1,0.1,0.2,0.1,0.3c0,0.1,0,0.2-0.1,0.3c0,0,0,0.2,0.1,0.2c0.1,0,0,0.2,0,0.2
	s0.1,0,0.1,0.2c0,0.2,0,0.3,0,0.4s0,0,0,0.1s0,0.1,0.1,0.1c0.1,0.1,0,0,0,0s0,0,0,0.1c0,0.1,0.1,0,0.1,0.1c0,0.1,0,0.1,0,0.2
	s0,0.1,0,0.2c0.1,0,0.1,0.1,0.1,0.2c0,0,0,0,0,0.1c0,0.1,0,0.2,0,0.3l0,0c0,0.1,0,0.1,0,0.2c-0.1,0-0.1,0.2-0.1,0.2
	c0,0.1,0.1,0.2,0.1,0.2c0,0,0,0.1,0,0.1s0,0,0,0s0,0.1,0,0.1c0,0,0,0.1,0.1,0.1c0.7,0,1.4-0.1,2.1-0.2c0.7-0.1,1.4-0.1,2.1-0.2
	s1.8-0.1,2.6-0.2H65h0.1h0.4h0.1h0.5c0.1,0,0.1,0,0.2,0c0.1-0.1,0.3-0.1,0.5-0.1c0.5,0,1.1,0,1.5-0.1h0.1h0.2h1h0.2l0.6-0.1h0.3h0.3
	h0.3h0.1h0.2l0,0h0.1c0.1,0,0.2,0,0.3,0c0.2,0,0.3,0,0.5-0.1c0.2,0,0.5,0,0.7,0c0.1,0,0.2,0,0.3,0l0,0l0,0h0.2h0.3
	c0.1,0,0.2,0,0.3,0c0.8-0.1,1.7-0.1,2.5-0.2h0.6h0.7h0.6c0.1,0,0.2,0,0.3,0s0.4,0,0.5,0c0,0,0.1,0,0.1,0l0,0l0.6-0.1h0.5
	c0.2,0,0.4,0,0.6,0c0.1,0,0.2-0.1,0.3-0.1h0.3l1-0.1l2.3-0.2c0,0,0.1,0,0.1,0h0h0.4h0.7H87c0.5,0,0.9,0,1.4-0.1c0.1,0,0.1,0,0.2,0
	c0.1,0,0.3,0,0.4,0l1.3-0.1c0.3,0,0.5,0,0.8-0.1c0.8,0,1.7-0.1,2.5-0.2c0.2,0,0.5,0,0.6,0h0.2l0.9-0.1c0.1,0,0.2,0,0.2,0l40.5-3l0,0
	h0.6c0.4,0,0.8,0,1.2-0.1c0.1,0,0.3,0,0.4,0h0.3c0.2,0,0.4,0,0.6,0h0.2h0.2h0.1c0.2,0,0.3,0,0.5,0l1.3-0.1c0.2,0,0.3,0,0.5,0
	c0.1,0,0.1,0,0.2,0h0.3l1.2-0.1l1.2-0.1l2.4-0.2c0.7-0.1,1.5-0.1,2.3-0.2l1.2-0.1l2.4-0.2c0.4,0,0.8,0,1.2-0.1
	c0.4-0.1,0.8-0.1,1.3-0.1c0.2,0,0.4,0,0.5,0h0.6c0.8-0.1,1.6-0.1,2.4-0.2h0.6h0.5h0.1h0.3h0.3c0.2,0,0.4,0,0.6,0
	c0.2,0,0.4-0.1,0.7-0.1c0.6,0,1.3,0,1.9-0.1h0.2c0.1,0,0.2,0,0.3,0c0.1,0,0.3,0,0.4,0c0.1,0,0.2,0,0.3,0c0.1,0,0.1,0,0.2,0
	c0.7-0.1,1.6-0.1,2.3-0.2c0.4,0,0.9-0.1,1.3-0.1h0.4h0.3l0,0h0.2h0.2h0.3h0.3h0.2c0.5,0,1.1-0.2,1.6-0.1h0.2c0.1,0,0.1,0,0.2,0
	c0.1,0,0.2,0,0.3,0h0.3h0.4c0.1,0,0.2,0,0.3,0h0.2l1.2-1.6c0,0,0.2,0,0.2,0c0,0,0-0.2,0-0.4s0-0.1,0-0.2s0.1-0.2,0.1-0.3
	c0-0.1,0-0.1,0-0.2c0-0.1,0-0.3,0-0.4c0,0,0-0.1,0-0.1c0-0.1,0-0.1,0-0.2c0,0,0,0,0-0.1c0.1-0.1,0.1-0.3,0-0.5c0,0,0-0.1,0-0.2
	c0-0.1,0,0,0.1,0s0-0.1,0-0.1s0-0.1-0.1-0.1c-0.1,0,0-0.1,0-0.1c0-0.1,0-0.2,0-0.3c-0.1-0.1-0.1-0.1-0.1-0.2c0,0,0-0.1,0-0.1l0,0
	c0,0,0-0.1,0-0.1c0,0,0,0.1,0.1,0c0.1-0.1,0-0.1,0-0.2c0-0.1,0-0.1,0-0.1c0,0,0,0,0-0.1c0-0.1-0.1,0.1-0.2,0s0.1,0,0.1-0.2
	c0-0.2,0-0.1,0-0.1c0-0.1,0-0.2-0.1-0.3c0-0.1,0-0.2,0.1-0.3s0-0.1,0-0.2c0.1-0.1,0.1-0.2,0.1-0.3c0-0.1,0.1-0.2,0.1-0.3
	c0-0.1,0,0,0,0l0,0c0-0.1,0-0.2-0.1-0.3c0.1,0,0-0.1,0.1-0.2c0-0.1,0-0.1,0-0.2c0,0,0.1,0,0.1-0.1c0-0.1,0-0.1,0-0.2
	c0-0.1,0.1-0.2,0.1-0.3c0,0,0.1,0,0.1-0.1c0-0.1,0.1-0.1,0.1-0.2c0.1,0,0-0.1,0-0.2c0.1-0.1,0.2-0.2,0.3-0.3c0,0,0-0.2,0-0.2
	c0-0.1,0-0.1,0-0.2c0.1-0.1,0.2-0.3,0.3-0.4c0-0.1,0-0.2,0-0.3c0,0,0.1-0.1,0.1-0.1c0,0,0-0.1,0-0.2c0,0,0.1-0.1,0.2-0.2
	c0-0.1,0.1-0.1,0.1-0.2c0,0,0.1-0.1,0.1-0.2c0-0.1,0.1-0.1,0.2-0.2c0-0.1,0.1-0.2,0.1-0.3c0-0.1,0-0.3,0-0.4"/>
<polygon class="st1" points="64.5,50.8 71.7,50.2 71.8,52.1 69.4,52.3 69.8,58.1 67.5,58.3 67,52.5 64.6,52.7 "/>
<path class="st1" d="M72.4,54c-0.1-1.1,0.2-2.2,0.8-3c0.7-0.8,1.7-1.3,2.8-1.3c1.1-0.2,2.2,0.1,3,0.8c0.8,0.7,1.3,1.7,1.3,2.8
	c0.1,0.8,0,1.5-0.3,2.3c-0.3,0.6-0.7,1.1-1.2,1.4c-0.6,0.4-1.4,0.6-2.1,0.6c-0.7,0.1-1.5,0-2.2-0.2c-0.6-0.2-1.1-0.7-1.5-1.2
	C72.6,55.6,72.4,54.8,72.4,54 M74.7,53.9c0,0.6,0.2,1.2,0.6,1.6c0.3,0.3,0.8,0.5,1.2,0.4c0.5,0,0.9-0.2,1.2-0.6
	c0.3-0.6,0.4-1.2,0.3-1.8c0-0.5-0.2-1.1-0.5-1.5c-0.3-0.3-0.8-0.5-1.2-0.4c-0.4,0-0.9,0.2-1.1,0.6C74.8,52.7,74.7,53.3,74.7,53.9"/>
<path class="st1" d="M86.3,49.1l2.4-0.2l0.4,4.6c0,0.4,0,0.9-0.1,1.3c-0.1,0.4-0.3,0.8-0.6,1.1c-0.3,0.3-0.6,0.5-0.9,0.7
	c-0.5,0.2-1.1,0.4-1.6,0.4c-0.4,0-0.8,0-1.2,0c-0.4,0-0.8-0.1-1.1-0.2c-0.3-0.1-0.6-0.3-0.9-0.6c-0.3-0.2-0.4-0.5-0.6-0.9
	c-0.2-0.4-0.3-0.8-0.3-1.3l-0.4-4.5l2.4-0.2L84,54c0,0.4,0.2,0.7,0.4,1c0.3,0.2,0.6,0.3,1,0.3c0.7,0,1.2-0.5,1.2-1.2
	c0-0.1,0-0.2,0-0.3L86.3,49.1z"/>
<path class="st1" d="M93.4,48.5l2.4-0.2l0.3,4.2c0.1,0.7,0.1,1.3,0,2c-0.1,0.5-0.4,0.9-0.9,1.2c-0.5,0.4-1.1,0.6-1.8,0.6
	c-0.6,0.1-1.3,0-1.8-0.2c-0.4-0.2-0.8-0.5-1.1-0.8c-0.3-0.4-0.5-0.9-0.5-1.5l2.2-0.5c0,0.3,0.1,0.5,0.2,0.7c0.1,0.2,0.2,0.3,0.3,0.4
	c0.1,0,0.3,0,0.4,0c0.2,0,0.4-0.1,0.6-0.3c0.1-0.3,0.2-0.7,0.1-1L93.4,48.5z"/>
<path class="st1" d="M97.3,52.1c-0.1-1.1,0.2-2.1,0.8-3c0.7-0.8,1.7-1.3,2.8-1.3c1.1-0.2,2.2,0.1,3,0.8c0.8,0.7,1.3,1.7,1.3,2.8
	c0.1,0.8,0,1.5-0.3,2.2c-0.2,0.6-0.7,1.1-1.2,1.4c-0.6,0.4-1.4,0.6-2.1,0.6c-0.7,0.1-1.5,0-2.2-0.2c-0.6-0.2-1.1-0.7-1.5-1.2
	C97.7,53.6,97.4,52.8,97.3,52.1 M99.8,51.9c0,0.6,0.2,1.2,0.6,1.6c0.7,0.6,1.7,0.5,2.3-0.1c0,0,0,0,0-0.1c0.3-0.6,0.4-1.2,0.3-1.8
	c0-0.6-0.2-1.1-0.6-1.6c-0.3-0.3-0.8-0.5-1.3-0.4c-0.4,0-0.9,0.2-1.1,0.6C99.7,50.7,99.6,51.3,99.8,51.9"/>
<path class="st1" d="M111.3,47.1l2.4-0.2l0.4,4.6c0,0.4,0,0.9-0.1,1.3c-0.1,0.4-0.3,0.8-0.6,1.1c-0.2,0.3-0.6,0.5-0.9,0.7
	c-0.5,0.2-1.1,0.4-1.6,0.4c-0.4,0-0.9,0-1.3,0c-0.4,0-0.8-0.1-1.1-0.2c-0.3-0.1-0.6-0.3-0.9-0.6c-0.3-0.2-0.4-0.5-0.6-0.8
	c-0.2-0.4-0.3-0.8-0.3-1.3l-0.4-4.6l2.4-0.2L109,52c0,0.4,0.2,0.7,0.4,0.9c0.3,0.2,0.6,0.3,1,0.3c0.4,0,0.7-0.2,0.9-0.4
	c0.2-0.3,0.3-0.6,0.3-1L111.3,47.1z"/>
<path class="st1" d="M115.8,54.5l-0.6-7.6l3.9-0.3c0.6-0.1,1.1-0.1,1.7,0c0.4,0.1,0.7,0.3,1,0.6c0.3,0.3,0.4,0.8,0.5,1.2
	c0,0.4,0,0.8-0.2,1.1c-0.2,0.3-0.4,0.6-0.7,0.8c-0.3,0.2-0.5,0.3-0.8,0.4c0.2,0,0.4,0.1,0.6,0.2c0.2,0.1,0.3,0.2,0.4,0.4
	c0.1,0.1,0.3,0.3,0.4,0.4l1.3,2.1l-2.7,0.2l-1.5-2.2c-0.1-0.2-0.3-0.4-0.5-0.6c-0.2-0.1-0.4-0.1-0.6-0.1h-0.2l0.2,3.1L115.8,54.5z
	 M117.8,49.7l1-0.1l0.6-0.2c0.2,0,0.3-0.1,0.4-0.3c0.1-0.1,0.1-0.3,0.1-0.5c0-0.2-0.1-0.4-0.3-0.6c-0.3-0.1-0.6-0.1-0.9-0.1l-1,0.1
	L117.8,49.7z"/>
<path class="st1" d="M123.5,51.3l2.2-0.3c0,0.3,0.2,0.6,0.4,0.8c0.3,0.3,0.7,0.4,1.1,0.4c0.3,0,0.6-0.1,0.8-0.3
	c0.2-0.1,0.2-0.4,0.2-0.6c0-0.2-0.1-0.4-0.3-0.5c-0.4-0.2-0.8-0.3-1.3-0.3c-0.8-0.1-1.6-0.3-2.3-0.8c-0.5-0.3-0.8-0.9-0.8-1.4
	c0-0.4,0.1-0.8,0.3-1.2c0.2-0.4,0.6-0.7,1-0.9c0.6-0.3,1.2-0.4,1.9-0.5c0.8-0.1,1.6,0,2.3,0.4c0.6,0.4,1,1,1,1.7l-2.2,0.3
	c-0.1-0.3-0.2-0.5-0.4-0.7c-0.2-0.1-0.5-0.2-0.8-0.2c-0.2,0-0.4,0.1-0.6,0.2c-0.1,0.1-0.2,0.3-0.2,0.5c0,0.1,0.1,0.2,0.2,0.3
	c0.3,0.1,0.5,0.2,0.8,0.2c0.8,0.1,1.5,0.2,2.3,0.5c0.4,0.2,0.8,0.4,1,0.8c0.2,0.3,0.4,0.7,0.4,1.1c0,0.5-0.1,1-0.3,1.4
	c-0.2,0.4-0.6,0.8-1.1,1c-0.6,0.3-1.2,0.4-1.8,0.5c-1,0.2-1.9,0-2.8-0.5C124,52.7,123.6,52,123.5,51.3"/>
<path class="st3" d="M140,51.3l-2.7,0.2l-0.3,1.3l-2.4,0.2l2.2-7.9l2.6-0.2l3.5,7.4l-2.5,0.2L140,51.3z M139.5,49.7l-1-2.7l-0.6,2.8
	L139.5,49.7z"/>
<path class="st3" d="M147.2,49.2l-0.1-1.6l3.7-0.3l0.2,3.3c-0.5,0.5-1.1,0.8-1.8,1.1c-0.6,0.2-1.3,0.4-1.9,0.4
	c-0.8,0.1-1.5,0-2.3-0.3c-0.6-0.3-1.1-0.7-1.4-1.3c-0.4-0.6-0.6-1.3-0.6-2.1c-0.1-0.8,0-1.5,0.3-2.2c0.3-0.6,0.8-1.2,1.4-1.5
	c0.6-0.3,1.3-0.5,2.1-0.5c0.6-0.1,1.3,0,1.9,0.1c0.4,0.1,0.8,0.3,1.1,0.6c0.3,0.3,0.6,0.7,0.7,1.2l-2.3,0.6
	c-0.1-0.3-0.3-0.5-0.5-0.6c-0.3-0.1-0.6-0.2-0.9-0.2c-0.5,0-0.9,0.2-1.2,0.6c-0.3,0.5-0.4,1.2-0.3,1.8c0,0.6,0.2,1.3,0.6,1.7
	c0.4,0.3,0.8,0.5,1.3,0.4c0.3,0,0.5-0.1,0.7-0.2c0.3-0.1,0.5-0.3,0.8-0.5V49L147.2,49.2z"/>
<rect x="152.3" y="43.8" transform="matrix(0.9969 -7.811110e-02 7.811110e-02 0.9969 -3.2517 12.1314)" class="st3" width="2.4" height="7.7"/>
<path class="st3" d="M156.7,51.2l-0.6-7.7l3.9-0.3c0.6-0.1,1.1-0.1,1.7,0c0.4,0.1,0.7,0.3,1,0.6c0.3,0.3,0.4,0.8,0.5,1.2
	c0,0.4,0,0.8-0.2,1.1c-0.2,0.3-0.4,0.6-0.7,0.8c-0.2,0.2-0.5,0.3-0.8,0.4c0.2,0.1,0.4,0.1,0.6,0.2c0.1,0.1,0.3,0.2,0.4,0.4
	c0.1,0.1,0.3,0.3,0.4,0.5l1.3,2.1l-2.7,0.2l-1.3-2.2c-0.1-0.2-0.3-0.4-0.5-0.6c-0.2-0.1-0.4-0.1-0.6-0.1h-0.2l0.2,3.1L156.7,51.2z
	 M158.7,46.5l1-0.1c0.2,0,0.4-0.1,0.6-0.2c0.2,0,0.3-0.1,0.4-0.3c0.1-0.1,0.1-0.3,0.1-0.5c0-0.2-0.1-0.4-0.3-0.6
	c-0.3-0.1-0.6-0.2-0.9-0.1l-1,0.1L158.7,46.5z"/>
<path class="st4" d="M150.2,31.9c-0.1-0.1-0.1-0.2-0.1-0.3c0-0.1-0.1-0.1-0.1-0.2c0-0.1,0-0.1,0-0.2c0-0.1-0.1-0.1-0.1-0.2
	c0-0.1,0-0.2-0.1-0.3c0-0.1,0-0.1,0-0.2c0-0.1-0.1-0.2-0.1-0.2c-0.1-0.1,0.1-0.1,0.1-0.2c0,0-0.1,0-0.1-0.1c0-0.1-0.1-0.1-0.1-0.1
	c-0.3,0-0.6,0-0.8,0c-0.3,0-0.5,0-0.8,0s-0.5,0-0.7,0.1c-0.3,0.1-0.5,0-0.8,0.1c-0.3,0-0.5,0.1-0.8,0.1c-0.2,0-0.5,0-0.7,0
	c-0.2,0-0.4,0-0.6,0.1h-0.1h-0.5c0,0-0.1,0-0.2,0h-0.2h-0.6h-0.3H142l0,0h-0.7h-1.9c-0.4,0-0.7,0-1.1,0h-0.2l-0.8,0.1l-1.2,0.2
	c-0.6,0-1.3,0-1.8,0.1c-0.1,0-0.1,0-0.2,0c-0.2,0-0.4,0-0.5,0c0,0-0.1,0-0.1,0h-0.2c-0.3,0-0.6,0-0.9,0.1c-0.4,0-0.7,0-1.1,0
	c-0.4,0-0.8,0-1.2,0.1l-0.9,0.1h-0.3l-0.5,0.1c-0.2,0-0.4,0-0.6,0h-0.5H127l0,0h-0.3c-0.4,0-0.7,0.1-1.1,0.1l-40.5,2.7
	c-0.4,0-0.9,0-1.3,0.1l0,0c-0.1,0-0.1,0-0.2,0c-0.3,0-0.4,0-0.6,0s-0.6,0.1-1,0.1s-0.6,0-0.9,0L79.2,34l-1.8,0.1l-1,0.1l-0.9,0.1
	c-0.3,0-0.6,0-0.9,0s-0.3,0-0.5,0c-1.1,0-2.2,0.1-3.3,0.2l-1.8,0.2c-1.2,0.1-2.4,0.2-3.7,0.4c-0.6,0.1-1.3,0.1-1.9,0.2l-0.8,0.1
	h-0.9c-0.3,0-0.6,0-0.9,0.1l-0.9,0.1l-2,1.1c-0.5,0-1,0.1-1.5,0.2H56l-0.9,0.1h-0.4c-0.3,0-0.5,0-0.8,0.1c-0.2,0.1-0.3,0-0.4,0h-0.3
	c-0.3,0-0.7,0-1,0.1C52.1,37,51.8,37,51.6,37l0,0c-0.1,0-0.2,0-0.3,0c-0.1,0-0.1,0-0.2,0c-0.1,0-0.3,0-0.4,0s-0.2,0-0.3,0.1h-0.8
	c-0.2,0-0.3,0.1-0.5,0.1c-0.2,0-0.3,0.1-0.5,0.1c-0.1,0-0.2,0-0.2,0.2c0,0,0,0.1,0,0.1c0.1,0.1,0.3,0,0.4,0.1
	c0.1,0.1,0.1,0.1,0.1,0.2c0.1,0.1,0,0.2,0.1,0.3c0.1,0.1,0,0.2,0,0.2s0.1,0.1,0.1,0.2c0,0.1,0,0.2,0,0.3c0,0-0.1,0-0.2,0
	c0,0,0.1,0,0.1,0.1c0,0,0,0.1,0,0.1c0,0.1,0.1,0,0.1,0.2c0,0.2,0,0.1,0,0.2c0,0.1,0.1,0.2,0,0.3C49.1,39.9,49,40,49,40.1
	c-0.1,0.1-0.2,0.3-0.3,0.5c0,0-0.1,0-0.1,0.2c0,0.2,0,0.4-0.1,0.5c0,0.1-0.1,0.1-0.1,0.2c-0.1,0.1-0.2,0.2-0.3,0.3
	c0,0.1-0.1,0.2-0.1,0.4c0,0.1,0,0.2,0,0.3c0,0.1,0,0.1,0,0.2c0,0.2,0,0.4,0,0.6c0,0.2-0.2,0.1-0.1,0.2c0,0.1,0,0.1-0.1,0.1
	c0,0.1,0,0.2,0,0.2c0,0.1-0.1,0.2-0.1,0.3c0,0.1-0.1,0.2-0.2,0.2c0.1,0.2-0.2,0.4-0.1,0.5c0,0.2,0,0.1,0.1,0.1
	c0.1,0.1,0,0.1,0.1,0.2c0,0.1,0,0.3,0.1,0.4c0.1,0.1,0.1,0.2,0.1,0.3c0,0.1,0,0.2-0.1,0.3c0.1,0,0,0.2,0.1,0.2c0.1,0,0,0.2,0,0.2
	s0.1,0,0.1,0.1s0,0.3,0,0.4c0,0.1,0,0,0,0.1s0,0.1,0.1,0.1s0,0,0,0.1s0,0,0,0.1c0,0.1,0.1,0,0.1,0.1c0,0.1,0,0.1,0,0.2
	c0,0.1,0,0.1,0,0.2c0.1,0,0.1,0.1,0.1,0.2c0,0,0,0.1,0,0.1v0.3l0,0c0,0.1,0,0.1,0,0.2c-0.1,0,0,0.2,0,0.2c0,0.1,0,0.2,0.1,0.2
	c0,0,0,0.1,0,0.1s0,0,0,0s0,0.1,0,0.1s0,0.1,0.1,0.1c0.7,0,1.4-0.1,2.1-0.2c0.7-0.1,1.5,0.2,2.2,0.2c0.7,0,1.8-0.1,2.6-0.2h0.1h0.1
	c0.1,0,0.3,0,0.4,0c0,0,0.1,0,0.1,0c0.2,0,0.4,0,0.6,0c0.1,0,0.1,0,0.2,0c0.1-0.1,0.3-0.1,0.5-0.1c0.5,0,1.1,0,1.5-0.1
	c0,0,0.1,0,0.1,0h0.2h1H60c0.2,0,0.4,0,0.6-0.1h0.3h0.3h0.3h0.1h0.2l0,0H62c0.1,0,0.2,0,0.3,0c0.2,0,0.3,0,0.5-0.1
	c0.2,0,0.5,0,0.7,0h0.3c0,0,0,0,0.1,0l0,0c0.1,0,0.1,0,0.2,0c0.1,0,0.2,0,0.3,0h0.3c0.8-0.1,1.7-0.1,2.5-0.2h0.6c0.2,0,0.4,0,0.7,0
	h0.3c0.1,0,0.2,0,0.3,0h0.5h0.1l0,0H70c0.1,0,0.3,0,0.5,0s0.4,0,0.6,0c0.2,0,0.2-0.1,0.3-0.1h0.3c0.3,0,0.6,0,0.9-0.1
	c0.7,0,1.6-0.1,2.3-0.2h0.1h0.1c0.1,0,0.3,0,0.4,0c0.2,0,0.5,0,0.7,0H77c0.5,0,0.9,0,1.4-0.1c0.1,0,0.1,0,0.2,0H79
	c0.5,0,0.8-0.1,1.3-0.1c0.5-0.1,0.5,0,0.8,0l2.6-1.3c0.2,0,0.5,0,0.6,0h0.2l0.8-0.1h0.2l40.5-2.8h0.1h0.6c0.4,0,0.8,0,1.2-0.1
	c0.1,0,0.3,0,0.4,0h0.3c0.2,0,0.4,0,0.6,0h0.2c0.1,0,0.1,0,0.2,0c0,0,0.1,0,0.1,0c0.2,0,0.3,0,0.5,0l1.3-0.1h0.5c0.1,0,0.1,0,0.2,0
	c0.1,0,0.2,0,0.3,0c0.4,0,0.8-0.1,1.2-0.1l1.2-0.1h0.9h0.1l0.9-0.1h0.2h0.4l2.3-0.2l1.2-0.1h0.6h0.1h0.5h0.1h0.1h0.6h0.1l0.8-0.1
	h0.6h0.2c0.1,0,0.1,0,0.2,0c0.1,0,0.1,0,0.2,0h0.3l0,0h0.3h0.4c0.1,0,0.2,0,0.3,0h0.2c0.4,0,0.7-0.1,1-0.1c0,0,0.2,0,0.2,0
	s0-0.2,0-0.4s0-0.1,0-0.2c0-0.1,0.1-0.2,0.1-0.3s0-0.1,0-0.2c0-0.1,0-0.2,0-0.3c0,0,0-0.1,0-0.1c0-0.1,0-0.1,0-0.2s0,0,0-0.1
	c0.1-0.1,0.1-0.3,0-0.5c0,0,0-0.1,0-0.2l0.1-0.1c0,0,0-0.1,0-0.1s0-0.1-0.1-0.1c-0.1,0,0.1-0.1,0-0.1c0-0.1,0-0.2,0-0.3
	c0-0.1-0.1-0.1-0.1-0.2s0-0.1,0-0.1l0,0v-0.1c0,0,0,0.1,0.1,0s0-0.1,0-0.2s0-0.1,0-0.1s0.1,0,0.1-0.1c0-0.1-0.1,0.1-0.2,0
	c0-0.1,0.1,0,0.1-0.2c0-0.2,0-0.1,0-0.1c0-0.1,0-0.2-0.1-0.3c0-0.1,0-0.2,0.1-0.3c0.1-0.1,0-0.1,0-0.2c0.1-0.1,0.1-0.2,0.1-0.3
	c0-0.1,0.1-0.2,0.1-0.3c0-0.1,0,0,0,0l0,0c0-0.1,0-0.2-0.1-0.3c0.1,0,0-0.1,0.1-0.1c0-0.1,0-0.1,0-0.2c0,0,0.1,0,0.1-0.1
	c0-0.1,0-0.1,0-0.2c0-0.1,0.1-0.2,0.1-0.3c0,0,0.1,0,0.1-0.1c0-0.1,0.1-0.1,0.1-0.2c0.1,0,0-0.1,0-0.2c0.1-0.1,0.2-0.2,0.3-0.3
	c0,0,0-0.2,0-0.2c0-0.1,0-0.1,0-0.2c0.1-0.1,0.1-0.3,0.3-0.4c0-0.1,0-0.2,0-0.3c0,0,0-0.1,0.1-0.1c0.1,0,0-0.1,0-0.2
	s0.1-0.1,0.2-0.1c0-0.1,0.1-0.1,0.1-0.2c0-0.1,0.1-0.1,0.1-0.2c0-0.1,0.1-0.1,0.2-0.2s0.1-0.2,0.2-0.3c0-0.1,0-0.3,0-0.4"/>
<polygon points="58.8,38.9 61,38.7 64.2,42.7 63.9,38.5 66.1,38.3 66.7,46 64.5,46.2 61.3,42.1 61.6,46.4 59.4,46.5 "/>
<polygon points="67.7,38.2 74.1,37.8 74.2,39.4 70.2,39.7 70.3,40.9 74,40.6 74.1,42.2 70.4,42.5 70.5,44 74.6,43.7 74.7,45.4 
	68.3,45.9 "/>
<path d="M79,37.4l3.9-0.3c0.7-0.1,1.4,0.1,2,0.5c0.5,0.4,0.8,1,0.8,1.7c0.1,0.7-0.1,1.4-0.5,1.9c-0.6,0.5-1.3,0.8-2.1,0.8l-1.3,0.1
	l0.2,2.8l-2.4,0.2L79,37.4z M81.6,40.5h0.6c0.3,0,0.7-0.1,0.9-0.3c0.2-0.2,0.3-0.4,0.2-0.6c0-0.2-0.1-0.4-0.3-0.6
	c-0.3-0.2-0.6-0.2-0.9-0.2h-0.7L81.6,40.5z"/>
<path d="M91,42.9l-2.7,0.2l-0.3,1.3l-2.4,0.2l2.3-7.9l2.6-0.2L94,44l-2.5,0.2L91,42.9z M90.4,41.3l-1-2.7l-0.6,2.8L90.4,41.3z"/>
<path d="M94.2,41.5l2.2-0.3c0,0.3,0.2,0.6,0.4,0.8c0.3,0.3,0.7,0.4,1.1,0.4c0.3,0,0.6-0.1,0.8-0.3c0.2-0.1,0.2-0.4,0.2-0.6
	c0-0.2-0.1-0.4-0.3-0.5c-0.4-0.2-0.8-0.3-1.3-0.4c-0.8-0.1-1.6-0.3-2.3-0.8c-0.5-0.3-0.7-0.9-0.8-1.4c0-0.4,0.1-0.8,0.3-1.2
	c0.2-0.4,0.6-0.7,1-0.9c0.6-0.3,1.2-0.4,1.9-0.4c0.8-0.1,1.6,0,2.3,0.4c0.6,0.4,1,1,1.1,1.7l-2.2,0.3c-0.1-0.3-0.2-0.5-0.4-0.7
	c-0.2-0.1-0.5-0.2-0.8-0.2c-0.2,0-0.4,0.1-0.6,0.2c-0.1,0.1-0.2,0.3-0.2,0.4c0,0.1,0.1,0.3,0.2,0.3c0.3,0.1,0.5,0.2,0.8,0.2
	c0.8,0.1,1.5,0.2,2.3,0.5c0.4,0.2,0.8,0.4,1,0.8c0.2,0.3,0.4,0.7,0.4,1.1c0,0.5-0.1,1-0.3,1.4c-0.2,0.4-0.6,0.8-1.1,1
	c-0.6,0.3-1.2,0.4-1.8,0.5c-1,0.2-1.9,0-2.8-0.6C94.7,42.8,94.3,42.2,94.2,41.5"/>
<path class="st5" d="M105.5,40.6l2.2-0.3c0,0.3,0.2,0.6,0.4,0.8c0.3,0.3,0.7,0.4,1.1,0.4c0.3,0,0.6-0.1,0.8-0.3
	c0.3-0.2,0.4-0.7,0.1-1c0,0-0.1-0.1-0.1-0.1c-0.4-0.2-0.8-0.3-1.3-0.4c-0.8-0.1-1.6-0.3-2.3-0.7c-0.5-0.3-0.8-0.9-0.8-1.4
	c0-0.4,0.1-0.8,0.3-1.2c0.2-0.4,0.6-0.7,1-0.9c0.6-0.3,1.2-0.4,1.9-0.4c0.8-0.1,1.6,0,2.3,0.4c0.6,0.4,1,1,1,1.7l-2.3,0.2
	c-0.1-0.3-0.2-0.5-0.4-0.7c-0.2-0.1-0.5-0.2-0.8-0.2c-0.2,0-0.4,0.1-0.6,0.2c-0.1,0.1-0.2,0.3-0.2,0.4c0,0.1,0.1,0.2,0.2,0.3
	c0.2,0.1,0.5,0.2,0.8,0.2c0.8,0.1,1.5,0.3,2.3,0.5c0.4,0.2,0.8,0.4,1,0.8c0.2,0.3,0.4,0.7,0.4,1.1c0,0.5-0.1,1-0.3,1.4
	c-0.3,0.4-0.6,0.8-1.1,1c-0.6,0.3-1.2,0.4-1.8,0.5c-1,0.2-1.9,0-2.8-0.6C105.9,42,105.6,41.4,105.5,40.6"/>
<path class="st5" d="M118.2,34.5l2.4-0.2l0.3,4.6c0,0.4,0,0.9-0.1,1.3c-0.2,0.8-0.8,1.4-1.5,1.8c-0.5,0.2-1.1,0.4-1.6,0.4
	c-0.4,0-0.9,0-1.3,0c-0.4,0-0.8-0.1-1.1-0.2c-0.3-0.1-0.6-0.3-0.9-0.6c-0.2-0.2-0.4-0.5-0.6-0.9c-0.2-0.4-0.3-0.8-0.3-1.3l-0.3-4.6
	l2.4-0.2l0.3,4.7c0,0.7,0.6,1.3,1.3,1.3c0,0,0.1,0,0.1,0c0.7,0,1.2-0.5,1.2-1.2c0-0.1,0-0.2,0-0.3L118.2,34.5z"/>
<path class="st5" d="M122.2,34.3l4.4-0.4c0.6-0.1,1.2,0.1,1.7,0.4c0.4,0.3,0.7,0.8,0.7,1.3c0,0.4-0.1,0.9-0.3,1.2
	c-0.2,0.3-0.5,0.5-0.8,0.6c0.5,0,0.9,0.3,1.3,0.6c0.3,0.3,0.5,0.7,0.5,1.2c0,0.4,0,0.7-0.2,1.1c-0.2,0.3-0.4,0.6-0.7,0.8
	c-0.3,0.2-0.6,0.3-0.9,0.3c-0.3,0.1-0.7,0.1-1.1,0.2l-4.1,0.3L122.2,34.3z M124.7,37.1l1-0.1c0.3,0,0.5-0.1,0.8-0.2
	c0.1-0.2,0.2-0.4,0.2-0.6c0-0.2-0.1-0.4-0.2-0.5c-0.2-0.1-0.5-0.2-0.8-0.1l-1,0.1L124.7,37.1z M125,40.1l1.2-0.1
	c0.3,0,0.6-0.1,0.8-0.3c0.2-0.2,0.2-0.4,0.2-0.6c0-0.2-0.1-0.4-0.3-0.5c-0.3-0.1-0.6-0.2-0.9-0.1l-1.2,0.1L125,40.1z"/>
<rect x="130.9" y="33.5" transform="matrix(0.9973 -7.323819e-02 7.323819e-02 0.9973 -2.3838 9.7724)" class="st5" width="2.4" height="7.7"/>
<path class="st5" d="M135.3,41l-0.6-7.7l3.9-0.3c0.6-0.1,1.1-0.1,1.7,0c0.4,0.1,0.7,0.3,1,0.6c0.3,0.3,0.4,0.8,0.4,1.2
	c0,0.4,0,0.8-0.2,1.1c-0.2,0.3-0.4,0.6-0.7,0.8c-0.2,0.2-0.5,0.3-0.8,0.4c0.4,0.1,0.8,0.3,1,0.6c0.1,0.1,0.3,0.3,0.4,0.5l1.3,2.1
	l-2.7,0.2l-1.4-2.3c-0.1-0.2-0.3-0.4-0.5-0.6c-0.2-0.1-0.4-0.2-0.6-0.1h-0.2l0.2,3.1L135.3,41z M137.3,36.3l1-0.1
	c0.2,0,0.4-0.1,0.6-0.2c0.2,0,0.3-0.1,0.4-0.3c0.1-0.1,0.1-0.3,0.1-0.5c0-0.2-0.1-0.4-0.3-0.6c-0.3-0.1-0.6-0.2-0.9-0.1l-1,0.1
	L137.3,36.3z"/>
<polygon points="2.2,71.8 2.2,69.9 3.2,69.9 3.2,70.1 2.5,70.1 2.5,70.7 3.1,70.7 3.1,70.9 2.5,70.9 2.5,71.8 "/>
<path d="M4.7,71.6c-0.2,0-0.3-0.1-0.3-0.5v-0.6c0-0.4,0.3-0.4,0.3-0.4s0.4,0,0.4,0.4v0.6C5,71.5,4.9,71.6,4.7,71.6 M4.7,71.8
	c0.4,0,0.6-0.2,0.6-0.7v-0.6c0-0.3-0.2-0.6-0.5-0.6c0,0-0.1,0-0.1,0c-0.3,0-0.6,0.2-0.6,0.5c0,0,0,0.1,0,0.1v0.6
	C4.1,71.6,4.3,71.8,4.7,71.8"/>
<polygon points="7.6,69.9 7.6,71.8 7.3,71.8 6.6,70.1 6.6,70.1 6.6,71.8 6.4,71.8 6.4,69.9 6.7,69.9 7.4,71.5 7.4,71.5 7.4,69.9 "/>
<path d="M9,70.1h0.3c0.3,0,0.4,0.1,0.4,0.5V71c0,0.4-0.1,0.6-0.5,0.6H9V70.1z M8.8,71.8h0.4c0.3,0,0.5-0.1,0.6-0.2
	c0.1-0.2,0.1-0.5,0.1-0.7c0-0.2,0-0.4-0.1-0.6c-0.1-0.2-0.3-0.3-0.5-0.3H8.8L8.8,71.8z"/>
<path d="M11.9,71.1h-0.6l0.3-1l0,0L11.9,71.1z M10.9,71.8h0.2l0.1-0.5H12l0.1,0.5h0.3l-0.6-1.9h-0.3L10.9,71.8z"/>
<polygon points="14.2,69.9 14.2,70.1 13.7,70.1 13.7,71.8 13.4,71.8 13.4,70.1 12.9,70.1 12.9,69.9 "/>
<polygon points="15.1,71.8 15.1,69.9 16.1,69.9 16.1,70.1 15.3,70.1 15.3,70.7 16,70.7 16,70.9 15.3,70.9 15.3,71.5 16.1,71.5 
	16.1,71.8 "/>
<path d="M17.1,69.9h0.2v1.2c0,0.4,0.1,0.5,0.3,0.5c0.2,0,0.3-0.1,0.3-0.5v-1.2h0.2v1.2c0,0.5-0.2,0.7-0.6,0.7
	c-0.4,0-0.6-0.2-0.6-0.7L17.1,69.9z"/>
<path d="M19.6,70.1h0.3c0.1,0,0.3,0.1,0.3,0.3c0,0,0,0,0,0c0,0.2-0.1,0.3-0.3,0.3h-0.3V70.1z M19.9,70.9c0.1,0,0.3,0.1,0.3,0.2
	c0,0,0,0,0,0c0,0.2,0,0.4,0.1,0.6h0.2c0-0.2,0-0.3,0-0.5c0-0.4-0.1-0.5-0.3-0.5l0,0c0.2,0,0.4-0.2,0.3-0.4c0-0.2-0.2-0.4-0.4-0.5
	c0,0,0,0-0.1,0h-0.6v1.9h0.2v-0.9L19.9,70.9z"/>
<path d="M23.6,71.1H23l0.3-1l0,0L23.6,71.1z M22.6,71.8h0.2l0.1-0.5h0.7l0.1,0.5h0.3l-0.6-1.9h-0.3L22.6,71.8z"/>
<path d="M25.3,70.9h0.3c0.2,0,0.4,0,0.4,0.3c0,0.2-0.1,0.3-0.3,0.3c0,0,0,0,0,0h-0.3V70.9z M25.3,70.1h0.3c0.1,0,0.3,0.1,0.3,0.2
	c0,0,0,0,0,0c0,0.1-0.1,0.3-0.2,0.3c0,0,0,0-0.1,0h-0.3V70.1z M25.6,71.8c0.2,0,0.6,0,0.6-0.5c0-0.2-0.1-0.4-0.3-0.4c0,0,0,0-0.1,0
	l0,0c0.2,0,0.4-0.2,0.3-0.4c0-0.1,0-0.2-0.1-0.2c-0.1-0.1-0.2-0.2-0.4-0.2H25v1.9L25.6,71.8z"/>
<path d="M27.5,70.9h0.2c0.2,0,0.4,0,0.4,0.3c0,0.2-0.1,0.3-0.3,0.3c0,0,0,0,0,0h-0.3V70.9z M27.5,70.1h0.3c0.1,0,0.3,0.1,0.3,0.2
	c0,0,0,0,0,0.1c0,0.2-0.1,0.3-0.3,0.3h-0.3V70.1z M27.9,71.8c0.3,0,0.5-0.2,0.6-0.4c0,0,0-0.1,0-0.1c0-0.2-0.1-0.4-0.3-0.4
	c0,0,0,0,0,0l0,0c0.2,0,0.3-0.2,0.3-0.4c0-0.2-0.2-0.4-0.4-0.4c0,0-0.1,0-0.1,0h-0.6v1.9L27.9,71.8z"/>
<path d="M30.3,69.3l-0.3,0.4h-0.2l0.2-0.4H30.3z M29.6,71.8v-1.9h1v0.2h-0.7v0.6h0.7v0.2h-0.7v0.6h0.7v0.2H29.6z"/>
<path d="M33,70.1h0.3c0.1,0,0.3,0.1,0.3,0.3c0,0,0,0,0,0c0,0.2-0.1,0.3-0.3,0.3c0,0,0,0-0.1,0H33L33,70.1z M33,71.8v-0.8h0.3
	c0.3,0,0.5-0.2,0.5-0.4c0,0,0-0.1,0-0.1c0-0.4-0.3-0.5-0.5-0.5h-0.6v1.9H33z"/>
<rect x="34.9" y="69.9" width="0.2" height="1.9"/>
<polygon points="36.3,71.8 36.3,69.9 37.3,69.9 37.3,70.1 36.5,70.1 36.5,70.7 37.2,70.7 37.2,70.9 36.5,70.9 36.5,71.5 37.3,71.5 
	37.3,71.8 "/>
<path d="M38.5,70.1h0.4c0.1,0,0.3,0.1,0.3,0.3c0,0,0,0,0,0c0,0.2-0.1,0.3-0.3,0.3h-0.4V70.1z M38.8,70.9c0.1,0,0.3,0.1,0.3,0.2
	c0,0,0,0,0,0c0,0.2,0,0.4,0.1,0.6h0.2c0-0.2-0.1-0.3-0.1-0.5c0-0.4-0.1-0.5-0.3-0.5l0,0c0.2,0,0.4-0.2,0.3-0.4
	c0-0.2-0.2-0.4-0.4-0.5c0,0,0,0-0.1,0h-0.6v1.9h0.2v-0.9L38.8,70.9z"/>
<path d="M40.6,70.1H41c0.1,0,0.3,0.1,0.2,0.3c0,0,0,0,0,0c0,0.2-0.1,0.3-0.2,0.3h-0.4V70.1z M40.9,70.9c0.1,0,0.3,0.1,0.3,0.2
	c0,0,0,0,0,0c0,0.2,0,0.4,0.1,0.6h0.2c0-0.1,0-0.4,0-0.5c0-0.4-0.1-0.5-0.3-0.5l0,0c0.2,0,0.4-0.2,0.3-0.4c0-0.2-0.2-0.4-0.4-0.5
	c0,0,0,0-0.1,0h-0.6v1.9h0.2v-0.9L40.9,70.9z"/>
<polygon points="42.5,71.8 42.5,69.9 43.5,69.9 43.5,70.1 42.8,70.1 42.8,70.7 43.5,70.7 43.5,70.9 42.8,70.9 42.8,71.5 43.5,71.5 
	43.5,71.8 "/>
<path class="st6" d="M33.7,7c0,0-0.7-0.4-1,0.2c-0.3,0.6,0,0.8,0,0.8l0.4,0.6v0.7l0.2,0.7l0.3,0.3l0.1,0.6c0,0,0.5,0.4,0.6,0.7
	c0,0,0.4,0.2,0.4,0.3c0.1,0.1,0.8-0.3,1.4,0.8l0.3,0.8c0,0-0.1,0.3,0.9,0.6c0.2,0.1,0.4,0.1,0.6,0.1c0.1-0.2,0.2-0.3,0.4-0.4
	c0.3-0.2,0.6-0.3,1-0.3c0.2,0,0.6-0.2,0.6-1.4s0.1-2.6,0.1-2.6V8.3l-0.2-0.9c-0.2,0.1-0.4,0.1-0.6,0C39,7.2,39.2,7,38.9,7
	c-0.2,0-0.4,0-0.7,0c-0.2,0-0.4,0.1-0.5,0.2c-0.2,0-0.4,0-0.6,0c-0.5-0.1-1-0.2-1.5-0.1c-0.7,0.1-0.1,0.1-0.5-0.1
	c-0.3-0.2-0.6-0.2-0.9,0c-0.3,0.1-0.3,0.2-0.5,0.1"/>
<path class="st6" d="M33.6,16.3c0,0,0.5,0.1,0.4-0.3c0-0.4-0.1-0.2,0.2-0.4c0.2-0.2,0.1-0.4-0.1-0.6c-0.3-0.2-0.6-0.3-0.9-0.3
	l-0.4-0.3h-0.6c-0.3-0.1-0.5-0.3-0.7-0.5c-0.2-0.2-0.5-0.4-0.8-0.6c-0.3-0.2-0.6-0.5-0.7-0.9c-0.3-0.7-0.2-0.7-0.5-0.8
	c-0.3-0.2-0.6-0.5-0.8-0.8c-0.1-0.1-0.3-0.2-0.5-0.3c-0.3-0.3-0.5-0.7-0.7-1c-0.1-0.3-0.4-0.5-0.7-0.6c-0.1,0-0.5-0.5-0.5-0.5
	c-0.3,0-0.5,0-0.8,0c-0.1,0-0.4-0.3-0.6-0.4c-0.5-0.1-1-0.2-1.4-0.1c-0.1,0.1-0.2,0.1-0.4,0h-0.3c0,0-2.1,0.1-2.3,0
	c-0.3-0.1-0.7-0.2-1-0.3c-0.2-0.1-0.5-0.1-0.7,0c-0.2,0.1-0.5,0.1-0.7,0.1c-0.4,0-0.7-0.1-1-0.3c-0.3-0.3-0.6,0-0.7,0
	C16.3,7.1,16,7,16,7h-0.4l-0.4-0.1c0,0-0.6-0.1-0.8-0.1c-0.3-0.1-0.7-0.2-1-0.2c-0.4,0-0.6,0-0.7,0c-0.1,0-0.3,0-0.4,0.1
	c-0.1,0.1-0.8,0.4-0.8,0.4l-0.4,0.2c-0.3,0.1-0.6,0.2-0.9,0.2c-0.4,0-0.5-0.1-0.8,0.1C9.1,7.8,8.6,7.4,8.6,7.4
	C8.3,7.2,7.9,7.1,7.6,7.2c-0.4,0.1-1,0-1.3,0.5c0,0-0.3,0.2-0.2,0.5c0.1,0.3-0.3,0.4-0.3,0.4S5.6,8.7,5.6,9.3c0,0.3,0,0.6,0,0.9
	l-0.1,0.5L5,12.2c-0.1,0.3-0.2,0.7-0.2,1c0,0.4-0.1,0.9-0.2,1.3c-0.1,0.3-0.1,0.6-0.1,1c0,0.2-0.2,0.9-0.2,1.2s0.2,1.4-0.1,1.8
	c-0.1,0.4-0.2,0.9-0.1,1.3c0,0.2-0.3,0.7-0.1,1.1c0.2,0.4,0,0.6,0.1,1c0.1,0.5,0.1,0.9,0.1,1c0,0.1,0,0.9,0.3,1
	c0.1-0.2,0.3-0.4,0.5-0.4c0,0,0.3,0.1,0.4,0.5l0.2,0.3l-0.1,1c0,0.2,0,0.4-0.1,0.6c-0.1,0.1-0.1,0.7-0.1,0.7
	c-0.1,0.7-0.2,1.4-0.1,2.2c-0.2,0.5-0.4,1-0.5,1.5c0,0-0.1,0.6,0,0.8v1.2c0,0.4,0,0.8,0,1.2c0.1,0.7,0.2,1.3,0.1,2L5,35.8
	c0.1,0.5,0.2,1,0.1,1.6c-0.1,0.6-0.1,1.1,0,1.7c0.1,0.3,0.3,0.6,0.1,0.9c-0.1,0.6-0.1,1.2,0,1.8c0.1,0.6,0.2,1.2,0.1,1.8
	c0.1,0.5,0.3,0.9,0.6,1.3c0.2,0.3,0.5,0.6,0.9,0.7c0.5,0.1,1,0.2,1.4,0.2c0.8,0.1,1,0,1.4,0.3c0.2,0.1,0.4,0.1,0.6,0.1
	c0.1,0,0.6,0.5-0.2,0.7c-0.2-0.1-0.5-0.1-0.7,0c0,0-0.8-0.2-1.1,0C8,47,7.8,47,7.6,46.9c-0.5-0.1-1-0.1-1.5,0
	c-0.2,0-0.4-0.1-0.4-0.3c-0.2-0.1-0.5-0.3-0.7-0.4c-0.3-0.1-0.3-0.2-0.3-0.7c0-0.3,0-0.7-0.2-0.9c-0.1-0.2-0.2-0.5-0.2-0.8
	c0-0.1,0-0.6,0-0.6c-0.1-0.2-0.1-0.3,0-0.5c0.2-0.2,0-0.9,0-1c0-0.1-0.1-1.4-0.2-1.6c0-0.2,0-0.7,0-0.7s-0.1,0-0.1-0.7
	c0-0.3,0-0.6-0.1-1c-0.1-0.4-0.1-0.7,0-1.1C4,36.3,4,35.9,4,35.5c-0.1-0.5,0.1-0.6-0.1-1c-0.2-0.4-0.3-0.9-0.3-1.4
	c0,0-0.2-0.1-0.1-1c0,0,0.1-0.4,0.3-0.9c0-0.6,0-1.2,0.1-1.7c0-0.4,0.1-0.9,0.2-1.3c0.1-0.3,0.1-0.6,0-0.8c0,0,0.2-1.1,0.3-1.3
	c0.1-0.5,0.1-0.9-0.1-1.4c0,0-0.4,1.6-0.5,2.1v0.5l-0.1,0.2H3.5l-0.7,4.3L2.9,33v2.8l-0.5,3.1l0.2,6.6c0.2,0,0.4,0.1,0.6,0.3
	c0.2,0.2,0.4,0.5,0.5,0.7c0.2,0.2,0.3,0.4,0.3,0.6c0.1,0.5,0.6,0.9,1.2,0.8c1-0.1,0.5-0.1,0.5-0.1c0.3-0.1,0.6-0.1,0.9,0
	C7.2,47.9,7.6,48,8,48c0.3,0,0.3-0.1,0.3-0.1h1.4c0.4,0,0.7-0.1,1-0.2c0.4-0.1,0.8-0.2,1.2-0.3l0.6-0.1l1.1,0.1c0.3,0,0.6,0,0.9,0
	c0.4,0,0.9,0,1.3,0h0.6c0.5,0,1.1,0,1.6-0.1c0.2-0.1,0.4-0.1,0.6-0.1h0.9c0,0,0.5-0.1,0.7,0c0.2,0.1,0.4,0.1,0.5,0
	c0.4-0.1,0.8-0.1,1.2,0l0.5,0.3c0.4,0,0.7,0,1.1,0c0.3,0,0.5,0,0.8,0.1c0,0,0.7-0.1,0.8,0c0.1,0.1,0.5,0.1,0.7,0.1
	c0.2,0,0.6,0,0.7,0.2c0.2,0.1,0.5,0.1,0.7,0.1c0,0,0.1,0.2,0.6,0.2l0.5,0.5l3,0.2l7-0.1l1.3-0.2l1.1-0.6l0.5-1.2l0.1-4l-0.1-3.2
	c-0.2,0.5-0.6,0.8-1.1,1.1c0,0-0.5,0-0.6,1c0,0-0.3,0.4-0.7,1c-0.3,0-0.7-0.1-1-0.1c-0.1,0-0.4-0.4-0.8-0.1
	c-0.4,0.2-0.5-0.2-0.5-0.4c0-0.3-0.1-0.6-0.2-0.9c0-0.4,0-0.8,0-1.2c0-0.3,0.3-0.4,0.1-1.1c0,0-0.1-0.3,0.1-0.3c0-0.3,0-0.7,0.1-1
	c0.2-0.3,0.3-1.3,0.6-1.6c0.2-0.5,0.3-1.1,0.1-1.6c0,0,0.4,0,0.2-1.4c0,0-0.4-1,1-1.2s1.7,0,1.7,0s0.4,0.1,0.3-0.6
	c-0.1-0.7-0.1-0.4-0.3-0.4s-0.4,0.1-0.6-0.1c-0.2-0.3-0.7-0.4-1-0.2c-0.5,0.1-1,0.1-1.4-0.1c-0.3-0.2-0.6-0.3-1-0.3
	c-0.7,0-0.8-0.6-2.2-1.2c-0.3-0.3-0.5-0.6-0.5-1c0-0.5-0.2-1-0.4-1.4c-0.1-0.2-0.3-0.5-0.5-0.6l-0.2-0.1l-0.3-0.4c0,0-1,0.5-2,1.1
	c-0.2,0.2-0.5,0.3-0.8,0.4c0,0-0.1,0.4-0.8,0.5c0,0-0.9,0.1-1.2,0.2l-1,0.5l-0.9,0.1l-0.7,0.4c-0.4,0.1-0.7,0.3-0.9,0.5
	c0,0-0.3,0.3-1.4-0.1c-0.3-0.3-0.5-0.5-0.9-0.8c-0.2-0.3-0.5-0.6-0.8-0.7c-0.2-0.2-0.2-0.5-0.1-0.8l1-1c0.6-0.2,1.2-0.5,1.6-1
	l0.9-0.6l0.5-0.1c0.2-0.1,0.4-0.2,0.6-0.3c0,0,0.2-0.4,1.1-0.4c1-0.7,2.2-1,3.4-0.9c0,0,1.1,0,1.3-0.2c0.5-0.4,0.7-1.1,0.5-1.7
	l-0.1-0.8l0.1-0.8l0.2-0.7c0,0,0.2-0.7,0.5-0.8c0.3,0,0.7-0.6,0.7-0.6c0.1,0,0.3,0,0.4-0.1C33.4,16.6,33.5,16.5,33.6,16.3"/>
<path d="M23.7,4.7L24,5.3l0.1,0.5l-0.8,0.9c-0.5,0-1,0-1.5,0.1l-0.7-0.3c-0.5-0.1-0.9-0.1-1.4,0c0,0-1.2,0.2-1.5,0.2h-0.5
	c0,0-0.6-0.5-0.9-0.5c0,0-1,0.1-1.2,0.1s-0.6-0.1-0.9,0c-0.4,0-0.7,0-1.1-0.1C13.5,6,13.3,6,13,6.1c-0.3,0.1-0.7,0.1-1,0
	c-0.2,0-0.5,0-0.7,0.1c-0.4,0-0.7-0.1-1.1-0.2C10,6,9.7,6.1,9.5,6.2C8.9,6.3,8.4,6.4,7.8,6.3L7.3,6.4C7.1,6.6,6.9,6.8,6.7,6.8
	c-0.5,0-1,0-1.4,0.1c0,0-0.4,0.1-0.6,0.2c-0.3,0.1-0.6,0.1-1,0c-0.2,0-0.4,0.1-0.5,0.3C3.2,7.6,3.1,7.7,2.9,7.8c0,0-0.2-0.1-0.1,0.6
	c0,0.2,0,0.3-0.1,0.5c0,0-0.2,0.3-0.1,0.5c0.1,0.1,0.2,0.3,0.1,0.5c0,0.1,0,0.3,0,0.4c-0.1,0.3-0.2,0.5-0.1,0.8
	c-0.1,0.2-0.1,0.4-0.1,0.6c-0.1,0.2-0.1,0.4,0,0.6c0,0.1,0.1,0.2,0.1,0.3c0,0,0.1,0.4,0,0.5c0,0.2,0.1,0.5,0.2,0.7
	c0,0,0.1,0.3,0,0.4c-0.1,0.1-0.1,0.3,0,0.5c0,0.1,0,0.2,0,0.4c0,0.1,0,0.2,0.1,0.3c0,0,0,0.4,0,0.5c0,0.1,0.2,0.3,0,0.5
	c0,0.2,0,0.5,0,0.7c0.1,0.1,0.1,0.3,0.1,0.5C3,17.8,3.1,18,3.1,18.2c0,0.5,0.1,1,0.1,1.4h0.1c0,0-0.1,1.5,0,1.7c0,0-0.1,0.2,0,0.3
	l0.1,0.1c0.1,0.3,0.1,0.6,0,0.9c0,0.5,0,1,0,1.5c0.2,0.3,0.2,0.6,0.1,0.9c0,0.4,0,0.8,0,1.2l0.1,0.1v0.6c0.1,0.1,0.2,0.2,0.2,0.4
	c0,0.3,0,0.6,0,1c-0.1,0.2-0.1,0.5-0.1,0.7l-0.1,0.2c-0.1,0.2-0.1,0.5-0.1,0.7l-0.1,1v0.8c-0.1,0.2-0.1,0.4,0,0.5
	c0.1,0.3,0.1,0.7,0,1c-0.1,0.2-0.1,0.4,0,0.6c0.1,0.1,0,0.4,0.1,0.6c0.1,0.3,0.2,0.6,0.1,1c0,0,0.2,0.1,0,0.4c0,0.2,0,0.5,0,0.7
	c0,0.2-0.1,0.3-0.1,0.4c-0.1,0.2-0.2,0.2-0.2,0.4s-0.1,0.3-0.1,0.5s0,0.2,0,0.4c0,0.3,0,0.5,0,0.8c0.1,0.2,0.1,0.3,0.2,0.5
	c-0.1,0.6-0.1,1.1,0,1.7C3.1,41.5,3,41.8,3.1,42C3,42.2,3,42.4,3,42.6c0.1,0.1,0.1,0.2,0,0.3c0,0,0,0,0,0c-0.2,0.2,0,0.4,0,0.5
	c-0.1,0.4-0.2,0.8-0.1,1.2C3,44.7,3.1,44.9,3,45v0.4c0,0,0.2,0.5,0.1,0.7c-0.1,0.2,0.3,0.2,0.2,0.8l-0.1,0.5v0.5l-0.2,0.2
	c0,0,0,0.3,0.4,0.3h0.2h0.3h0.4h0.5h0.4c0.1-0.1,0.3-0.1,0.4,0c0,0,0,0,0,0h0.4v0.1c0,0,0.6,0,0.9,0l0.1,0.1c0.3,0,0.7,0,1-0.1h1
	l0.2-0.1l0.3-0.1c0.1-0.1,0.3-0.1,0.4,0c0.1,0.1,0.3,0.1,0.4,0c0.2,0,0.4,0,0.6,0l0.3,0.1c0-0.1,0.1-0.2,0.2-0.2
	c0.1,0,0.2,0.1,0.2,0.2c0,0-0.1,0.1,0.2-0.1c0.3,0,0.7,0,1,0c0.4,0,0.8,0,1.2,0c0,0,0,0.2,1,0.1h1c0.3-0.1,0.5-0.1,0.8-0.1h0.1h0.3
	c0,0,0.2-0.1,0.2,0h0.5l0.3-0.1c0.2,0,0.5,0,0.7,0c0.5-0.1,1-0.1,1.4-0.1c0.1,0.1,0.2,0.1,0.4,0.2c0.1,0.1,0.3,0.1,0.4,0
	c0,0,0.4-0.1,0.5,0s0.3-0.2,0.4,0c0.1,0.2,1.6,0,2.2,0c0,0-0.2,0.1,0.4,0c0.1,0.1,0.2,0.2,0.3,0.2l0.6,0.1l0.5,0.1h0.4h0.9h0.6h0.5
	l0.1,0.2H30l0.8-0.2h0.8l0.4-0.1h1c0.3,0,0.7,0,1,0h0.8c0.3,0,0.7,0,1,0c0.2,0.1,0.5,0,0.9-0.1c0.3-0.1,0.4-0.2,0.8,0
	c0.2,0.1,0.4,0.1,0.5,0h0.7c0.3-0.1,0.6-0.1,0.9-0.1c0.2,0.1,0.3,0,0.5-0.2l0.7-0.4l0.3-0.5c0,0,0.1,0.1,0-1.6c0,0,0-0.6,0-1.4
	c-0.1-0.5-0.1-1,0-1.5c0.1-0.4,0.2-0.9,0.1-1.3c0,0-0.2-0.5,0-0.7c0.2-0.1,0-0.5,0-0.5C41,40,40.9,39.6,41,39.3
	c-0.1-0.5-0.1-1,0-1.5v-0.7c0.1-0.4,0.2-0.9,0.4-1.3v-0.6l-0.2-0.5l0.1-0.4l0.2-0.3c0-0.1,0-0.3,0-0.4c0-0.2-0.2-0.4-0.3-0.5
	l-0.1-0.3v-0.4L41,32.1l0.1-0.1v-0.8c0,0-0.3-0.6,0.1-0.9c0.4-0.2,0.8-0.5,0.8-0.5s0.4-0.1,0.4,0.6V31l0.1,0.5
	c0.1,0.3,0.2,0.6,0.2,1c0,0.2,0,0.5,0.1,0.7l0.1,0.7l-0.1,0.5V35l-0.1,0.6v0.2v0.4l-0.2,0.6v0.6l0,0.4V38v0.8l-0.4,0.9
	c-0.1,0.2-0.1,0.4,0,0.6c0.1,0.4,0.1,0.8,0,1.2c-0.1,0.3-0.1,0.7-0.1,1c0,0.3-0.1,0.5-0.2,0.8c0,0,0,1.3,0,1.6
	c-0.1,0.4-0.1,0.7,0,1.1c0.1,0.4,0.2,0.8,0.2,1.2v0.6l-0.1,0.8L41.4,49c-0.4,0.1-0.9,0.2-1.3,0.4c-0.3,0.2-0.4,0.5-1.1,0.4
	c-0.4,0-0.9,0-1.3,0C37.2,50,36.7,50,36.1,50c-0.4,0-0.7,0.1-1.1,0.3c-0.2-0.1-0.4-0.2-0.6-0.2H34c-0.2-0.1-0.4-0.1-0.6,0
	c0,0-0.3,0.3-0.5,0c0,0-0.5,0-0.7,0.3c-0.2,0.2-0.5,0.2-0.7,0.1c0,0-0.1-0.2-0.6,0c-0.4,0-0.7,0.1-1.1,0.3c0,0-1.1,0.2-1.3-0.2
	c-0.5-0.1-0.9-0.1-1.4,0h-0.6H26l-0.7-0.1H25l-0.4-0.2H24h-0.5h-0.3h-1.3h-0.3c0,0-0.4-0.2-0.6-0.1c-0.2,0.1-0.3,0.2-0.9,0.2
	c-0.3,0-0.6-0.1-1-0.1l-0.4,0.1l-0.4-0.1h-0.5l-0.5,0.1H17l-0.3-0.5h-0.3h-0.6l-0.6-0.2c-0.3-0.1-0.6-0.1-0.9,0c0,0,0,0.1-0.5,0.1
	c-0.2,0-0.4,0-0.5,0.1c-0.2,0.1-0.4,0.1-0.6,0c-0.4-0.1-0.3-0.1-0.3-0.1c-0.2,0-0.4-0.1-0.6-0.1c0,0-0.5,0-0.7,0.2
	c-0.2,0.2-0.4,0-0.8,0L9.4,50c-0.1,0.1-0.3,0.1-0.4,0c-0.2-0.1-0.3,0-1-0.1s-0.6,0-0.7,0C7,50,6.7,50,6.4,49.9
	c-0.3-0.1-0.6-0.1-0.9-0.1L4.9,50c-0.3,0.2-0.7,0.3-1.1,0.2c-0.3,0-0.6-0.1-0.9-0.2c-0.6-0.3-1-0.4-1-0.5c0-0.1-0.1-0.2-0.6-0.4
	c0,0-0.4-0.5-0.1-0.7v-0.9V47v-1.4C1,45,1,44.4,1.2,43.8c-0.2-0.8,0-1.6,0.4-2.3v-1.4l-0.1-1l0.1-0.7l0.1-0.6l0.1-1.1l-0.2-0.1
	L1.8,36L2,35.8v-1.3l0.1-0.2v-0.6L2,33.2l0.1-0.3v-0.8c0,0,0.3,0-0.1-0.8v-0.6l-0.1-0.2v-0.7c0-0.1,0-0.3-0.1-0.4v-1
	c0,0,0-0.5-0.2-0.6v-0.5l0.1-0.1c0,0-0.2-0.6-0.4-0.6c-0.1-0.1-0.4,0.1,0.1-0.8v-0.5l0.1-0.4v-0.4v-0.4L1.2,24v-0.6v-0.2v-0.6v-0.4
	l0.2-0.3c0,0-0.2-0.8-0.2-1.1c0-0.3-0.1-0.5-0.1-0.8v-0.3V19l-0.1-0.5V18l-0.1-0.3l-0.1-0.6v-0.3l-0.1-0.4v-0.7v-0.4l-0.2-0.4v-0.4
	c0,0-0.3,0-0.2-0.2s0-0.3,0-0.3c-0.2-0.7-0.2-1.4-0.2-2.1l0.1-0.2v-0.4h0.1v-0.6l-0.2-0.4c0-0.6,0.1-1.2,0.2-1.8
	c0.1-0.5,0.2-1.1,0.2-1.7c0,0-0.1-0.8,1.1-1c0.6-0.3,1.2-0.5,1.9-0.5L3.9,5C4,4.9,4.2,4.9,4.3,5l0.3-0.1h0.6c0,0,0.2,0.3,0.9,0
	c0.2-0.1,0.5-0.2,0.7-0.2l0.5-0.2c0.6,0,1.1,0,1.7,0c0,0,0.3-0.2,0.5-0.1c0.2,0.2,0.4,0,0.6,0S10.4,4,10.6,4c0.5,0,1,0,1.5,0
	c0.5,0.1,1.1-0.1,1.3,0s0.1,0.2,0.1,0.2H14c0,0,0-0.2,0.9-0.1c0.2,0,0.4-0.1,0.5-0.1c0.5-0.1,0.9-0.1,1.4,0L17,4.2
	c0,0,1.6-0.1,1.6,0.1c0.4,0,0.9,0,1.3,0c0.3,0,0.3,0.1,0.3,0.1l0.2,0.1v0.1h0.5c0,0,0.9-0.3,1,0C21.9,4.7,23.4,4.5,23.7,4.7"/>
<path d="M39.2,14.5l1.2-0.1l0.3-0.2l0.2,0.2h1.3v-0.2h0.6v-1c0.2-0.3,0.3-0.7,0.3-1c0-0.4-0.2-0.1-0.1-0.5s0-0.5,0-0.5l-0.1-0.2
	v-0.8V9.3c0-0.3,0-0.6-0.1-0.9c-0.2-0.4-0.3-0.2-0.3-0.6c-0.1-0.7-0.1-1.5,0-2.2L42,5l-0.4-0.2l-0.3-0.4h-0.7l-0.6-0.2
	c-0.1,0.1-0.3,0-0.4-0.1c-0.2-0.2-0.6,0-0.6,0l-0.5,0.2l-0.6,0.1l-0.2-0.2l-0.4-0.1l-0.3,0.1h-0.6c-0.2,0.2-0.5,0.2-0.7,0
	C35.3,4.1,34.9,4,34.5,4l-0.9,0.1h-1h-1.2L31,4.2c0,0-0.1-0.2-0.8,0c-0.2,0-0.5,0.1-0.7,0.2h-0.4c0,0-0.4-0.3-0.5,0.3
	c-0.1,0.4-0.1,0.7,0,1.1c0,0,0.7,0.3,0.8,0.6c0,0,0.9,0.3,1.2,0.3c0.4,0,0.7,0,1.1-0.2c0.3-0.2,0.7-0.2,1,0c0.4,0.1,0.9,0.1,1.3,0
	c0.2-0.2,0.5-0.2,0.7,0c0.1,0.1,0.5,0.1,0.5,0.1h1.4c0,0,0.6-0.2,0.8,0c0.2,0.2,0.4,0,0.4,0c0.2,0,0.4,0,0.6,0.1
	c0.3,0.1,0.6,0.2,0.9,0.1c0,0,0.6-0.1,0.7,0.9c0,1,0.1,0.6,0.1,0.6v1c0,0,0,1.3,0,1.9c0,0.7-0.1,1.3-0.3,2
	C39.5,13.6,39.3,14.1,39.2,14.5"/>
<path class="st3" d="M36.6,16c0.5-0.3,1-0.5,1.6-0.5l0.5-0.4c0.2-0.2,0.5-0.2,0.8-0.2c0.4,0.1,0.2-0.1,0.3-0.2c0.1-0.1,0.5-0.5,2,0
	c1.4,0.5,0.8,0.4,0.8,0.4l0.6,0.3l0.5,0.1l0.7,0.4c0.6,0.4,1.2,1,1.5,1.7c0.2,0.3,0.3,0.7,0.4,1c0.1,0.4,0.5,0.6,0.6,1.5
	c0.1,0.8,0.2,1,0.2,1c0.1,0.4,0.1,0.8,0,1.2c-0.1,0.1-0.1,0.3,0,0.4c0,0.9-0.2,1.8-0.8,2.5c-0.9,1.3-0.7,1-0.7,1S45,26.9,45,26.9
	c-0.2,0.4-0.4,0.7-0.7,1c-0.4,0.3-0.5,0.6-1.1,0.9c-0.6,0.3-1.3,0.6-2,0.7c0,0-1.3,0-1.4,0.1c-0.3,0-0.5,0-0.7-0.1
	c-0.4,0.1-0.8,0.1-1.2,0l-0.9-0.3c-0.5-0.1-0.9-0.3-1.2-0.6c0,0-0.6-0.2-0.7-0.7c-0.1-0.4-0.4-0.4-0.4-0.4l-0.1-0.3
	c-0.8-0.8-1.4-1.7-1.7-2.8c-0.2-0.3-0.3-0.6-0.4-1c0,0-0.3-0.5-0.2-0.6c0.1-0.2-0.1-0.4-0.1-0.4v-0.4c0,0,0-0.4,0.1-0.5
	c-0.1-0.2,0-0.5,0.2-0.7c0-0.3,0.1-0.6,0.3-0.9c0-0.5,0.1-0.9,0.4-1.3c0,0,0-0.5,1.2-1.2c0.4-0.2,0.8-0.5,1.1-0.8
	c0-0.1,0.7-0.4,0.7-0.4L36.6,16z"/>
<path class="st8" d="M36.6,16c0.5-0.3,1-0.5,1.6-0.5l0.5-0.4c0.2-0.2,0.5-0.2,0.8-0.2c0.4,0.1,0.2-0.1,0.3-0.2c0.1-0.1,0.5-0.5,2,0
	c1.4,0.5,0.8,0.4,0.8,0.4l0.6,0.3l0.5,0.1l0.7,0.4c0.6,0.4,1.2,1,1.5,1.7c0.2,0.3,0.3,0.7,0.4,1c0.1,0.4,0.5,0.6,0.6,1.5
	c0.1,0.8,0.2,1,0.2,1c0.1,0.4,0.1,0.8,0,1.2c-0.1,0.1-0.1,0.3,0,0.4c0,0.9-0.2,1.8-0.8,2.5c-0.9,1.3-0.7,1-0.7,1S45,26.9,45,26.9
	c-0.2,0.4-0.4,0.7-0.7,1c-0.4,0.3-0.5,0.6-1.1,0.9c-0.6,0.3-1.3,0.6-2,0.7c0,0-1.3,0-1.4,0.1c-0.3,0-0.5,0-0.7-0.1
	c-0.4,0.1-0.8,0.1-1.2,0l-0.9-0.3c-0.5-0.1-0.9-0.3-1.2-0.6c0,0-0.6-0.2-0.7-0.7c-0.1-0.4-0.4-0.4-0.4-0.4l-0.1-0.3
	c-0.8-0.8-1.4-1.7-1.7-2.8c-0.2-0.3-0.3-0.6-0.4-1c0,0-0.3-0.5-0.2-0.6c0.1-0.2-0.1-0.4-0.1-0.4v-0.4c0,0,0-0.4,0.1-0.5
	c-0.1-0.2,0-0.5,0.2-0.7c0-0.3,0.1-0.6,0.3-0.9c0-0.5,0.1-0.9,0.4-1.3c0,0,0-0.5,1.2-1.2c0.4-0.2,0.8-0.5,1.1-0.8
	c0-0.1,0.7-0.4,0.7-0.4L36.6,16z"/>
<path class="st3" d="M35.2,13.6v-0.4l-0.1-0.2L34.8,13L34,12.2l-0.3-0.4l-0.3-0.1l-0.2-0.3l-0.1-0.2l-1.3-1.3l-0.4-0.2
	c-0.5-0.8-1.2-1.5-1.9-2.1c-0.8-0.5-0.7-0.6-0.7-0.6s-0.3-0.3-0.6-0.7l-0.4-0.3l-0.2-0.2l-0.4-0.6c-0.2-0.3-0.5-0.5-0.7-0.7
	c-0.2-0.2-0.4-0.3-0.6-0.5l-0.3-0.2c-0.4-0.2-0.8-0.2-1.1,0.2c0,0,0,0.1-0.1,0.1l0,0.4l0.1,1c0,0,0.3,0.3,0.3,0.5
	c0,0.2,1.3,1.4,1.4,1.5c0.1,0.1,0.6,0.4,0.8,0.5c0.3,0.3,0.6,0.5,1,0.7c0.3,0.2,0.6,0.5,0.9,0.8c0.4,0.5,0.8,1,1.3,1.4
	c0.2,0.2,0.5,0.4,0.6,0.6c0.4,0.2,0.7,0.6,0.8,1c0,0,0.1,0.5,0.5,0.4c0,0,0.4,0,0.5,0.2c0.1,0.2,0.5,0.2,0.7,0.1
	c0,0,0.9,0.6,1.1,0.8c0,0,0.2,0.2,0.6,0c0.1-0.2,0.2-0.3,0.3-0.5"/>
<path class="st8" d="M35.2,13.6v-0.4l-0.1-0.2L34.8,13L34,12.2l-0.3-0.4l-0.3-0.1l-0.2-0.3l-0.1-0.2l-1.3-1.3l-0.4-0.2
	c-0.5-0.8-1.2-1.5-1.9-2.1c-0.8-0.5-0.7-0.6-0.7-0.6s-0.3-0.3-0.6-0.7l-0.4-0.3l-0.2-0.2l-0.4-0.6c-0.2-0.3-0.5-0.5-0.7-0.7
	c-0.2-0.2-0.4-0.3-0.6-0.5l-0.3-0.2c-0.4-0.2-0.8-0.2-1.1,0.2c0,0,0,0.1-0.1,0.1l0,0.4l0.1,1c0,0,0.3,0.3,0.3,0.5
	c0,0.2,1.3,1.4,1.4,1.5c0.1,0.1,0.6,0.4,0.8,0.5c0.3,0.3,0.6,0.5,1,0.7c0.3,0.2,0.6,0.5,0.9,0.8c0.4,0.5,0.8,1,1.3,1.4
	c0.2,0.2,0.5,0.4,0.6,0.6c0.4,0.2,0.7,0.6,0.8,1c0,0,0.1,0.5,0.5,0.4c0,0,0.4,0,0.5,0.2c0.1,0.2,0.5,0.2,0.7,0.1
	c0,0,0.9,0.6,1.1,0.8c0,0,0.2,0.2,0.6,0C35.1,14,35.1,13.8,35.2,13.6z"/>
<path class="st3" d="M43.6,12.5l0.2-0.5c0,0,0.1-0.6,0.6-0.7c0.1-0.1,0.2-0.2,0.3-0.4c0,0,0-0.3,0.7-0.6c0.2-0.1,0.3-0.3,0.4-0.5
	c0.3-0.5,0.6-0.9,1-1.3c0.4-0.5,0.8-1,1.3-1.5c0.3-0.5,0.8-1,1.4-1.3c0,0,0.4-0.3,0.4-0.4c0.2-0.4,0.5-0.8,0.9-1l0.6-0.6
	c0,0,0-0.3,0.8-1.1l0.2-0.4c0.2-0.3,0.5-0.6,0.7-0.8c0,0,0.6-1.1,1.5-1.1c0,0,0.3,0.1,0.3,0.4s0,0.7,0,0.7c-0.2,0.4-0.5,0.7-0.8,0.9
	c-0.1,0.3-0.3,0.6-0.5,0.9l-0.5,0.4c0.1,0.3-0.1,0.6-0.4,0.7c-0.3,0.1-0.5,0.4-0.5,0.7L52,5.4c-0.2,0.2-0.3,0.4-0.5,0.6
	c-0.2,0.1-0.3,0.6-0.7,0.9c-0.1,0.3-0.3,0.6-0.6,0.9c-0.2,0.2-0.3,0.4-0.3,0.6c-0.3,0.5-0.6,0.9-0.9,1.3c-0.1,0.2-0.2,0.5-0.4,0.6
	c-0.2,0.1-0.3,0.3-0.4,0.5c-0.1,0.2-0.3,0.4-0.4,0.5c-0.3,0.3-0.5,0.6-0.5,1c0,0.3-0.2,0.5-0.4,0.7c0,0-0.7,0.6-0.7,0.8
	c0,0.1-0.9,0.1-1.3-0.1c-0.3-0.1-0.6-0.3-0.8-0.6C43.7,12.9,43.6,12.4,43.6,12.5"/>
<path class="st8" d="M43.6,12.5l0.2-0.5c0,0,0.1-0.6,0.6-0.7c0.1-0.1,0.2-0.2,0.3-0.4c0,0,0-0.3,0.7-0.6c0.2-0.1,0.3-0.3,0.4-0.5
	c0.3-0.5,0.6-0.9,1-1.3c0.4-0.5,0.8-1,1.3-1.5c0.3-0.5,0.8-1,1.4-1.3c0,0,0.4-0.3,0.4-0.4c0.2-0.4,0.5-0.8,0.9-1l0.6-0.6
	c0,0,0-0.3,0.8-1.1l0.2-0.4c0.2-0.3,0.5-0.6,0.7-0.8c0,0,0.6-1.1,1.5-1.1c0,0,0.3,0.1,0.3,0.4s0,0.7,0,0.7c-0.2,0.4-0.5,0.7-0.8,0.9
	c-0.1,0.3-0.3,0.6-0.5,0.9l-0.5,0.4c0.1,0.3-0.1,0.6-0.4,0.7c-0.3,0.1-0.5,0.4-0.5,0.7L52,5.4c-0.2,0.2-0.3,0.4-0.5,0.6
	c-0.2,0.1-0.3,0.6-0.7,0.9c-0.1,0.3-0.3,0.6-0.6,0.9c-0.2,0.2-0.3,0.4-0.3,0.6c-0.3,0.5-0.6,0.9-0.9,1.3c-0.1,0.2-0.2,0.5-0.4,0.6
	c-0.2,0.1-0.3,0.3-0.4,0.5c-0.1,0.2-0.3,0.4-0.4,0.5c-0.3,0.3-0.5,0.6-0.5,1c0,0.3-0.2,0.5-0.4,0.7c0,0-0.7,0.6-0.7,0.8
	c0,0.1-0.9,0.1-1.3-0.1c-0.3-0.1-0.6-0.3-0.8-0.6C43.8,12.9,43.6,12.5,43.6,12.5z"/>
<path class="st3" d="M49.1,23.2l0.1-0.3l0.1-0.5c0,0,0.1-0.2,0.8-0.2l0.3-0.2l0.4-0.1c0.2-0.1,0.4-0.1,0.5-0.1c0,0,0.1-0.2,0.6-0.1
	l0.2-0.2c0.2-0.1,0.4-0.1,0.6,0c0,0,0.1-0.3,0.5-0.2c0.1,0,0.3-0.1,0.4-0.1c0.1-0.1,0.6-0.7,1.3-0.6l0.5-0.2c0,0,0-0.2,0.2,0h0.4
	l0.6-0.2l0.8-0.3l0.5-0.3l0.5-0.1c0,0-0.1-0.5,0.4-0.1c0.2-0.2,0.6-0.2,0.8-0.1l0.4-0.1l1-0.3c0,0,1.4-0.7,1,1c0,0-0.2,0.4-1.2,0.6
	l-1,0.1l-0.4,0.4c-0.4,0-0.8,0.1-1.1,0.4c-0.4,0.3-0.8,0.5-1.3,0.5c-0.2,0.1-1.2,0.4-1.7,0.7c-0.5-0.1-1,0.1-1.5,0.4
	c-0.4,0.2-0.8,0.3-1.2,0.5c-0.4,0.1-0.9-0.1-1.4,0.4c0,0-0.6,0.3-1.3,0.7h-0.9c0,0-0.8-0.4-0.4-0.8L49.1,23.2z"/>
<path class="st8" d="M49.1,23.2l0.1-0.3l0.1-0.5c0,0,0.1-0.2,0.8-0.2l0.3-0.2l0.4-0.1c0.2-0.1,0.4-0.1,0.5-0.1c0,0,0.1-0.2,0.6-0.1
	l0.2-0.2c0.2-0.1,0.4-0.1,0.6,0c0,0,0.1-0.3,0.5-0.2c0.1,0,0.3-0.1,0.4-0.1c0.1-0.1,0.6-0.7,1.3-0.6l0.5-0.2c0,0,0-0.2,0.2,0h0.4
	l0.6-0.2l0.8-0.3l0.5-0.3l0.5-0.1c0,0-0.1-0.5,0.4-0.1c0.2-0.2,0.6-0.2,0.8-0.1l0.4-0.1l1-0.3c0,0,1.4-0.7,1,1c0,0-0.2,0.4-1.2,0.6
	l-1,0.1l-0.4,0.4c-0.4,0-0.8,0.1-1.1,0.4c-0.4,0.3-0.8,0.5-1.3,0.5c-0.2,0.1-1.2,0.4-1.7,0.7c-0.5-0.1-1,0.1-1.5,0.4
	c-0.4,0.2-0.8,0.3-1.2,0.5c-0.4,0.1-0.9-0.1-1.4,0.4c0,0-0.6,0.3-1.3,0.7h-0.9c0,0-0.8-0.4-0.4-0.8L49.1,23.2z"/>
<path class="st3" d="M46.4,29.6h1.3c0,0,0.8,0.3,1,0.8c0,0,1.1,0.8,1.2,1.1c0.5,0.3,1,0.6,1.4,1c0.7,0.4,1.4,0.9,2.1,1.5l0.7,0.5
	c0.2,0,0.5,0.1,0.6,0.4c0.1,0.3,0.4,0.3,0.5,0.4c0.1,0.1,1.2,0.7,1.3,0.8c0.1,0.1,1.5,0.8,1.2,1.4c0,0,0.1,0.8-1.4,0.5
	c-0.4-0.2-0.8-0.4-1.3-0.5l-0.4-0.1l-1-0.6c-0.2-0.2-0.4-0.4-0.7-0.5c-0.2-0.1-0.3-0.2-0.5-0.3l-0.3-0.3l-0.4-0.2L51.3,35L51,34.7
	l-0.4-0.2c-0.3-0.2-0.5-0.5-0.7-0.7c-0.4-0.3-0.8-0.6-1.1-0.9c-0.2-0.1-0.5-0.3-0.6-0.5c0,0-0.9,0-1-0.4l-0.9-0.5
	c0,0-0.5-1.1-0.3-1.3C46.1,30,46.2,29.7,46.4,29.6"/>
<path class="st8" d="M46.4,29.6h1.3c0,0,0.8,0.3,1,0.8c0,0,1.1,0.8,1.2,1.1c0.5,0.3,1,0.6,1.4,1c0.7,0.4,1.4,0.9,2.1,1.5l0.7,0.5
	c0.2,0,0.5,0.1,0.6,0.4c0.1,0.3,0.4,0.3,0.5,0.4c0.1,0.1,1.2,0.7,1.3,0.8c0.1,0.1,1.5,0.8,1.2,1.4c0,0,0.1,0.8-1.4,0.5
	c-0.4-0.2-0.8-0.4-1.3-0.5l-0.4-0.1l-1-0.6c-0.2-0.2-0.4-0.4-0.7-0.5c-0.2-0.1-0.3-0.2-0.5-0.3l-0.3-0.3l-0.4-0.2L51.3,35L51,34.7
	l-0.4-0.2c-0.3-0.2-0.5-0.5-0.7-0.7c-0.4-0.3-0.8-0.6-1.1-0.9c-0.2-0.1-0.5-0.3-0.6-0.5c0,0-0.9,0-1-0.4l-0.9-0.5
	c0,0-0.5-1.1-0.3-1.3C46,30,46.2,29.7,46.4,29.6z"/>
<path class="st3" d="M40.6,34.1c0,0,0.2-0.4,0.4-0.4c0,0,0.1-0.8-0.5-0.9c0,0-0.8-0.2-1.1,0c-0.1,0.2-0.3,0.3-0.5,0.4
	c0,0-0.4,0-0.5,0.9c-0.1,0.2-0.2,0.4-0.3,0.6c0,0,0.3,0.2,0,0.7L38,35.8v0.6c-0.1,0.4-0.1,0.7,0,1.1c-0.2,0.2-0.3,0.5-0.3,0.8
	c0,0-0.3,1.1-0.3,1.3c0,0.5,0,0.9,0,1.4c0,0,0,0.5,0.7,0.6l0.4-0.2l0.4-0.1c0.1-1.3,0.4-2.6,0.9-3.9c0.1-0.5,0.3-1.1,0.4-1.6
	C40.2,35.3,40.4,34.7,40.6,34.1"/>
<path class="st8" d="M40.6,34.1c0,0,0.2-0.4,0.4-0.4c0,0,0.1-0.8-0.5-0.9c0,0-0.8-0.2-1.1,0c-0.1,0.2-0.3,0.3-0.5,0.4
	c0,0-0.4,0-0.5,0.9c-0.1,0.2-0.2,0.4-0.3,0.6c0,0,0.3,0.2,0,0.7L38,35.8v0.6c-0.1,0.4-0.1,0.7,0,1.1c-0.2,0.2-0.3,0.5-0.3,0.8
	c0,0-0.3,1.1-0.3,1.3c0,0.5,0,0.9,0,1.4c0,0,0,0.5,0.7,0.6l0.4-0.2l0.4-0.1c0.1-1.3,0.4-2.6,0.9-3.9c0.1-0.5,0.3-1.1,0.4-1.6
	C40.2,35.3,40.4,34.7,40.6,34.1z"/>
<path class="st3" d="M31.1,24.3l-0.2,0.3l-0.5,0.6l-0.7,0.1h-1v0.2c-0.4,0-0.8,0.2-1,0.5c-0.3,0.3-0.7,0.5-1.1,0.7l-0.6,0.4
	l-0.6,0.1c-0.3,0-0.6,0-0.9,0.1c-0.3,0.2-0.6,0.3-0.9,0.4c-0.1,0-0.1,0.3-0.6,0.1l-0.6-0.1c0,0-0.5-0.2-0.5-0.4
	c0-0.1-0.1-0.3-0.2-0.4c0,0-0.5-1.2,0.6-1.3c0,0,0.2-0.3,1.6-0.3c0,0,0.1,0.3,0.6-0.4c0.3-0.3,0.6-0.5,0.9-0.7
	c0.3-0.1,0.6-0.2,0.8-0.3l0.9-0.5l0.8-0.2c0.4-0.3,0.9-0.4,1.3-0.1l0.5-0.1c0,0,0.5-0.2,0.8,0.1S31,23.4,31.1,24.3"/>
<path class="st8" d="M31.1,24.3l-0.2,0.3l-0.5,0.6l-0.7,0.1h-1v0.2c-0.4,0-0.8,0.2-1,0.5c-0.3,0.3-0.7,0.5-1.1,0.7l-0.6,0.4
	l-0.6,0.1c-0.3,0-0.6,0-0.9,0.1c-0.3,0.2-0.6,0.3-0.9,0.4c-0.1,0-0.1,0.3-0.6,0.1l-0.6-0.1c0,0-0.5-0.2-0.5-0.4
	c0-0.1-0.1-0.3-0.2-0.4c0,0-0.5-1.2,0.6-1.3c0,0,0.2-0.3,1.6-0.3c0,0,0.1,0.3,0.6-0.4c0.3-0.3,0.6-0.5,0.9-0.7
	c0.3-0.1,0.6-0.2,0.8-0.3l0.9-0.5l0.8-0.2c0.4-0.3,0.9-0.4,1.3-0.1l0.5-0.1c0,0,0.5-0.2,0.8,0.1S31,23.4,31.1,24.3z"/>
<polygon points="2.3,60.4 2.3,53 7,53 7,54 3.4,54 3.4,56.2 6.5,56.2 6.5,57.2 3.4,57.2 3.4,59.4 7,59.4 7,60.4 "/>
<polygon points="13.9,60.4 13.9,55.5 12.3,59 11.4,59 9.7,55.5 9.7,60.4 8.6,60.4 8.6,53 9.7,53 11.8,57.6 13.9,53 15.1,53 
	15.1,60.4 "/>
<polygon points="22.4,60.4 22.4,55.5 20.7,59 19.8,59 18.1,55.5 18.1,60.4 17,60.4 17,53 18.1,53 20.3,57.6 22.4,53 23.5,53 
	23.5,60.4 "/>
<path d="M29.6,60.4l-0.5-1.5h-2.9l-0.5,1.5h-1.2l2.7-7.4h0.9l2.8,7.4H29.6z M27.7,54.7l-1.2,3.3h2.3L27.7,54.7z"/>
<path d="M34.4,60.5c-1.4,0.1-2.6-1-2.6-2.4c0-0.1,0-0.2,0-0.2V53h1.1v4.8c0,0.8,0.7,1.5,1.5,1.5c0.8,0,1.5-0.7,1.5-1.5V53h1.1v4.9
	C37.1,59.3,35.9,60.5,34.4,60.5C34.5,60.5,34.4,60.5,34.4,60.5 M32.8,51.1h1v1.1h-1V51.1z M35.1,51.1h1v1.1h-1L35.1,51.1z"/>
<path d="M40.8,60.5c-1,0.1-1.9-0.3-2.6-1l0.7-0.7c0.5,0.5,1.2,0.8,1.9,0.7c1,0,1.5-0.4,1.5-1.1c0-0.3-0.1-0.6-0.3-0.8
	c-0.2-0.2-0.5-0.3-0.8-0.3l-0.9-0.1c-0.5-0.1-1-0.3-1.4-0.6c-0.4-0.4-0.6-0.9-0.5-1.4c0-1.2,1-2.2,2.2-2.2c0.1,0,0.2,0,0.3,0
	c0.8,0,1.7,0.3,2.3,0.8l-0.7,0.7c-0.4-0.4-1-0.6-1.6-0.6c-0.9,0-1.3,0.5-1.3,1.2c0,0.3,0.1,0.5,0.3,0.7c0.2,0.2,0.5,0.3,0.8,0.3
	l0.8,0.1c0.5,0,1,0.2,1.4,0.5c0.4,0.4,0.6,0.9,0.6,1.5C43.5,59.7,42.4,60.5,40.8,60.5"/>
<polygon points="3.1,61.9 3.1,64.8 6.3,64.8 6.3,65.3 3.1,65.3 3.1,68.6 2.5,68.6 2.5,61.4 6.9,61.4 6.9,61.9 "/>
<path d="M13.4,68.6l-1.7-3.3h-2v3.3H9.1v-7.2h2.7c1-0.1,1.9,0.7,2,1.7c0,0.1,0,0.2,0,0.2c0.1,1-0.7,1.8-1.7,1.9l1.7,3.3H13.4z
	 M11.8,61.9H9.7v2.9h2.1c0.8,0,1.4-0.6,1.4-1.4C13.2,62.6,12.6,61.9,11.8,61.9L11.8,61.9"/>
<path d="M20.8,68.6l-0.6-1.7h-3.3l-0.6,1.7h-0.6l2.6-7.2h0.5l2.6,7.2H20.8z M18.5,62.1L17,66.3h3L18.5,62.1z"/>
<polygon points="28.1,68.6 24,62.4 24,68.6 23.4,68.6 23.4,61.4 24,61.4 28.1,67.6 28.1,61.4 28.7,61.4 28.7,68.6 "/>
<path d="M33.9,68.6c-0.7,0-1.3-0.3-1.8-0.7c-0.7-0.7-0.7-1.3-0.7-2.9c0-1.6,0-2.3,0.7-2.9c0.5-0.5,1.1-0.7,1.8-0.7
	c1.2,0,2.3,0.9,2.4,2.1h-0.6c-0.1-0.9-0.9-1.6-1.9-1.6c-0.5,0-1,0.2-1.4,0.6c-0.5,0.5-0.6,1.1-0.6,2.6c0,1.5,0,2.1,0.6,2.6
	c0.8,0.7,2,0.7,2.7,0c0.3-0.3,0.4-0.6,0.5-1h0.5C36.1,67.7,35.1,68.6,33.9,68.6"/>
<polygon points="39,68.6 39,61.4 43.3,61.4 43.3,61.9 39.5,61.9 39.5,64.7 42.8,64.7 42.8,65.2 39.5,65.2 39.5,68.1 43.3,68.1 
	43.3,68.6 "/>
</svg>
