<svg width="298" height="46" viewBox="0 0 298 46" fill="none" xmlns="http://www.w3.org/2000/svg">
<rect width="298" height="40" transform="translate(0 6)" fill="white"/>
<rect width="40" height="40" transform="translate(0 6)" fill="white"/>
<rect width="21.7176" height="24.5241" transform="translate(9.078 18.2424)" fill="white"/>
<circle cx="19.9405" cy="26.3584" r="8.0568" transform="rotate(0.422522 19.9405 26.3584)" fill="#FFCB60"/>
<path d="M20.0164 21.1285L20.2579 30.7439L25.3954 22.6124L20.7968 31.0604L29.3118 26.587L21.1053 31.6039L30.7162 31.9873L21.1007 32.2288L29.2323 37.3663L20.7842 32.7677L25.2577 41.2827L20.2407 33.0762L19.8574 42.6871L19.6158 33.0716L14.4784 41.2032L19.0769 32.7552L10.562 37.2286L18.7684 32.2116L9.15757 31.8283L18.773 31.5867L10.6415 26.4493L19.0895 31.0478L14.6161 22.5329L19.633 30.7393L20.0164 21.1285Z" fill="white"/>
<path d="M17.8864 24.0868L19.9279 31.0058L22.0713 24.1177L20.3798 31.1304L25.68 26.2368L20.7088 31.4643L27.7457 29.8764L20.8267 31.9179L27.7148 34.0612L20.7021 32.3697L25.5957 37.67L20.3682 32.6987L21.9561 39.7357L19.9146 32.8167L17.7713 39.7048L19.4628 32.692L14.1625 37.5857L19.1338 32.3582L12.0968 33.9461L19.0158 31.9045L12.1277 29.7612L19.1405 31.4527L14.2468 26.1525L19.4743 31.1237L17.8864 24.0868Z" fill="white"/>
<circle cx="19.9368" cy="31.9078" r="4.31184" transform="rotate(0.422522 19.9368 31.9078)" fill="white"/>
<path d="M0.474563 11.7603C1.65407 11.7497 2.41048 11.741 2.87777 11.7342C2.74701 11.7103 4.45096 11.7112 2.87777 11.7342C2.95236 11.7478 3.62404 11.7695 5.84183 11.7999L15.9394 10.4776C20.0061 11.3075 22.2603 11.9419 26.2388 13.3471C26.7609 13.1789 29.0898 16.6196 32.0052 20.6063C32.3033 21.0509 32.372 22.5314 32.4313 25.9637C32.4023 26.4502 32.0583 26.2878 30.8846 25.2539L29.6774 20.5891C27.4806 18.8229 25.8661 17.6186 25.2825 16.7544C23.0626 15.9957 21.7451 15.6253 19.2422 15.0803C18.4447 15.2098 17.9054 15.4065 16.5954 16.2247C17.3527 17.5769 18.5287 18.3601 20.2166 19.7434L23.6957 21.4762C24.2669 22.0027 24.2786 22.3566 24.0723 23.0309C23.7894 23.7209 23.5422 23.8513 23.0567 23.9546C17.3762 22.3684 14.0089 21.3572 7.65031 19.1075L0.47456 20.5891L0.474563 11.7603Z" fill="#008080"/>
<path d="M39.5851 40.4675C38.4056 40.4781 37.6492 40.4868 37.1819 40.4936C37.3127 40.5175 35.6087 40.5166 37.1819 40.4936C37.1073 40.48 36.4357 40.4583 34.2179 40.4279L24.1203 41.7502C20.0536 40.9203 17.7994 40.2859 13.8208 38.8807C13.2988 39.0489 10.9698 35.6082 8.05448 31.6215C7.7564 31.1769 7.68768 29.6964 7.6284 26.2641C7.65734 25.7776 8.00136 25.94 9.17513 26.9739L10.3823 31.6387C12.579 33.4049 14.1936 34.6092 14.7772 35.4734C16.9971 36.2321 18.3146 36.6025 20.8175 37.1475C21.6149 37.018 22.1543 36.8213 23.4643 36.0031C22.707 34.6509 21.531 33.8677 19.8431 32.4844L16.364 30.7516C15.7927 30.2251 15.7811 29.8712 15.9874 29.1969C16.2703 28.5069 16.5175 28.3765 17.003 28.2732C22.6835 29.8594 26.0508 30.8707 32.4094 33.1203L39.5851 31.6387L39.5851 40.4675Z" fill="#008080"/>
<path d="M58.656 31V8.6H69.6C72.416 8.6 74.528 9.13333 75.936 10.2C77.3653 11.2667 78.08 12.6747 78.08 14.424C78.08 15.5973 77.792 16.6213 77.216 17.496C76.64 18.3493 75.8507 19.0107 74.848 19.48C73.8453 19.9493 72.6933 20.184 71.392 20.184L72 18.872C73.408 18.872 74.656 19.1067 75.744 19.576C76.832 20.024 77.6747 20.696 78.272 21.592C78.8907 22.488 79.2 23.5867 79.2 24.888C79.2 26.808 78.4427 28.312 76.928 29.4C75.4133 30.4667 73.184 31 70.24 31H58.656ZM63.808 27.096H69.856C71.2 27.096 72.2133 26.8827 72.896 26.456C73.6 26.008 73.952 25.304 73.952 24.344C73.952 23.4053 73.6 22.712 72.896 22.264C72.2133 21.7947 71.2 21.56 69.856 21.56H63.424V17.784H68.96C70.2187 17.784 71.1787 17.5707 71.84 17.144C72.5227 16.696 72.864 16.024 72.864 15.128C72.864 14.2533 72.5227 13.6027 71.84 13.176C71.1787 12.728 70.2187 12.504 68.96 12.504H63.808V27.096ZM91.3168 31.256C89.3541 31.256 87.6261 30.872 86.1328 30.104C84.6608 29.336 83.5194 28.2907 82.7088 26.968C81.8981 25.624 81.4928 24.0987 81.4928 22.392C81.4928 20.664 81.8874 19.1387 82.6768 17.816C83.4874 16.472 84.5861 15.4267 85.9728 14.68C87.3594 13.912 88.9274 13.528 90.6768 13.528C92.3621 13.528 93.8768 13.8907 95.2208 14.616C96.5861 15.32 97.6634 16.344 98.4528 17.688C99.2421 19.0107 99.6368 20.6 99.6368 22.456C99.6368 22.648 99.6261 22.872 99.6048 23.128C99.5834 23.3627 99.5621 23.5867 99.5408 23.8H85.5568V20.888H96.9167L94.9968 21.752C94.9968 20.856 94.8154 20.0773 94.4528 19.416C94.0901 18.7547 93.5888 18.2427 92.9488 17.88C92.3088 17.496 91.5621 17.304 90.7088 17.304C89.8554 17.304 89.0981 17.496 88.4368 17.88C87.7968 18.2427 87.2954 18.7653 86.9328 19.448C86.5701 20.1093 86.3888 20.8987 86.3888 21.816V22.584C86.3888 23.5227 86.5914 24.3547 86.9968 25.08C87.4234 25.784 88.0101 26.328 88.7568 26.712C89.5248 27.0747 90.4208 27.256 91.4448 27.256C92.3621 27.256 93.1621 27.1173 93.8448 26.84C94.5488 26.5627 95.1888 26.1467 95.7648 25.592L98.4208 28.472C97.6314 29.368 96.6394 30.0613 95.4448 30.552C94.2501 31.0213 92.8741 31.256 91.3168 31.256ZM113.424 13.528C114.79 13.528 116.006 13.8053 117.072 14.36C118.16 14.8933 119.014 15.7253 119.632 16.856C120.251 17.9653 120.56 19.3947 120.56 21.144V31H115.568V21.912C115.568 20.5253 115.259 19.5013 114.64 18.84C114.043 18.1787 113.19 17.848 112.08 17.848C111.291 17.848 110.576 18.0187 109.936 18.36C109.318 18.68 108.827 19.1813 108.464 19.864C108.123 20.5467 107.952 21.4213 107.952 22.488V31H102.96V13.784H107.728V18.552L106.832 17.112C107.451 15.96 108.336 15.0747 109.488 14.456C110.64 13.8373 111.952 13.528 113.424 13.528ZM133.754 31.256C131.792 31.256 130.064 30.872 128.57 30.104C127.098 29.336 125.957 28.2907 125.146 26.968C124.336 25.624 123.93 24.0987 123.93 22.392C123.93 20.664 124.325 19.1387 125.114 17.816C125.925 16.472 127.024 15.4267 128.41 14.68C129.797 13.912 131.365 13.528 133.114 13.528C134.8 13.528 136.314 13.8907 137.658 14.616C139.024 15.32 140.101 16.344 140.89 17.688C141.68 19.0107 142.074 20.6 142.074 22.456C142.074 22.648 142.064 22.872 142.042 23.128C142.021 23.3627 142 23.5867 141.978 23.8H127.994V20.888H139.354L137.434 21.752C137.434 20.856 137.253 20.0773 136.89 19.416C136.528 18.7547 136.026 18.2427 135.386 17.88C134.746 17.496 134 17.304 133.146 17.304C132.293 17.304 131.536 17.496 130.874 17.88C130.234 18.2427 129.733 18.7653 129.37 19.448C129.008 20.1093 128.826 20.8987 128.826 21.816V22.584C128.826 23.5227 129.029 24.3547 129.434 25.08C129.861 25.784 130.448 26.328 131.194 26.712C131.962 27.0747 132.858 27.256 133.882 27.256C134.8 27.256 135.6 27.1173 136.282 26.84C136.986 26.5627 137.626 26.1467 138.202 25.592L140.858 28.472C140.069 29.368 139.077 30.0613 137.882 30.552C136.688 31.0213 135.312 31.256 133.754 31.256ZM146.006 31V13.4C146.006 11.4587 146.582 9.912 147.734 8.76C148.886 7.58666 150.528 7 152.662 7C153.387 7 154.08 7.07467 154.742 7.224C155.424 7.37333 156 7.608 156.47 7.928L155.158 11.544C154.88 11.352 154.571 11.2027 154.23 11.096C153.888 10.9893 153.526 10.936 153.142 10.936C152.416 10.936 151.851 11.1493 151.446 11.576C151.062 11.9813 150.87 12.6 150.87 13.432V15.032L150.998 17.176V31H146.006ZM143.35 18.008V14.168H155.286V18.008H143.35ZM168.02 31V27.64L167.7 26.904V20.888C167.7 19.8213 167.37 18.9893 166.708 18.392C166.068 17.7947 165.076 17.496 163.732 17.496C162.815 17.496 161.908 17.6453 161.012 17.944C160.138 18.2213 159.391 18.6053 158.772 19.096L156.98 15.608C157.919 14.9467 159.05 14.4347 160.372 14.072C161.695 13.7093 163.039 13.528 164.404 13.528C167.028 13.528 169.066 14.1467 170.516 15.384C171.967 16.6213 172.692 18.552 172.692 21.176V31H168.02ZM162.772 31.256C161.428 31.256 160.276 31.032 159.316 30.584C158.356 30.1147 157.62 29.4853 157.108 28.696C156.596 27.9067 156.34 27.0213 156.34 26.04C156.34 25.016 156.586 24.12 157.076 23.352C157.588 22.584 158.388 21.9867 159.476 21.56C160.564 21.112 161.983 20.888 163.732 20.888H168.308V23.8H164.276C163.103 23.8 162.292 23.992 161.844 24.376C161.418 24.76 161.204 25.24 161.204 25.816C161.204 26.456 161.45 26.968 161.94 27.352C162.452 27.7147 163.146 27.896 164.02 27.896C164.852 27.896 165.599 27.704 166.26 27.32C166.922 26.9147 167.402 26.328 167.7 25.56L168.468 27.864C168.106 28.9733 167.444 29.816 166.484 30.392C165.524 30.968 164.287 31.256 162.772 31.256ZM185.655 31.256C183.799 31.256 182.146 30.8827 180.695 30.136C179.245 29.368 178.103 28.312 177.271 26.968C176.461 25.624 176.055 24.0987 176.055 22.392C176.055 20.664 176.461 19.1387 177.271 17.816C178.103 16.472 179.245 15.4267 180.695 14.68C182.146 13.912 183.799 13.528 185.655 13.528C187.469 13.528 189.047 13.912 190.391 14.68C191.735 15.4267 192.727 16.504 193.367 17.912L189.495 19.992C189.047 19.1813 188.482 18.584 187.799 18.2C187.138 17.816 186.413 17.624 185.623 17.624C184.77 17.624 184.002 17.816 183.319 18.2C182.637 18.584 182.093 19.128 181.687 19.832C181.303 20.536 181.111 21.3893 181.111 22.392C181.111 23.3947 181.303 24.248 181.687 24.952C182.093 25.656 182.637 26.2 183.319 26.584C184.002 26.968 184.77 27.16 185.623 27.16C186.413 27.16 187.138 26.9787 187.799 26.616C188.482 26.232 189.047 25.624 189.495 24.792L193.367 26.904C192.727 28.2907 191.735 29.368 190.391 30.136C189.047 30.8827 187.469 31.256 185.655 31.256ZM203.532 31.256C201.505 31.256 199.926 30.744 198.796 29.72C197.665 28.6747 197.1 27.128 197.1 25.08V9.976H202.092V25.016C202.092 25.7413 202.284 26.3067 202.668 26.712C203.052 27.096 203.574 27.288 204.236 27.288C205.025 27.288 205.697 27.0747 206.252 26.648L207.596 30.168C207.084 30.5307 206.465 30.808 205.74 31C205.036 31.1707 204.3 31.256 203.532 31.256ZM194.444 18.008V14.168H206.38V18.008H194.444ZM218.059 31.256C216.224 31.256 214.592 30.872 213.163 30.104C211.755 29.336 210.635 28.2907 209.803 26.968C208.992 25.624 208.587 24.0987 208.587 22.392C208.587 20.664 208.992 19.1387 209.803 17.816C210.635 16.472 211.755 15.4267 213.163 14.68C214.592 13.912 216.224 13.528 218.059 13.528C219.872 13.528 221.493 13.912 222.923 14.68C224.352 15.4267 225.472 16.4613 226.283 17.784C227.093 19.1067 227.499 20.6427 227.499 22.392C227.499 24.0987 227.093 25.624 226.283 26.968C225.472 28.2907 224.352 29.336 222.923 30.104C221.493 30.872 219.872 31.256 218.059 31.256ZM218.059 27.16C218.891 27.16 219.637 26.968 220.299 26.584C220.96 26.2 221.483 25.656 221.867 24.952C222.251 24.2267 222.443 23.3733 222.443 22.392C222.443 21.3893 222.251 20.536 221.867 19.832C221.483 19.128 220.96 18.584 220.299 18.2C219.637 17.816 218.891 17.624 218.059 17.624C217.227 17.624 216.48 17.816 215.819 18.2C215.157 18.584 214.624 19.128 214.219 19.832C213.835 20.536 213.643 21.3893 213.643 22.392C213.643 23.3733 213.835 24.2267 214.219 24.952C214.624 25.656 215.157 26.2 215.819 26.584C216.48 26.968 217.227 27.16 218.059 27.16ZM230.835 31V13.784H235.603V18.648L234.931 17.24C235.443 16.024 236.265 15.1067 237.395 14.488C238.526 13.848 239.902 13.528 241.523 13.528V18.136C241.31 18.1147 241.118 18.104 240.947 18.104C240.777 18.0827 240.595 18.072 240.403 18.072C239.038 18.072 237.929 18.4667 237.075 19.256C236.243 20.024 235.827 21.2293 235.827 22.872V31H230.835ZM251.881 31.256C250.451 31.256 249.171 30.9787 248.041 30.424C246.931 29.8693 246.067 29.0267 245.449 27.896C244.83 26.744 244.521 25.2827 244.521 23.512V13.784H249.513V22.776C249.513 24.2053 249.811 25.2613 250.409 25.944C251.027 26.6053 251.891 26.936 253.001 26.936C253.769 26.936 254.451 26.776 255.049 26.456C255.646 26.1147 256.115 25.6027 256.457 24.92C256.798 24.216 256.969 23.3413 256.969 22.296V13.784H261.961V31H257.225V26.264L258.089 27.64C257.513 28.8347 256.659 29.7413 255.529 30.36C254.419 30.9573 253.203 31.256 251.881 31.256ZM288.633 13.528C289.999 13.528 291.204 13.8053 292.249 14.36C293.316 14.8933 294.148 15.7253 294.745 16.856C295.364 17.9653 295.673 19.3947 295.673 21.144V31H290.681V21.912C290.681 20.5253 290.393 19.5013 289.817 18.84C289.241 18.1787 288.431 17.848 287.385 17.848C286.66 17.848 286.009 18.0187 285.433 18.36C284.857 18.68 284.409 19.1707 284.089 19.832C283.769 20.4933 283.609 21.336 283.609 22.36V31H278.617V21.912C278.617 20.5253 278.329 19.5013 277.753 18.84C277.199 18.1787 276.399 17.848 275.353 17.848C274.628 17.848 273.977 18.0187 273.401 18.36C272.825 18.68 272.377 19.1707 272.057 19.832C271.737 20.4933 271.577 21.336 271.577 22.36V31H266.585V13.784H271.353V18.488L270.457 17.112C271.055 15.9387 271.897 15.0533 272.985 14.456C274.095 13.8373 275.353 13.528 276.761 13.528C278.34 13.528 279.716 13.9333 280.889 14.744C282.084 15.5333 282.873 16.7493 283.257 18.392L281.497 17.912C282.073 16.568 282.991 15.5013 284.249 14.712C285.529 13.9227 286.991 13.528 288.633 13.528Z" fill="#003333"/>
<path d="M126.368 43V34.6H127.256V42.232H131.96V43H126.368ZM137.202 43V41.608L137.166 41.38V39.052C137.166 38.516 137.014 38.104 136.71 37.816C136.414 37.528 135.97 37.384 135.378 37.384C134.97 37.384 134.582 37.452 134.214 37.588C133.846 37.724 133.534 37.904 133.278 38.128L132.894 37.492C133.214 37.22 133.598 37.012 134.046 36.868C134.494 36.716 134.966 36.64 135.462 36.64C136.278 36.64 136.906 36.844 137.346 37.252C137.794 37.652 138.018 38.264 138.018 39.088V43H137.202ZM135.03 43.06C134.558 43.06 134.146 42.984 133.794 42.832C133.45 42.672 133.186 42.456 133.002 42.184C132.818 41.904 132.726 41.584 132.726 41.224C132.726 40.896 132.802 40.6 132.954 40.336C133.114 40.064 133.37 39.848 133.722 39.688C134.082 39.52 134.562 39.436 135.162 39.436H137.334V40.072H135.186C134.578 40.072 134.154 40.18 133.914 40.396C133.682 40.612 133.566 40.88 133.566 41.2C133.566 41.56 133.706 41.848 133.986 42.064C134.266 42.28 134.658 42.388 135.162 42.388C135.642 42.388 136.054 42.28 136.398 42.064C136.75 41.84 137.006 41.52 137.166 41.104L137.358 41.692C137.198 42.108 136.918 42.44 136.518 42.688C136.126 42.936 135.63 43.06 135.03 43.06ZM146.725 43.06C146.181 43.06 145.689 42.936 145.249 42.688C144.809 42.432 144.457 42.068 144.193 41.596C143.937 41.116 143.809 40.532 143.809 39.844C143.809 39.156 143.937 38.576 144.193 38.104C144.449 37.624 144.797 37.26 145.237 37.012C145.677 36.764 146.173 36.64 146.725 36.64C147.325 36.64 147.861 36.776 148.333 37.048C148.813 37.312 149.189 37.688 149.461 38.176C149.733 38.656 149.869 39.212 149.869 39.844C149.869 40.484 149.733 41.044 149.461 41.524C149.189 42.004 148.813 42.38 148.333 42.652C147.861 42.924 147.325 43.06 146.725 43.06ZM143.473 45.328V36.7H144.289V38.596L144.205 39.856L144.325 41.128V45.328H143.473ZM146.665 42.304C147.113 42.304 147.513 42.204 147.865 42.004C148.217 41.796 148.497 41.508 148.705 41.14C148.913 40.764 149.017 40.332 149.017 39.844C149.017 39.356 148.913 38.928 148.705 38.56C148.497 38.192 148.217 37.904 147.865 37.696C147.513 37.488 147.113 37.384 146.665 37.384C146.217 37.384 145.813 37.488 145.453 37.696C145.101 37.904 144.821 38.192 144.613 38.56C144.413 38.928 144.313 39.356 144.313 39.844C144.313 40.332 144.413 40.764 144.613 41.14C144.821 41.508 145.101 41.796 145.453 42.004C145.813 42.204 146.217 42.304 146.665 42.304ZM151.606 43V34.096H152.458V43H151.606ZM158.777 43V41.608L158.741 41.38V39.052C158.741 38.516 158.589 38.104 158.285 37.816C157.989 37.528 157.545 37.384 156.953 37.384C156.545 37.384 156.157 37.452 155.789 37.588C155.421 37.724 155.109 37.904 154.853 38.128L154.469 37.492C154.789 37.22 155.173 37.012 155.621 36.868C156.069 36.716 156.541 36.64 157.037 36.64C157.853 36.64 158.481 36.844 158.921 37.252C159.369 37.652 159.593 38.264 159.593 39.088V43H158.777ZM156.605 43.06C156.133 43.06 155.721 42.984 155.369 42.832C155.025 42.672 154.761 42.456 154.577 42.184C154.393 41.904 154.301 41.584 154.301 41.224C154.301 40.896 154.377 40.6 154.529 40.336C154.689 40.064 154.945 39.848 155.297 39.688C155.657 39.52 156.137 39.436 156.737 39.436H158.909V40.072H156.761C156.153 40.072 155.729 40.18 155.489 40.396C155.257 40.612 155.141 40.88 155.141 41.2C155.141 41.56 155.281 41.848 155.561 42.064C155.841 42.28 156.233 42.388 156.737 42.388C157.217 42.388 157.629 42.28 157.973 42.064C158.325 41.84 158.581 41.52 158.741 41.104L158.933 41.692C158.773 42.108 158.493 42.44 158.093 42.688C157.701 42.936 157.205 43.06 156.605 43.06ZM163.899 43.06C163.307 43.06 162.851 42.9 162.531 42.58C162.211 42.26 162.051 41.808 162.051 41.224V35.308H162.903V41.176C162.903 41.544 162.995 41.828 163.179 42.028C163.371 42.228 163.643 42.328 163.995 42.328C164.371 42.328 164.683 42.22 164.931 42.004L165.231 42.616C165.063 42.768 164.859 42.88 164.619 42.952C164.387 43.024 164.147 43.06 163.899 43.06ZM160.923 37.408V36.7H164.823V37.408H160.923ZM169.235 43.06C168.579 43.06 168.003 42.924 167.507 42.652C167.011 42.372 166.623 41.992 166.343 41.512C166.063 41.024 165.923 40.468 165.923 39.844C165.923 39.22 166.055 38.668 166.319 38.188C166.591 37.708 166.959 37.332 167.423 37.06C167.895 36.78 168.423 36.64 169.007 36.64C169.599 36.64 170.123 36.776 170.579 37.048C171.043 37.312 171.407 37.688 171.671 38.176C171.935 38.656 172.067 39.212 172.067 39.844C172.067 39.884 172.063 39.928 172.055 39.976C172.055 40.016 172.055 40.06 172.055 40.108H166.571V39.472H171.599L171.263 39.724C171.263 39.268 171.163 38.864 170.963 38.512C170.771 38.152 170.507 37.872 170.171 37.672C169.835 37.472 169.447 37.372 169.007 37.372C168.575 37.372 168.187 37.472 167.843 37.672C167.499 37.872 167.231 38.152 167.039 38.512C166.847 38.872 166.751 39.284 166.751 39.748V39.88C166.751 40.36 166.855 40.784 167.063 41.152C167.279 41.512 167.575 41.796 167.951 42.004C168.335 42.204 168.771 42.304 169.259 42.304C169.643 42.304 169.999 42.236 170.327 42.1C170.663 41.964 170.951 41.756 171.191 41.476L171.671 42.028C171.391 42.364 171.039 42.62 170.615 42.796C170.199 42.972 169.739 43.06 169.235 43.06ZM173.945 43V35.908C173.945 35.348 174.109 34.896 174.437 34.552C174.765 34.208 175.237 34.036 175.853 34.036C176.093 34.036 176.325 34.068 176.549 34.132C176.773 34.196 176.961 34.296 177.113 34.432L176.825 35.068C176.705 34.964 176.565 34.888 176.405 34.84C176.245 34.784 176.073 34.756 175.889 34.756C175.529 34.756 175.253 34.856 175.061 35.056C174.869 35.256 174.773 35.552 174.773 35.944V36.904L174.797 37.3V43H173.945ZM172.817 37.408V36.7H176.717V37.408H172.817ZM180.33 43.06C179.722 43.06 179.174 42.924 178.686 42.652C178.206 42.372 177.826 41.992 177.546 41.512C177.266 41.024 177.126 40.468 177.126 39.844C177.126 39.212 177.266 38.656 177.546 38.176C177.826 37.696 178.206 37.32 178.686 37.048C179.166 36.776 179.714 36.64 180.33 36.64C180.954 36.64 181.506 36.776 181.986 37.048C182.474 37.32 182.854 37.696 183.126 38.176C183.406 38.656 183.546 39.212 183.546 39.844C183.546 40.468 183.406 41.024 183.126 41.512C182.854 41.992 182.474 42.372 181.986 42.652C181.498 42.924 180.946 43.06 180.33 43.06ZM180.33 42.304C180.786 42.304 181.19 42.204 181.542 42.004C181.894 41.796 182.17 41.508 182.37 41.14C182.578 40.764 182.682 40.332 182.682 39.844C182.682 39.348 182.578 38.916 182.37 38.548C182.17 38.18 181.894 37.896 181.542 37.696C181.19 37.488 180.79 37.384 180.342 37.384C179.894 37.384 179.494 37.488 179.142 37.696C178.79 37.896 178.51 38.18 178.302 38.548C178.094 38.916 177.99 39.348 177.99 39.844C177.99 40.332 178.094 40.764 178.302 41.14C178.51 41.508 178.79 41.796 179.142 42.004C179.494 42.204 179.89 42.304 180.33 42.304ZM185.286 43V36.7H186.102V38.416L186.018 38.116C186.194 37.636 186.49 37.272 186.906 37.024C187.322 36.768 187.838 36.64 188.454 36.64V37.468C188.422 37.468 188.39 37.468 188.358 37.468C188.326 37.46 188.294 37.456 188.262 37.456C187.598 37.456 187.078 37.66 186.702 38.068C186.326 38.468 186.138 39.04 186.138 39.784V43H185.286ZM197.88 36.64C198.392 36.64 198.836 36.74 199.212 36.94C199.596 37.132 199.892 37.428 200.1 37.828C200.316 38.228 200.424 38.732 200.424 39.34V43H199.572V39.424C199.572 38.76 199.412 38.26 199.092 37.924C198.78 37.58 198.336 37.408 197.76 37.408C197.328 37.408 196.952 37.5 196.632 37.684C196.32 37.86 196.076 38.12 195.9 38.464C195.732 38.8 195.648 39.208 195.648 39.688V43H194.796V39.424C194.796 38.76 194.636 38.26 194.316 37.924C193.996 37.58 193.548 37.408 192.972 37.408C192.548 37.408 192.176 37.5 191.856 37.684C191.536 37.86 191.288 38.12 191.112 38.464C190.944 38.8 190.86 39.208 190.86 39.688V43H190.008V36.7H190.824V38.404L190.692 38.104C190.884 37.648 191.192 37.292 191.616 37.036C192.048 36.772 192.556 36.64 193.14 36.64C193.756 36.64 194.28 36.796 194.712 37.108C195.144 37.412 195.424 37.872 195.552 38.488L195.216 38.356C195.4 37.844 195.724 37.432 196.188 37.12C196.66 36.8 197.224 36.64 197.88 36.64ZM205.411 43.06C204.755 43.06 204.179 42.924 203.683 42.652C203.187 42.372 202.799 41.992 202.519 41.512C202.239 41.024 202.099 40.468 202.099 39.844C202.099 39.22 202.231 38.668 202.495 38.188C202.767 37.708 203.135 37.332 203.599 37.06C204.071 36.78 204.599 36.64 205.183 36.64C205.775 36.64 206.299 36.776 206.755 37.048C207.219 37.312 207.583 37.688 207.847 38.176C208.111 38.656 208.243 39.212 208.243 39.844C208.243 39.884 208.239 39.928 208.231 39.976C208.231 40.016 208.231 40.06 208.231 40.108H202.747V39.472H207.775L207.439 39.724C207.439 39.268 207.339 38.864 207.139 38.512C206.947 38.152 206.683 37.872 206.347 37.672C206.011 37.472 205.623 37.372 205.183 37.372C204.751 37.372 204.363 37.472 204.019 37.672C203.675 37.872 203.407 38.152 203.215 38.512C203.023 38.872 202.927 39.284 202.927 39.748V39.88C202.927 40.36 203.031 40.784 203.239 41.152C203.455 41.512 203.751 41.796 204.127 42.004C204.511 42.204 204.947 42.304 205.435 42.304C205.819 42.304 206.175 42.236 206.503 42.1C206.839 41.964 207.127 41.756 207.367 41.476L207.847 42.028C207.567 42.364 207.215 42.62 206.791 42.796C206.375 42.972 205.915 43.06 205.411 43.06ZM215.626 43.06C215.026 43.06 214.486 42.924 214.006 42.652C213.534 42.38 213.162 42.004 212.89 41.524C212.618 41.036 212.482 40.476 212.482 39.844C212.482 39.204 212.618 38.644 212.89 38.164C213.162 37.684 213.534 37.312 214.006 37.048C214.486 36.776 215.026 36.64 215.626 36.64C216.178 36.64 216.67 36.764 217.102 37.012C217.542 37.26 217.89 37.624 218.146 38.104C218.41 38.576 218.542 39.156 218.542 39.844C218.542 40.524 218.414 41.104 218.158 41.584C217.902 42.064 217.554 42.432 217.114 42.688C216.682 42.936 216.186 43.06 215.626 43.06ZM215.686 42.304C216.134 42.304 216.534 42.204 216.886 42.004C217.246 41.796 217.526 41.508 217.726 41.14C217.934 40.764 218.038 40.332 218.038 39.844C218.038 39.348 217.934 38.916 217.726 38.548C217.526 38.18 217.246 37.896 216.886 37.696C216.534 37.488 216.134 37.384 215.686 37.384C215.246 37.384 214.85 37.488 214.498 37.696C214.146 37.896 213.866 38.18 213.658 38.548C213.45 38.916 213.346 39.348 213.346 39.844C213.346 40.332 213.45 40.764 213.658 41.14C213.866 41.508 214.146 41.796 214.498 42.004C214.85 42.204 215.246 42.304 215.686 42.304ZM218.062 43V41.104L218.146 39.832L218.026 38.56V34.096H218.878V43H218.062ZM223.927 43.06C223.271 43.06 222.695 42.924 222.199 42.652C221.703 42.372 221.315 41.992 221.035 41.512C220.755 41.024 220.615 40.468 220.615 39.844C220.615 39.22 220.747 38.668 221.011 38.188C221.283 37.708 221.651 37.332 222.115 37.06C222.587 36.78 223.115 36.64 223.699 36.64C224.291 36.64 224.815 36.776 225.271 37.048C225.735 37.312 226.099 37.688 226.363 38.176C226.627 38.656 226.759 39.212 226.759 39.844C226.759 39.884 226.755 39.928 226.747 39.976C226.747 40.016 226.747 40.06 226.747 40.108H221.263V39.472H226.291L225.955 39.724C225.955 39.268 225.855 38.864 225.655 38.512C225.463 38.152 225.199 37.872 224.863 37.672C224.527 37.472 224.139 37.372 223.699 37.372C223.267 37.372 222.879 37.472 222.535 37.672C222.191 37.872 221.923 38.152 221.731 38.512C221.539 38.872 221.443 39.284 221.443 39.748V39.88C221.443 40.36 221.547 40.784 221.755 41.152C221.971 41.512 222.267 41.796 222.643 42.004C223.027 42.204 223.463 42.304 223.951 42.304C224.335 42.304 224.691 42.236 225.019 42.1C225.355 41.964 225.643 41.756 225.883 41.476L226.363 42.028C226.083 42.364 225.731 42.62 225.307 42.796C224.891 42.972 224.431 43.06 223.927 43.06ZM230.185 43.06C229.665 43.06 229.173 42.988 228.709 42.844C228.245 42.692 227.881 42.504 227.617 42.28L228.001 41.608C228.257 41.8 228.585 41.968 228.985 42.112C229.385 42.248 229.805 42.316 230.245 42.316C230.845 42.316 231.277 42.224 231.541 42.04C231.805 41.848 231.937 41.596 231.937 41.284C231.937 41.052 231.861 40.872 231.709 40.744C231.565 40.608 231.373 40.508 231.133 40.444C230.893 40.372 230.625 40.312 230.329 40.264C230.033 40.216 229.737 40.16 229.441 40.096C229.153 40.032 228.889 39.94 228.649 39.82C228.409 39.692 228.213 39.52 228.061 39.304C227.917 39.088 227.845 38.8 227.845 38.44C227.845 38.096 227.941 37.788 228.133 37.516C228.325 37.244 228.605 37.032 228.973 36.88C229.349 36.72 229.805 36.64 230.341 36.64C230.749 36.64 231.157 36.696 231.565 36.808C231.973 36.912 232.309 37.052 232.573 37.228L232.201 37.912C231.921 37.72 231.621 37.584 231.301 37.504C230.981 37.416 230.661 37.372 230.341 37.372C229.773 37.372 229.353 37.472 229.081 37.672C228.817 37.864 228.685 38.112 228.685 38.416C228.685 38.656 228.757 38.844 228.901 38.98C229.053 39.116 229.249 39.224 229.489 39.304C229.737 39.376 230.005 39.436 230.293 39.484C230.589 39.532 230.881 39.592 231.169 39.664C231.465 39.728 231.733 39.82 231.973 39.94C232.221 40.052 232.417 40.216 232.561 40.432C232.713 40.64 232.789 40.916 232.789 41.26C232.789 41.628 232.685 41.948 232.477 42.22C232.277 42.484 231.981 42.692 231.589 42.844C231.205 42.988 230.737 43.06 230.185 43.06ZM240.001 43.06C239.401 43.06 238.861 42.924 238.381 42.652C237.909 42.38 237.537 42.004 237.265 41.524C236.993 41.036 236.857 40.476 236.857 39.844C236.857 39.204 236.993 38.644 237.265 38.164C237.537 37.684 237.909 37.312 238.381 37.048C238.861 36.776 239.401 36.64 240.001 36.64C240.553 36.64 241.045 36.764 241.477 37.012C241.917 37.26 242.265 37.624 242.521 38.104C242.785 38.576 242.917 39.156 242.917 39.844C242.917 40.524 242.789 41.104 242.533 41.584C242.277 42.064 241.929 42.432 241.489 42.688C241.057 42.936 240.561 43.06 240.001 43.06ZM240.061 42.304C240.509 42.304 240.909 42.204 241.261 42.004C241.621 41.796 241.901 41.508 242.101 41.14C242.309 40.764 242.413 40.332 242.413 39.844C242.413 39.348 242.309 38.916 242.101 38.548C241.901 38.18 241.621 37.896 241.261 37.696C240.909 37.488 240.509 37.384 240.061 37.384C239.621 37.384 239.225 37.488 238.873 37.696C238.521 37.896 238.241 38.18 238.033 38.548C237.825 38.916 237.721 39.348 237.721 39.844C237.721 40.332 237.825 40.764 238.033 41.14C238.241 41.508 238.521 41.796 238.873 42.004C239.225 42.204 239.621 42.304 240.061 42.304ZM242.437 43V41.104L242.521 39.832L242.401 38.56V34.096H243.253V43H242.437ZM248.194 43.06C247.586 43.06 247.038 42.924 246.55 42.652C246.07 42.372 245.69 41.992 245.41 41.512C245.13 41.024 244.99 40.468 244.99 39.844C244.99 39.212 245.13 38.656 245.41 38.176C245.69 37.696 246.07 37.32 246.55 37.048C247.03 36.776 247.578 36.64 248.194 36.64C248.818 36.64 249.37 36.776 249.85 37.048C250.338 37.32 250.718 37.696 250.99 38.176C251.27 38.656 251.41 39.212 251.41 39.844C251.41 40.468 251.27 41.024 250.99 41.512C250.718 41.992 250.338 42.372 249.85 42.652C249.362 42.924 248.81 43.06 248.194 43.06ZM248.194 42.304C248.65 42.304 249.054 42.204 249.406 42.004C249.758 41.796 250.034 41.508 250.234 41.14C250.442 40.764 250.546 40.332 250.546 39.844C250.546 39.348 250.442 38.916 250.234 38.548C250.034 38.18 249.758 37.896 249.406 37.696C249.054 37.488 248.654 37.384 248.206 37.384C247.758 37.384 247.358 37.488 247.006 37.696C246.654 37.896 246.374 38.18 246.166 38.548C245.958 38.916 245.854 39.348 245.854 39.844C245.854 40.332 245.958 40.764 246.166 41.14C246.374 41.508 246.654 41.796 247.006 42.004C247.358 42.204 247.754 42.304 248.194 42.304ZM256.365 36.64C256.877 36.64 257.325 36.74 257.709 36.94C258.101 37.132 258.405 37.428 258.621 37.828C258.845 38.228 258.957 38.732 258.957 39.34V43H258.105V39.424C258.105 38.76 257.937 38.26 257.601 37.924C257.273 37.58 256.809 37.408 256.209 37.408C255.761 37.408 255.369 37.5 255.033 37.684C254.705 37.86 254.449 38.12 254.265 38.464C254.089 38.8 254.001 39.208 254.001 39.688V43H253.149V36.7H253.965V38.428L253.833 38.104C254.033 37.648 254.353 37.292 254.793 37.036C255.233 36.772 255.757 36.64 256.365 36.64ZM265.206 43V41.608L265.17 41.38V39.052C265.17 38.516 265.018 38.104 264.714 37.816C264.418 37.528 263.974 37.384 263.382 37.384C262.974 37.384 262.586 37.452 262.218 37.588C261.85 37.724 261.538 37.904 261.282 38.128L260.898 37.492C261.218 37.22 261.602 37.012 262.05 36.868C262.498 36.716 262.97 36.64 263.466 36.64C264.282 36.64 264.91 36.844 265.35 37.252C265.798 37.652 266.022 38.264 266.022 39.088V43H265.206ZM263.034 43.06C262.562 43.06 262.15 42.984 261.798 42.832C261.454 42.672 261.19 42.456 261.006 42.184C260.822 41.904 260.73 41.584 260.73 41.224C260.73 40.896 260.806 40.6 260.958 40.336C261.118 40.064 261.374 39.848 261.726 39.688C262.086 39.52 262.566 39.436 263.166 39.436H265.338V40.072H263.19C262.582 40.072 262.158 40.18 261.918 40.396C261.686 40.612 261.57 40.88 261.57 41.2C261.57 41.56 261.71 41.848 261.99 42.064C262.27 42.28 262.662 42.388 263.166 42.388C263.646 42.388 264.058 42.28 264.402 42.064C264.754 41.84 265.01 41.52 265.17 41.104L265.362 41.692C265.202 42.108 264.922 42.44 264.522 42.688C264.13 42.936 263.634 43.06 263.034 43.06ZM270.328 43.06C269.736 43.06 269.28 42.9 268.96 42.58C268.64 42.26 268.48 41.808 268.48 41.224V35.308H269.332V41.176C269.332 41.544 269.424 41.828 269.608 42.028C269.8 42.228 270.072 42.328 270.424 42.328C270.8 42.328 271.112 42.22 271.36 42.004L271.66 42.616C271.492 42.768 271.288 42.88 271.048 42.952C270.816 43.024 270.576 43.06 270.328 43.06ZM267.352 37.408V36.7H271.252V37.408H267.352ZM275.665 43.06C275.009 43.06 274.433 42.924 273.937 42.652C273.441 42.372 273.053 41.992 272.773 41.512C272.493 41.024 272.353 40.468 272.353 39.844C272.353 39.22 272.485 38.668 272.749 38.188C273.021 37.708 273.389 37.332 273.853 37.06C274.325 36.78 274.853 36.64 275.437 36.64C276.029 36.64 276.553 36.776 277.009 37.048C277.473 37.312 277.837 37.688 278.101 38.176C278.365 38.656 278.497 39.212 278.497 39.844C278.497 39.884 278.493 39.928 278.485 39.976C278.485 40.016 278.485 40.06 278.485 40.108H273.001V39.472H278.029L277.693 39.724C277.693 39.268 277.593 38.864 277.393 38.512C277.201 38.152 276.937 37.872 276.601 37.672C276.265 37.472 275.877 37.372 275.437 37.372C275.005 37.372 274.617 37.472 274.273 37.672C273.929 37.872 273.661 38.152 273.469 38.512C273.277 38.872 273.181 39.284 273.181 39.748V39.88C273.181 40.36 273.285 40.784 273.493 41.152C273.709 41.512 274.005 41.796 274.381 42.004C274.765 42.204 275.201 42.304 275.689 42.304C276.073 42.304 276.429 42.236 276.757 42.1C277.093 41.964 277.381 41.756 277.621 41.476L278.101 42.028C277.821 42.364 277.469 42.62 277.045 42.796C276.629 42.972 276.169 43.06 275.665 43.06ZM282.835 43.06C282.299 43.06 281.831 42.96 281.431 42.76C281.031 42.56 280.719 42.26 280.495 41.86C280.279 41.46 280.171 40.96 280.171 40.36V36.7H281.023V40.264C281.023 40.936 281.187 41.444 281.515 41.788C281.851 42.124 282.319 42.292 282.919 42.292C283.359 42.292 283.739 42.204 284.059 42.028C284.387 41.844 284.635 41.58 284.803 41.236C284.979 40.892 285.067 40.48 285.067 40V36.7H285.919V43H285.103V41.272L285.235 41.584C285.035 42.048 284.723 42.412 284.299 42.676C283.883 42.932 283.395 43.06 282.835 43.06ZM288.293 43V36.7H289.109V38.416L289.025 38.116C289.201 37.636 289.497 37.272 289.913 37.024C290.329 36.768 290.845 36.64 291.461 36.64V37.468C291.429 37.468 291.397 37.468 291.365 37.468C291.333 37.46 291.301 37.456 291.269 37.456C290.605 37.456 290.085 37.66 289.709 38.068C289.333 38.468 289.145 39.04 289.145 39.784V43H288.293ZM294.778 43.06C294.258 43.06 293.766 42.988 293.302 42.844C292.838 42.692 292.474 42.504 292.21 42.28L292.594 41.608C292.85 41.8 293.178 41.968 293.578 42.112C293.978 42.248 294.398 42.316 294.838 42.316C295.438 42.316 295.87 42.224 296.134 42.04C296.398 41.848 296.53 41.596 296.53 41.284C296.53 41.052 296.454 40.872 296.302 40.744C296.158 40.608 295.966 40.508 295.726 40.444C295.486 40.372 295.218 40.312 294.922 40.264C294.626 40.216 294.33 40.16 294.034 40.096C293.746 40.032 293.482 39.94 293.242 39.82C293.002 39.692 292.806 39.52 292.654 39.304C292.51 39.088 292.438 38.8 292.438 38.44C292.438 38.096 292.534 37.788 292.726 37.516C292.918 37.244 293.198 37.032 293.566 36.88C293.942 36.72 294.398 36.64 294.934 36.64C295.342 36.64 295.75 36.696 296.158 36.808C296.566 36.912 296.902 37.052 297.166 37.228L296.794 37.912C296.514 37.72 296.214 37.584 295.894 37.504C295.574 37.416 295.254 37.372 294.934 37.372C294.366 37.372 293.946 37.472 293.674 37.672C293.41 37.864 293.278 38.112 293.278 38.416C293.278 38.656 293.35 38.844 293.494 38.98C293.646 39.116 293.842 39.224 294.082 39.304C294.33 39.376 294.598 39.436 294.886 39.484C295.182 39.532 295.474 39.592 295.762 39.664C296.058 39.728 296.326 39.82 296.566 39.94C296.814 40.052 297.01 40.216 297.154 40.432C297.306 40.64 297.382 40.916 297.382 41.26C297.382 41.628 297.278 41.948 297.07 42.22C296.87 42.484 296.574 42.692 296.182 42.844C295.798 42.988 295.33 43.06 294.778 43.06Z" fill="#003333"/>
</svg>
