<svg width="599" height="91" viewBox="0 0 599 91" fill="none" xmlns="http://www.w3.org/2000/svg">
<rect width="597.163" height="90.9768" transform="translate(0.418945)" fill="white"/>
<rect width="80.1161" height="80.1161" transform="translate(0.418945 5.43018)" fill="white"/>
<rect width="43.4982" height="49.1195" transform="translate(18.6016 29.9507)" fill="white"/>
<circle cx="40.3579" cy="46.2062" r="16.137" transform="rotate(0.422522 40.3579 46.2062)" fill="#FFCB60"/>
<path d="M40.5098 35.731L40.9936 54.9898L51.2834 38.7031L42.073 55.6236L59.1276 46.6638L42.6909 56.7123L61.9405 57.4801L42.6816 57.9639L58.9684 68.2537L42.0478 59.0433L51.0076 76.0979L40.9592 59.6612L40.1914 78.9107L39.7075 59.6519L29.4178 75.9386L38.6281 59.0181L21.5736 67.9779L38.0103 57.9295L18.7607 57.1617L38.0195 56.6778L21.7328 46.388L38.6534 55.5984L29.6935 38.5439L39.742 54.9806L40.5098 35.731Z" fill="white"/>
<path d="M36.2438 41.6564L40.3328 55.5144L44.6256 41.7182L41.2378 55.764L51.8536 45.9626L41.8967 56.4327L55.991 53.2524L42.1329 57.3413L55.9292 61.6342L41.8833 58.2463L51.6847 68.8621L41.2146 58.9052L44.395 72.9995L40.306 59.1415L36.0131 72.9377L39.401 58.8918L28.7852 68.6933L38.7421 58.2231L24.6478 61.4035L38.5058 57.3146L24.7096 53.0217L38.7555 56.4096L28.9541 45.7937L39.4242 55.7507L36.2438 41.6564Z" fill="white"/>
<circle cx="40.3506" cy="57.3207" r="8.63618" transform="rotate(0.422522 40.3506 57.3207)" fill="white"/>
<path d="M1.36951 16.9674C3.73194 16.9461 5.24696 16.9286 6.18288 16.9149C5.92098 16.8671 9.33384 16.869 6.18288 16.9149C6.33229 16.9423 7.6776 16.9858 12.1196 17.0466L32.3441 14.3982C40.4892 16.0604 45.0041 17.331 52.9728 20.1455C54.0184 19.8086 58.6831 26.7 64.5223 34.6849C65.1193 35.5754 65.257 38.5408 65.3757 45.4154C65.3177 46.3897 64.6287 46.0645 62.2777 43.9937L59.8599 34.6506C55.46 31.113 52.2263 28.7009 51.0574 26.97C46.6111 25.4504 43.9723 24.7086 38.9592 23.6169C37.362 23.8764 36.2817 24.2702 33.658 25.9091C35.1747 28.6174 37.5302 30.1861 40.9108 32.9566L47.8792 36.4273C49.0233 37.4819 49.0466 38.1906 48.6334 39.5413C48.0669 40.9233 47.5718 41.1845 46.5993 41.3913C35.2218 38.2142 28.4775 36.1889 15.7418 31.683L1.3695 34.6506L1.36951 16.9674Z" fill="#008080"/>
<path d="M79.7042 74.4653C77.3418 74.4865 75.8268 74.504 74.8908 74.5177C75.1528 74.5656 71.7399 74.5636 74.8908 74.5177C74.7414 74.4904 73.3961 74.4468 68.9541 74.386L48.7297 77.0344C40.5845 75.3722 36.0696 74.1016 28.1009 71.2871C27.0553 71.624 22.3906 64.7326 16.5514 56.7477C15.9544 55.8572 15.8168 52.8919 15.698 46.0173C15.756 45.0429 16.445 45.3682 18.796 47.4389L21.2138 56.7821C25.6137 60.3196 28.8474 62.7317 30.0163 64.4627C34.4627 65.9822 37.1015 66.724 42.1145 67.8157C43.7117 67.5563 44.792 67.1624 47.4158 65.5235C45.899 62.8152 43.5435 61.2465 40.1629 58.476L33.1945 55.0053C32.0504 53.9507 32.0271 53.242 32.4403 51.8913C33.0068 50.5093 33.5019 50.2482 34.4745 50.0413C45.8519 53.2184 52.5962 55.2438 65.3319 59.7496L79.7042 56.7821L79.7042 74.4653Z" fill="#008080"/>
<path d="M117.901 62V17.135H139.821C145.461 17.135 149.691 18.2032 152.511 20.3396C155.374 22.4761 156.806 25.2962 156.806 28.7999C156.806 31.15 156.229 33.2009 155.075 34.9528C153.921 36.662 152.34 37.9865 150.332 38.9266C148.324 39.8666 146.017 40.3366 143.41 40.3366L144.628 37.7088C147.448 37.7088 149.948 38.1788 152.127 39.1188C154.306 40.0161 155.994 41.3621 157.19 43.1567C158.429 44.9513 159.049 47.1518 159.049 49.7583C159.049 53.6038 157.532 56.6162 154.498 58.7954C151.465 60.9318 146.999 62 141.103 62H117.901ZM128.22 54.1807H140.334C143.026 54.1807 145.055 53.7534 146.423 52.8988C147.833 52.0015 148.538 50.5915 148.538 48.6687C148.538 46.7886 147.833 45.3999 146.423 44.5026C145.055 43.5626 143.026 43.0926 140.334 43.0926H127.451V35.5296H138.539C141.06 35.5296 142.983 35.1024 144.308 34.2478C145.675 33.3505 146.358 32.0045 146.358 30.2099C146.358 28.4581 145.675 27.1548 144.308 26.3003C142.983 25.403 141.06 24.9543 138.539 24.9543H128.22V54.1807ZM183.318 62.5127C179.387 62.5127 175.925 61.7436 172.934 60.2054C169.986 58.6672 167.7 56.5735 166.077 53.9243C164.453 51.2324 163.641 48.1773 163.641 44.759C163.641 41.298 164.432 38.2429 166.012 35.5937C167.636 32.9018 169.837 30.8081 172.614 29.3126C175.391 27.7744 178.532 27.0053 182.036 27.0053C185.411 27.0053 188.445 27.7317 191.137 29.1845C193.871 30.5945 196.029 32.6455 197.61 35.3374C199.191 37.9865 199.982 41.1698 199.982 44.8872C199.982 45.2718 199.96 45.7204 199.918 46.2332C199.875 46.7032 199.832 47.1518 199.789 47.5791H171.781V41.7467H194.534L190.688 43.4772C190.688 41.6826 190.325 40.123 189.599 38.7984C188.872 37.4738 187.868 36.4483 186.586 35.7219C185.304 34.9528 183.809 34.5683 182.1 34.5683C180.391 34.5683 178.874 34.9528 177.549 35.7219C176.267 36.4483 175.263 37.4952 174.537 38.8625C173.81 40.1871 173.447 41.768 173.447 43.6053V45.1436C173.447 47.0236 173.853 48.69 174.665 50.1428C175.52 51.5529 176.695 52.6424 178.19 53.4116C179.728 54.1379 181.523 54.5011 183.574 54.5011C185.411 54.5011 187.014 54.2234 188.381 53.6679C189.791 53.1125 191.073 52.2792 192.226 51.1683L197.546 56.9367C195.965 58.7313 193.978 60.1199 191.586 61.1027C189.193 62.0427 186.437 62.5127 183.318 62.5127ZM227.597 27.0053C230.331 27.0053 232.767 27.5608 234.903 28.6717C237.082 29.7399 238.792 31.4063 240.031 33.671C241.27 35.8928 241.889 38.7557 241.889 42.2594V62H231.891V43.7976C231.891 41.0203 231.271 38.9693 230.032 37.6447C228.836 36.3201 227.127 35.6578 224.905 35.6578C223.324 35.6578 221.892 35.9997 220.611 36.6833C219.371 37.3242 218.389 38.3284 217.662 39.6957C216.979 41.063 216.637 42.8149 216.637 44.9513V62H206.638V27.518H216.188V37.0679L214.394 34.1837C215.633 31.8764 217.406 30.1031 219.713 28.864C222.021 27.6249 224.648 27.0053 227.597 27.0053ZM268.316 62.5127C264.385 62.5127 260.924 61.7436 257.933 60.2054C254.984 58.6672 252.698 56.5735 251.075 53.9243C249.451 51.2324 248.639 48.1773 248.639 44.759C248.639 41.298 249.43 38.2429 251.011 35.5937C252.634 32.9018 254.835 30.8081 257.612 29.3126C260.39 27.7744 263.53 27.0053 267.034 27.0053C270.409 27.0053 273.443 27.7317 276.135 29.1845C278.87 30.5945 281.027 32.6455 282.608 35.3374C284.189 37.9865 284.98 41.1698 284.98 44.8872C284.98 45.2718 284.958 45.7204 284.916 46.2332C284.873 46.7032 284.83 47.1518 284.788 47.5791H256.779V41.7467H279.532L275.686 43.4772C275.686 41.6826 275.323 40.123 274.597 38.7984C273.87 37.4738 272.866 36.4483 271.584 35.7219C270.303 34.9528 268.807 34.5683 267.098 34.5683C265.389 34.5683 263.872 34.9528 262.547 35.7219C261.265 36.4483 260.261 37.4952 259.535 38.8625C258.809 40.1871 258.445 41.768 258.445 43.6053V45.1436C258.445 47.0236 258.851 48.69 259.663 50.1428C260.518 51.5529 261.693 52.6424 263.188 53.4116C264.726 54.1379 266.521 54.5011 268.572 54.5011C270.409 54.5011 272.012 54.2234 273.379 53.6679C274.789 53.1125 276.071 52.2792 277.225 51.1683L282.544 56.9367C280.963 58.7313 278.976 60.1199 276.584 61.1027C274.191 62.0427 271.435 62.5127 268.316 62.5127ZM292.854 62V26.7489C292.854 22.8606 294.008 19.7628 296.315 17.4555C298.623 15.1054 301.913 13.9303 306.186 13.9303C307.638 13.9303 309.027 14.0799 310.352 14.379C311.719 14.6781 312.873 15.1481 313.813 15.789L311.185 23.0315C310.629 22.647 310.01 22.3479 309.326 22.1342C308.642 21.9206 307.916 21.8138 307.147 21.8138C305.694 21.8138 304.562 22.2411 303.75 23.0956C302.981 23.9075 302.596 25.1466 302.596 26.813V30.0177L302.853 34.3119V62H292.854ZM287.535 35.9783V28.2872H311.441V35.9783H287.535ZM336.947 62V55.2702L336.306 53.7961V41.7467C336.306 39.6102 335.644 37.9438 334.319 36.7474C333.037 35.551 331.051 34.9528 328.359 34.9528C326.521 34.9528 324.705 35.2519 322.911 35.8501C321.159 36.4056 319.663 37.1747 318.424 38.1575L314.835 31.1713C316.715 29.8467 318.98 28.8213 321.629 28.0949C324.278 27.3685 326.97 27.0053 329.705 27.0053C334.96 27.0053 339.041 28.2444 341.946 30.7227C344.852 33.2009 346.305 37.0679 346.305 42.3235V62H336.947ZM326.436 62.5127C323.744 62.5127 321.437 62.0641 319.514 61.1668C317.591 60.2268 316.117 58.9663 315.091 57.3853C314.066 55.8044 313.553 54.0311 313.553 52.0656C313.553 50.0146 314.045 48.22 315.027 46.6818C316.053 45.1436 317.655 43.9472 319.834 43.0926C322.014 42.1953 324.855 41.7467 328.359 41.7467H337.524V47.5791H329.448C327.098 47.5791 325.475 47.9637 324.577 48.7328C323.723 49.5019 323.295 50.4633 323.295 51.617C323.295 52.8988 323.787 53.9243 324.769 54.6934C325.795 55.4198 327.184 55.783 328.936 55.783C330.602 55.783 332.097 55.3984 333.422 54.6293C334.747 53.8175 335.708 52.6424 336.306 51.1042L337.844 55.7189C337.118 57.9408 335.793 59.6286 333.871 60.7822C331.948 61.9359 329.47 62.5127 326.436 62.5127ZM372.268 62.5127C368.551 62.5127 365.239 61.765 362.334 60.2695C359.428 58.7313 357.142 56.6162 355.476 53.9243C353.852 51.2324 353.04 48.1773 353.04 44.759C353.04 41.298 353.852 38.2429 355.476 35.5937C357.142 32.9018 359.428 30.8081 362.334 29.3126C365.239 27.7744 368.551 27.0053 372.268 27.0053C375.9 27.0053 379.062 27.7744 381.754 29.3126C384.446 30.8081 386.433 32.9659 387.715 35.786L379.959 39.9521C379.062 38.3284 377.93 37.132 376.563 36.3629C375.238 35.5937 373.785 35.2092 372.204 35.2092C370.495 35.2092 368.957 35.5937 367.59 36.3629C366.222 37.132 365.133 38.2215 364.321 39.6316C363.552 41.0416 363.167 42.7508 363.167 44.759C363.167 46.7673 363.552 48.4764 364.321 49.8864C365.133 51.2965 366.222 52.3861 367.59 53.1552C368.957 53.9243 370.495 54.3089 372.204 54.3089C373.785 54.3089 375.238 53.9457 376.563 53.2193C377.93 52.4502 379.062 51.2324 379.959 49.566L387.715 53.7961C386.433 56.5735 384.446 58.7313 381.754 60.2695C379.062 61.765 375.9 62.5127 372.268 62.5127ZM408.073 62.5127C404.013 62.5127 400.852 61.4873 398.587 59.4363C396.322 57.3426 395.19 54.2448 395.19 50.1428V19.891H405.189V50.0146C405.189 51.4674 405.573 52.5997 406.342 53.4116C407.111 54.1807 408.158 54.5652 409.483 54.5652C411.064 54.5652 412.41 54.1379 413.521 53.2834L416.212 60.3336C415.187 61.06 413.948 61.6154 412.495 62C411.085 62.3418 409.611 62.5127 408.073 62.5127ZM389.87 35.9783V28.2872H413.777V35.9783H389.87ZM437.169 62.5127C433.494 62.5127 430.225 61.7436 427.363 60.2054C424.543 58.6672 422.299 56.5735 420.633 53.9243C419.009 51.2324 418.197 48.1773 418.197 44.759C418.197 41.298 419.009 38.2429 420.633 35.5937C422.299 32.9018 424.543 30.8081 427.363 29.3126C430.225 27.7744 433.494 27.0053 437.169 27.0053C440.801 27.0053 444.048 27.7744 446.911 29.3126C449.774 30.8081 452.017 32.8805 453.641 35.5296C455.264 38.1788 456.076 41.2553 456.076 44.759C456.076 48.1773 455.264 51.2324 453.641 53.9243C452.017 56.5735 449.774 58.6672 446.911 60.2054C444.048 61.7436 440.801 62.5127 437.169 62.5127ZM437.169 54.3089C438.835 54.3089 440.331 53.9243 441.655 53.1552C442.98 52.3861 444.027 51.2965 444.796 49.8864C445.565 48.4337 445.95 46.7245 445.95 44.759C445.95 42.7508 445.565 41.0416 444.796 39.6316C444.027 38.2215 442.98 37.132 441.655 36.3629C440.331 35.5937 438.835 35.2092 437.169 35.2092C435.502 35.2092 434.007 35.5937 432.682 36.3629C431.358 37.132 430.29 38.2215 429.478 39.6316C428.709 41.0416 428.324 42.7508 428.324 44.759C428.324 46.7245 428.709 48.4337 429.478 49.8864C430.29 51.2965 431.358 52.3861 432.682 53.1552C434.007 53.9243 435.502 54.3089 437.169 54.3089ZM462.759 62V27.518H472.309V37.2602L470.963 34.4401C471.989 32.0045 473.634 30.1672 475.898 28.9281C478.163 27.6462 480.919 27.0053 484.166 27.0053V36.2347C483.739 36.1919 483.355 36.1706 483.013 36.1706C482.671 36.1278 482.308 36.1065 481.923 36.1065C479.189 36.1065 476.967 36.897 475.258 38.4779C473.591 40.0161 472.758 42.4303 472.758 45.7204V62H462.759ZM504.911 62.5127C502.048 62.5127 499.484 61.9573 497.22 60.8463C494.998 59.7354 493.267 58.0476 492.028 55.783C490.789 53.4756 490.17 50.5487 490.17 47.0023V27.518H500.168V45.5281C500.168 48.3909 500.766 50.506 501.963 51.8733C503.202 53.1979 504.932 53.8602 507.154 53.8602C508.692 53.8602 510.06 53.5397 511.256 52.8988C512.453 52.2152 513.393 51.1897 514.076 49.8224C514.76 48.4123 515.102 46.6604 515.102 44.5667V27.518H525.1V62H515.614V52.5143L517.345 55.2702C516.191 57.663 514.482 59.479 512.218 60.7181C509.996 61.9145 507.56 62.5127 504.911 62.5127ZM578.523 27.0053C581.258 27.0053 583.672 27.5608 585.766 28.6717C587.902 29.7399 589.568 31.4063 590.765 33.671C592.004 35.8928 592.624 38.7557 592.624 42.2594V62H582.625V43.7976C582.625 41.0203 582.048 38.9693 580.895 37.6447C579.741 36.3201 578.117 35.6578 576.024 35.6578C574.571 35.6578 573.268 35.9997 572.114 36.6833C570.96 37.3242 570.063 38.307 569.422 39.6316C568.781 40.9562 568.461 42.644 568.461 44.6949V62H558.462V43.7976C558.462 41.0203 557.885 38.9693 556.732 37.6447C555.621 36.3201 554.018 35.6578 551.925 35.6578C550.472 35.6578 549.169 35.9997 548.015 36.6833C546.861 37.3242 545.964 38.307 545.323 39.6316C544.682 40.9562 544.362 42.644 544.362 44.6949V62H534.363V27.518H543.913V36.9397L542.118 34.1837C543.315 31.8336 545.003 30.0604 547.182 28.864C549.404 27.6249 551.925 27.0053 554.745 27.0053C557.907 27.0053 560.663 27.8171 563.013 29.4408C565.405 31.0218 566.986 33.4573 567.756 36.7474L564.23 35.786C565.384 33.0941 567.221 30.9577 569.742 29.3767C572.306 27.7958 575.233 27.0053 578.523 27.0053Z" fill="#003333"/>
<path d="M238.676 85.1208C237.41 85.1208 236.233 84.9125 235.143 84.4959C234.069 84.0632 233.132 83.4624 232.331 82.6933C231.546 81.9081 230.929 81.0028 230.48 79.9773C230.048 78.9358 229.831 77.7982 229.831 76.5644C229.831 75.3306 230.048 74.2009 230.48 73.1755C230.929 72.134 231.546 71.2286 232.331 70.4595C233.132 69.6744 234.069 69.0735 235.143 68.6569C236.217 68.2243 237.394 68.008 238.676 68.008C239.942 68.008 241.112 68.2243 242.185 68.6569C243.259 69.0735 244.188 69.6664 244.973 70.4355C245.774 71.2046 246.391 72.1099 246.824 73.1514C247.273 74.1929 247.497 75.3306 247.497 76.5644C247.497 77.7982 247.273 78.9358 246.824 79.9773C246.391 81.0188 245.774 81.9241 244.973 82.6933C244.188 83.4624 243.259 84.0632 242.185 84.4959C241.112 84.9125 239.942 85.1208 238.676 85.1208ZM238.676 83.5345C239.686 83.5345 240.615 83.3662 241.464 83.0297C242.329 82.6772 243.075 82.1885 243.699 81.5636C244.34 80.9227 244.837 80.1856 245.19 79.3524C245.542 78.5032 245.718 77.5738 245.718 76.5644C245.718 75.5549 245.542 74.6336 245.19 73.8004C244.837 72.9511 244.34 72.2141 243.699 71.5892C243.075 70.9482 242.329 70.4595 241.464 70.123C240.615 69.7705 239.686 69.5943 238.676 69.5943C237.667 69.5943 236.729 69.7705 235.864 70.123C234.999 70.4595 234.246 70.9482 233.605 71.5892C232.98 72.2141 232.483 72.9511 232.115 73.8004C231.762 74.6336 231.586 75.5549 231.586 76.5644C231.586 77.5578 231.762 78.4791 232.115 79.3284C232.483 80.1776 232.98 80.9227 233.605 81.5636C234.246 82.1885 234.999 82.6772 235.864 83.0297C236.729 83.3662 237.667 83.5345 238.676 83.5345ZM251.123 84.9766V72.3583H252.757V75.7953L252.589 75.1944C252.942 74.233 253.535 73.5039 254.368 73.0072C255.201 72.4945 256.234 72.2381 257.468 72.2381V73.8965C257.404 73.8965 257.34 73.8965 257.276 73.8965C257.212 73.8805 257.148 73.8725 257.084 73.8725C255.754 73.8725 254.712 74.2811 253.959 75.0982C253.206 75.8994 252.829 77.0451 252.829 78.5352V84.9766H251.123ZM265.848 89.7595C264.695 89.7595 263.589 89.5912 262.532 89.2548C261.474 88.9183 260.617 88.4376 259.96 87.8127L260.825 86.5148C261.418 87.0436 262.147 87.4602 263.012 87.7646C263.894 88.0851 264.823 88.2453 265.8 88.2453C267.403 88.2453 268.58 87.8688 269.334 87.1157C270.087 86.3786 270.463 85.2249 270.463 83.6546V80.5061L270.704 78.343L270.535 76.1798V72.3583H272.17V83.4383C272.17 85.6175 271.633 87.2118 270.559 88.2213C269.502 89.2467 267.931 89.7595 265.848 89.7595ZM265.536 84.4959C264.334 84.4959 263.253 84.2395 262.291 83.7268C261.33 83.198 260.569 82.4689 260.008 81.5396C259.463 80.6102 259.191 79.5447 259.191 78.343C259.191 77.1412 259.463 76.0837 260.008 75.1704C260.569 74.241 261.33 73.52 262.291 73.0072C263.253 72.4945 264.334 72.2381 265.536 72.2381C266.658 72.2381 267.667 72.4704 268.564 72.9351C269.462 73.3998 270.175 74.0888 270.704 75.0021C271.232 75.9154 271.497 77.029 271.497 78.343C271.497 79.6569 271.232 80.7705 270.704 81.6838C270.175 82.5971 269.462 83.2941 268.564 83.7748C267.667 84.2555 266.658 84.4959 265.536 84.4959ZM265.704 82.9817C266.634 82.9817 267.459 82.7894 268.18 82.4048C268.901 82.0043 269.47 81.4595 269.886 80.7705C270.303 80.0654 270.511 79.2563 270.511 78.343C270.511 77.4296 270.303 76.6285 269.886 75.9395C269.47 75.2505 268.901 74.7137 268.18 74.3291C267.459 73.9286 266.634 73.7283 265.704 73.7283C264.791 73.7283 263.966 73.9286 263.229 74.3291C262.508 74.7137 261.939 75.2505 261.522 75.9395C261.122 76.6285 260.921 77.4296 260.921 78.343C260.921 79.2563 261.122 80.0654 261.522 80.7705C261.939 81.4595 262.508 82.0043 263.229 82.4048C263.966 82.7894 264.791 82.9817 265.704 82.9817ZM284.826 84.9766V82.1885L284.754 81.7319V77.0691C284.754 75.9955 284.449 75.1704 283.84 74.5935C283.247 74.0167 282.358 73.7283 281.172 73.7283C280.355 73.7283 279.578 73.8645 278.841 74.1369C278.104 74.4093 277.479 74.7698 276.966 75.2184L276.197 73.9446C276.838 73.3998 277.607 72.9832 278.505 72.6948C279.402 72.3903 280.347 72.2381 281.341 72.2381C282.975 72.2381 284.233 72.6467 285.114 73.4639C286.011 74.265 286.46 75.4908 286.46 77.1412V84.9766H284.826ZM280.475 85.0967C279.53 85.0967 278.705 84.9445 278 84.6401C277.311 84.3196 276.782 83.887 276.413 83.3422C276.045 82.7814 275.861 82.1405 275.861 81.4194C275.861 80.7625 276.013 80.1696 276.317 79.6408C276.638 79.096 277.151 78.6634 277.856 78.343C278.577 78.0065 279.538 77.8382 280.74 77.8382H285.09V79.1121H280.788C279.57 79.1121 278.721 79.3284 278.24 79.761C277.775 80.1936 277.543 80.7304 277.543 81.3713C277.543 82.0924 277.824 82.6692 278.384 83.1018C278.945 83.5345 279.73 83.7508 280.74 83.7508C281.701 83.7508 282.526 83.5345 283.215 83.1018C283.92 82.6532 284.433 82.0123 284.754 81.1791L285.138 82.3568C284.818 83.19 284.257 83.8549 283.456 84.3517C282.671 84.8484 281.677 85.0967 280.475 85.0967ZM297.536 72.2381C298.562 72.2381 299.459 72.4384 300.228 72.839C301.013 73.2235 301.622 73.8164 302.055 74.6176C302.504 75.4187 302.728 76.4282 302.728 77.6459V84.9766H301.021V77.8142C301.021 76.4843 300.685 75.4828 300.012 74.8098C299.355 74.1208 298.426 73.7763 297.224 73.7763C296.327 73.7763 295.541 73.9606 294.868 74.3291C294.212 74.6816 293.699 75.2024 293.33 75.8914C292.978 76.5644 292.801 77.3816 292.801 78.343V84.9766H291.095V72.3583H292.729V75.8193L292.465 75.1704C292.866 74.257 293.506 73.544 294.388 73.0313C295.269 72.5025 296.319 72.2381 297.536 72.2381ZM307.337 84.9766V72.3583H309.044V84.9766H307.337ZM308.203 69.5702C307.85 69.5702 307.554 69.4501 307.313 69.2097C307.073 68.9694 306.953 68.681 306.953 68.3445C306.953 68.008 307.073 67.7276 307.313 67.5032C307.554 67.2629 307.85 67.1427 308.203 67.1427C308.555 67.1427 308.851 67.2549 309.092 67.4792C309.332 67.7035 309.452 67.9839 309.452 68.3204C309.452 68.6729 309.332 68.9694 309.092 69.2097C308.867 69.4501 308.571 69.5702 308.203 69.5702ZM317.181 85.0967C316.139 85.0967 315.154 84.9525 314.225 84.6641C313.295 84.3597 312.566 83.9831 312.037 83.5345L312.807 82.1885C313.319 82.5731 313.976 82.9096 314.777 83.198C315.579 83.4704 316.42 83.6066 317.301 83.6066C318.503 83.6066 319.368 83.4223 319.897 83.0538C320.426 82.6692 320.69 82.1645 320.69 81.5396C320.69 81.0749 320.538 80.7144 320.233 80.458C319.945 80.1856 319.56 79.9853 319.08 79.8571C318.599 79.7129 318.062 79.5928 317.469 79.4966C316.876 79.4005 316.284 79.2883 315.691 79.1601C315.114 79.0319 314.585 78.8477 314.104 78.6073C313.624 78.351 313.231 78.0065 312.927 77.5738C312.638 77.1412 312.494 76.5644 312.494 75.8433C312.494 75.1543 312.686 74.5374 313.071 73.9926C313.455 73.4479 314.016 73.0232 314.753 72.7188C315.506 72.3983 316.42 72.2381 317.493 72.2381C318.31 72.2381 319.128 72.3503 319.945 72.5746C320.762 72.7829 321.435 73.0633 321.964 73.4158L321.219 74.7858C320.658 74.4012 320.057 74.1288 319.416 73.9686C318.775 73.7924 318.134 73.7042 317.493 73.7042C316.356 73.7042 315.514 73.9045 314.97 74.3051C314.441 74.6897 314.177 75.1864 314.177 75.7953C314.177 76.276 314.321 76.6525 314.609 76.9249C314.914 77.1973 315.306 77.4136 315.787 77.5738C316.284 77.718 316.82 77.8382 317.397 77.9344C317.99 78.0305 318.575 78.1507 319.152 78.2949C319.745 78.4231 320.281 78.6073 320.762 78.8477C321.259 79.072 321.651 79.4005 321.94 79.8331C322.244 80.2497 322.396 80.8025 322.396 81.4915C322.396 82.2286 322.188 82.8695 321.772 83.4143C321.371 83.9431 320.778 84.3597 319.993 84.6641C319.224 84.9525 318.286 85.0967 317.181 85.0967ZM333.435 84.9766V82.1885L333.363 81.7319V77.0691C333.363 75.9955 333.059 75.1704 332.45 74.5935C331.857 74.0167 330.968 73.7283 329.782 73.7283C328.965 73.7283 328.188 73.8645 327.45 74.1369C326.713 74.4093 326.089 74.7698 325.576 75.2184L324.807 73.9446C325.448 73.3998 326.217 72.9832 327.114 72.6948C328.011 72.3903 328.957 72.2381 329.95 72.2381C331.584 72.2381 332.842 72.6467 333.724 73.4639C334.621 74.265 335.07 75.4908 335.07 77.1412V84.9766H333.435ZM329.085 85.0967C328.139 85.0967 327.314 84.9445 326.609 84.6401C325.92 84.3196 325.391 83.887 325.023 83.3422C324.654 82.7814 324.47 82.1405 324.47 81.4194C324.47 80.7625 324.622 80.1696 324.927 79.6408C325.247 79.096 325.76 78.6634 326.465 78.343C327.186 78.0065 328.147 77.8382 329.349 77.8382H333.7V79.1121H329.397C328.18 79.1121 327.33 79.3284 326.85 79.761C326.385 80.1936 326.153 80.7304 326.153 81.3713C326.153 82.0924 326.433 82.6692 326.994 83.1018C327.555 83.5345 328.34 83.7508 329.349 83.7508C330.311 83.7508 331.136 83.5345 331.825 83.1018C332.53 82.6532 333.043 82.0123 333.363 81.1791L333.748 82.3568C333.427 83.19 332.866 83.8549 332.065 84.3517C331.28 84.8484 330.287 85.0967 329.085 85.0967ZM343.694 85.0967C342.509 85.0967 341.595 84.7763 340.954 84.1353C340.313 83.4944 339.993 82.5891 339.993 81.4194V69.5702H341.699V81.3233C341.699 82.0603 341.884 82.6292 342.252 83.0297C342.637 83.4303 343.182 83.6306 343.887 83.6306C344.64 83.6306 345.265 83.4143 345.761 82.9817L346.362 84.2074C346.026 84.5119 345.617 84.7362 345.136 84.8804C344.672 85.0246 344.191 85.0967 343.694 85.0967ZM337.734 73.7763V72.3583H345.545V73.7763H337.734ZM349.469 84.9766V72.3583H351.175V84.9766H349.469ZM350.334 69.5702C349.981 69.5702 349.685 69.4501 349.445 69.2097C349.204 68.9694 349.084 68.681 349.084 68.3445C349.084 68.008 349.204 67.7276 349.445 67.5032C349.685 67.2629 349.981 67.1427 350.334 67.1427C350.686 67.1427 350.983 67.2549 351.223 67.4792C351.464 67.7035 351.584 67.9839 351.584 68.3204C351.584 68.6729 351.464 68.9694 351.223 69.2097C350.999 69.4501 350.702 69.5702 350.334 69.5702ZM361.067 85.0967C359.849 85.0967 358.751 84.8243 357.774 84.2796C356.813 83.7187 356.051 82.9576 355.491 81.9962C354.93 81.0188 354.649 79.9052 354.649 78.6554C354.649 77.3896 354.93 76.276 355.491 75.3146C356.051 74.3532 356.813 73.6001 357.774 73.0553C358.735 72.5105 359.833 72.2381 361.067 72.2381C362.317 72.2381 363.422 72.5105 364.384 73.0553C365.361 73.6001 366.122 74.3532 366.667 75.3146C367.228 76.276 367.508 77.3896 367.508 78.6554C367.508 79.9052 367.228 81.0188 366.667 81.9962C366.122 82.9576 365.361 83.7187 364.384 84.2796C363.406 84.8243 362.301 85.0967 361.067 85.0967ZM361.067 83.5825C361.98 83.5825 362.789 83.3823 363.494 82.9817C364.199 82.5651 364.752 81.9882 365.153 81.2512C365.569 80.4981 365.778 79.6328 365.778 78.6554C365.778 77.662 365.569 76.7967 365.153 76.0596C364.752 75.3226 364.199 74.7537 363.494 74.3532C362.789 73.9366 361.988 73.7283 361.091 73.7283C360.193 73.7283 359.392 73.9366 358.687 74.3532C357.982 74.7537 357.421 75.3226 357.005 76.0596C356.588 76.7967 356.38 77.662 356.38 78.6554C356.38 79.6328 356.588 80.4981 357.005 81.2512C357.421 81.9882 357.982 82.5651 358.687 82.9817C359.392 83.3823 360.185 83.5825 361.067 83.5825ZM377.433 72.2381C378.459 72.2381 379.356 72.4384 380.125 72.839C380.91 73.2235 381.519 73.8164 381.952 74.6176C382.401 75.4187 382.625 76.4282 382.625 77.6459V84.9766H380.918V77.8142C380.918 76.4843 380.582 75.4828 379.909 74.8098C379.252 74.1208 378.323 73.7763 377.121 73.7763C376.224 73.7763 375.438 73.9606 374.765 74.3291C374.109 74.6816 373.596 75.2024 373.227 75.8914C372.875 76.5644 372.698 77.3816 372.698 78.343V84.9766H370.992V72.3583H372.626V75.8193L372.362 75.1704C372.763 74.257 373.404 73.544 374.285 73.0313C375.166 72.5025 376.216 72.2381 377.433 72.2381ZM401.432 84.9766V82.1885L401.36 81.7319V77.0691C401.36 75.9955 401.056 75.1704 400.447 74.5935C399.854 74.0167 398.965 73.7283 397.779 73.7283C396.962 73.7283 396.185 73.8645 395.447 74.1369C394.71 74.4093 394.085 74.7698 393.573 75.2184L392.804 73.9446C393.445 73.3998 394.214 72.9832 395.111 72.6948C396.008 72.3903 396.954 72.2381 397.947 72.2381C399.581 72.2381 400.839 72.6467 401.721 73.4639C402.618 74.265 403.066 75.4908 403.066 77.1412V84.9766H401.432ZM397.082 85.0967C396.136 85.0967 395.311 84.9445 394.606 84.6401C393.917 84.3196 393.388 83.887 393.02 83.3422C392.651 82.7814 392.467 82.1405 392.467 81.4194C392.467 80.7625 392.619 80.1696 392.924 79.6408C393.244 79.096 393.757 78.6634 394.462 78.343C395.183 78.0065 396.144 77.8382 397.346 77.8382H401.696V79.1121H397.394C396.176 79.1121 395.327 79.3284 394.847 79.761C394.382 80.1936 394.15 80.7304 394.15 81.3713C394.15 82.0924 394.43 82.6692 394.991 83.1018C395.552 83.5345 396.337 83.7508 397.346 83.7508C398.308 83.7508 399.133 83.5345 399.822 83.1018C400.527 82.6532 401.04 82.0123 401.36 81.1791L401.745 82.3568C401.424 83.19 400.863 83.8549 400.062 84.3517C399.277 84.8484 398.284 85.0967 397.082 85.0967ZM397.875 70.3874L393.981 67.4071H396.265L399.557 70.3874H397.875ZM420.505 85.0967C419.4 85.0967 418.406 84.8484 417.525 84.3517C416.644 83.8389 415.947 83.1018 415.434 82.1405C414.921 81.1791 414.665 80.0174 414.665 78.6554C414.665 77.2774 414.921 76.1157 415.434 75.1704C415.963 74.209 416.668 73.4799 417.549 72.9832C418.43 72.4865 419.416 72.2381 420.505 72.2381C421.707 72.2381 422.781 72.5105 423.726 73.0553C424.687 73.5841 425.44 74.3291 425.985 75.2905C426.53 76.2519 426.802 77.3735 426.802 78.6554C426.802 79.9212 426.53 81.0429 425.985 82.0203C425.44 82.9817 424.687 83.7348 423.726 84.2796C422.781 84.8243 421.707 85.0967 420.505 85.0967ZM413.992 84.9766V67.1427H415.698V76.0837L415.458 78.6314L415.626 81.1791V84.9766H413.992ZM420.385 83.5825C421.282 83.5825 422.084 83.3823 422.789 82.9817C423.494 82.5651 424.054 81.9882 424.471 81.2512C424.888 80.4981 425.096 79.6328 425.096 78.6554C425.096 77.662 424.888 76.7967 424.471 76.0596C424.054 75.3226 423.494 74.7537 422.789 74.3532C422.084 73.9366 421.282 73.7283 420.385 73.7283C419.488 73.7283 418.679 73.9366 417.958 74.3532C417.253 74.7537 416.692 75.3226 416.275 76.0596C415.875 76.7967 415.674 77.662 415.674 78.6554C415.674 79.6328 415.875 80.4981 416.275 81.2512C416.692 81.9882 417.253 82.5651 417.958 82.9817C418.679 83.3823 419.488 83.5825 420.385 83.5825ZM435.497 85.0967C434.423 85.0967 433.486 84.8964 432.685 84.4959C431.883 84.0953 431.258 83.4944 430.81 82.6933C430.377 81.8921 430.161 80.8906 430.161 79.6889V72.3583H431.867V79.4966C431.867 80.8426 432.196 81.86 432.853 82.549C433.526 83.222 434.463 83.5585 435.665 83.5585C436.546 83.5585 437.307 83.3823 437.948 83.0297C438.605 82.6612 439.102 82.1324 439.438 81.4434C439.791 80.7544 439.967 79.9292 439.967 78.9679V72.3583H441.674V84.9766H440.039V81.5155L440.304 82.1405C439.903 83.0698 439.278 83.7989 438.429 84.3276C437.596 84.8404 436.618 85.0967 435.497 85.0967ZM450.419 85.0967C449.233 85.0967 448.32 84.7763 447.679 84.1353C447.038 83.4944 446.718 82.5891 446.718 81.4194V69.5702H448.424V81.3233C448.424 82.0603 448.609 82.6292 448.977 83.0297C449.362 83.4303 449.906 83.6306 450.611 83.6306C451.365 83.6306 451.989 83.4143 452.486 82.9817L453.087 84.2074C452.751 84.5119 452.342 84.7362 451.861 84.8804C451.397 85.0246 450.916 85.0967 450.419 85.0967ZM444.459 73.7763V72.3583H452.27V73.7763H444.459ZM468.925 72.2381C469.951 72.2381 470.848 72.4384 471.617 72.839C472.402 73.2235 473.011 73.8164 473.444 74.6176C473.892 75.4187 474.117 76.4282 474.117 77.6459V84.9766H472.41V77.8142C472.41 76.4843 472.074 75.4828 471.401 74.8098C470.744 74.1208 469.815 73.7763 468.613 73.7763C467.716 73.7763 466.93 73.9606 466.257 74.3291C465.6 74.6816 465.088 75.2024 464.719 75.8914C464.367 76.5644 464.19 77.3816 464.19 78.343V84.9766H462.484V72.3583H464.118V75.8193L463.854 75.1704C464.255 74.257 464.895 73.544 465.777 73.0313C466.658 72.5025 467.708 72.2381 468.925 72.2381ZM483.87 85.0967C482.652 85.0967 481.554 84.8243 480.577 84.2796C479.616 83.7187 478.854 82.9576 478.294 81.9962C477.733 81.0188 477.452 79.9052 477.452 78.6554C477.452 77.3896 477.733 76.276 478.294 75.3146C478.854 74.3532 479.616 73.6001 480.577 73.0553C481.538 72.5105 482.636 72.2381 483.87 72.2381C485.119 72.2381 486.225 72.5105 487.186 73.0553C488.164 73.6001 488.925 74.3532 489.47 75.3146C490.031 76.276 490.311 77.3896 490.311 78.6554C490.311 79.9052 490.031 81.0188 489.47 81.9962C488.925 82.9576 488.164 83.7187 487.186 84.2796C486.209 84.8243 485.103 85.0967 483.87 85.0967ZM483.87 83.5825C484.783 83.5825 485.592 83.3823 486.297 82.9817C487.002 82.5651 487.555 81.9882 487.956 81.2512C488.372 80.4981 488.581 79.6328 488.581 78.6554C488.581 77.662 488.372 76.7967 487.956 76.0596C487.555 75.3226 487.002 74.7537 486.297 74.3532C485.592 73.9366 484.791 73.7283 483.894 73.7283C482.996 73.7283 482.195 73.9366 481.49 74.3532C480.785 74.7537 480.224 75.3226 479.808 76.0596C479.391 76.7967 479.183 77.662 479.183 78.6554C479.183 79.6328 479.391 80.4981 479.808 81.2512C480.224 81.9882 480.785 82.5651 481.49 82.9817C482.195 83.3823 482.988 83.5825 483.87 83.5825ZM500.236 72.2381C501.262 72.2381 502.159 72.4384 502.928 72.839C503.713 73.2235 504.322 73.8164 504.755 74.6176C505.203 75.4187 505.428 76.4282 505.428 77.6459V84.9766H503.721V77.8142C503.721 76.4843 503.385 75.4828 502.712 74.8098C502.055 74.1208 501.126 73.7763 499.924 73.7763C499.027 73.7763 498.241 73.9606 497.568 74.3291C496.911 74.6816 496.399 75.2024 496.03 75.8914C495.678 76.5644 495.501 77.3816 495.501 78.343V84.9766H493.795V72.3583H495.429V75.8193L495.165 75.1704C495.566 74.257 496.206 73.544 497.088 73.0313C497.969 72.5025 499.019 72.2381 500.236 72.2381ZM516.328 84.9766V67.1427H518.034V84.9766H516.328ZM527.998 85.0967C526.924 85.0967 525.987 84.8964 525.186 84.4959C524.385 84.0953 523.76 83.4944 523.311 82.6933C522.878 81.8921 522.662 80.8906 522.662 79.6889V72.3583H524.369V79.4966C524.369 80.8426 524.697 81.86 525.354 82.549C526.027 83.222 526.964 83.5585 528.166 83.5585C529.047 83.5585 529.808 83.3823 530.449 83.0297C531.106 82.6612 531.603 82.1324 531.94 81.4434C532.292 80.7544 532.468 79.9292 532.468 78.9679V72.3583H534.175V84.9766H532.54V81.5155L532.805 82.1405C532.404 83.0698 531.779 83.7989 530.93 84.3276C530.097 84.8404 529.119 85.0967 527.998 85.0967ZM544.17 85.0967C542.92 85.0967 541.799 84.8243 540.805 84.2796C539.828 83.7187 539.059 82.9576 538.498 81.9962C537.937 81.0188 537.657 79.9052 537.657 78.6554C537.657 77.3896 537.937 76.276 538.498 75.3146C539.059 74.3532 539.828 73.6001 540.805 73.0553C541.799 72.5105 542.92 72.2381 544.17 72.2381C545.244 72.2381 546.213 72.4464 547.078 72.863C547.944 73.2796 548.625 73.9045 549.121 74.7377L547.848 75.603C547.415 74.9621 546.878 74.4894 546.237 74.1849C545.596 73.8805 544.899 73.7283 544.146 73.7283C543.249 73.7283 542.44 73.9366 541.719 74.3532C540.998 74.7537 540.429 75.3226 540.012 76.0596C539.596 76.7967 539.387 77.662 539.387 78.6554C539.387 79.6488 539.596 80.5141 540.012 81.2512C540.429 81.9882 540.998 82.5651 541.719 82.9817C542.44 83.3823 543.249 83.5825 544.146 83.5825C544.899 83.5825 545.596 83.4303 546.237 83.1259C546.878 82.8214 547.415 82.3568 547.848 81.7319L549.121 82.5971C548.625 83.4143 547.944 84.0392 547.078 84.4718C546.213 84.8884 545.244 85.0967 544.17 85.0967ZM552.474 84.9766V72.3583H554.108V75.7953L553.94 75.1944C554.292 74.233 554.885 73.5039 555.718 73.0072C556.552 72.4945 557.585 72.2381 558.819 72.2381V73.8965C558.755 73.8965 558.691 73.8965 558.627 73.8965C558.563 73.8805 558.498 73.8725 558.434 73.8725C557.104 73.8725 556.063 74.2811 555.31 75.0982C554.557 75.8994 554.18 77.0451 554.18 78.5352V84.9766H552.474ZM568.901 84.9766V82.1885L568.829 81.7319V77.0691C568.829 75.9955 568.525 75.1704 567.916 74.5935C567.323 74.0167 566.434 73.7283 565.248 73.7283C564.431 73.7283 563.654 73.8645 562.917 74.1369C562.18 74.4093 561.555 74.7698 561.042 75.2184L560.273 73.9446C560.914 73.3998 561.683 72.9832 562.58 72.6948C563.477 72.3903 564.423 72.2381 565.416 72.2381C567.051 72.2381 568.308 72.6467 569.19 73.4639C570.087 74.265 570.536 75.4908 570.536 77.1412V84.9766H568.901ZM564.551 85.0967C563.606 85.0967 562.78 84.9445 562.075 84.6401C561.386 84.3196 560.858 83.887 560.489 83.3422C560.121 82.7814 559.936 82.1405 559.936 81.4194C559.936 80.7625 560.089 80.1696 560.393 79.6408C560.713 79.096 561.226 78.6634 561.931 78.343C562.652 78.0065 563.614 77.8382 564.815 77.8382H569.166V79.1121H564.863C563.646 79.1121 562.796 79.3284 562.316 79.761C561.851 80.1936 561.619 80.7304 561.619 81.3713C561.619 82.0924 561.899 82.6692 562.46 83.1018C563.021 83.5345 563.806 83.7508 564.815 83.7508C565.777 83.7508 566.602 83.5345 567.291 83.1018C567.996 82.6532 568.509 82.0123 568.829 81.1791L569.214 82.3568C568.893 83.19 568.332 83.8549 567.531 84.3517C566.746 84.8484 565.753 85.0967 564.551 85.0967ZM579.16 85.0967C577.975 85.0967 577.061 84.7763 576.42 84.1353C575.78 83.4944 575.459 82.5891 575.459 81.4194V69.5702H577.166V81.3233C577.166 82.0603 577.35 82.6292 577.718 83.0297C578.103 83.4303 578.648 83.6306 579.353 83.6306C580.106 83.6306 580.731 83.4143 581.227 82.9817L581.828 84.2074C581.492 84.5119 581.083 84.7362 580.603 84.8804C580.138 85.0246 579.657 85.0967 579.16 85.0967ZM573.2 73.7763V72.3583H581.011V73.7763H573.2ZM584.935 84.9766V72.3583H586.641V84.9766H584.935ZM585.8 69.5702C585.448 69.5702 585.151 69.4501 584.911 69.2097C584.67 68.9694 584.55 68.681 584.55 68.3445C584.55 68.008 584.67 67.7276 584.911 67.5032C585.151 67.2629 585.448 67.1427 585.8 67.1427C586.153 67.1427 586.449 67.2549 586.689 67.4792C586.93 67.7035 587.05 67.9839 587.05 68.3204C587.05 68.6729 586.93 68.9694 586.689 69.2097C586.465 69.4501 586.169 69.5702 585.8 69.5702ZM591.678 84.9766V70.772C591.678 69.6504 592.006 68.745 592.663 68.056C593.32 67.367 594.266 67.0225 595.499 67.0225C595.98 67.0225 596.445 67.0866 596.893 67.2148C597.342 67.343 597.719 67.5433 598.023 67.8157L597.446 69.0895C597.206 68.8812 596.925 68.729 596.605 68.6329C596.285 68.5207 595.94 68.4646 595.572 68.4646C594.85 68.4646 594.298 68.6649 593.913 69.0655C593.529 69.4661 593.336 70.0589 593.336 70.8441V72.7669L593.384 73.56V84.9766H591.678ZM589.419 73.7763V72.3583H597.23V73.7763H589.419Z" fill="#003333"/>
</svg>
